%
M48
M72
T01C0.0138
T02C0.0362
T03C0.0400
T04C0.0906
%
T01
X4063Y2616
X4575Y2872
X5835Y2350
X6209Y2350
X6602Y2350
X7823Y3374
X9220Y4319
X6819Y4575
X8669Y5815
X9437Y5815
X9063Y6366
X3374Y4949
X3079Y4949
X1858Y4949
T02
X10220Y5303
X10220Y4319
X10220Y3531
X10220Y2547
T03
X1031Y1287
X1031Y2287
X1031Y3287
X1031Y4287
X7031Y5287
X7031Y6287
T04
X11287Y6512
X11287Y1339
M30
