G75*
%MOIN*%
%OFA0B0*%
%FSLAX25Y25*%
%IPPOS*%
%LPD*%
%AMOC8*
5,1,8,0,0,1.08239X$1,22.5*
%
%ADD10C,0.05433*%
%ADD11C,0.13055*%
%ADD12C,0.07400*%
%ADD13C,0.02778*%
%ADD14C,0.00787*%
%ADD15C,0.01181*%
D10*
X0102205Y0025472D03*
X0102205Y0035315D03*
X0102205Y0043189D03*
X0102205Y0053031D03*
D11*
X0112874Y0065118D03*
X0112874Y0013386D03*
D12*
X0070315Y0052874D03*
X0070315Y0062874D03*
X0010315Y0042874D03*
X0010315Y0032874D03*
X0010315Y0022874D03*
X0010315Y0012874D03*
D13*
X0040630Y0026161D03*
X0045748Y0028720D03*
X0058346Y0023504D03*
X0062087Y0023504D03*
X0066024Y0023504D03*
X0078228Y0033740D03*
X0092205Y0043189D03*
X0068189Y0045748D03*
X0086693Y0058150D03*
X0094370Y0058150D03*
X0090630Y0063661D03*
X0033740Y0049488D03*
X0030787Y0049488D03*
X0018583Y0049488D03*
D14*
X0006969Y0009596D02*
X0006969Y0006969D01*
X0108225Y0006969D01*
X0107640Y0007418D01*
X0106906Y0008152D01*
X0106274Y0008976D01*
X0105754Y0009875D01*
X0105357Y0010834D01*
X0105088Y0011837D01*
X0104953Y0012867D01*
X0104953Y0012992D01*
X0112480Y0012992D01*
X0112480Y0013780D01*
X0112480Y0021307D01*
X0112355Y0021307D01*
X0111325Y0021172D01*
X0110322Y0020903D01*
X0109363Y0020505D01*
X0108464Y0019986D01*
X0107640Y0019354D01*
X0106906Y0018620D01*
X0106274Y0017796D01*
X0105754Y0016897D01*
X0105357Y0015937D01*
X0105088Y0014934D01*
X0104953Y0013905D01*
X0104953Y0013780D01*
X0112480Y0013780D01*
X0113268Y0013780D01*
X0113268Y0021307D01*
X0113393Y0021307D01*
X0114423Y0021172D01*
X0115426Y0020903D01*
X0116385Y0020505D01*
X0117284Y0019986D01*
X0118108Y0019354D01*
X0118842Y0018620D01*
X0119474Y0017796D01*
X0119994Y0016897D01*
X0120391Y0015937D01*
X0120660Y0014934D01*
X0120795Y0013905D01*
X0120795Y0013780D01*
X0113268Y0013780D01*
X0113268Y0012992D01*
X0120795Y0012992D01*
X0120795Y0012867D01*
X0120660Y0011837D01*
X0120391Y0010834D01*
X0119994Y0009875D01*
X0119474Y0008976D01*
X0118842Y0008152D01*
X0118108Y0007418D01*
X0117523Y0006969D01*
X0125079Y0006969D01*
X0125079Y0071929D01*
X0116919Y0071929D01*
X0117284Y0071719D01*
X0118108Y0071086D01*
X0118842Y0070352D01*
X0119474Y0069528D01*
X0119994Y0068629D01*
X0120391Y0067670D01*
X0120660Y0066667D01*
X0120795Y0065637D01*
X0120795Y0065512D01*
X0113268Y0065512D01*
X0113268Y0064724D01*
X0113268Y0057197D01*
X0113393Y0057197D01*
X0114423Y0057332D01*
X0115426Y0057601D01*
X0116385Y0057998D01*
X0117284Y0058518D01*
X0118108Y0059150D01*
X0118842Y0059884D01*
X0119474Y0060708D01*
X0119994Y0061607D01*
X0120391Y0062566D01*
X0120660Y0063569D01*
X0120795Y0064599D01*
X0120795Y0064724D01*
X0113268Y0064724D01*
X0112480Y0064724D01*
X0112480Y0057197D01*
X0112355Y0057197D01*
X0111325Y0057332D01*
X0110322Y0057601D01*
X0109363Y0057998D01*
X0108464Y0058518D01*
X0107640Y0059150D01*
X0106906Y0059884D01*
X0106274Y0060708D01*
X0105754Y0061607D01*
X0105357Y0062566D01*
X0105088Y0063569D01*
X0104953Y0064599D01*
X0104953Y0064724D01*
X0112480Y0064724D01*
X0112480Y0065512D01*
X0104953Y0065512D01*
X0104953Y0065637D01*
X0105088Y0066667D01*
X0105357Y0067670D01*
X0105754Y0068629D01*
X0106274Y0069528D01*
X0106906Y0070352D01*
X0107640Y0071086D01*
X0108464Y0071719D01*
X0108829Y0071929D01*
X0006969Y0071929D01*
X0006969Y0046731D01*
X0006997Y0046759D01*
X0007645Y0047231D01*
X0008360Y0047595D01*
X0009122Y0047842D01*
X0009914Y0047968D01*
X0009921Y0047968D01*
X0009921Y0043268D01*
X0010709Y0043268D01*
X0015409Y0043268D01*
X0015409Y0043275D01*
X0015283Y0044067D01*
X0015035Y0044829D01*
X0014671Y0045544D01*
X0014200Y0046192D01*
X0013633Y0046759D01*
X0012985Y0047231D01*
X0012270Y0047595D01*
X0011508Y0047842D01*
X0010716Y0047968D01*
X0010709Y0047968D01*
X0010709Y0043268D01*
X0010709Y0042480D01*
X0015409Y0042480D01*
X0015409Y0042473D01*
X0015283Y0041681D01*
X0015035Y0040919D01*
X0014671Y0040204D01*
X0014200Y0039556D01*
X0013633Y0038989D01*
X0012985Y0038517D01*
X0012270Y0038153D01*
X0011508Y0037906D01*
X0011307Y0037874D01*
X0011508Y0037842D01*
X0012270Y0037595D01*
X0012985Y0037231D01*
X0013633Y0036759D01*
X0014200Y0036192D01*
X0014671Y0035544D01*
X0015035Y0034829D01*
X0015283Y0034067D01*
X0015409Y0033275D01*
X0015409Y0033268D01*
X0010709Y0033268D01*
X0010709Y0032480D01*
X0015409Y0032480D01*
X0015409Y0032473D01*
X0015283Y0031681D01*
X0015035Y0030919D01*
X0014671Y0030204D01*
X0014200Y0029556D01*
X0013633Y0028989D01*
X0012985Y0028517D01*
X0012270Y0028153D01*
X0011508Y0027906D01*
X0010716Y0027780D01*
X0010709Y0027780D01*
X0010709Y0032480D01*
X0009921Y0032480D01*
X0009921Y0027780D01*
X0009914Y0027780D01*
X0009122Y0027906D01*
X0008360Y0028153D01*
X0007645Y0028517D01*
X0006997Y0028989D01*
X0006969Y0029017D01*
X0006969Y0026152D01*
X0007662Y0026845D01*
X0009383Y0027558D01*
X0011247Y0027558D01*
X0012968Y0026845D01*
X0014286Y0025527D01*
X0014814Y0024252D01*
X0039183Y0024252D01*
X0038257Y0025178D01*
X0038257Y0027144D01*
X0039647Y0028535D01*
X0041613Y0028535D01*
X0043003Y0027144D01*
X0043003Y0025178D01*
X0042008Y0024183D01*
X0042008Y0022303D01*
X0041201Y0021496D01*
X0014814Y0021496D01*
X0014286Y0020221D01*
X0012968Y0018903D01*
X0011247Y0018190D01*
X0009383Y0018190D01*
X0007662Y0018903D01*
X0006969Y0019596D01*
X0006969Y0016152D01*
X0007662Y0016845D01*
X0009383Y0017558D01*
X0011247Y0017558D01*
X0012968Y0016845D01*
X0014286Y0015527D01*
X0014733Y0014449D01*
X0044111Y0014449D01*
X0044173Y0014511D01*
X0044173Y0026939D01*
X0043375Y0027737D01*
X0043375Y0029703D01*
X0044765Y0031094D01*
X0046731Y0031094D01*
X0048121Y0029703D01*
X0048121Y0027737D01*
X0047323Y0026939D01*
X0047323Y0013206D01*
X0045416Y0011299D01*
X0014733Y0011299D01*
X0014286Y0010221D01*
X0012968Y0008903D01*
X0011247Y0008190D01*
X0009383Y0008190D01*
X0007662Y0008903D01*
X0006969Y0009596D01*
X0006969Y0008930D02*
X0007635Y0008930D01*
X0006969Y0008144D02*
X0106914Y0008144D01*
X0106309Y0008930D02*
X0012995Y0008930D01*
X0013781Y0009715D02*
X0105846Y0009715D01*
X0105495Y0010501D02*
X0014402Y0010501D01*
X0014728Y0011287D02*
X0105236Y0011287D01*
X0105057Y0012073D02*
X0046190Y0012073D01*
X0046976Y0012859D02*
X0104954Y0012859D01*
X0105022Y0014431D02*
X0047323Y0014431D01*
X0047323Y0015217D02*
X0105164Y0015217D01*
X0105384Y0016003D02*
X0047323Y0016003D01*
X0047323Y0016789D02*
X0105710Y0016789D01*
X0106146Y0017575D02*
X0047323Y0017575D01*
X0047323Y0018361D02*
X0106707Y0018361D01*
X0107432Y0019146D02*
X0047323Y0019146D01*
X0047323Y0019932D02*
X0108394Y0019932D01*
X0109877Y0020718D02*
X0047323Y0020718D01*
X0047323Y0021504D02*
X0125079Y0021504D01*
X0125079Y0020718D02*
X0115871Y0020718D01*
X0117355Y0019932D02*
X0125079Y0019932D01*
X0125079Y0019146D02*
X0118316Y0019146D01*
X0119041Y0018361D02*
X0125079Y0018361D01*
X0125079Y0017575D02*
X0119602Y0017575D01*
X0120038Y0016789D02*
X0125079Y0016789D01*
X0125079Y0016003D02*
X0120364Y0016003D01*
X0120584Y0015217D02*
X0125079Y0015217D01*
X0125079Y0014431D02*
X0120726Y0014431D01*
X0120794Y0012859D02*
X0125079Y0012859D01*
X0125079Y0012073D02*
X0120691Y0012073D01*
X0120512Y0011287D02*
X0125079Y0011287D01*
X0125079Y0010501D02*
X0120253Y0010501D01*
X0119902Y0009715D02*
X0125079Y0009715D01*
X0125079Y0008930D02*
X0119439Y0008930D01*
X0118834Y0008144D02*
X0125079Y0008144D01*
X0125079Y0007358D02*
X0118030Y0007358D01*
X0107718Y0007358D02*
X0006969Y0007358D01*
X0014415Y0015217D02*
X0044173Y0015217D01*
X0044173Y0016003D02*
X0013811Y0016003D01*
X0013025Y0016789D02*
X0044173Y0016789D01*
X0044173Y0017575D02*
X0006969Y0017575D01*
X0006969Y0018361D02*
X0008971Y0018361D01*
X0007418Y0019146D02*
X0006969Y0019146D01*
X0006969Y0016789D02*
X0007605Y0016789D01*
X0011659Y0018361D02*
X0044173Y0018361D01*
X0044173Y0019146D02*
X0013212Y0019146D01*
X0013998Y0019932D02*
X0044173Y0019932D01*
X0044173Y0020718D02*
X0014492Y0020718D01*
X0010315Y0022874D02*
X0040630Y0022874D01*
X0040630Y0026161D01*
X0043003Y0026220D02*
X0044173Y0026220D01*
X0044107Y0027006D02*
X0043003Y0027006D01*
X0043375Y0027791D02*
X0042356Y0027791D01*
X0043375Y0028577D02*
X0013067Y0028577D01*
X0014008Y0029363D02*
X0043375Y0029363D01*
X0043821Y0030149D02*
X0014631Y0030149D01*
X0015041Y0030935D02*
X0044606Y0030935D01*
X0046890Y0030935D02*
X0125079Y0030935D01*
X0125079Y0030149D02*
X0047676Y0030149D01*
X0048121Y0029363D02*
X0125079Y0029363D01*
X0125079Y0028577D02*
X0104333Y0028577D01*
X0104301Y0028610D02*
X0102941Y0029173D01*
X0101469Y0029173D01*
X0100108Y0028610D01*
X0099067Y0027569D01*
X0098504Y0026209D01*
X0098504Y0024736D01*
X0099067Y0023376D01*
X0100108Y0022335D01*
X0101469Y0021772D01*
X0102941Y0021772D01*
X0104301Y0022335D01*
X0105342Y0023376D01*
X0105905Y0024736D01*
X0105905Y0026209D01*
X0105342Y0027569D01*
X0104301Y0028610D01*
X0105119Y0027791D02*
X0125079Y0027791D01*
X0125079Y0027006D02*
X0105575Y0027006D01*
X0105901Y0026220D02*
X0125079Y0026220D01*
X0125079Y0025434D02*
X0105905Y0025434D01*
X0105869Y0024648D02*
X0125079Y0024648D01*
X0125079Y0023862D02*
X0105543Y0023862D01*
X0105042Y0023076D02*
X0125079Y0023076D01*
X0125079Y0022290D02*
X0104192Y0022290D01*
X0100217Y0022290D02*
X0047323Y0022290D01*
X0047323Y0023076D02*
X0099367Y0023076D01*
X0098866Y0023862D02*
X0047323Y0023862D01*
X0047323Y0024648D02*
X0098541Y0024648D01*
X0098504Y0025434D02*
X0047323Y0025434D01*
X0047323Y0026220D02*
X0098509Y0026220D01*
X0098834Y0027006D02*
X0047389Y0027006D01*
X0048121Y0027791D02*
X0099290Y0027791D01*
X0100076Y0028577D02*
X0048121Y0028577D01*
X0044173Y0025434D02*
X0043003Y0025434D01*
X0042473Y0024648D02*
X0044173Y0024648D01*
X0044173Y0023862D02*
X0042008Y0023862D01*
X0042008Y0023076D02*
X0044173Y0023076D01*
X0044173Y0022290D02*
X0041995Y0022290D01*
X0041209Y0021504D02*
X0044173Y0021504D01*
X0038787Y0024648D02*
X0014650Y0024648D01*
X0014325Y0025434D02*
X0038257Y0025434D01*
X0038257Y0026220D02*
X0013594Y0026220D01*
X0012581Y0027006D02*
X0038257Y0027006D01*
X0038904Y0027791D02*
X0010786Y0027791D01*
X0010709Y0027791D02*
X0009921Y0027791D01*
X0009844Y0027791D02*
X0006969Y0027791D01*
X0006969Y0027006D02*
X0008049Y0027006D01*
X0007036Y0026220D02*
X0006969Y0026220D01*
X0006969Y0028577D02*
X0007563Y0028577D01*
X0009921Y0028577D02*
X0010709Y0028577D01*
X0010709Y0029363D02*
X0009921Y0029363D01*
X0009921Y0030149D02*
X0010709Y0030149D01*
X0010709Y0030935D02*
X0009921Y0030935D01*
X0009921Y0031721D02*
X0010709Y0031721D01*
X0010709Y0032507D02*
X0072313Y0032507D01*
X0072655Y0032165D02*
X0076447Y0032165D01*
X0077245Y0031367D01*
X0079211Y0031367D01*
X0080602Y0032757D01*
X0080602Y0034723D01*
X0079211Y0036113D01*
X0077245Y0036113D01*
X0076447Y0035315D01*
X0074882Y0035315D01*
X0074882Y0046400D01*
X0073959Y0047323D01*
X0069970Y0047323D01*
X0069437Y0047856D01*
X0069914Y0047780D01*
X0069921Y0047780D01*
X0069921Y0052480D01*
X0070709Y0052480D01*
X0070709Y0053268D01*
X0075409Y0053268D01*
X0075409Y0053275D01*
X0075283Y0054067D01*
X0075035Y0054829D01*
X0074671Y0055544D01*
X0074200Y0056192D01*
X0073633Y0056759D01*
X0072985Y0057231D01*
X0072270Y0057595D01*
X0071508Y0057842D01*
X0070716Y0057968D01*
X0070709Y0057968D01*
X0070709Y0053268D01*
X0069921Y0053268D01*
X0069921Y0057968D01*
X0069914Y0057968D01*
X0069122Y0057842D01*
X0068360Y0057595D01*
X0067645Y0057231D01*
X0066997Y0056759D01*
X0066430Y0056192D01*
X0065958Y0055544D01*
X0065594Y0054829D01*
X0065347Y0054067D01*
X0065221Y0053275D01*
X0065221Y0053268D01*
X0069921Y0053268D01*
X0069921Y0052480D01*
X0065221Y0052480D01*
X0065221Y0052473D01*
X0065347Y0051681D01*
X0065594Y0050919D01*
X0065958Y0050204D01*
X0066430Y0049556D01*
X0066997Y0048989D01*
X0067645Y0048517D01*
X0068360Y0048153D01*
X0068459Y0048121D01*
X0067206Y0048121D01*
X0065816Y0046731D01*
X0065816Y0044765D01*
X0067206Y0043375D01*
X0069172Y0043375D01*
X0069970Y0044173D01*
X0071732Y0044173D01*
X0071732Y0033088D01*
X0072655Y0032165D01*
X0071732Y0033293D02*
X0015406Y0033293D01*
X0015279Y0034079D02*
X0071732Y0034079D01*
X0071732Y0034865D02*
X0015017Y0034865D01*
X0014594Y0035651D02*
X0071732Y0035651D01*
X0071732Y0036437D02*
X0013956Y0036437D01*
X0012996Y0037222D02*
X0071732Y0037222D01*
X0071732Y0038008D02*
X0011824Y0038008D01*
X0010709Y0038008D02*
X0009921Y0038008D01*
X0009921Y0037222D02*
X0010709Y0037222D01*
X0010709Y0037780D02*
X0010709Y0042480D01*
X0009921Y0042480D01*
X0009921Y0033268D01*
X0010709Y0033268D01*
X0010709Y0037780D01*
X0010709Y0038794D02*
X0009921Y0038794D01*
X0009921Y0039580D02*
X0010709Y0039580D01*
X0010709Y0040366D02*
X0009921Y0040366D01*
X0009921Y0041152D02*
X0010709Y0041152D01*
X0010709Y0041938D02*
X0009921Y0041938D01*
X0010709Y0042724D02*
X0071732Y0042724D01*
X0071732Y0043510D02*
X0069307Y0043510D01*
X0067071Y0043510D02*
X0015371Y0043510D01*
X0015209Y0044296D02*
X0066285Y0044296D01*
X0065816Y0045082D02*
X0014907Y0045082D01*
X0014436Y0045867D02*
X0065816Y0045867D01*
X0065816Y0046653D02*
X0013739Y0046653D01*
X0012575Y0047439D02*
X0066524Y0047439D01*
X0068219Y0048225D02*
X0006969Y0048225D01*
X0006969Y0047439D02*
X0008055Y0047439D01*
X0009921Y0047439D02*
X0010709Y0047439D01*
X0010709Y0046653D02*
X0009921Y0046653D01*
X0009921Y0045867D02*
X0010709Y0045867D01*
X0010709Y0045082D02*
X0009921Y0045082D01*
X0009921Y0044296D02*
X0010709Y0044296D01*
X0010709Y0043510D02*
X0009921Y0043510D01*
X0015324Y0041938D02*
X0071732Y0041938D01*
X0071732Y0041152D02*
X0015111Y0041152D01*
X0014754Y0040366D02*
X0071732Y0040366D01*
X0071732Y0039580D02*
X0014218Y0039580D01*
X0013366Y0038794D02*
X0071732Y0038794D01*
X0074882Y0038794D02*
X0100934Y0038794D01*
X0101469Y0039016D02*
X0100108Y0038452D01*
X0099067Y0037411D01*
X0098504Y0036051D01*
X0098504Y0034579D01*
X0099067Y0033219D01*
X0100108Y0032178D01*
X0101469Y0031614D01*
X0102941Y0031614D01*
X0104301Y0032178D01*
X0105342Y0033219D01*
X0105905Y0034579D01*
X0105905Y0036051D01*
X0105342Y0037411D01*
X0104301Y0038452D01*
X0102941Y0039016D01*
X0101469Y0039016D01*
X0101469Y0039488D02*
X0102941Y0039488D01*
X0104301Y0040052D01*
X0105342Y0041093D01*
X0105905Y0042453D01*
X0105905Y0043925D01*
X0105342Y0045285D01*
X0104301Y0046326D01*
X0102941Y0046890D01*
X0101469Y0046890D01*
X0100108Y0046326D01*
X0099067Y0045285D01*
X0098504Y0043925D01*
X0098504Y0042453D01*
X0099067Y0041093D01*
X0100108Y0040052D01*
X0101469Y0039488D01*
X0101247Y0039580D02*
X0074882Y0039580D01*
X0074882Y0040366D02*
X0099794Y0040366D01*
X0099043Y0041152D02*
X0093524Y0041152D01*
X0093188Y0040816D02*
X0094578Y0042206D01*
X0094578Y0044172D01*
X0093188Y0045562D01*
X0092205Y0045562D01*
X0092205Y0061880D01*
X0093003Y0062678D01*
X0093003Y0064644D01*
X0091613Y0066035D01*
X0089647Y0066035D01*
X0088257Y0064644D01*
X0088257Y0062678D01*
X0089055Y0061880D01*
X0089055Y0042537D01*
X0089978Y0041614D01*
X0090423Y0041614D01*
X0091222Y0040816D01*
X0093188Y0040816D01*
X0094310Y0041938D02*
X0098717Y0041938D01*
X0098504Y0042724D02*
X0094578Y0042724D01*
X0094578Y0043510D02*
X0098504Y0043510D01*
X0098657Y0044296D02*
X0094454Y0044296D01*
X0093668Y0045082D02*
X0098983Y0045082D01*
X0099650Y0045867D02*
X0092205Y0045867D01*
X0092205Y0046653D02*
X0100898Y0046653D01*
X0103512Y0046653D02*
X0125079Y0046653D01*
X0125079Y0045867D02*
X0104760Y0045867D01*
X0105426Y0045082D02*
X0125079Y0045082D01*
X0125079Y0044296D02*
X0105752Y0044296D01*
X0105905Y0043510D02*
X0125079Y0043510D01*
X0125079Y0042724D02*
X0105905Y0042724D01*
X0105692Y0041938D02*
X0125079Y0041938D01*
X0125079Y0041152D02*
X0105367Y0041152D01*
X0104616Y0040366D02*
X0125079Y0040366D01*
X0125079Y0039580D02*
X0103163Y0039580D01*
X0103476Y0038794D02*
X0125079Y0038794D01*
X0125079Y0038008D02*
X0104745Y0038008D01*
X0105420Y0037222D02*
X0125079Y0037222D01*
X0125079Y0036437D02*
X0105746Y0036437D01*
X0105905Y0035651D02*
X0125079Y0035651D01*
X0125079Y0034865D02*
X0105905Y0034865D01*
X0105698Y0034079D02*
X0125079Y0034079D01*
X0125079Y0033293D02*
X0105373Y0033293D01*
X0104630Y0032507D02*
X0125079Y0032507D01*
X0125079Y0031721D02*
X0103199Y0031721D01*
X0101211Y0031721D02*
X0079565Y0031721D01*
X0080351Y0032507D02*
X0099779Y0032507D01*
X0099037Y0033293D02*
X0080602Y0033293D01*
X0080602Y0034079D02*
X0098711Y0034079D01*
X0098504Y0034865D02*
X0080460Y0034865D01*
X0079674Y0035651D02*
X0098504Y0035651D01*
X0098664Y0036437D02*
X0074882Y0036437D01*
X0074882Y0037222D02*
X0098989Y0037222D01*
X0099664Y0038008D02*
X0074882Y0038008D01*
X0074882Y0035651D02*
X0076783Y0035651D01*
X0076891Y0031721D02*
X0015290Y0031721D01*
X0010709Y0033293D02*
X0009921Y0033293D01*
X0009921Y0034079D02*
X0010709Y0034079D01*
X0010709Y0034865D02*
X0009921Y0034865D01*
X0009921Y0035651D02*
X0010709Y0035651D01*
X0010709Y0036437D02*
X0009921Y0036437D01*
X0006969Y0049011D02*
X0066974Y0049011D01*
X0066254Y0049797D02*
X0006969Y0049797D01*
X0006969Y0050583D02*
X0065766Y0050583D01*
X0065448Y0051369D02*
X0006969Y0051369D01*
X0006969Y0052155D02*
X0065272Y0052155D01*
X0065293Y0053727D02*
X0006969Y0053727D01*
X0006969Y0054513D02*
X0065492Y0054513D01*
X0065833Y0055298D02*
X0006969Y0055298D01*
X0006969Y0056084D02*
X0066351Y0056084D01*
X0067149Y0056870D02*
X0006969Y0056870D01*
X0006969Y0057656D02*
X0068549Y0057656D01*
X0069383Y0058190D02*
X0071247Y0058190D01*
X0072968Y0058903D01*
X0074286Y0060221D01*
X0074999Y0061942D01*
X0074999Y0063806D01*
X0074286Y0065527D01*
X0072968Y0066845D01*
X0071247Y0067558D01*
X0069383Y0067558D01*
X0067662Y0066845D01*
X0066344Y0065527D01*
X0065631Y0063806D01*
X0065631Y0061942D01*
X0066344Y0060221D01*
X0067662Y0058903D01*
X0069383Y0058190D01*
X0068774Y0058442D02*
X0006969Y0058442D01*
X0006969Y0059228D02*
X0067336Y0059228D01*
X0066551Y0060014D02*
X0006969Y0060014D01*
X0006969Y0060800D02*
X0066104Y0060800D01*
X0065778Y0061586D02*
X0006969Y0061586D01*
X0006969Y0062372D02*
X0065631Y0062372D01*
X0065631Y0063158D02*
X0006969Y0063158D01*
X0006969Y0063943D02*
X0065688Y0063943D01*
X0066013Y0064729D02*
X0006969Y0064729D01*
X0006969Y0065515D02*
X0066339Y0065515D01*
X0067118Y0066301D02*
X0006969Y0066301D01*
X0006969Y0067087D02*
X0068246Y0067087D01*
X0072384Y0067087D02*
X0105201Y0067087D01*
X0105040Y0066301D02*
X0073512Y0066301D01*
X0074291Y0065515D02*
X0089128Y0065515D01*
X0088342Y0064729D02*
X0074617Y0064729D01*
X0074942Y0063943D02*
X0088257Y0063943D01*
X0088257Y0063158D02*
X0074999Y0063158D01*
X0074999Y0062372D02*
X0088563Y0062372D01*
X0089055Y0061586D02*
X0074852Y0061586D01*
X0074526Y0060800D02*
X0089055Y0060800D01*
X0089055Y0060014D02*
X0074079Y0060014D01*
X0073293Y0059228D02*
X0089055Y0059228D01*
X0089055Y0058442D02*
X0071856Y0058442D01*
X0072081Y0057656D02*
X0089055Y0057656D01*
X0089055Y0056870D02*
X0073481Y0056870D01*
X0074279Y0056084D02*
X0089055Y0056084D01*
X0089055Y0055298D02*
X0074796Y0055298D01*
X0075138Y0054513D02*
X0089055Y0054513D01*
X0089055Y0053727D02*
X0075337Y0053727D01*
X0075409Y0052480D02*
X0070709Y0052480D01*
X0070709Y0047780D01*
X0070716Y0047780D01*
X0071508Y0047906D01*
X0072270Y0048153D01*
X0072985Y0048517D01*
X0073633Y0048989D01*
X0074200Y0049556D01*
X0074671Y0050204D01*
X0075035Y0050919D01*
X0075283Y0051681D01*
X0075409Y0052473D01*
X0075409Y0052480D01*
X0075358Y0052155D02*
X0089055Y0052155D01*
X0089055Y0052941D02*
X0070709Y0052941D01*
X0070709Y0053727D02*
X0069921Y0053727D01*
X0069921Y0054513D02*
X0070709Y0054513D01*
X0070709Y0055298D02*
X0069921Y0055298D01*
X0069921Y0056084D02*
X0070709Y0056084D01*
X0070709Y0056870D02*
X0069921Y0056870D01*
X0069921Y0057656D02*
X0070709Y0057656D01*
X0069921Y0052941D02*
X0006969Y0052941D01*
X0006969Y0067873D02*
X0105441Y0067873D01*
X0105772Y0068659D02*
X0006969Y0068659D01*
X0006969Y0069445D02*
X0106225Y0069445D01*
X0106813Y0070231D02*
X0006969Y0070231D01*
X0006969Y0071017D02*
X0107570Y0071017D01*
X0108609Y0071803D02*
X0006969Y0071803D01*
X0069921Y0052155D02*
X0070709Y0052155D01*
X0070709Y0051369D02*
X0069921Y0051369D01*
X0069921Y0050583D02*
X0070709Y0050583D01*
X0070709Y0049797D02*
X0069921Y0049797D01*
X0069921Y0049011D02*
X0070709Y0049011D01*
X0070709Y0048225D02*
X0069921Y0048225D01*
X0069854Y0047439D02*
X0089055Y0047439D01*
X0089055Y0046653D02*
X0074629Y0046653D01*
X0074882Y0045867D02*
X0089055Y0045867D01*
X0089055Y0045082D02*
X0074882Y0045082D01*
X0074882Y0044296D02*
X0089055Y0044296D01*
X0089055Y0043510D02*
X0074882Y0043510D01*
X0074882Y0042724D02*
X0089055Y0042724D01*
X0089654Y0041938D02*
X0074882Y0041938D01*
X0074882Y0041152D02*
X0090885Y0041152D01*
X0092205Y0047439D02*
X0125079Y0047439D01*
X0125079Y0048225D02*
X0092205Y0048225D01*
X0092205Y0049011D02*
X0125079Y0049011D01*
X0125079Y0049797D02*
X0104067Y0049797D01*
X0104301Y0049894D02*
X0105342Y0050935D01*
X0105905Y0052295D01*
X0105905Y0053768D01*
X0105342Y0055128D01*
X0104301Y0056169D01*
X0102941Y0056732D01*
X0101469Y0056732D01*
X0100108Y0056169D01*
X0099067Y0055128D01*
X0098504Y0053768D01*
X0098504Y0052295D01*
X0099067Y0050935D01*
X0100108Y0049894D01*
X0101469Y0049331D01*
X0102941Y0049331D01*
X0104301Y0049894D01*
X0104990Y0050583D02*
X0125079Y0050583D01*
X0125079Y0051369D02*
X0105522Y0051369D01*
X0105847Y0052155D02*
X0125079Y0052155D01*
X0125079Y0052941D02*
X0105905Y0052941D01*
X0105905Y0053727D02*
X0125079Y0053727D01*
X0125079Y0054513D02*
X0105597Y0054513D01*
X0105171Y0055298D02*
X0125079Y0055298D01*
X0125079Y0056084D02*
X0104386Y0056084D01*
X0100024Y0056084D02*
X0092205Y0056084D01*
X0092205Y0055298D02*
X0099238Y0055298D01*
X0098812Y0054513D02*
X0092205Y0054513D01*
X0092205Y0053727D02*
X0098504Y0053727D01*
X0098504Y0052941D02*
X0092205Y0052941D01*
X0092205Y0052155D02*
X0098562Y0052155D01*
X0098888Y0051369D02*
X0092205Y0051369D01*
X0092205Y0050583D02*
X0099420Y0050583D01*
X0100343Y0049797D02*
X0092205Y0049797D01*
X0089055Y0049797D02*
X0074376Y0049797D01*
X0074864Y0050583D02*
X0089055Y0050583D01*
X0089055Y0051369D02*
X0075182Y0051369D01*
X0073656Y0049011D02*
X0089055Y0049011D01*
X0089055Y0048225D02*
X0072411Y0048225D01*
X0092205Y0056870D02*
X0125079Y0056870D01*
X0125079Y0057656D02*
X0115559Y0057656D01*
X0113268Y0057656D02*
X0112480Y0057656D01*
X0110189Y0057656D02*
X0092205Y0057656D01*
X0092205Y0058442D02*
X0108595Y0058442D01*
X0107562Y0059228D02*
X0092205Y0059228D01*
X0092205Y0060014D02*
X0106806Y0060014D01*
X0106220Y0060800D02*
X0092205Y0060800D01*
X0092205Y0061586D02*
X0105767Y0061586D01*
X0105438Y0062372D02*
X0092696Y0062372D01*
X0093003Y0063158D02*
X0105199Y0063158D01*
X0105039Y0063943D02*
X0093003Y0063943D01*
X0092918Y0064729D02*
X0112480Y0064729D01*
X0112480Y0063943D02*
X0113268Y0063943D01*
X0113268Y0063158D02*
X0112480Y0063158D01*
X0112480Y0062372D02*
X0113268Y0062372D01*
X0113268Y0061586D02*
X0112480Y0061586D01*
X0112480Y0060800D02*
X0113268Y0060800D01*
X0113268Y0060014D02*
X0112480Y0060014D01*
X0112480Y0059228D02*
X0113268Y0059228D01*
X0113268Y0058442D02*
X0112480Y0058442D01*
X0117153Y0058442D02*
X0125079Y0058442D01*
X0125079Y0059228D02*
X0118186Y0059228D01*
X0118942Y0060014D02*
X0125079Y0060014D01*
X0125079Y0060800D02*
X0119528Y0060800D01*
X0119981Y0061586D02*
X0125079Y0061586D01*
X0125079Y0062372D02*
X0120310Y0062372D01*
X0120549Y0063158D02*
X0125079Y0063158D01*
X0125079Y0063943D02*
X0120709Y0063943D01*
X0120795Y0065515D02*
X0125079Y0065515D01*
X0125079Y0064729D02*
X0113268Y0064729D01*
X0120547Y0067087D02*
X0125079Y0067087D01*
X0125079Y0066301D02*
X0120708Y0066301D01*
X0120307Y0067873D02*
X0125079Y0067873D01*
X0125079Y0068659D02*
X0119976Y0068659D01*
X0119523Y0069445D02*
X0125079Y0069445D01*
X0125079Y0070231D02*
X0118935Y0070231D01*
X0118178Y0071017D02*
X0125079Y0071017D01*
X0125079Y0071803D02*
X0117139Y0071803D01*
X0104953Y0065515D02*
X0092132Y0065515D01*
X0112480Y0020718D02*
X0113268Y0020718D01*
X0113268Y0019932D02*
X0112480Y0019932D01*
X0112480Y0019146D02*
X0113268Y0019146D01*
X0113268Y0018361D02*
X0112480Y0018361D01*
X0112480Y0017575D02*
X0113268Y0017575D01*
X0113268Y0016789D02*
X0112480Y0016789D01*
X0112480Y0016003D02*
X0113268Y0016003D01*
X0113268Y0015217D02*
X0112480Y0015217D01*
X0112480Y0014431D02*
X0113268Y0014431D01*
X0113268Y0013645D02*
X0125079Y0013645D01*
X0112480Y0013645D02*
X0047323Y0013645D01*
D15*
X0045748Y0013858D02*
X0044764Y0012874D01*
X0010315Y0012874D01*
X0045748Y0013858D02*
X0045748Y0028720D01*
X0073307Y0033740D02*
X0078228Y0033740D01*
X0073307Y0033740D02*
X0073307Y0045748D01*
X0068189Y0045748D01*
X0090630Y0043189D02*
X0092205Y0043189D01*
X0090630Y0043189D02*
X0090630Y0063661D01*
M02*
