G75*
%MOIN*%
%OFA0B0*%
%FSLAX25Y25*%
%IPPOS*%
%LPD*%
%AMOC8*
5,1,8,0,0,1.08239X$1,22.5*
%
%ADD10C,0.00198*%
%ADD11C,0.00277*%
%ADD12C,0.06033*%
%ADD13C,0.13655*%
%ADD14C,0.08000*%
%ADD15R,0.04537X0.04931*%
%ADD16R,0.04931X0.04537*%
%ADD17C,0.03378*%
D10*
X0021926Y0009917D02*
X0028626Y0009917D01*
X0021926Y0009917D02*
X0021926Y0011697D01*
X0028626Y0011697D01*
X0028626Y0009917D01*
X0028626Y0010114D02*
X0021926Y0010114D01*
X0021926Y0010311D02*
X0028626Y0010311D01*
X0028626Y0010508D02*
X0021926Y0010508D01*
X0021926Y0010705D02*
X0028626Y0010705D01*
X0028626Y0010902D02*
X0021926Y0010902D01*
X0021926Y0011099D02*
X0028626Y0011099D01*
X0028626Y0011296D02*
X0021926Y0011296D01*
X0021926Y0011493D02*
X0028626Y0011493D01*
X0028626Y0011690D02*
X0021926Y0011690D01*
X0021926Y0012476D02*
X0028626Y0012476D01*
X0021926Y0012476D02*
X0021926Y0014256D01*
X0028626Y0014256D01*
X0028626Y0012476D01*
X0028626Y0012673D02*
X0021926Y0012673D01*
X0021926Y0012870D02*
X0028626Y0012870D01*
X0028626Y0013067D02*
X0021926Y0013067D01*
X0021926Y0013264D02*
X0028626Y0013264D01*
X0028626Y0013461D02*
X0021926Y0013461D01*
X0021926Y0013658D02*
X0028626Y0013658D01*
X0028626Y0013855D02*
X0021926Y0013855D01*
X0021926Y0014052D02*
X0028626Y0014052D01*
X0028626Y0014249D02*
X0021926Y0014249D01*
X0021926Y0015035D02*
X0028626Y0015035D01*
X0021926Y0015035D02*
X0021926Y0016815D01*
X0028626Y0016815D01*
X0028626Y0015035D01*
X0028626Y0015232D02*
X0021926Y0015232D01*
X0021926Y0015429D02*
X0028626Y0015429D01*
X0028626Y0015626D02*
X0021926Y0015626D01*
X0021926Y0015823D02*
X0028626Y0015823D01*
X0028626Y0016020D02*
X0021926Y0016020D01*
X0021926Y0016217D02*
X0028626Y0016217D01*
X0028626Y0016414D02*
X0021926Y0016414D01*
X0021926Y0016611D02*
X0028626Y0016611D01*
X0028626Y0016808D02*
X0021926Y0016808D01*
X0021926Y0017594D02*
X0028626Y0017594D01*
X0021926Y0017594D02*
X0021926Y0019374D01*
X0028626Y0019374D01*
X0028626Y0017594D01*
X0028626Y0017791D02*
X0021926Y0017791D01*
X0021926Y0017988D02*
X0028626Y0017988D01*
X0028626Y0018185D02*
X0021926Y0018185D01*
X0021926Y0018382D02*
X0028626Y0018382D01*
X0028626Y0018579D02*
X0021926Y0018579D01*
X0021926Y0018776D02*
X0028626Y0018776D01*
X0028626Y0018973D02*
X0021926Y0018973D01*
X0021926Y0019170D02*
X0028626Y0019170D01*
X0028626Y0019367D02*
X0021926Y0019367D01*
X0021926Y0020153D02*
X0028626Y0020153D01*
X0021926Y0020153D02*
X0021926Y0021933D01*
X0028626Y0021933D01*
X0028626Y0020153D01*
X0028626Y0020350D02*
X0021926Y0020350D01*
X0021926Y0020547D02*
X0028626Y0020547D01*
X0028626Y0020744D02*
X0021926Y0020744D01*
X0021926Y0020941D02*
X0028626Y0020941D01*
X0028626Y0021138D02*
X0021926Y0021138D01*
X0021926Y0021335D02*
X0028626Y0021335D01*
X0028626Y0021532D02*
X0021926Y0021532D01*
X0021926Y0021729D02*
X0028626Y0021729D01*
X0028626Y0021926D02*
X0021926Y0021926D01*
X0021926Y0022712D02*
X0028626Y0022712D01*
X0021926Y0022712D02*
X0021926Y0024492D01*
X0028626Y0024492D01*
X0028626Y0022712D01*
X0028626Y0022909D02*
X0021926Y0022909D01*
X0021926Y0023106D02*
X0028626Y0023106D01*
X0028626Y0023303D02*
X0021926Y0023303D01*
X0021926Y0023500D02*
X0028626Y0023500D01*
X0028626Y0023697D02*
X0021926Y0023697D01*
X0021926Y0023894D02*
X0028626Y0023894D01*
X0028626Y0024091D02*
X0021926Y0024091D01*
X0021926Y0024288D02*
X0028626Y0024288D01*
X0028626Y0024485D02*
X0021926Y0024485D01*
X0021926Y0025271D02*
X0028626Y0025271D01*
X0021926Y0025271D02*
X0021926Y0027051D01*
X0028626Y0027051D01*
X0028626Y0025271D01*
X0028626Y0025468D02*
X0021926Y0025468D01*
X0021926Y0025665D02*
X0028626Y0025665D01*
X0028626Y0025862D02*
X0021926Y0025862D01*
X0021926Y0026059D02*
X0028626Y0026059D01*
X0028626Y0026256D02*
X0021926Y0026256D01*
X0021926Y0026453D02*
X0028626Y0026453D01*
X0028626Y0026650D02*
X0021926Y0026650D01*
X0021926Y0026847D02*
X0028626Y0026847D01*
X0028626Y0027044D02*
X0021926Y0027044D01*
X0021926Y0027830D02*
X0028626Y0027830D01*
X0021926Y0027830D02*
X0021926Y0029610D01*
X0028626Y0029610D01*
X0028626Y0027830D01*
X0028626Y0028027D02*
X0021926Y0028027D01*
X0021926Y0028224D02*
X0028626Y0028224D01*
X0028626Y0028421D02*
X0021926Y0028421D01*
X0021926Y0028618D02*
X0028626Y0028618D01*
X0028626Y0028815D02*
X0021926Y0028815D01*
X0021926Y0029012D02*
X0028626Y0029012D01*
X0028626Y0029209D02*
X0021926Y0029209D01*
X0021926Y0029406D02*
X0028626Y0029406D01*
X0028626Y0029603D02*
X0021926Y0029603D01*
X0047910Y0027830D02*
X0054610Y0027830D01*
X0047910Y0027830D02*
X0047910Y0029610D01*
X0054610Y0029610D01*
X0054610Y0027830D01*
X0054610Y0028027D02*
X0047910Y0028027D01*
X0047910Y0028224D02*
X0054610Y0028224D01*
X0054610Y0028421D02*
X0047910Y0028421D01*
X0047910Y0028618D02*
X0054610Y0028618D01*
X0054610Y0028815D02*
X0047910Y0028815D01*
X0047910Y0029012D02*
X0054610Y0029012D01*
X0054610Y0029209D02*
X0047910Y0029209D01*
X0047910Y0029406D02*
X0054610Y0029406D01*
X0054610Y0029603D02*
X0047910Y0029603D01*
X0047910Y0025271D02*
X0054610Y0025271D01*
X0047910Y0025271D02*
X0047910Y0027051D01*
X0054610Y0027051D01*
X0054610Y0025271D01*
X0054610Y0025468D02*
X0047910Y0025468D01*
X0047910Y0025665D02*
X0054610Y0025665D01*
X0054610Y0025862D02*
X0047910Y0025862D01*
X0047910Y0026059D02*
X0054610Y0026059D01*
X0054610Y0026256D02*
X0047910Y0026256D01*
X0047910Y0026453D02*
X0054610Y0026453D01*
X0054610Y0026650D02*
X0047910Y0026650D01*
X0047910Y0026847D02*
X0054610Y0026847D01*
X0054610Y0027044D02*
X0047910Y0027044D01*
X0047910Y0022712D02*
X0054610Y0022712D01*
X0047910Y0022712D02*
X0047910Y0024492D01*
X0054610Y0024492D01*
X0054610Y0022712D01*
X0054610Y0022909D02*
X0047910Y0022909D01*
X0047910Y0023106D02*
X0054610Y0023106D01*
X0054610Y0023303D02*
X0047910Y0023303D01*
X0047910Y0023500D02*
X0054610Y0023500D01*
X0054610Y0023697D02*
X0047910Y0023697D01*
X0047910Y0023894D02*
X0054610Y0023894D01*
X0054610Y0024091D02*
X0047910Y0024091D01*
X0047910Y0024288D02*
X0054610Y0024288D01*
X0054610Y0024485D02*
X0047910Y0024485D01*
X0047910Y0020153D02*
X0054610Y0020153D01*
X0047910Y0020153D02*
X0047910Y0021933D01*
X0054610Y0021933D01*
X0054610Y0020153D01*
X0054610Y0020350D02*
X0047910Y0020350D01*
X0047910Y0020547D02*
X0054610Y0020547D01*
X0054610Y0020744D02*
X0047910Y0020744D01*
X0047910Y0020941D02*
X0054610Y0020941D01*
X0054610Y0021138D02*
X0047910Y0021138D01*
X0047910Y0021335D02*
X0054610Y0021335D01*
X0054610Y0021532D02*
X0047910Y0021532D01*
X0047910Y0021729D02*
X0054610Y0021729D01*
X0054610Y0021926D02*
X0047910Y0021926D01*
X0047910Y0017594D02*
X0054610Y0017594D01*
X0047910Y0017594D02*
X0047910Y0019374D01*
X0054610Y0019374D01*
X0054610Y0017594D01*
X0054610Y0017791D02*
X0047910Y0017791D01*
X0047910Y0017988D02*
X0054610Y0017988D01*
X0054610Y0018185D02*
X0047910Y0018185D01*
X0047910Y0018382D02*
X0054610Y0018382D01*
X0054610Y0018579D02*
X0047910Y0018579D01*
X0047910Y0018776D02*
X0054610Y0018776D01*
X0054610Y0018973D02*
X0047910Y0018973D01*
X0047910Y0019170D02*
X0054610Y0019170D01*
X0054610Y0019367D02*
X0047910Y0019367D01*
X0047910Y0015035D02*
X0054610Y0015035D01*
X0047910Y0015035D02*
X0047910Y0016815D01*
X0054610Y0016815D01*
X0054610Y0015035D01*
X0054610Y0015232D02*
X0047910Y0015232D01*
X0047910Y0015429D02*
X0054610Y0015429D01*
X0054610Y0015626D02*
X0047910Y0015626D01*
X0047910Y0015823D02*
X0054610Y0015823D01*
X0054610Y0016020D02*
X0047910Y0016020D01*
X0047910Y0016217D02*
X0054610Y0016217D01*
X0054610Y0016414D02*
X0047910Y0016414D01*
X0047910Y0016611D02*
X0054610Y0016611D01*
X0054610Y0016808D02*
X0047910Y0016808D01*
X0047910Y0012476D02*
X0054610Y0012476D01*
X0047910Y0012476D02*
X0047910Y0014256D01*
X0054610Y0014256D01*
X0054610Y0012476D01*
X0054610Y0012673D02*
X0047910Y0012673D01*
X0047910Y0012870D02*
X0054610Y0012870D01*
X0054610Y0013067D02*
X0047910Y0013067D01*
X0047910Y0013264D02*
X0054610Y0013264D01*
X0054610Y0013461D02*
X0047910Y0013461D01*
X0047910Y0013658D02*
X0054610Y0013658D01*
X0054610Y0013855D02*
X0047910Y0013855D01*
X0047910Y0014052D02*
X0054610Y0014052D01*
X0054610Y0014249D02*
X0047910Y0014249D01*
X0047910Y0009917D02*
X0054610Y0009917D01*
X0047910Y0009917D02*
X0047910Y0011697D01*
X0054610Y0011697D01*
X0054610Y0009917D01*
X0054610Y0010114D02*
X0047910Y0010114D01*
X0047910Y0010311D02*
X0054610Y0010311D01*
X0054610Y0010508D02*
X0047910Y0010508D01*
X0047910Y0010705D02*
X0054610Y0010705D01*
X0054610Y0010902D02*
X0047910Y0010902D01*
X0047910Y0011099D02*
X0054610Y0011099D01*
X0054610Y0011296D02*
X0047910Y0011296D01*
X0047910Y0011493D02*
X0054610Y0011493D01*
X0054610Y0011690D02*
X0047910Y0011690D01*
D11*
X0065862Y0025784D02*
X0070516Y0025784D01*
X0065862Y0025784D02*
X0065862Y0028272D01*
X0070516Y0028272D01*
X0070516Y0025784D01*
X0070516Y0026060D02*
X0065862Y0026060D01*
X0065862Y0026336D02*
X0070516Y0026336D01*
X0070516Y0026612D02*
X0065862Y0026612D01*
X0065862Y0026888D02*
X0070516Y0026888D01*
X0070516Y0027164D02*
X0065862Y0027164D01*
X0065862Y0027440D02*
X0070516Y0027440D01*
X0070516Y0027716D02*
X0065862Y0027716D01*
X0065862Y0027992D02*
X0070516Y0027992D01*
X0070516Y0028268D02*
X0065862Y0028268D01*
X0065862Y0030784D02*
X0070516Y0030784D01*
X0065862Y0030784D02*
X0065862Y0033272D01*
X0070516Y0033272D01*
X0070516Y0030784D01*
X0070516Y0031060D02*
X0065862Y0031060D01*
X0065862Y0031336D02*
X0070516Y0031336D01*
X0070516Y0031612D02*
X0065862Y0031612D01*
X0065862Y0031888D02*
X0070516Y0031888D01*
X0070516Y0032164D02*
X0065862Y0032164D01*
X0065862Y0032440D02*
X0070516Y0032440D01*
X0070516Y0032716D02*
X0065862Y0032716D01*
X0065862Y0032992D02*
X0070516Y0032992D01*
X0070516Y0033268D02*
X0065862Y0033268D01*
X0065862Y0035784D02*
X0070516Y0035784D01*
X0065862Y0035784D02*
X0065862Y0038272D01*
X0070516Y0038272D01*
X0070516Y0035784D01*
X0070516Y0036060D02*
X0065862Y0036060D01*
X0065862Y0036336D02*
X0070516Y0036336D01*
X0070516Y0036612D02*
X0065862Y0036612D01*
X0065862Y0036888D02*
X0070516Y0036888D01*
X0070516Y0037164D02*
X0065862Y0037164D01*
X0065862Y0037440D02*
X0070516Y0037440D01*
X0070516Y0037716D02*
X0065862Y0037716D01*
X0065862Y0037992D02*
X0070516Y0037992D01*
X0070516Y0038268D02*
X0065862Y0038268D01*
X0065862Y0040784D02*
X0070516Y0040784D01*
X0065862Y0040784D02*
X0065862Y0043272D01*
X0070516Y0043272D01*
X0070516Y0040784D01*
X0070516Y0041060D02*
X0065862Y0041060D01*
X0065862Y0041336D02*
X0070516Y0041336D01*
X0070516Y0041612D02*
X0065862Y0041612D01*
X0065862Y0041888D02*
X0070516Y0041888D01*
X0070516Y0042164D02*
X0065862Y0042164D01*
X0065862Y0042440D02*
X0070516Y0042440D01*
X0070516Y0042716D02*
X0065862Y0042716D01*
X0065862Y0042992D02*
X0070516Y0042992D01*
X0070516Y0043268D02*
X0065862Y0043268D01*
X0085547Y0040784D02*
X0090201Y0040784D01*
X0085547Y0040784D02*
X0085547Y0043272D01*
X0090201Y0043272D01*
X0090201Y0040784D01*
X0090201Y0041060D02*
X0085547Y0041060D01*
X0085547Y0041336D02*
X0090201Y0041336D01*
X0090201Y0041612D02*
X0085547Y0041612D01*
X0085547Y0041888D02*
X0090201Y0041888D01*
X0090201Y0042164D02*
X0085547Y0042164D01*
X0085547Y0042440D02*
X0090201Y0042440D01*
X0090201Y0042716D02*
X0085547Y0042716D01*
X0085547Y0042992D02*
X0090201Y0042992D01*
X0090201Y0043268D02*
X0085547Y0043268D01*
X0085547Y0035784D02*
X0090201Y0035784D01*
X0085547Y0035784D02*
X0085547Y0038272D01*
X0090201Y0038272D01*
X0090201Y0035784D01*
X0090201Y0036060D02*
X0085547Y0036060D01*
X0085547Y0036336D02*
X0090201Y0036336D01*
X0090201Y0036612D02*
X0085547Y0036612D01*
X0085547Y0036888D02*
X0090201Y0036888D01*
X0090201Y0037164D02*
X0085547Y0037164D01*
X0085547Y0037440D02*
X0090201Y0037440D01*
X0090201Y0037716D02*
X0085547Y0037716D01*
X0085547Y0037992D02*
X0090201Y0037992D01*
X0090201Y0038268D02*
X0085547Y0038268D01*
X0085547Y0030784D02*
X0090201Y0030784D01*
X0085547Y0030784D02*
X0085547Y0033272D01*
X0090201Y0033272D01*
X0090201Y0030784D01*
X0090201Y0031060D02*
X0085547Y0031060D01*
X0085547Y0031336D02*
X0090201Y0031336D01*
X0090201Y0031612D02*
X0085547Y0031612D01*
X0085547Y0031888D02*
X0090201Y0031888D01*
X0090201Y0032164D02*
X0085547Y0032164D01*
X0085547Y0032440D02*
X0090201Y0032440D01*
X0090201Y0032716D02*
X0085547Y0032716D01*
X0085547Y0032992D02*
X0090201Y0032992D01*
X0090201Y0033268D02*
X0085547Y0033268D01*
X0085547Y0025784D02*
X0090201Y0025784D01*
X0085547Y0025784D02*
X0085547Y0028272D01*
X0090201Y0028272D01*
X0090201Y0025784D01*
X0090201Y0026060D02*
X0085547Y0026060D01*
X0085547Y0026336D02*
X0090201Y0026336D01*
X0090201Y0026612D02*
X0085547Y0026612D01*
X0085547Y0026888D02*
X0090201Y0026888D01*
X0090201Y0027164D02*
X0085547Y0027164D01*
X0085547Y0027440D02*
X0090201Y0027440D01*
X0090201Y0027716D02*
X0085547Y0027716D01*
X0085547Y0027992D02*
X0090201Y0027992D01*
X0090201Y0028268D02*
X0085547Y0028268D01*
X0046697Y0048028D02*
X0042043Y0048028D01*
X0042043Y0050516D01*
X0046697Y0050516D01*
X0046697Y0048028D01*
X0046697Y0048304D02*
X0042043Y0048304D01*
X0042043Y0048580D02*
X0046697Y0048580D01*
X0046697Y0048856D02*
X0042043Y0048856D01*
X0042043Y0049132D02*
X0046697Y0049132D01*
X0046697Y0049408D02*
X0042043Y0049408D01*
X0042043Y0049684D02*
X0046697Y0049684D01*
X0046697Y0049960D02*
X0042043Y0049960D01*
X0042043Y0050236D02*
X0046697Y0050236D01*
X0046697Y0050512D02*
X0042043Y0050512D01*
X0042043Y0053028D02*
X0046697Y0053028D01*
X0042043Y0053028D02*
X0042043Y0055516D01*
X0046697Y0055516D01*
X0046697Y0053028D01*
X0046697Y0053304D02*
X0042043Y0053304D01*
X0042043Y0053580D02*
X0046697Y0053580D01*
X0046697Y0053856D02*
X0042043Y0053856D01*
X0042043Y0054132D02*
X0046697Y0054132D01*
X0046697Y0054408D02*
X0042043Y0054408D01*
X0042043Y0054684D02*
X0046697Y0054684D01*
X0046697Y0054960D02*
X0042043Y0054960D01*
X0042043Y0055236D02*
X0046697Y0055236D01*
X0046697Y0055512D02*
X0042043Y0055512D01*
X0042043Y0058028D02*
X0046697Y0058028D01*
X0042043Y0058028D02*
X0042043Y0060516D01*
X0046697Y0060516D01*
X0046697Y0058028D01*
X0046697Y0058304D02*
X0042043Y0058304D01*
X0042043Y0058580D02*
X0046697Y0058580D01*
X0046697Y0058856D02*
X0042043Y0058856D01*
X0042043Y0059132D02*
X0046697Y0059132D01*
X0046697Y0059408D02*
X0042043Y0059408D01*
X0042043Y0059684D02*
X0046697Y0059684D01*
X0046697Y0059960D02*
X0042043Y0059960D01*
X0042043Y0060236D02*
X0046697Y0060236D01*
X0046697Y0060512D02*
X0042043Y0060512D01*
X0042043Y0063028D02*
X0046697Y0063028D01*
X0042043Y0063028D02*
X0042043Y0065516D01*
X0046697Y0065516D01*
X0046697Y0063028D01*
X0046697Y0063304D02*
X0042043Y0063304D01*
X0042043Y0063580D02*
X0046697Y0063580D01*
X0046697Y0063856D02*
X0042043Y0063856D01*
X0042043Y0064132D02*
X0046697Y0064132D01*
X0046697Y0064408D02*
X0042043Y0064408D01*
X0042043Y0064684D02*
X0046697Y0064684D01*
X0046697Y0064960D02*
X0042043Y0064960D01*
X0042043Y0065236D02*
X0046697Y0065236D01*
X0046697Y0065512D02*
X0042043Y0065512D01*
X0027012Y0063028D02*
X0022358Y0063028D01*
X0022358Y0065516D01*
X0027012Y0065516D01*
X0027012Y0063028D01*
X0027012Y0063304D02*
X0022358Y0063304D01*
X0022358Y0063580D02*
X0027012Y0063580D01*
X0027012Y0063856D02*
X0022358Y0063856D01*
X0022358Y0064132D02*
X0027012Y0064132D01*
X0027012Y0064408D02*
X0022358Y0064408D01*
X0022358Y0064684D02*
X0027012Y0064684D01*
X0027012Y0064960D02*
X0022358Y0064960D01*
X0022358Y0065236D02*
X0027012Y0065236D01*
X0027012Y0065512D02*
X0022358Y0065512D01*
X0022358Y0058028D02*
X0027012Y0058028D01*
X0022358Y0058028D02*
X0022358Y0060516D01*
X0027012Y0060516D01*
X0027012Y0058028D01*
X0027012Y0058304D02*
X0022358Y0058304D01*
X0022358Y0058580D02*
X0027012Y0058580D01*
X0027012Y0058856D02*
X0022358Y0058856D01*
X0022358Y0059132D02*
X0027012Y0059132D01*
X0027012Y0059408D02*
X0022358Y0059408D01*
X0022358Y0059684D02*
X0027012Y0059684D01*
X0027012Y0059960D02*
X0022358Y0059960D01*
X0022358Y0060236D02*
X0027012Y0060236D01*
X0027012Y0060512D02*
X0022358Y0060512D01*
X0022358Y0053028D02*
X0027012Y0053028D01*
X0022358Y0053028D02*
X0022358Y0055516D01*
X0027012Y0055516D01*
X0027012Y0053028D01*
X0027012Y0053304D02*
X0022358Y0053304D01*
X0022358Y0053580D02*
X0027012Y0053580D01*
X0027012Y0053856D02*
X0022358Y0053856D01*
X0022358Y0054132D02*
X0027012Y0054132D01*
X0027012Y0054408D02*
X0022358Y0054408D01*
X0022358Y0054684D02*
X0027012Y0054684D01*
X0027012Y0054960D02*
X0022358Y0054960D01*
X0022358Y0055236D02*
X0027012Y0055236D01*
X0027012Y0055512D02*
X0022358Y0055512D01*
X0022358Y0048028D02*
X0027012Y0048028D01*
X0022358Y0048028D02*
X0022358Y0050516D01*
X0027012Y0050516D01*
X0027012Y0048028D01*
X0027012Y0048304D02*
X0022358Y0048304D01*
X0022358Y0048580D02*
X0027012Y0048580D01*
X0027012Y0048856D02*
X0022358Y0048856D01*
X0022358Y0049132D02*
X0027012Y0049132D01*
X0027012Y0049408D02*
X0022358Y0049408D01*
X0022358Y0049684D02*
X0027012Y0049684D01*
X0027012Y0049960D02*
X0022358Y0049960D01*
X0022358Y0050236D02*
X0027012Y0050236D01*
X0027012Y0050512D02*
X0022358Y0050512D01*
D12*
X0102205Y0053031D03*
X0102205Y0043189D03*
X0102205Y0035315D03*
X0102205Y0025472D03*
D13*
X0112874Y0013386D03*
X0112874Y0065118D03*
D14*
X0070315Y0062874D03*
X0070315Y0052874D03*
X0010315Y0042874D03*
X0010315Y0032874D03*
X0010315Y0022874D03*
X0010315Y0012874D03*
D15*
X0018386Y0011693D03*
X0018386Y0018386D03*
X0018386Y0023307D03*
X0018386Y0030000D03*
X0054606Y0035709D03*
X0062283Y0035709D03*
X0062283Y0042402D03*
X0054606Y0042402D03*
X0057953Y0049291D03*
X0050276Y0049291D03*
X0050276Y0055984D03*
X0057953Y0055984D03*
X0079016Y0054213D03*
X0086693Y0054213D03*
X0094370Y0054213D03*
X0094370Y0047520D03*
X0086693Y0047520D03*
X0079016Y0047520D03*
X0093976Y0037874D03*
X0093976Y0031181D03*
X0093976Y0026260D03*
X0093976Y0019567D03*
X0066024Y0019173D03*
X0058346Y0019173D03*
X0058346Y0012480D03*
X0066024Y0012480D03*
X0018583Y0053819D03*
X0010906Y0053819D03*
X0010906Y0060512D03*
X0018583Y0060512D03*
D16*
X0035906Y0037283D03*
X0042598Y0037283D03*
D17*
X0045748Y0028720D03*
X0040630Y0026161D03*
X0058346Y0023504D03*
X0062087Y0023504D03*
X0066024Y0023504D03*
X0078228Y0033740D03*
X0092205Y0043189D03*
X0068189Y0045748D03*
X0086693Y0058150D03*
X0094370Y0058150D03*
X0090630Y0063661D03*
X0033740Y0049488D03*
X0030787Y0049488D03*
X0018583Y0049488D03*
M02*
