G75*
%MOIN*%
%OFA0B0*%
%FSLAX25Y25*%
%IPPOS*%
%LPD*%
%AMOC8*
5,1,8,0,0,1.08239X$1,22.5*
%
%ADD10C,0.00000*%
%ADD11C,0.00138*%
%ADD12C,0.00217*%
%ADD13C,0.05433*%
%ADD14C,0.13055*%
%ADD15C,0.07400*%
%ADD16R,0.03937X0.04331*%
%ADD17R,0.04331X0.03937*%
%ADD18C,0.01181*%
%ADD19C,0.01969*%
%ADD20C,0.00787*%
%ADD21C,0.02778*%
%ADD22C,0.00984*%
D10*
X0005000Y0005000D02*
X0005000Y0073898D01*
X0127047Y0073898D01*
X0127047Y0005000D01*
X0005000Y0005000D01*
D11*
X0022196Y0010187D02*
X0028356Y0010187D01*
X0022196Y0010187D02*
X0022196Y0011427D01*
X0028356Y0011427D01*
X0028356Y0010187D01*
X0028356Y0010324D02*
X0022196Y0010324D01*
X0022196Y0010461D02*
X0028356Y0010461D01*
X0028356Y0010598D02*
X0022196Y0010598D01*
X0022196Y0010735D02*
X0028356Y0010735D01*
X0028356Y0010872D02*
X0022196Y0010872D01*
X0022196Y0011009D02*
X0028356Y0011009D01*
X0028356Y0011146D02*
X0022196Y0011146D01*
X0022196Y0011283D02*
X0028356Y0011283D01*
X0028356Y0011420D02*
X0022196Y0011420D01*
X0022196Y0012746D02*
X0028356Y0012746D01*
X0022196Y0012746D02*
X0022196Y0013986D01*
X0028356Y0013986D01*
X0028356Y0012746D01*
X0028356Y0012883D02*
X0022196Y0012883D01*
X0022196Y0013020D02*
X0028356Y0013020D01*
X0028356Y0013157D02*
X0022196Y0013157D01*
X0022196Y0013294D02*
X0028356Y0013294D01*
X0028356Y0013431D02*
X0022196Y0013431D01*
X0022196Y0013568D02*
X0028356Y0013568D01*
X0028356Y0013705D02*
X0022196Y0013705D01*
X0022196Y0013842D02*
X0028356Y0013842D01*
X0028356Y0013979D02*
X0022196Y0013979D01*
X0022196Y0015305D02*
X0028356Y0015305D01*
X0022196Y0015305D02*
X0022196Y0016545D01*
X0028356Y0016545D01*
X0028356Y0015305D01*
X0028356Y0015442D02*
X0022196Y0015442D01*
X0022196Y0015579D02*
X0028356Y0015579D01*
X0028356Y0015716D02*
X0022196Y0015716D01*
X0022196Y0015853D02*
X0028356Y0015853D01*
X0028356Y0015990D02*
X0022196Y0015990D01*
X0022196Y0016127D02*
X0028356Y0016127D01*
X0028356Y0016264D02*
X0022196Y0016264D01*
X0022196Y0016401D02*
X0028356Y0016401D01*
X0028356Y0016538D02*
X0022196Y0016538D01*
X0022196Y0017864D02*
X0028356Y0017864D01*
X0022196Y0017864D02*
X0022196Y0019104D01*
X0028356Y0019104D01*
X0028356Y0017864D01*
X0028356Y0018001D02*
X0022196Y0018001D01*
X0022196Y0018138D02*
X0028356Y0018138D01*
X0028356Y0018275D02*
X0022196Y0018275D01*
X0022196Y0018412D02*
X0028356Y0018412D01*
X0028356Y0018549D02*
X0022196Y0018549D01*
X0022196Y0018686D02*
X0028356Y0018686D01*
X0028356Y0018823D02*
X0022196Y0018823D01*
X0022196Y0018960D02*
X0028356Y0018960D01*
X0028356Y0019097D02*
X0022196Y0019097D01*
X0022196Y0020423D02*
X0028356Y0020423D01*
X0022196Y0020423D02*
X0022196Y0021663D01*
X0028356Y0021663D01*
X0028356Y0020423D01*
X0028356Y0020560D02*
X0022196Y0020560D01*
X0022196Y0020697D02*
X0028356Y0020697D01*
X0028356Y0020834D02*
X0022196Y0020834D01*
X0022196Y0020971D02*
X0028356Y0020971D01*
X0028356Y0021108D02*
X0022196Y0021108D01*
X0022196Y0021245D02*
X0028356Y0021245D01*
X0028356Y0021382D02*
X0022196Y0021382D01*
X0022196Y0021519D02*
X0028356Y0021519D01*
X0028356Y0021656D02*
X0022196Y0021656D01*
X0022196Y0022982D02*
X0028356Y0022982D01*
X0022196Y0022982D02*
X0022196Y0024222D01*
X0028356Y0024222D01*
X0028356Y0022982D01*
X0028356Y0023119D02*
X0022196Y0023119D01*
X0022196Y0023256D02*
X0028356Y0023256D01*
X0028356Y0023393D02*
X0022196Y0023393D01*
X0022196Y0023530D02*
X0028356Y0023530D01*
X0028356Y0023667D02*
X0022196Y0023667D01*
X0022196Y0023804D02*
X0028356Y0023804D01*
X0028356Y0023941D02*
X0022196Y0023941D01*
X0022196Y0024078D02*
X0028356Y0024078D01*
X0028356Y0024215D02*
X0022196Y0024215D01*
X0022196Y0025541D02*
X0028356Y0025541D01*
X0022196Y0025541D02*
X0022196Y0026781D01*
X0028356Y0026781D01*
X0028356Y0025541D01*
X0028356Y0025678D02*
X0022196Y0025678D01*
X0022196Y0025815D02*
X0028356Y0025815D01*
X0028356Y0025952D02*
X0022196Y0025952D01*
X0022196Y0026089D02*
X0028356Y0026089D01*
X0028356Y0026226D02*
X0022196Y0026226D01*
X0022196Y0026363D02*
X0028356Y0026363D01*
X0028356Y0026500D02*
X0022196Y0026500D01*
X0022196Y0026637D02*
X0028356Y0026637D01*
X0028356Y0026774D02*
X0022196Y0026774D01*
X0022196Y0028100D02*
X0028356Y0028100D01*
X0022196Y0028100D02*
X0022196Y0029340D01*
X0028356Y0029340D01*
X0028356Y0028100D01*
X0028356Y0028237D02*
X0022196Y0028237D01*
X0022196Y0028374D02*
X0028356Y0028374D01*
X0028356Y0028511D02*
X0022196Y0028511D01*
X0022196Y0028648D02*
X0028356Y0028648D01*
X0028356Y0028785D02*
X0022196Y0028785D01*
X0022196Y0028922D02*
X0028356Y0028922D01*
X0028356Y0029059D02*
X0022196Y0029059D01*
X0022196Y0029196D02*
X0028356Y0029196D01*
X0028356Y0029333D02*
X0022196Y0029333D01*
X0048180Y0028100D02*
X0054340Y0028100D01*
X0048180Y0028100D02*
X0048180Y0029340D01*
X0054340Y0029340D01*
X0054340Y0028100D01*
X0054340Y0028237D02*
X0048180Y0028237D01*
X0048180Y0028374D02*
X0054340Y0028374D01*
X0054340Y0028511D02*
X0048180Y0028511D01*
X0048180Y0028648D02*
X0054340Y0028648D01*
X0054340Y0028785D02*
X0048180Y0028785D01*
X0048180Y0028922D02*
X0054340Y0028922D01*
X0054340Y0029059D02*
X0048180Y0029059D01*
X0048180Y0029196D02*
X0054340Y0029196D01*
X0054340Y0029333D02*
X0048180Y0029333D01*
X0048180Y0025541D02*
X0054340Y0025541D01*
X0048180Y0025541D02*
X0048180Y0026781D01*
X0054340Y0026781D01*
X0054340Y0025541D01*
X0054340Y0025678D02*
X0048180Y0025678D01*
X0048180Y0025815D02*
X0054340Y0025815D01*
X0054340Y0025952D02*
X0048180Y0025952D01*
X0048180Y0026089D02*
X0054340Y0026089D01*
X0054340Y0026226D02*
X0048180Y0026226D01*
X0048180Y0026363D02*
X0054340Y0026363D01*
X0054340Y0026500D02*
X0048180Y0026500D01*
X0048180Y0026637D02*
X0054340Y0026637D01*
X0054340Y0026774D02*
X0048180Y0026774D01*
X0048180Y0022982D02*
X0054340Y0022982D01*
X0048180Y0022982D02*
X0048180Y0024222D01*
X0054340Y0024222D01*
X0054340Y0022982D01*
X0054340Y0023119D02*
X0048180Y0023119D01*
X0048180Y0023256D02*
X0054340Y0023256D01*
X0054340Y0023393D02*
X0048180Y0023393D01*
X0048180Y0023530D02*
X0054340Y0023530D01*
X0054340Y0023667D02*
X0048180Y0023667D01*
X0048180Y0023804D02*
X0054340Y0023804D01*
X0054340Y0023941D02*
X0048180Y0023941D01*
X0048180Y0024078D02*
X0054340Y0024078D01*
X0054340Y0024215D02*
X0048180Y0024215D01*
X0048180Y0020423D02*
X0054340Y0020423D01*
X0048180Y0020423D02*
X0048180Y0021663D01*
X0054340Y0021663D01*
X0054340Y0020423D01*
X0054340Y0020560D02*
X0048180Y0020560D01*
X0048180Y0020697D02*
X0054340Y0020697D01*
X0054340Y0020834D02*
X0048180Y0020834D01*
X0048180Y0020971D02*
X0054340Y0020971D01*
X0054340Y0021108D02*
X0048180Y0021108D01*
X0048180Y0021245D02*
X0054340Y0021245D01*
X0054340Y0021382D02*
X0048180Y0021382D01*
X0048180Y0021519D02*
X0054340Y0021519D01*
X0054340Y0021656D02*
X0048180Y0021656D01*
X0048180Y0017864D02*
X0054340Y0017864D01*
X0048180Y0017864D02*
X0048180Y0019104D01*
X0054340Y0019104D01*
X0054340Y0017864D01*
X0054340Y0018001D02*
X0048180Y0018001D01*
X0048180Y0018138D02*
X0054340Y0018138D01*
X0054340Y0018275D02*
X0048180Y0018275D01*
X0048180Y0018412D02*
X0054340Y0018412D01*
X0054340Y0018549D02*
X0048180Y0018549D01*
X0048180Y0018686D02*
X0054340Y0018686D01*
X0054340Y0018823D02*
X0048180Y0018823D01*
X0048180Y0018960D02*
X0054340Y0018960D01*
X0054340Y0019097D02*
X0048180Y0019097D01*
X0048180Y0015305D02*
X0054340Y0015305D01*
X0048180Y0015305D02*
X0048180Y0016545D01*
X0054340Y0016545D01*
X0054340Y0015305D01*
X0054340Y0015442D02*
X0048180Y0015442D01*
X0048180Y0015579D02*
X0054340Y0015579D01*
X0054340Y0015716D02*
X0048180Y0015716D01*
X0048180Y0015853D02*
X0054340Y0015853D01*
X0054340Y0015990D02*
X0048180Y0015990D01*
X0048180Y0016127D02*
X0054340Y0016127D01*
X0054340Y0016264D02*
X0048180Y0016264D01*
X0048180Y0016401D02*
X0054340Y0016401D01*
X0054340Y0016538D02*
X0048180Y0016538D01*
X0048180Y0012746D02*
X0054340Y0012746D01*
X0048180Y0012746D02*
X0048180Y0013986D01*
X0054340Y0013986D01*
X0054340Y0012746D01*
X0054340Y0012883D02*
X0048180Y0012883D01*
X0048180Y0013020D02*
X0054340Y0013020D01*
X0054340Y0013157D02*
X0048180Y0013157D01*
X0048180Y0013294D02*
X0054340Y0013294D01*
X0054340Y0013431D02*
X0048180Y0013431D01*
X0048180Y0013568D02*
X0054340Y0013568D01*
X0054340Y0013705D02*
X0048180Y0013705D01*
X0048180Y0013842D02*
X0054340Y0013842D01*
X0054340Y0013979D02*
X0048180Y0013979D01*
X0048180Y0010187D02*
X0054340Y0010187D01*
X0048180Y0010187D02*
X0048180Y0011427D01*
X0054340Y0011427D01*
X0054340Y0010187D01*
X0054340Y0010324D02*
X0048180Y0010324D01*
X0048180Y0010461D02*
X0054340Y0010461D01*
X0054340Y0010598D02*
X0048180Y0010598D01*
X0048180Y0010735D02*
X0054340Y0010735D01*
X0054340Y0010872D02*
X0048180Y0010872D01*
X0048180Y0011009D02*
X0054340Y0011009D01*
X0054340Y0011146D02*
X0048180Y0011146D01*
X0048180Y0011283D02*
X0054340Y0011283D01*
X0054340Y0011420D02*
X0048180Y0011420D01*
D12*
X0066132Y0026054D02*
X0070246Y0026054D01*
X0066132Y0026054D02*
X0066132Y0028002D01*
X0070246Y0028002D01*
X0070246Y0026054D01*
X0070246Y0026270D02*
X0066132Y0026270D01*
X0066132Y0026486D02*
X0070246Y0026486D01*
X0070246Y0026702D02*
X0066132Y0026702D01*
X0066132Y0026918D02*
X0070246Y0026918D01*
X0070246Y0027134D02*
X0066132Y0027134D01*
X0066132Y0027350D02*
X0070246Y0027350D01*
X0070246Y0027566D02*
X0066132Y0027566D01*
X0066132Y0027782D02*
X0070246Y0027782D01*
X0070246Y0027998D02*
X0066132Y0027998D01*
X0066132Y0031054D02*
X0070246Y0031054D01*
X0066132Y0031054D02*
X0066132Y0033002D01*
X0070246Y0033002D01*
X0070246Y0031054D01*
X0070246Y0031270D02*
X0066132Y0031270D01*
X0066132Y0031486D02*
X0070246Y0031486D01*
X0070246Y0031702D02*
X0066132Y0031702D01*
X0066132Y0031918D02*
X0070246Y0031918D01*
X0070246Y0032134D02*
X0066132Y0032134D01*
X0066132Y0032350D02*
X0070246Y0032350D01*
X0070246Y0032566D02*
X0066132Y0032566D01*
X0066132Y0032782D02*
X0070246Y0032782D01*
X0070246Y0032998D02*
X0066132Y0032998D01*
X0066132Y0036054D02*
X0070246Y0036054D01*
X0066132Y0036054D02*
X0066132Y0038002D01*
X0070246Y0038002D01*
X0070246Y0036054D01*
X0070246Y0036270D02*
X0066132Y0036270D01*
X0066132Y0036486D02*
X0070246Y0036486D01*
X0070246Y0036702D02*
X0066132Y0036702D01*
X0066132Y0036918D02*
X0070246Y0036918D01*
X0070246Y0037134D02*
X0066132Y0037134D01*
X0066132Y0037350D02*
X0070246Y0037350D01*
X0070246Y0037566D02*
X0066132Y0037566D01*
X0066132Y0037782D02*
X0070246Y0037782D01*
X0070246Y0037998D02*
X0066132Y0037998D01*
X0066132Y0041054D02*
X0070246Y0041054D01*
X0066132Y0041054D02*
X0066132Y0043002D01*
X0070246Y0043002D01*
X0070246Y0041054D01*
X0070246Y0041270D02*
X0066132Y0041270D01*
X0066132Y0041486D02*
X0070246Y0041486D01*
X0070246Y0041702D02*
X0066132Y0041702D01*
X0066132Y0041918D02*
X0070246Y0041918D01*
X0070246Y0042134D02*
X0066132Y0042134D01*
X0066132Y0042350D02*
X0070246Y0042350D01*
X0070246Y0042566D02*
X0066132Y0042566D01*
X0066132Y0042782D02*
X0070246Y0042782D01*
X0070246Y0042998D02*
X0066132Y0042998D01*
X0085817Y0041054D02*
X0089931Y0041054D01*
X0085817Y0041054D02*
X0085817Y0043002D01*
X0089931Y0043002D01*
X0089931Y0041054D01*
X0089931Y0041270D02*
X0085817Y0041270D01*
X0085817Y0041486D02*
X0089931Y0041486D01*
X0089931Y0041702D02*
X0085817Y0041702D01*
X0085817Y0041918D02*
X0089931Y0041918D01*
X0089931Y0042134D02*
X0085817Y0042134D01*
X0085817Y0042350D02*
X0089931Y0042350D01*
X0089931Y0042566D02*
X0085817Y0042566D01*
X0085817Y0042782D02*
X0089931Y0042782D01*
X0089931Y0042998D02*
X0085817Y0042998D01*
X0085817Y0036054D02*
X0089931Y0036054D01*
X0085817Y0036054D02*
X0085817Y0038002D01*
X0089931Y0038002D01*
X0089931Y0036054D01*
X0089931Y0036270D02*
X0085817Y0036270D01*
X0085817Y0036486D02*
X0089931Y0036486D01*
X0089931Y0036702D02*
X0085817Y0036702D01*
X0085817Y0036918D02*
X0089931Y0036918D01*
X0089931Y0037134D02*
X0085817Y0037134D01*
X0085817Y0037350D02*
X0089931Y0037350D01*
X0089931Y0037566D02*
X0085817Y0037566D01*
X0085817Y0037782D02*
X0089931Y0037782D01*
X0089931Y0037998D02*
X0085817Y0037998D01*
X0085817Y0031054D02*
X0089931Y0031054D01*
X0085817Y0031054D02*
X0085817Y0033002D01*
X0089931Y0033002D01*
X0089931Y0031054D01*
X0089931Y0031270D02*
X0085817Y0031270D01*
X0085817Y0031486D02*
X0089931Y0031486D01*
X0089931Y0031702D02*
X0085817Y0031702D01*
X0085817Y0031918D02*
X0089931Y0031918D01*
X0089931Y0032134D02*
X0085817Y0032134D01*
X0085817Y0032350D02*
X0089931Y0032350D01*
X0089931Y0032566D02*
X0085817Y0032566D01*
X0085817Y0032782D02*
X0089931Y0032782D01*
X0089931Y0032998D02*
X0085817Y0032998D01*
X0085817Y0026054D02*
X0089931Y0026054D01*
X0085817Y0026054D02*
X0085817Y0028002D01*
X0089931Y0028002D01*
X0089931Y0026054D01*
X0089931Y0026270D02*
X0085817Y0026270D01*
X0085817Y0026486D02*
X0089931Y0026486D01*
X0089931Y0026702D02*
X0085817Y0026702D01*
X0085817Y0026918D02*
X0089931Y0026918D01*
X0089931Y0027134D02*
X0085817Y0027134D01*
X0085817Y0027350D02*
X0089931Y0027350D01*
X0089931Y0027566D02*
X0085817Y0027566D01*
X0085817Y0027782D02*
X0089931Y0027782D01*
X0089931Y0027998D02*
X0085817Y0027998D01*
X0046427Y0048298D02*
X0042313Y0048298D01*
X0042313Y0050246D01*
X0046427Y0050246D01*
X0046427Y0048298D01*
X0046427Y0048514D02*
X0042313Y0048514D01*
X0042313Y0048730D02*
X0046427Y0048730D01*
X0046427Y0048946D02*
X0042313Y0048946D01*
X0042313Y0049162D02*
X0046427Y0049162D01*
X0046427Y0049378D02*
X0042313Y0049378D01*
X0042313Y0049594D02*
X0046427Y0049594D01*
X0046427Y0049810D02*
X0042313Y0049810D01*
X0042313Y0050026D02*
X0046427Y0050026D01*
X0046427Y0050242D02*
X0042313Y0050242D01*
X0042313Y0053298D02*
X0046427Y0053298D01*
X0042313Y0053298D02*
X0042313Y0055246D01*
X0046427Y0055246D01*
X0046427Y0053298D01*
X0046427Y0053514D02*
X0042313Y0053514D01*
X0042313Y0053730D02*
X0046427Y0053730D01*
X0046427Y0053946D02*
X0042313Y0053946D01*
X0042313Y0054162D02*
X0046427Y0054162D01*
X0046427Y0054378D02*
X0042313Y0054378D01*
X0042313Y0054594D02*
X0046427Y0054594D01*
X0046427Y0054810D02*
X0042313Y0054810D01*
X0042313Y0055026D02*
X0046427Y0055026D01*
X0046427Y0055242D02*
X0042313Y0055242D01*
X0042313Y0058298D02*
X0046427Y0058298D01*
X0042313Y0058298D02*
X0042313Y0060246D01*
X0046427Y0060246D01*
X0046427Y0058298D01*
X0046427Y0058514D02*
X0042313Y0058514D01*
X0042313Y0058730D02*
X0046427Y0058730D01*
X0046427Y0058946D02*
X0042313Y0058946D01*
X0042313Y0059162D02*
X0046427Y0059162D01*
X0046427Y0059378D02*
X0042313Y0059378D01*
X0042313Y0059594D02*
X0046427Y0059594D01*
X0046427Y0059810D02*
X0042313Y0059810D01*
X0042313Y0060026D02*
X0046427Y0060026D01*
X0046427Y0060242D02*
X0042313Y0060242D01*
X0042313Y0063298D02*
X0046427Y0063298D01*
X0042313Y0063298D02*
X0042313Y0065246D01*
X0046427Y0065246D01*
X0046427Y0063298D01*
X0046427Y0063514D02*
X0042313Y0063514D01*
X0042313Y0063730D02*
X0046427Y0063730D01*
X0046427Y0063946D02*
X0042313Y0063946D01*
X0042313Y0064162D02*
X0046427Y0064162D01*
X0046427Y0064378D02*
X0042313Y0064378D01*
X0042313Y0064594D02*
X0046427Y0064594D01*
X0046427Y0064810D02*
X0042313Y0064810D01*
X0042313Y0065026D02*
X0046427Y0065026D01*
X0046427Y0065242D02*
X0042313Y0065242D01*
X0026742Y0063298D02*
X0022628Y0063298D01*
X0022628Y0065246D01*
X0026742Y0065246D01*
X0026742Y0063298D01*
X0026742Y0063514D02*
X0022628Y0063514D01*
X0022628Y0063730D02*
X0026742Y0063730D01*
X0026742Y0063946D02*
X0022628Y0063946D01*
X0022628Y0064162D02*
X0026742Y0064162D01*
X0026742Y0064378D02*
X0022628Y0064378D01*
X0022628Y0064594D02*
X0026742Y0064594D01*
X0026742Y0064810D02*
X0022628Y0064810D01*
X0022628Y0065026D02*
X0026742Y0065026D01*
X0026742Y0065242D02*
X0022628Y0065242D01*
X0022628Y0058298D02*
X0026742Y0058298D01*
X0022628Y0058298D02*
X0022628Y0060246D01*
X0026742Y0060246D01*
X0026742Y0058298D01*
X0026742Y0058514D02*
X0022628Y0058514D01*
X0022628Y0058730D02*
X0026742Y0058730D01*
X0026742Y0058946D02*
X0022628Y0058946D01*
X0022628Y0059162D02*
X0026742Y0059162D01*
X0026742Y0059378D02*
X0022628Y0059378D01*
X0022628Y0059594D02*
X0026742Y0059594D01*
X0026742Y0059810D02*
X0022628Y0059810D01*
X0022628Y0060026D02*
X0026742Y0060026D01*
X0026742Y0060242D02*
X0022628Y0060242D01*
X0022628Y0053298D02*
X0026742Y0053298D01*
X0022628Y0053298D02*
X0022628Y0055246D01*
X0026742Y0055246D01*
X0026742Y0053298D01*
X0026742Y0053514D02*
X0022628Y0053514D01*
X0022628Y0053730D02*
X0026742Y0053730D01*
X0026742Y0053946D02*
X0022628Y0053946D01*
X0022628Y0054162D02*
X0026742Y0054162D01*
X0026742Y0054378D02*
X0022628Y0054378D01*
X0022628Y0054594D02*
X0026742Y0054594D01*
X0026742Y0054810D02*
X0022628Y0054810D01*
X0022628Y0055026D02*
X0026742Y0055026D01*
X0026742Y0055242D02*
X0022628Y0055242D01*
X0022628Y0048298D02*
X0026742Y0048298D01*
X0022628Y0048298D02*
X0022628Y0050246D01*
X0026742Y0050246D01*
X0026742Y0048298D01*
X0026742Y0048514D02*
X0022628Y0048514D01*
X0022628Y0048730D02*
X0026742Y0048730D01*
X0026742Y0048946D02*
X0022628Y0048946D01*
X0022628Y0049162D02*
X0026742Y0049162D01*
X0026742Y0049378D02*
X0022628Y0049378D01*
X0022628Y0049594D02*
X0026742Y0049594D01*
X0026742Y0049810D02*
X0022628Y0049810D01*
X0022628Y0050026D02*
X0026742Y0050026D01*
X0026742Y0050242D02*
X0022628Y0050242D01*
D13*
X0102205Y0053031D03*
X0102205Y0043189D03*
X0102205Y0035315D03*
X0102205Y0025472D03*
D14*
X0112874Y0013386D03*
X0112874Y0065118D03*
D15*
X0070315Y0062874D03*
X0070315Y0052874D03*
X0010315Y0042874D03*
X0010315Y0032874D03*
X0010315Y0022874D03*
X0010315Y0012874D03*
D16*
X0018386Y0011693D03*
X0018386Y0018386D03*
X0018386Y0023307D03*
X0018386Y0030000D03*
X0054606Y0035709D03*
X0062283Y0035709D03*
X0062283Y0042402D03*
X0054606Y0042402D03*
X0057953Y0049291D03*
X0050276Y0049291D03*
X0050276Y0055984D03*
X0057953Y0055984D03*
X0079016Y0054213D03*
X0086693Y0054213D03*
X0094370Y0054213D03*
X0094370Y0047520D03*
X0086693Y0047520D03*
X0079016Y0047520D03*
X0093976Y0037874D03*
X0093976Y0031181D03*
X0093976Y0026260D03*
X0093976Y0019567D03*
X0066024Y0019173D03*
X0058346Y0019173D03*
X0058346Y0012480D03*
X0066024Y0012480D03*
X0018583Y0053819D03*
X0010906Y0053819D03*
X0010906Y0060512D03*
X0018583Y0060512D03*
D17*
X0035906Y0037283D03*
X0042598Y0037283D03*
D18*
X0051457Y0037283D01*
X0051457Y0032362D01*
X0058543Y0032362D01*
X0058543Y0031969D01*
X0068189Y0031969D01*
X0075079Y0029409D02*
X0075079Y0036988D01*
X0087874Y0036988D01*
X0093976Y0036988D01*
X0093976Y0037874D01*
X0098110Y0035315D02*
X0098110Y0019567D01*
X0093976Y0019567D01*
X0093976Y0026260D02*
X0093976Y0031181D01*
X0093976Y0032067D01*
X0087874Y0032067D01*
X0087874Y0027047D02*
X0078228Y0027047D01*
X0078228Y0033740D01*
X0075079Y0029409D02*
X0055787Y0029409D01*
X0055787Y0030591D01*
X0048110Y0030591D01*
X0048110Y0031378D01*
X0037874Y0031378D01*
X0037874Y0008937D01*
X0018386Y0008937D01*
X0018386Y0011693D01*
X0015236Y0007165D02*
X0043780Y0007165D01*
X0043780Y0013366D01*
X0051260Y0013366D01*
X0055394Y0013366D01*
X0055394Y0012480D02*
X0055394Y0010807D01*
X0051260Y0010807D01*
X0055394Y0012480D02*
X0058346Y0012480D01*
X0055394Y0012480D02*
X0055394Y0015925D01*
X0051260Y0015925D01*
X0051260Y0018484D02*
X0055394Y0018484D01*
X0055394Y0019173D02*
X0058346Y0019173D01*
X0058346Y0023504D01*
X0062087Y0023504D01*
X0064055Y0023504D01*
X0064055Y0027047D01*
X0068189Y0027047D01*
X0066024Y0023504D02*
X0064055Y0023504D01*
X0066024Y0023504D02*
X0066024Y0019173D01*
X0055394Y0019173D02*
X0055394Y0021043D01*
X0051260Y0021043D01*
X0055394Y0021043D02*
X0055394Y0023602D01*
X0051260Y0023602D01*
X0051260Y0028720D02*
X0045748Y0028720D01*
X0031181Y0031181D02*
X0031181Y0021043D01*
X0025276Y0021043D01*
X0025177Y0018386D02*
X0018386Y0018386D01*
X0025276Y0015925D02*
X0035906Y0015925D01*
X0035906Y0037283D01*
X0031181Y0031181D02*
X0018386Y0031181D01*
X0018386Y0030000D01*
X0051457Y0037283D02*
X0051457Y0045748D01*
X0057953Y0045748D01*
X0057953Y0049291D01*
X0063071Y0045748D02*
X0068189Y0045748D01*
X0063071Y0045748D02*
X0063071Y0055984D01*
X0057953Y0055984D01*
X0070315Y0062874D02*
X0070315Y0063661D01*
X0090630Y0063661D01*
X0098110Y0060906D02*
X0098110Y0043189D01*
X0102244Y0043189D01*
X0094370Y0047520D02*
X0090630Y0047520D01*
X0090630Y0043189D01*
X0092205Y0043189D01*
X0090630Y0043189D02*
X0090630Y0042008D01*
X0087874Y0042008D01*
X0079016Y0042008D02*
X0068189Y0042008D01*
X0062283Y0042008D01*
X0062283Y0042402D01*
X0062283Y0036988D02*
X0068189Y0036988D01*
X0062283Y0036988D02*
X0062283Y0035709D01*
X0079016Y0042008D02*
X0079016Y0047520D01*
X0086693Y0047520D02*
X0090630Y0047520D01*
X0079016Y0054213D02*
X0079016Y0060906D01*
X0098110Y0060906D01*
X0070315Y0063661D02*
X0070315Y0065236D01*
X0067598Y0067795D01*
X0031181Y0067795D01*
X0031181Y0059232D01*
X0024685Y0059232D01*
X0014646Y0060512D02*
X0007362Y0060512D01*
X0007362Y0048110D01*
X0015236Y0048110D01*
X0015236Y0007165D01*
X0098110Y0035315D02*
X0102244Y0035315D01*
D19*
X0066024Y0019173D02*
X0058346Y0019173D01*
X0058346Y0012480D02*
X0066024Y0012480D01*
X0062283Y0035709D02*
X0054606Y0035709D01*
X0054606Y0042402D02*
X0062283Y0042402D01*
X0049291Y0046339D02*
X0049291Y0048898D01*
X0050276Y0049291D01*
X0049291Y0046339D02*
X0037087Y0046339D01*
X0037087Y0049291D01*
X0024685Y0049291D01*
X0018583Y0049291D01*
X0018583Y0053819D01*
X0010906Y0053819D01*
X0018583Y0059232D02*
X0024685Y0059232D01*
X0018583Y0059232D02*
X0018583Y0060512D01*
X0014646Y0060512D01*
X0010906Y0060512D01*
X0044370Y0054311D02*
X0050276Y0054311D01*
X0050276Y0055984D02*
X0057953Y0055984D01*
X0018386Y0023307D02*
X0018386Y0018386D01*
D20*
X0025177Y0018386D02*
X0025276Y0018484D01*
X0055394Y0018484D02*
X0055394Y0019173D01*
X0054606Y0035709D02*
X0054606Y0036201D01*
X0037087Y0049291D02*
X0037087Y0049488D01*
X0033740Y0049488D01*
X0050276Y0054311D02*
X0050276Y0055984D01*
X0086693Y0054213D02*
X0086693Y0058150D01*
X0094370Y0058150D02*
X0094370Y0054213D01*
X0094370Y0047520D02*
X0094370Y0046339D01*
X0093976Y0038858D02*
X0093976Y0037874D01*
D21*
X0092205Y0043189D03*
X0078228Y0033740D03*
X0066024Y0023504D03*
X0062087Y0023504D03*
X0058346Y0023504D03*
X0045748Y0028720D03*
X0040630Y0026161D03*
X0068189Y0045748D03*
X0086693Y0058150D03*
X0094370Y0058150D03*
X0090630Y0063661D03*
X0033740Y0049488D03*
X0030787Y0049488D03*
X0018583Y0049488D03*
D22*
X0040630Y0026161D02*
X0051260Y0026161D01*
M02*
