G75*
%MOIN*%
%OFA0B0*%
%FSLAX25Y25*%
%IPPOS*%
%LPD*%
%AMOC8*
5,1,8,0,0,1.08239X$1,22.5*
%
%ADD10C,0.00900*%
%ADD11C,0.00700*%
%ADD12C,0.00800*%
%ADD13C,0.00500*%
%ADD14C,0.01000*%
%ADD15C,0.00400*%
D10*
X0208174Y0104741D02*
X0211341Y0104741D01*
X0209758Y0104741D02*
X0209758Y0110441D01*
X0208174Y0109175D01*
X0209663Y0100835D02*
X0212829Y0100835D01*
X0211246Y0100835D02*
X0211246Y0095135D01*
X0215052Y0096085D02*
X0215052Y0097668D01*
X0215052Y0097035D02*
X0217585Y0097035D01*
X0217585Y0097668D01*
X0217583Y0097738D01*
X0217577Y0097807D01*
X0217568Y0097877D01*
X0217554Y0097945D01*
X0217537Y0098013D01*
X0217516Y0098079D01*
X0217492Y0098145D01*
X0217464Y0098209D01*
X0217432Y0098271D01*
X0217397Y0098331D01*
X0217359Y0098390D01*
X0217318Y0098446D01*
X0217273Y0098500D01*
X0217226Y0098551D01*
X0217176Y0098600D01*
X0217123Y0098646D01*
X0217068Y0098689D01*
X0217011Y0098729D01*
X0216952Y0098765D01*
X0216890Y0098798D01*
X0216827Y0098828D01*
X0216762Y0098855D01*
X0216696Y0098877D01*
X0216629Y0098896D01*
X0216561Y0098911D01*
X0216492Y0098923D01*
X0216423Y0098931D01*
X0216353Y0098935D01*
X0216283Y0098935D01*
X0216213Y0098931D01*
X0216144Y0098923D01*
X0216075Y0098911D01*
X0216007Y0098896D01*
X0215940Y0098877D01*
X0215874Y0098855D01*
X0215809Y0098828D01*
X0215746Y0098798D01*
X0215685Y0098765D01*
X0215625Y0098729D01*
X0215568Y0098689D01*
X0215513Y0098646D01*
X0215460Y0098600D01*
X0215410Y0098551D01*
X0215363Y0098500D01*
X0215318Y0098446D01*
X0215277Y0098390D01*
X0215239Y0098331D01*
X0215204Y0098271D01*
X0215172Y0098209D01*
X0215144Y0098145D01*
X0215120Y0098079D01*
X0215099Y0098013D01*
X0215082Y0097945D01*
X0215068Y0097877D01*
X0215059Y0097807D01*
X0215053Y0097738D01*
X0215051Y0097668D01*
X0215052Y0096085D02*
X0215054Y0096025D01*
X0215059Y0095966D01*
X0215069Y0095907D01*
X0215082Y0095849D01*
X0215098Y0095791D01*
X0215119Y0095735D01*
X0215142Y0095681D01*
X0215170Y0095627D01*
X0215200Y0095576D01*
X0215233Y0095527D01*
X0215270Y0095479D01*
X0215309Y0095435D01*
X0215352Y0095392D01*
X0215396Y0095353D01*
X0215444Y0095316D01*
X0215493Y0095283D01*
X0215544Y0095253D01*
X0215598Y0095225D01*
X0215652Y0095202D01*
X0215708Y0095181D01*
X0215766Y0095165D01*
X0215824Y0095152D01*
X0215883Y0095142D01*
X0215942Y0095137D01*
X0216002Y0095135D01*
X0217585Y0095135D01*
X0220466Y0095135D02*
X0220466Y0098935D01*
X0223316Y0098935D01*
X0223376Y0098933D01*
X0223435Y0098928D01*
X0223494Y0098918D01*
X0223552Y0098905D01*
X0223610Y0098889D01*
X0223666Y0098868D01*
X0223720Y0098845D01*
X0223774Y0098817D01*
X0223825Y0098787D01*
X0223874Y0098754D01*
X0223922Y0098717D01*
X0223966Y0098678D01*
X0224009Y0098635D01*
X0224048Y0098591D01*
X0224085Y0098543D01*
X0224118Y0098494D01*
X0224148Y0098443D01*
X0224176Y0098389D01*
X0224199Y0098335D01*
X0224220Y0098279D01*
X0224236Y0098221D01*
X0224249Y0098163D01*
X0224259Y0098104D01*
X0224264Y0098045D01*
X0224266Y0097985D01*
X0224266Y0095135D01*
X0222366Y0095135D02*
X0222366Y0098935D01*
X0227381Y0098935D02*
X0228964Y0098935D01*
X0229024Y0098933D01*
X0229083Y0098928D01*
X0229142Y0098918D01*
X0229200Y0098905D01*
X0229258Y0098889D01*
X0229314Y0098868D01*
X0229368Y0098845D01*
X0229422Y0098817D01*
X0229473Y0098787D01*
X0229522Y0098754D01*
X0229570Y0098717D01*
X0229614Y0098678D01*
X0229657Y0098635D01*
X0229696Y0098591D01*
X0229733Y0098543D01*
X0229766Y0098494D01*
X0229796Y0098443D01*
X0229824Y0098389D01*
X0229847Y0098335D01*
X0229868Y0098279D01*
X0229884Y0098221D01*
X0229897Y0098163D01*
X0229907Y0098104D01*
X0229912Y0098045D01*
X0229914Y0097985D01*
X0229914Y0096085D01*
X0229912Y0096025D01*
X0229907Y0095966D01*
X0229897Y0095907D01*
X0229884Y0095849D01*
X0229868Y0095791D01*
X0229847Y0095735D01*
X0229824Y0095681D01*
X0229796Y0095627D01*
X0229766Y0095576D01*
X0229733Y0095527D01*
X0229696Y0095479D01*
X0229657Y0095435D01*
X0229614Y0095392D01*
X0229570Y0095353D01*
X0229522Y0095316D01*
X0229473Y0095283D01*
X0229422Y0095253D01*
X0229368Y0095225D01*
X0229314Y0095202D01*
X0229258Y0095181D01*
X0229200Y0095165D01*
X0229142Y0095152D01*
X0229083Y0095142D01*
X0229024Y0095137D01*
X0228964Y0095135D01*
X0227381Y0095135D01*
X0227381Y0093235D02*
X0227381Y0098935D01*
X0236206Y0098460D02*
X0237948Y0097510D01*
X0237314Y0095135D02*
X0237213Y0095137D01*
X0237113Y0095143D01*
X0237013Y0095152D01*
X0236913Y0095165D01*
X0236814Y0095182D01*
X0236715Y0095203D01*
X0236618Y0095227D01*
X0236521Y0095255D01*
X0236426Y0095287D01*
X0236331Y0095322D01*
X0236239Y0095361D01*
X0236147Y0095403D01*
X0236057Y0095448D01*
X0235970Y0095497D01*
X0235884Y0095549D01*
X0235800Y0095605D01*
X0235718Y0095663D01*
X0235638Y0095725D01*
X0235561Y0095789D01*
X0235486Y0095857D01*
X0235414Y0095927D01*
X0237948Y0097510D02*
X0238007Y0097473D01*
X0238065Y0097432D01*
X0238120Y0097389D01*
X0238173Y0097342D01*
X0238223Y0097293D01*
X0238270Y0097241D01*
X0238314Y0097186D01*
X0238356Y0097129D01*
X0238394Y0097070D01*
X0238429Y0097009D01*
X0238460Y0096946D01*
X0238488Y0096882D01*
X0238512Y0096816D01*
X0238533Y0096749D01*
X0238550Y0096681D01*
X0238564Y0096612D01*
X0238573Y0096542D01*
X0238579Y0096472D01*
X0238581Y0096402D01*
X0238579Y0096333D01*
X0238574Y0096265D01*
X0238564Y0096197D01*
X0238551Y0096130D01*
X0238535Y0096063D01*
X0238515Y0095997D01*
X0238491Y0095933D01*
X0238464Y0095870D01*
X0238433Y0095809D01*
X0238400Y0095749D01*
X0238363Y0095691D01*
X0238323Y0095635D01*
X0238280Y0095582D01*
X0238234Y0095531D01*
X0238185Y0095482D01*
X0238134Y0095436D01*
X0238081Y0095393D01*
X0238025Y0095353D01*
X0237967Y0095316D01*
X0237907Y0095283D01*
X0237846Y0095252D01*
X0237783Y0095225D01*
X0237719Y0095201D01*
X0237653Y0095181D01*
X0237586Y0095165D01*
X0237519Y0095152D01*
X0237451Y0095142D01*
X0237383Y0095137D01*
X0237314Y0095135D01*
X0238264Y0100360D02*
X0238186Y0100416D01*
X0238107Y0100468D01*
X0238025Y0100518D01*
X0237941Y0100564D01*
X0237856Y0100606D01*
X0237769Y0100645D01*
X0237680Y0100681D01*
X0237590Y0100713D01*
X0237499Y0100741D01*
X0237407Y0100766D01*
X0237313Y0100787D01*
X0237219Y0100804D01*
X0237125Y0100818D01*
X0237030Y0100827D01*
X0236935Y0100833D01*
X0236839Y0100835D01*
X0236770Y0100833D01*
X0236702Y0100828D01*
X0236634Y0100818D01*
X0236567Y0100805D01*
X0236500Y0100789D01*
X0236434Y0100769D01*
X0236370Y0100745D01*
X0236307Y0100718D01*
X0236246Y0100687D01*
X0236186Y0100654D01*
X0236128Y0100617D01*
X0236072Y0100577D01*
X0236019Y0100534D01*
X0235968Y0100488D01*
X0235919Y0100439D01*
X0235873Y0100388D01*
X0235830Y0100335D01*
X0235790Y0100279D01*
X0235753Y0100221D01*
X0235720Y0100161D01*
X0235689Y0100100D01*
X0235662Y0100037D01*
X0235638Y0099973D01*
X0235618Y0099907D01*
X0235602Y0099840D01*
X0235589Y0099773D01*
X0235579Y0099705D01*
X0235574Y0099637D01*
X0235572Y0099568D01*
X0235573Y0099568D02*
X0235575Y0099498D01*
X0235581Y0099428D01*
X0235590Y0099358D01*
X0235604Y0099289D01*
X0235621Y0099221D01*
X0235642Y0099154D01*
X0235666Y0099088D01*
X0235694Y0099024D01*
X0235725Y0098961D01*
X0235760Y0098900D01*
X0235798Y0098841D01*
X0235840Y0098784D01*
X0235884Y0098729D01*
X0235931Y0098677D01*
X0235981Y0098628D01*
X0236034Y0098581D01*
X0236089Y0098538D01*
X0236147Y0098497D01*
X0236206Y0098460D01*
X0240998Y0097668D02*
X0240998Y0096085D01*
X0240998Y0097035D02*
X0243532Y0097035D01*
X0243532Y0097668D01*
X0243530Y0097738D01*
X0243524Y0097807D01*
X0243515Y0097877D01*
X0243501Y0097945D01*
X0243484Y0098013D01*
X0243463Y0098079D01*
X0243439Y0098145D01*
X0243411Y0098209D01*
X0243379Y0098271D01*
X0243344Y0098331D01*
X0243306Y0098390D01*
X0243265Y0098446D01*
X0243220Y0098500D01*
X0243173Y0098551D01*
X0243123Y0098600D01*
X0243070Y0098646D01*
X0243015Y0098689D01*
X0242958Y0098729D01*
X0242899Y0098765D01*
X0242837Y0098798D01*
X0242774Y0098828D01*
X0242709Y0098855D01*
X0242643Y0098877D01*
X0242576Y0098896D01*
X0242508Y0098911D01*
X0242439Y0098923D01*
X0242370Y0098931D01*
X0242300Y0098935D01*
X0242230Y0098935D01*
X0242160Y0098931D01*
X0242091Y0098923D01*
X0242022Y0098911D01*
X0241954Y0098896D01*
X0241887Y0098877D01*
X0241821Y0098855D01*
X0241756Y0098828D01*
X0241693Y0098798D01*
X0241632Y0098765D01*
X0241572Y0098729D01*
X0241515Y0098689D01*
X0241460Y0098646D01*
X0241407Y0098600D01*
X0241357Y0098551D01*
X0241310Y0098500D01*
X0241265Y0098446D01*
X0241224Y0098390D01*
X0241186Y0098331D01*
X0241151Y0098271D01*
X0241119Y0098209D01*
X0241091Y0098145D01*
X0241067Y0098079D01*
X0241046Y0098013D01*
X0241029Y0097945D01*
X0241015Y0097877D01*
X0241006Y0097807D01*
X0241000Y0097738D01*
X0240998Y0097668D01*
X0240998Y0096085D02*
X0241000Y0096025D01*
X0241005Y0095966D01*
X0241015Y0095907D01*
X0241028Y0095849D01*
X0241044Y0095791D01*
X0241065Y0095735D01*
X0241088Y0095681D01*
X0241116Y0095627D01*
X0241146Y0095576D01*
X0241179Y0095527D01*
X0241216Y0095479D01*
X0241255Y0095435D01*
X0241298Y0095392D01*
X0241342Y0095353D01*
X0241390Y0095316D01*
X0241439Y0095283D01*
X0241490Y0095253D01*
X0241544Y0095225D01*
X0241598Y0095202D01*
X0241654Y0095181D01*
X0241712Y0095165D01*
X0241770Y0095152D01*
X0241829Y0095142D01*
X0241888Y0095137D01*
X0241948Y0095135D01*
X0243532Y0095135D01*
X0246266Y0095135D02*
X0246266Y0098935D01*
X0247849Y0098935D01*
X0247909Y0098933D01*
X0247968Y0098928D01*
X0248027Y0098918D01*
X0248085Y0098905D01*
X0248143Y0098889D01*
X0248199Y0098868D01*
X0248253Y0098845D01*
X0248307Y0098817D01*
X0248358Y0098787D01*
X0248407Y0098754D01*
X0248455Y0098717D01*
X0248499Y0098678D01*
X0248542Y0098635D01*
X0248581Y0098591D01*
X0248618Y0098543D01*
X0248651Y0098494D01*
X0248681Y0098443D01*
X0248709Y0098389D01*
X0248732Y0098335D01*
X0248753Y0098279D01*
X0248769Y0098221D01*
X0248782Y0098163D01*
X0248792Y0098104D01*
X0248797Y0098045D01*
X0248799Y0097985D01*
X0248799Y0095135D01*
X0252324Y0098935D02*
X0252437Y0098931D01*
X0252550Y0098924D01*
X0252663Y0098914D01*
X0252775Y0098900D01*
X0252887Y0098882D01*
X0252998Y0098861D01*
X0253108Y0098837D01*
X0253218Y0098809D01*
X0253326Y0098777D01*
X0253434Y0098742D01*
X0253540Y0098704D01*
X0253645Y0098663D01*
X0253749Y0098618D01*
X0252325Y0098935D02*
X0252269Y0098934D01*
X0252214Y0098929D01*
X0252159Y0098920D01*
X0252105Y0098908D01*
X0252051Y0098892D01*
X0251999Y0098873D01*
X0251949Y0098850D01*
X0251900Y0098824D01*
X0251853Y0098794D01*
X0251808Y0098761D01*
X0251765Y0098726D01*
X0251725Y0098687D01*
X0251688Y0098646D01*
X0251653Y0098603D01*
X0251622Y0098557D01*
X0251593Y0098509D01*
X0251568Y0098459D01*
X0251547Y0098408D01*
X0251528Y0098356D01*
X0251514Y0098302D01*
X0251503Y0098248D01*
X0251496Y0098193D01*
X0251492Y0098137D01*
X0251493Y0098082D01*
X0251497Y0098026D01*
X0251505Y0097971D01*
X0251516Y0097917D01*
X0251531Y0097863D01*
X0251550Y0097811D01*
X0251572Y0097760D01*
X0251598Y0097711D01*
X0251627Y0097663D01*
X0251659Y0097618D01*
X0251694Y0097575D01*
X0251732Y0097534D01*
X0251772Y0097496D01*
X0251815Y0097461D01*
X0251861Y0097429D01*
X0251908Y0097400D01*
X0251957Y0097374D01*
X0252008Y0097352D01*
X0253592Y0096718D01*
X0253643Y0096696D01*
X0253692Y0096670D01*
X0253739Y0096641D01*
X0253785Y0096609D01*
X0253828Y0096574D01*
X0253868Y0096536D01*
X0253906Y0096495D01*
X0253941Y0096452D01*
X0253973Y0096407D01*
X0254002Y0096359D01*
X0254028Y0096310D01*
X0254050Y0096259D01*
X0254069Y0096207D01*
X0254084Y0096153D01*
X0254095Y0096099D01*
X0254103Y0096044D01*
X0254107Y0095988D01*
X0254108Y0095933D01*
X0254104Y0095877D01*
X0254097Y0095822D01*
X0254086Y0095768D01*
X0254072Y0095714D01*
X0254053Y0095662D01*
X0254032Y0095611D01*
X0254007Y0095561D01*
X0253978Y0095513D01*
X0253947Y0095467D01*
X0253912Y0095424D01*
X0253875Y0095383D01*
X0253835Y0095344D01*
X0253792Y0095309D01*
X0253747Y0095276D01*
X0253700Y0095246D01*
X0253651Y0095220D01*
X0253601Y0095197D01*
X0253549Y0095178D01*
X0253495Y0095162D01*
X0253441Y0095150D01*
X0253386Y0095141D01*
X0253331Y0095136D01*
X0253275Y0095135D01*
X0256606Y0096402D02*
X0256606Y0097668D01*
X0256605Y0097668D02*
X0256607Y0097738D01*
X0256613Y0097807D01*
X0256622Y0097877D01*
X0256636Y0097945D01*
X0256653Y0098013D01*
X0256674Y0098079D01*
X0256698Y0098145D01*
X0256726Y0098209D01*
X0256758Y0098271D01*
X0256793Y0098331D01*
X0256831Y0098390D01*
X0256872Y0098446D01*
X0256917Y0098500D01*
X0256964Y0098551D01*
X0257014Y0098600D01*
X0257067Y0098646D01*
X0257122Y0098689D01*
X0257179Y0098729D01*
X0257239Y0098765D01*
X0257300Y0098798D01*
X0257363Y0098828D01*
X0257428Y0098855D01*
X0257494Y0098877D01*
X0257561Y0098896D01*
X0257629Y0098911D01*
X0257698Y0098923D01*
X0257767Y0098931D01*
X0257837Y0098935D01*
X0257907Y0098935D01*
X0257977Y0098931D01*
X0258046Y0098923D01*
X0258115Y0098911D01*
X0258183Y0098896D01*
X0258250Y0098877D01*
X0258316Y0098855D01*
X0258381Y0098828D01*
X0258444Y0098798D01*
X0258506Y0098765D01*
X0258565Y0098729D01*
X0258622Y0098689D01*
X0258677Y0098646D01*
X0258730Y0098600D01*
X0258780Y0098551D01*
X0258827Y0098500D01*
X0258872Y0098446D01*
X0258913Y0098390D01*
X0258951Y0098331D01*
X0258986Y0098271D01*
X0259018Y0098209D01*
X0259046Y0098145D01*
X0259070Y0098079D01*
X0259091Y0098013D01*
X0259108Y0097945D01*
X0259122Y0097877D01*
X0259131Y0097807D01*
X0259137Y0097738D01*
X0259139Y0097668D01*
X0259139Y0096402D01*
X0259137Y0096332D01*
X0259131Y0096263D01*
X0259122Y0096193D01*
X0259108Y0096125D01*
X0259091Y0096057D01*
X0259070Y0095991D01*
X0259046Y0095925D01*
X0259018Y0095861D01*
X0258986Y0095799D01*
X0258951Y0095739D01*
X0258913Y0095680D01*
X0258872Y0095624D01*
X0258827Y0095570D01*
X0258780Y0095519D01*
X0258730Y0095470D01*
X0258677Y0095424D01*
X0258622Y0095381D01*
X0258565Y0095341D01*
X0258506Y0095305D01*
X0258444Y0095272D01*
X0258381Y0095242D01*
X0258316Y0095215D01*
X0258250Y0095193D01*
X0258183Y0095174D01*
X0258115Y0095159D01*
X0258046Y0095147D01*
X0257977Y0095139D01*
X0257907Y0095135D01*
X0257837Y0095135D01*
X0257767Y0095139D01*
X0257698Y0095147D01*
X0257629Y0095159D01*
X0257561Y0095174D01*
X0257494Y0095193D01*
X0257428Y0095215D01*
X0257363Y0095242D01*
X0257300Y0095272D01*
X0257239Y0095305D01*
X0257179Y0095341D01*
X0257122Y0095381D01*
X0257067Y0095424D01*
X0257014Y0095470D01*
X0256964Y0095519D01*
X0256917Y0095570D01*
X0256872Y0095624D01*
X0256831Y0095680D01*
X0256793Y0095739D01*
X0256758Y0095799D01*
X0256726Y0095861D01*
X0256698Y0095925D01*
X0256674Y0095991D01*
X0256653Y0096057D01*
X0256636Y0096125D01*
X0256622Y0096193D01*
X0256613Y0096263D01*
X0256607Y0096332D01*
X0256605Y0096402D01*
X0261917Y0095135D02*
X0261917Y0098935D01*
X0263817Y0098935D01*
X0263817Y0098302D01*
X0266250Y0097352D02*
X0267833Y0096718D01*
X0267884Y0096696D01*
X0267933Y0096670D01*
X0267980Y0096641D01*
X0268026Y0096609D01*
X0268069Y0096574D01*
X0268109Y0096536D01*
X0268147Y0096495D01*
X0268182Y0096452D01*
X0268214Y0096407D01*
X0268243Y0096359D01*
X0268269Y0096310D01*
X0268291Y0096259D01*
X0268310Y0096207D01*
X0268325Y0096153D01*
X0268336Y0096099D01*
X0268344Y0096044D01*
X0268348Y0095988D01*
X0268349Y0095933D01*
X0268345Y0095877D01*
X0268338Y0095822D01*
X0268327Y0095768D01*
X0268313Y0095714D01*
X0268294Y0095662D01*
X0268273Y0095611D01*
X0268248Y0095561D01*
X0268219Y0095513D01*
X0268188Y0095467D01*
X0268153Y0095424D01*
X0268116Y0095383D01*
X0268076Y0095344D01*
X0268033Y0095309D01*
X0267988Y0095276D01*
X0267941Y0095246D01*
X0267892Y0095220D01*
X0267842Y0095197D01*
X0267790Y0095178D01*
X0267736Y0095162D01*
X0267682Y0095150D01*
X0267627Y0095141D01*
X0267572Y0095136D01*
X0267516Y0095135D01*
X0267991Y0098618D02*
X0267887Y0098663D01*
X0267782Y0098704D01*
X0267676Y0098742D01*
X0267568Y0098777D01*
X0267460Y0098809D01*
X0267350Y0098837D01*
X0267240Y0098861D01*
X0267129Y0098882D01*
X0267017Y0098900D01*
X0266905Y0098914D01*
X0266792Y0098924D01*
X0266679Y0098931D01*
X0266566Y0098935D01*
X0266567Y0098935D02*
X0266511Y0098934D01*
X0266456Y0098929D01*
X0266401Y0098920D01*
X0266347Y0098908D01*
X0266293Y0098892D01*
X0266241Y0098873D01*
X0266191Y0098850D01*
X0266142Y0098824D01*
X0266095Y0098794D01*
X0266050Y0098761D01*
X0266007Y0098726D01*
X0265967Y0098687D01*
X0265930Y0098646D01*
X0265895Y0098603D01*
X0265864Y0098557D01*
X0265835Y0098509D01*
X0265810Y0098459D01*
X0265789Y0098408D01*
X0265770Y0098356D01*
X0265756Y0098302D01*
X0265745Y0098248D01*
X0265738Y0098193D01*
X0265734Y0098137D01*
X0265735Y0098082D01*
X0265739Y0098026D01*
X0265747Y0097971D01*
X0265758Y0097917D01*
X0265773Y0097863D01*
X0265792Y0097811D01*
X0265814Y0097760D01*
X0265840Y0097711D01*
X0265869Y0097663D01*
X0265901Y0097618D01*
X0265936Y0097575D01*
X0265974Y0097534D01*
X0266014Y0097496D01*
X0266057Y0097461D01*
X0266103Y0097429D01*
X0266150Y0097400D01*
X0266199Y0097374D01*
X0266250Y0097352D01*
X0265775Y0095452D02*
X0265904Y0095408D01*
X0266034Y0095366D01*
X0266166Y0095328D01*
X0266298Y0095293D01*
X0266431Y0095262D01*
X0266565Y0095234D01*
X0266700Y0095210D01*
X0266835Y0095189D01*
X0266971Y0095171D01*
X0267107Y0095157D01*
X0267243Y0095146D01*
X0267380Y0095139D01*
X0267516Y0095136D01*
X0253275Y0095136D02*
X0253139Y0095139D01*
X0253002Y0095146D01*
X0252866Y0095157D01*
X0252730Y0095171D01*
X0252594Y0095189D01*
X0252459Y0095210D01*
X0252324Y0095234D01*
X0252190Y0095262D01*
X0252057Y0095293D01*
X0251925Y0095328D01*
X0251793Y0095366D01*
X0251663Y0095408D01*
X0251534Y0095452D01*
X0246341Y0104741D02*
X0243174Y0104741D01*
X0245866Y0107908D01*
X0244916Y0110442D02*
X0244834Y0110440D01*
X0244752Y0110435D01*
X0244670Y0110425D01*
X0244589Y0110413D01*
X0244508Y0110396D01*
X0244429Y0110376D01*
X0244350Y0110352D01*
X0244272Y0110325D01*
X0244196Y0110294D01*
X0244121Y0110260D01*
X0244048Y0110223D01*
X0243976Y0110182D01*
X0243907Y0110139D01*
X0243839Y0110092D01*
X0243774Y0110042D01*
X0243711Y0109989D01*
X0243650Y0109934D01*
X0243592Y0109876D01*
X0243536Y0109815D01*
X0243484Y0109752D01*
X0243434Y0109686D01*
X0243387Y0109619D01*
X0243343Y0109549D01*
X0243303Y0109477D01*
X0243266Y0109404D01*
X0243232Y0109329D01*
X0243201Y0109253D01*
X0243174Y0109175D01*
X0245866Y0107907D02*
X0245921Y0107962D01*
X0245972Y0108020D01*
X0246021Y0108080D01*
X0246067Y0108142D01*
X0246110Y0108207D01*
X0246149Y0108274D01*
X0246185Y0108342D01*
X0246217Y0108413D01*
X0246246Y0108485D01*
X0246271Y0108558D01*
X0246292Y0108633D01*
X0246310Y0108708D01*
X0246323Y0108784D01*
X0246333Y0108861D01*
X0246339Y0108939D01*
X0246341Y0109016D01*
X0246339Y0109091D01*
X0246333Y0109165D01*
X0246323Y0109239D01*
X0246310Y0109312D01*
X0246292Y0109385D01*
X0246271Y0109456D01*
X0246246Y0109527D01*
X0246218Y0109596D01*
X0246186Y0109663D01*
X0246150Y0109729D01*
X0246111Y0109792D01*
X0246069Y0109854D01*
X0246023Y0109913D01*
X0245975Y0109970D01*
X0245924Y0110024D01*
X0245870Y0110075D01*
X0245813Y0110123D01*
X0245754Y0110169D01*
X0245692Y0110211D01*
X0245629Y0110250D01*
X0245563Y0110286D01*
X0245496Y0110318D01*
X0245427Y0110346D01*
X0245356Y0110371D01*
X0245285Y0110392D01*
X0245212Y0110410D01*
X0245139Y0110423D01*
X0245065Y0110433D01*
X0244991Y0110439D01*
X0244916Y0110441D01*
X0278174Y0110441D02*
X0280074Y0110441D01*
X0280074Y0110442D02*
X0280144Y0110440D01*
X0280213Y0110434D01*
X0280283Y0110425D01*
X0280351Y0110411D01*
X0280419Y0110394D01*
X0280485Y0110373D01*
X0280551Y0110349D01*
X0280615Y0110321D01*
X0280677Y0110289D01*
X0280737Y0110254D01*
X0280796Y0110216D01*
X0280852Y0110175D01*
X0280906Y0110130D01*
X0280957Y0110083D01*
X0281006Y0110033D01*
X0281052Y0109980D01*
X0281095Y0109925D01*
X0281135Y0109868D01*
X0281171Y0109808D01*
X0281204Y0109747D01*
X0281234Y0109684D01*
X0281261Y0109619D01*
X0281283Y0109553D01*
X0281302Y0109486D01*
X0281317Y0109418D01*
X0281329Y0109349D01*
X0281337Y0109280D01*
X0281341Y0109210D01*
X0281341Y0109140D01*
X0281337Y0109070D01*
X0281329Y0109001D01*
X0281317Y0108932D01*
X0281302Y0108864D01*
X0281283Y0108797D01*
X0281261Y0108731D01*
X0281234Y0108666D01*
X0281204Y0108603D01*
X0281171Y0108541D01*
X0281135Y0108482D01*
X0281095Y0108425D01*
X0281052Y0108370D01*
X0281006Y0108317D01*
X0280957Y0108267D01*
X0280906Y0108220D01*
X0280852Y0108175D01*
X0280796Y0108134D01*
X0280737Y0108096D01*
X0280677Y0108061D01*
X0280615Y0108029D01*
X0280551Y0108001D01*
X0280485Y0107977D01*
X0280419Y0107956D01*
X0280351Y0107939D01*
X0280283Y0107925D01*
X0280213Y0107916D01*
X0280144Y0107910D01*
X0280074Y0107908D01*
X0278808Y0107908D01*
X0279758Y0107908D02*
X0279836Y0107906D01*
X0279913Y0107900D01*
X0279990Y0107891D01*
X0280067Y0107878D01*
X0280143Y0107861D01*
X0280218Y0107840D01*
X0280291Y0107815D01*
X0280364Y0107788D01*
X0280435Y0107756D01*
X0280504Y0107721D01*
X0280572Y0107683D01*
X0280637Y0107641D01*
X0280701Y0107596D01*
X0280762Y0107549D01*
X0280821Y0107498D01*
X0280877Y0107444D01*
X0280931Y0107388D01*
X0280982Y0107329D01*
X0281029Y0107268D01*
X0281074Y0107204D01*
X0281116Y0107139D01*
X0281154Y0107071D01*
X0281189Y0107002D01*
X0281221Y0106931D01*
X0281248Y0106858D01*
X0281273Y0106785D01*
X0281294Y0106710D01*
X0281311Y0106634D01*
X0281324Y0106557D01*
X0281333Y0106480D01*
X0281339Y0106403D01*
X0281341Y0106325D01*
X0281339Y0106247D01*
X0281333Y0106170D01*
X0281324Y0106093D01*
X0281311Y0106016D01*
X0281294Y0105940D01*
X0281273Y0105865D01*
X0281248Y0105792D01*
X0281221Y0105719D01*
X0281189Y0105648D01*
X0281154Y0105579D01*
X0281116Y0105511D01*
X0281074Y0105446D01*
X0281029Y0105382D01*
X0280982Y0105321D01*
X0280931Y0105262D01*
X0280877Y0105206D01*
X0280821Y0105152D01*
X0280762Y0105101D01*
X0280701Y0105054D01*
X0280637Y0105009D01*
X0280572Y0104967D01*
X0280504Y0104929D01*
X0280435Y0104894D01*
X0280364Y0104862D01*
X0280291Y0104835D01*
X0280218Y0104810D01*
X0280143Y0104789D01*
X0280067Y0104772D01*
X0279990Y0104759D01*
X0279913Y0104750D01*
X0279836Y0104744D01*
X0279758Y0104742D01*
X0279758Y0104741D02*
X0278174Y0104741D01*
X0200259Y0146167D02*
X0198675Y0146167D01*
X0198615Y0146169D01*
X0198556Y0146174D01*
X0198497Y0146184D01*
X0198439Y0146197D01*
X0198381Y0146213D01*
X0198325Y0146234D01*
X0198271Y0146257D01*
X0198217Y0146285D01*
X0198166Y0146315D01*
X0198117Y0146348D01*
X0198069Y0146385D01*
X0198025Y0146424D01*
X0197982Y0146467D01*
X0197943Y0146511D01*
X0197906Y0146559D01*
X0197873Y0146608D01*
X0197843Y0146659D01*
X0197815Y0146713D01*
X0197792Y0146767D01*
X0197771Y0146823D01*
X0197755Y0146881D01*
X0197742Y0146939D01*
X0197732Y0146998D01*
X0197727Y0147057D01*
X0197725Y0147117D01*
X0197725Y0148700D01*
X0197725Y0148067D02*
X0200259Y0148067D01*
X0200259Y0148700D01*
X0200257Y0148770D01*
X0200251Y0148839D01*
X0200242Y0148909D01*
X0200228Y0148977D01*
X0200211Y0149045D01*
X0200190Y0149111D01*
X0200166Y0149177D01*
X0200138Y0149241D01*
X0200106Y0149303D01*
X0200071Y0149363D01*
X0200033Y0149422D01*
X0199992Y0149478D01*
X0199947Y0149532D01*
X0199900Y0149583D01*
X0199850Y0149632D01*
X0199797Y0149678D01*
X0199742Y0149721D01*
X0199685Y0149761D01*
X0199626Y0149797D01*
X0199564Y0149830D01*
X0199501Y0149860D01*
X0199436Y0149887D01*
X0199370Y0149909D01*
X0199303Y0149928D01*
X0199235Y0149943D01*
X0199166Y0149955D01*
X0199097Y0149963D01*
X0199027Y0149967D01*
X0198957Y0149967D01*
X0198887Y0149963D01*
X0198818Y0149955D01*
X0198749Y0149943D01*
X0198681Y0149928D01*
X0198614Y0149909D01*
X0198548Y0149887D01*
X0198483Y0149860D01*
X0198420Y0149830D01*
X0198359Y0149797D01*
X0198299Y0149761D01*
X0198242Y0149721D01*
X0198187Y0149678D01*
X0198134Y0149632D01*
X0198084Y0149583D01*
X0198037Y0149532D01*
X0197992Y0149478D01*
X0197951Y0149422D01*
X0197913Y0149363D01*
X0197878Y0149303D01*
X0197846Y0149241D01*
X0197818Y0149177D01*
X0197794Y0149111D01*
X0197773Y0149045D01*
X0197756Y0148977D01*
X0197742Y0148909D01*
X0197733Y0148839D01*
X0197727Y0148770D01*
X0197725Y0148700D01*
X0195768Y0149333D02*
X0195768Y0149967D01*
X0193868Y0149967D01*
X0193868Y0146167D01*
X0190894Y0146167D02*
X0190894Y0149967D01*
X0188361Y0149967D02*
X0188361Y0147117D01*
X0188363Y0147057D01*
X0188368Y0146998D01*
X0188378Y0146939D01*
X0188391Y0146881D01*
X0188407Y0146823D01*
X0188428Y0146767D01*
X0188451Y0146713D01*
X0188479Y0146659D01*
X0188509Y0146608D01*
X0188542Y0146559D01*
X0188579Y0146511D01*
X0188618Y0146467D01*
X0188661Y0146424D01*
X0188705Y0146385D01*
X0188753Y0146348D01*
X0188802Y0146315D01*
X0188853Y0146285D01*
X0188907Y0146257D01*
X0188961Y0146234D01*
X0189017Y0146213D01*
X0189075Y0146197D01*
X0189133Y0146184D01*
X0189192Y0146174D01*
X0189251Y0146169D01*
X0189311Y0146167D01*
X0190894Y0146167D01*
X0185152Y0147750D02*
X0183569Y0148383D01*
X0183569Y0148384D02*
X0183518Y0148406D01*
X0183469Y0148432D01*
X0183422Y0148461D01*
X0183376Y0148493D01*
X0183333Y0148528D01*
X0183293Y0148566D01*
X0183255Y0148607D01*
X0183220Y0148650D01*
X0183188Y0148695D01*
X0183159Y0148743D01*
X0183133Y0148792D01*
X0183111Y0148843D01*
X0183092Y0148895D01*
X0183077Y0148949D01*
X0183066Y0149003D01*
X0183058Y0149058D01*
X0183054Y0149114D01*
X0183053Y0149169D01*
X0183057Y0149225D01*
X0183064Y0149280D01*
X0183075Y0149334D01*
X0183089Y0149388D01*
X0183108Y0149440D01*
X0183129Y0149491D01*
X0183154Y0149541D01*
X0183183Y0149589D01*
X0183214Y0149635D01*
X0183249Y0149678D01*
X0183286Y0149719D01*
X0183326Y0149758D01*
X0183369Y0149793D01*
X0183414Y0149826D01*
X0183461Y0149856D01*
X0183510Y0149882D01*
X0183560Y0149905D01*
X0183612Y0149924D01*
X0183666Y0149940D01*
X0183720Y0149952D01*
X0183775Y0149961D01*
X0183830Y0149966D01*
X0183886Y0149967D01*
X0183094Y0146483D02*
X0183223Y0146439D01*
X0183353Y0146397D01*
X0183485Y0146359D01*
X0183617Y0146324D01*
X0183750Y0146293D01*
X0183884Y0146265D01*
X0184019Y0146241D01*
X0184154Y0146220D01*
X0184290Y0146202D01*
X0184426Y0146188D01*
X0184562Y0146177D01*
X0184699Y0146170D01*
X0184835Y0146167D01*
X0184891Y0146168D01*
X0184946Y0146173D01*
X0185001Y0146182D01*
X0185055Y0146194D01*
X0185109Y0146210D01*
X0185161Y0146229D01*
X0185211Y0146252D01*
X0185260Y0146278D01*
X0185307Y0146308D01*
X0185352Y0146341D01*
X0185395Y0146376D01*
X0185435Y0146415D01*
X0185472Y0146456D01*
X0185507Y0146499D01*
X0185538Y0146545D01*
X0185567Y0146593D01*
X0185592Y0146643D01*
X0185613Y0146694D01*
X0185632Y0146746D01*
X0185646Y0146800D01*
X0185657Y0146854D01*
X0185664Y0146909D01*
X0185668Y0146965D01*
X0185667Y0147020D01*
X0185663Y0147076D01*
X0185655Y0147131D01*
X0185644Y0147185D01*
X0185629Y0147239D01*
X0185610Y0147291D01*
X0185588Y0147342D01*
X0185562Y0147391D01*
X0185533Y0147439D01*
X0185501Y0147484D01*
X0185466Y0147527D01*
X0185428Y0147568D01*
X0185388Y0147606D01*
X0185345Y0147641D01*
X0185299Y0147673D01*
X0185252Y0147702D01*
X0185203Y0147728D01*
X0185152Y0147750D01*
X0185310Y0149650D02*
X0185206Y0149695D01*
X0185101Y0149736D01*
X0184995Y0149774D01*
X0184887Y0149809D01*
X0184779Y0149841D01*
X0184669Y0149869D01*
X0184559Y0149893D01*
X0184448Y0149914D01*
X0184336Y0149932D01*
X0184224Y0149946D01*
X0184111Y0149956D01*
X0183998Y0149963D01*
X0183885Y0149967D01*
X0179763Y0146167D02*
X0179627Y0146170D01*
X0179490Y0146177D01*
X0179354Y0146188D01*
X0179218Y0146202D01*
X0179082Y0146220D01*
X0178947Y0146241D01*
X0178812Y0146265D01*
X0178678Y0146293D01*
X0178545Y0146324D01*
X0178413Y0146359D01*
X0178281Y0146397D01*
X0178151Y0146439D01*
X0178022Y0146483D01*
X0178813Y0149967D02*
X0178926Y0149963D01*
X0179039Y0149956D01*
X0179152Y0149946D01*
X0179264Y0149932D01*
X0179376Y0149914D01*
X0179487Y0149893D01*
X0179597Y0149869D01*
X0179707Y0149841D01*
X0179815Y0149809D01*
X0179923Y0149774D01*
X0180029Y0149736D01*
X0180134Y0149695D01*
X0180238Y0149650D01*
X0178813Y0149967D02*
X0178757Y0149966D01*
X0178702Y0149961D01*
X0178647Y0149952D01*
X0178593Y0149940D01*
X0178539Y0149924D01*
X0178487Y0149905D01*
X0178437Y0149882D01*
X0178388Y0149856D01*
X0178341Y0149826D01*
X0178296Y0149793D01*
X0178253Y0149758D01*
X0178213Y0149719D01*
X0178176Y0149678D01*
X0178141Y0149635D01*
X0178110Y0149589D01*
X0178081Y0149541D01*
X0178056Y0149491D01*
X0178035Y0149440D01*
X0178016Y0149388D01*
X0178002Y0149334D01*
X0177991Y0149280D01*
X0177984Y0149225D01*
X0177980Y0149169D01*
X0177981Y0149114D01*
X0177985Y0149058D01*
X0177993Y0149003D01*
X0178004Y0148949D01*
X0178019Y0148895D01*
X0178038Y0148843D01*
X0178060Y0148792D01*
X0178086Y0148743D01*
X0178115Y0148695D01*
X0178147Y0148650D01*
X0178182Y0148607D01*
X0178220Y0148566D01*
X0178260Y0148528D01*
X0178303Y0148493D01*
X0178349Y0148461D01*
X0178396Y0148432D01*
X0178445Y0148406D01*
X0178496Y0148384D01*
X0178496Y0148383D02*
X0180080Y0147750D01*
X0180131Y0147728D01*
X0180180Y0147702D01*
X0180227Y0147673D01*
X0180273Y0147641D01*
X0180316Y0147606D01*
X0180356Y0147568D01*
X0180394Y0147527D01*
X0180429Y0147484D01*
X0180461Y0147439D01*
X0180490Y0147391D01*
X0180516Y0147342D01*
X0180538Y0147291D01*
X0180557Y0147239D01*
X0180572Y0147185D01*
X0180583Y0147131D01*
X0180591Y0147076D01*
X0180595Y0147020D01*
X0180596Y0146965D01*
X0180592Y0146909D01*
X0180585Y0146854D01*
X0180574Y0146800D01*
X0180560Y0146746D01*
X0180541Y0146694D01*
X0180520Y0146643D01*
X0180495Y0146593D01*
X0180466Y0146545D01*
X0180435Y0146499D01*
X0180400Y0146456D01*
X0180363Y0146415D01*
X0180323Y0146376D01*
X0180280Y0146341D01*
X0180235Y0146308D01*
X0180188Y0146278D01*
X0180139Y0146252D01*
X0180089Y0146229D01*
X0180037Y0146210D01*
X0179983Y0146194D01*
X0179929Y0146182D01*
X0179874Y0146173D01*
X0179819Y0146168D01*
X0179763Y0146167D01*
X0175482Y0146167D02*
X0173899Y0146167D01*
X0173839Y0146169D01*
X0173780Y0146174D01*
X0173721Y0146184D01*
X0173663Y0146197D01*
X0173605Y0146213D01*
X0173549Y0146234D01*
X0173495Y0146257D01*
X0173441Y0146285D01*
X0173390Y0146315D01*
X0173341Y0146348D01*
X0173293Y0146385D01*
X0173249Y0146424D01*
X0173206Y0146467D01*
X0173167Y0146511D01*
X0173130Y0146559D01*
X0173097Y0146608D01*
X0173067Y0146659D01*
X0173039Y0146713D01*
X0173016Y0146767D01*
X0172995Y0146823D01*
X0172979Y0146881D01*
X0172966Y0146939D01*
X0172956Y0146998D01*
X0172951Y0147057D01*
X0172949Y0147117D01*
X0172949Y0148700D01*
X0172949Y0148067D02*
X0175482Y0148067D01*
X0175482Y0148700D01*
X0175483Y0148700D02*
X0175481Y0148770D01*
X0175475Y0148839D01*
X0175466Y0148909D01*
X0175452Y0148977D01*
X0175435Y0149045D01*
X0175414Y0149111D01*
X0175390Y0149177D01*
X0175362Y0149241D01*
X0175330Y0149303D01*
X0175295Y0149363D01*
X0175257Y0149422D01*
X0175216Y0149478D01*
X0175171Y0149532D01*
X0175124Y0149583D01*
X0175074Y0149632D01*
X0175021Y0149678D01*
X0174966Y0149721D01*
X0174909Y0149761D01*
X0174850Y0149797D01*
X0174788Y0149830D01*
X0174725Y0149860D01*
X0174660Y0149887D01*
X0174594Y0149909D01*
X0174527Y0149928D01*
X0174459Y0149943D01*
X0174390Y0149955D01*
X0174321Y0149963D01*
X0174251Y0149967D01*
X0174181Y0149967D01*
X0174111Y0149963D01*
X0174042Y0149955D01*
X0173973Y0149943D01*
X0173905Y0149928D01*
X0173838Y0149909D01*
X0173772Y0149887D01*
X0173707Y0149860D01*
X0173644Y0149830D01*
X0173583Y0149797D01*
X0173523Y0149761D01*
X0173466Y0149721D01*
X0173411Y0149678D01*
X0173358Y0149632D01*
X0173308Y0149583D01*
X0173261Y0149532D01*
X0173216Y0149478D01*
X0173175Y0149422D01*
X0173137Y0149363D01*
X0173102Y0149303D01*
X0173070Y0149241D01*
X0173042Y0149177D01*
X0173018Y0149111D01*
X0172997Y0149045D01*
X0172980Y0148977D01*
X0172966Y0148909D01*
X0172957Y0148839D01*
X0172951Y0148770D01*
X0172949Y0148700D01*
X0170991Y0149333D02*
X0170991Y0149967D01*
X0169091Y0149967D01*
X0169091Y0146167D01*
X0164962Y0148700D02*
X0163379Y0148700D01*
X0164962Y0148700D02*
X0165040Y0148702D01*
X0165117Y0148708D01*
X0165194Y0148717D01*
X0165271Y0148730D01*
X0165347Y0148747D01*
X0165422Y0148768D01*
X0165495Y0148793D01*
X0165568Y0148820D01*
X0165639Y0148852D01*
X0165708Y0148887D01*
X0165776Y0148925D01*
X0165841Y0148967D01*
X0165905Y0149012D01*
X0165966Y0149059D01*
X0166025Y0149110D01*
X0166081Y0149164D01*
X0166135Y0149220D01*
X0166186Y0149279D01*
X0166233Y0149340D01*
X0166278Y0149404D01*
X0166320Y0149469D01*
X0166358Y0149537D01*
X0166393Y0149606D01*
X0166425Y0149677D01*
X0166452Y0149750D01*
X0166477Y0149823D01*
X0166498Y0149898D01*
X0166515Y0149974D01*
X0166528Y0150051D01*
X0166537Y0150128D01*
X0166543Y0150205D01*
X0166545Y0150283D01*
X0166543Y0150361D01*
X0166537Y0150438D01*
X0166528Y0150515D01*
X0166515Y0150592D01*
X0166498Y0150668D01*
X0166477Y0150743D01*
X0166452Y0150816D01*
X0166425Y0150889D01*
X0166393Y0150960D01*
X0166358Y0151029D01*
X0166320Y0151097D01*
X0166278Y0151162D01*
X0166233Y0151226D01*
X0166186Y0151287D01*
X0166135Y0151346D01*
X0166081Y0151402D01*
X0166025Y0151456D01*
X0165966Y0151507D01*
X0165905Y0151554D01*
X0165841Y0151599D01*
X0165776Y0151641D01*
X0165708Y0151679D01*
X0165639Y0151714D01*
X0165568Y0151746D01*
X0165495Y0151773D01*
X0165422Y0151798D01*
X0165347Y0151819D01*
X0165271Y0151836D01*
X0165194Y0151849D01*
X0165117Y0151858D01*
X0165040Y0151864D01*
X0164962Y0151866D01*
X0164962Y0151867D02*
X0163379Y0151867D01*
X0163379Y0146167D01*
D11*
X0185897Y0141355D02*
X0187331Y0137055D01*
X0188764Y0141355D01*
X0190618Y0140399D02*
X0190618Y0138010D01*
X0190620Y0137950D01*
X0190626Y0137890D01*
X0190635Y0137831D01*
X0190648Y0137772D01*
X0190665Y0137715D01*
X0190685Y0137658D01*
X0190709Y0137603D01*
X0190736Y0137549D01*
X0190767Y0137498D01*
X0190801Y0137448D01*
X0190837Y0137401D01*
X0190877Y0137356D01*
X0190920Y0137313D01*
X0190965Y0137273D01*
X0191012Y0137237D01*
X0191062Y0137203D01*
X0191113Y0137172D01*
X0191167Y0137145D01*
X0191222Y0137121D01*
X0191279Y0137101D01*
X0191336Y0137084D01*
X0191395Y0137071D01*
X0191454Y0137062D01*
X0191514Y0137056D01*
X0191574Y0137054D01*
X0191574Y0137055D02*
X0192529Y0137055D01*
X0194368Y0138010D02*
X0194368Y0140399D01*
X0194370Y0140459D01*
X0194376Y0140519D01*
X0194385Y0140578D01*
X0194398Y0140637D01*
X0194415Y0140694D01*
X0194435Y0140751D01*
X0194459Y0140806D01*
X0194486Y0140860D01*
X0194517Y0140911D01*
X0194551Y0140961D01*
X0194587Y0141008D01*
X0194627Y0141053D01*
X0194670Y0141096D01*
X0194715Y0141136D01*
X0194762Y0141172D01*
X0194812Y0141206D01*
X0194863Y0141237D01*
X0194917Y0141264D01*
X0194972Y0141288D01*
X0195029Y0141308D01*
X0195086Y0141325D01*
X0195145Y0141338D01*
X0195204Y0141347D01*
X0195264Y0141353D01*
X0195324Y0141355D01*
X0196279Y0141355D01*
X0194368Y0138010D02*
X0194370Y0137950D01*
X0194376Y0137890D01*
X0194385Y0137831D01*
X0194398Y0137772D01*
X0194415Y0137715D01*
X0194435Y0137658D01*
X0194459Y0137603D01*
X0194486Y0137549D01*
X0194517Y0137498D01*
X0194551Y0137448D01*
X0194587Y0137401D01*
X0194627Y0137356D01*
X0194670Y0137313D01*
X0194715Y0137273D01*
X0194762Y0137237D01*
X0194812Y0137203D01*
X0194863Y0137172D01*
X0194917Y0137145D01*
X0194972Y0137121D01*
X0195029Y0137101D01*
X0195086Y0137084D01*
X0195145Y0137071D01*
X0195204Y0137062D01*
X0195264Y0137056D01*
X0195324Y0137054D01*
X0195324Y0137055D02*
X0196279Y0137055D01*
X0191574Y0141355D02*
X0191514Y0141353D01*
X0191454Y0141347D01*
X0191395Y0141338D01*
X0191336Y0141325D01*
X0191279Y0141308D01*
X0191222Y0141288D01*
X0191167Y0141264D01*
X0191113Y0141237D01*
X0191062Y0141206D01*
X0191012Y0141172D01*
X0190965Y0141136D01*
X0190920Y0141096D01*
X0190877Y0141053D01*
X0190837Y0141008D01*
X0190801Y0140961D01*
X0190767Y0140911D01*
X0190736Y0140860D01*
X0190709Y0140806D01*
X0190685Y0140751D01*
X0190665Y0140694D01*
X0190648Y0140637D01*
X0190635Y0140578D01*
X0190626Y0140519D01*
X0190620Y0140459D01*
X0190618Y0140399D01*
X0191574Y0141355D02*
X0192529Y0141355D01*
X0192055Y0131835D02*
X0193010Y0131835D01*
X0192055Y0131835D02*
X0191995Y0131833D01*
X0191935Y0131827D01*
X0191876Y0131818D01*
X0191817Y0131805D01*
X0191760Y0131788D01*
X0191703Y0131768D01*
X0191648Y0131744D01*
X0191594Y0131717D01*
X0191543Y0131686D01*
X0191493Y0131652D01*
X0191446Y0131616D01*
X0191401Y0131576D01*
X0191358Y0131533D01*
X0191318Y0131488D01*
X0191282Y0131441D01*
X0191248Y0131391D01*
X0191217Y0131340D01*
X0191190Y0131286D01*
X0191166Y0131231D01*
X0191146Y0131174D01*
X0191129Y0131117D01*
X0191116Y0131058D01*
X0191107Y0130999D01*
X0191101Y0130939D01*
X0191099Y0130879D01*
X0191099Y0128491D01*
X0191101Y0128431D01*
X0191107Y0128371D01*
X0191116Y0128312D01*
X0191129Y0128253D01*
X0191146Y0128196D01*
X0191166Y0128139D01*
X0191190Y0128084D01*
X0191217Y0128030D01*
X0191248Y0127979D01*
X0191282Y0127929D01*
X0191318Y0127882D01*
X0191358Y0127837D01*
X0191401Y0127794D01*
X0191446Y0127754D01*
X0191493Y0127718D01*
X0191543Y0127684D01*
X0191594Y0127653D01*
X0191648Y0127626D01*
X0191703Y0127602D01*
X0191760Y0127582D01*
X0191817Y0127565D01*
X0191876Y0127552D01*
X0191935Y0127543D01*
X0191995Y0127537D01*
X0192055Y0127535D01*
X0193010Y0127535D01*
X0195030Y0127535D02*
X0196941Y0127535D01*
X0195030Y0127535D02*
X0195030Y0131835D01*
X0188678Y0129327D02*
X0187365Y0130043D01*
X0187842Y0131835D02*
X0187924Y0131833D01*
X0188007Y0131827D01*
X0188088Y0131818D01*
X0188170Y0131805D01*
X0188250Y0131788D01*
X0188330Y0131767D01*
X0188409Y0131743D01*
X0188486Y0131715D01*
X0188562Y0131684D01*
X0188637Y0131649D01*
X0188710Y0131611D01*
X0188781Y0131569D01*
X0188850Y0131524D01*
X0188917Y0131477D01*
X0187365Y0130043D02*
X0187314Y0130075D01*
X0187266Y0130110D01*
X0187221Y0130147D01*
X0187177Y0130187D01*
X0187136Y0130230D01*
X0187098Y0130275D01*
X0187062Y0130323D01*
X0187030Y0130372D01*
X0187001Y0130424D01*
X0186974Y0130477D01*
X0186951Y0130531D01*
X0186932Y0130587D01*
X0186916Y0130644D01*
X0186903Y0130702D01*
X0186894Y0130761D01*
X0186889Y0130820D01*
X0186887Y0130879D01*
X0186886Y0130879D02*
X0186888Y0130939D01*
X0186894Y0130999D01*
X0186903Y0131058D01*
X0186916Y0131117D01*
X0186933Y0131174D01*
X0186953Y0131231D01*
X0186977Y0131286D01*
X0187004Y0131340D01*
X0187035Y0131391D01*
X0187069Y0131441D01*
X0187105Y0131488D01*
X0187145Y0131533D01*
X0187188Y0131576D01*
X0187233Y0131616D01*
X0187280Y0131652D01*
X0187330Y0131686D01*
X0187381Y0131717D01*
X0187435Y0131744D01*
X0187490Y0131768D01*
X0187547Y0131788D01*
X0187604Y0131805D01*
X0187663Y0131818D01*
X0187722Y0131827D01*
X0187782Y0131833D01*
X0187842Y0131835D01*
X0186767Y0128132D02*
X0186831Y0128071D01*
X0186897Y0128012D01*
X0186966Y0127957D01*
X0187038Y0127904D01*
X0187111Y0127854D01*
X0187187Y0127808D01*
X0187264Y0127766D01*
X0187343Y0127726D01*
X0187424Y0127690D01*
X0187507Y0127658D01*
X0187591Y0127629D01*
X0187676Y0127605D01*
X0187762Y0127583D01*
X0187849Y0127566D01*
X0187936Y0127552D01*
X0188024Y0127543D01*
X0188112Y0127537D01*
X0188201Y0127535D01*
X0188261Y0127537D01*
X0188321Y0127543D01*
X0188380Y0127552D01*
X0188439Y0127565D01*
X0188496Y0127582D01*
X0188553Y0127602D01*
X0188608Y0127626D01*
X0188662Y0127653D01*
X0188713Y0127684D01*
X0188763Y0127718D01*
X0188810Y0127754D01*
X0188855Y0127794D01*
X0188898Y0127837D01*
X0188938Y0127882D01*
X0188974Y0127929D01*
X0189008Y0127979D01*
X0189039Y0128030D01*
X0189066Y0128084D01*
X0189090Y0128139D01*
X0189110Y0128196D01*
X0189127Y0128253D01*
X0189140Y0128312D01*
X0189149Y0128371D01*
X0189155Y0128431D01*
X0189157Y0128491D01*
X0189156Y0128491D02*
X0189154Y0128550D01*
X0189149Y0128609D01*
X0189140Y0128668D01*
X0189127Y0128726D01*
X0189111Y0128783D01*
X0189092Y0128839D01*
X0189069Y0128893D01*
X0189042Y0128946D01*
X0189013Y0128998D01*
X0188981Y0129047D01*
X0188945Y0129095D01*
X0188907Y0129140D01*
X0188866Y0129183D01*
X0188822Y0129223D01*
X0188777Y0129260D01*
X0188729Y0129295D01*
X0188678Y0129327D01*
X0190874Y0121835D02*
X0192068Y0121835D01*
X0190874Y0121835D02*
X0190874Y0117535D01*
X0192068Y0117535D01*
X0192135Y0117537D01*
X0192202Y0117543D01*
X0192268Y0117552D01*
X0192334Y0117565D01*
X0192399Y0117582D01*
X0192462Y0117602D01*
X0192525Y0117626D01*
X0192586Y0117653D01*
X0192646Y0117684D01*
X0192703Y0117718D01*
X0192759Y0117755D01*
X0192812Y0117795D01*
X0192864Y0117839D01*
X0192912Y0117885D01*
X0192958Y0117933D01*
X0193002Y0117985D01*
X0193042Y0118038D01*
X0193079Y0118094D01*
X0193113Y0118151D01*
X0193144Y0118211D01*
X0193171Y0118272D01*
X0193195Y0118335D01*
X0193215Y0118398D01*
X0193232Y0118463D01*
X0193245Y0118529D01*
X0193254Y0118595D01*
X0193260Y0118662D01*
X0193262Y0118729D01*
X0193262Y0120641D01*
X0193260Y0120708D01*
X0193254Y0120775D01*
X0193245Y0120841D01*
X0193232Y0120907D01*
X0193215Y0120972D01*
X0193195Y0121035D01*
X0193171Y0121098D01*
X0193144Y0121159D01*
X0193113Y0121219D01*
X0193079Y0121276D01*
X0193042Y0121332D01*
X0193002Y0121385D01*
X0192958Y0121437D01*
X0192912Y0121485D01*
X0192864Y0121531D01*
X0192812Y0121575D01*
X0192759Y0121615D01*
X0192703Y0121652D01*
X0192646Y0121686D01*
X0192586Y0121717D01*
X0192525Y0121744D01*
X0192462Y0121768D01*
X0192399Y0121788D01*
X0192334Y0121805D01*
X0192268Y0121818D01*
X0192202Y0121827D01*
X0192135Y0121833D01*
X0192068Y0121835D01*
X0188285Y0119327D02*
X0186971Y0120043D01*
X0187449Y0121835D02*
X0187531Y0121833D01*
X0187614Y0121827D01*
X0187695Y0121818D01*
X0187777Y0121805D01*
X0187857Y0121788D01*
X0187937Y0121767D01*
X0188016Y0121743D01*
X0188093Y0121715D01*
X0188169Y0121684D01*
X0188244Y0121649D01*
X0188317Y0121611D01*
X0188388Y0121569D01*
X0188457Y0121524D01*
X0188524Y0121477D01*
X0186972Y0120043D02*
X0186921Y0120075D01*
X0186873Y0120110D01*
X0186828Y0120147D01*
X0186784Y0120187D01*
X0186743Y0120230D01*
X0186705Y0120275D01*
X0186669Y0120323D01*
X0186637Y0120372D01*
X0186608Y0120424D01*
X0186581Y0120477D01*
X0186558Y0120531D01*
X0186539Y0120587D01*
X0186523Y0120644D01*
X0186510Y0120702D01*
X0186501Y0120761D01*
X0186496Y0120820D01*
X0186494Y0120879D01*
X0186493Y0120879D02*
X0186495Y0120939D01*
X0186501Y0120999D01*
X0186510Y0121058D01*
X0186523Y0121117D01*
X0186540Y0121174D01*
X0186560Y0121231D01*
X0186584Y0121286D01*
X0186611Y0121340D01*
X0186642Y0121391D01*
X0186676Y0121441D01*
X0186712Y0121488D01*
X0186752Y0121533D01*
X0186795Y0121576D01*
X0186840Y0121616D01*
X0186887Y0121652D01*
X0186937Y0121686D01*
X0186988Y0121717D01*
X0187042Y0121744D01*
X0187097Y0121768D01*
X0187154Y0121788D01*
X0187211Y0121805D01*
X0187270Y0121818D01*
X0187329Y0121827D01*
X0187389Y0121833D01*
X0187449Y0121835D01*
X0186373Y0118132D02*
X0186437Y0118071D01*
X0186503Y0118012D01*
X0186572Y0117957D01*
X0186644Y0117904D01*
X0186717Y0117854D01*
X0186793Y0117808D01*
X0186870Y0117766D01*
X0186949Y0117726D01*
X0187030Y0117690D01*
X0187113Y0117658D01*
X0187197Y0117629D01*
X0187282Y0117605D01*
X0187368Y0117583D01*
X0187455Y0117566D01*
X0187542Y0117552D01*
X0187630Y0117543D01*
X0187718Y0117537D01*
X0187807Y0117535D01*
X0187867Y0117537D01*
X0187927Y0117543D01*
X0187986Y0117552D01*
X0188045Y0117565D01*
X0188102Y0117582D01*
X0188159Y0117602D01*
X0188214Y0117626D01*
X0188268Y0117653D01*
X0188319Y0117684D01*
X0188369Y0117718D01*
X0188416Y0117754D01*
X0188461Y0117794D01*
X0188504Y0117837D01*
X0188544Y0117882D01*
X0188580Y0117929D01*
X0188614Y0117979D01*
X0188645Y0118030D01*
X0188672Y0118084D01*
X0188696Y0118139D01*
X0188716Y0118196D01*
X0188733Y0118253D01*
X0188746Y0118312D01*
X0188755Y0118371D01*
X0188761Y0118431D01*
X0188763Y0118491D01*
X0188762Y0118491D02*
X0188760Y0118550D01*
X0188755Y0118609D01*
X0188746Y0118668D01*
X0188733Y0118726D01*
X0188717Y0118783D01*
X0188698Y0118839D01*
X0188675Y0118893D01*
X0188648Y0118946D01*
X0188619Y0118998D01*
X0188587Y0119047D01*
X0188551Y0119095D01*
X0188513Y0119140D01*
X0188472Y0119183D01*
X0188428Y0119223D01*
X0188383Y0119260D01*
X0188335Y0119295D01*
X0188284Y0119327D01*
X0195285Y0117535D02*
X0196718Y0121835D01*
X0198151Y0117535D01*
X0197793Y0118610D02*
X0195643Y0118610D01*
X0195580Y0111835D02*
X0196774Y0111835D01*
X0195580Y0111835D02*
X0195580Y0107535D01*
X0196774Y0107535D01*
X0196841Y0107537D01*
X0196908Y0107543D01*
X0196974Y0107552D01*
X0197040Y0107565D01*
X0197105Y0107582D01*
X0197168Y0107602D01*
X0197231Y0107626D01*
X0197292Y0107653D01*
X0197352Y0107684D01*
X0197409Y0107718D01*
X0197465Y0107755D01*
X0197518Y0107795D01*
X0197570Y0107839D01*
X0197618Y0107885D01*
X0197664Y0107933D01*
X0197708Y0107985D01*
X0197748Y0108038D01*
X0197785Y0108094D01*
X0197819Y0108151D01*
X0197850Y0108211D01*
X0197877Y0108272D01*
X0197901Y0108335D01*
X0197921Y0108398D01*
X0197938Y0108463D01*
X0197951Y0108529D01*
X0197960Y0108595D01*
X0197966Y0108662D01*
X0197968Y0108729D01*
X0197969Y0108729D02*
X0197969Y0110641D01*
X0197968Y0110641D02*
X0197966Y0110708D01*
X0197960Y0110775D01*
X0197951Y0110841D01*
X0197938Y0110907D01*
X0197921Y0110972D01*
X0197901Y0111035D01*
X0197877Y0111098D01*
X0197850Y0111159D01*
X0197819Y0111219D01*
X0197785Y0111276D01*
X0197748Y0111332D01*
X0197708Y0111385D01*
X0197664Y0111437D01*
X0197618Y0111485D01*
X0197570Y0111531D01*
X0197518Y0111575D01*
X0197465Y0111615D01*
X0197409Y0111652D01*
X0197352Y0111686D01*
X0197292Y0111717D01*
X0197231Y0111744D01*
X0197168Y0111768D01*
X0197105Y0111788D01*
X0197040Y0111805D01*
X0196974Y0111818D01*
X0196908Y0111827D01*
X0196841Y0111833D01*
X0196774Y0111835D01*
X0193169Y0111835D02*
X0193169Y0107535D01*
X0190780Y0111835D01*
X0190780Y0107535D01*
X0188369Y0107535D02*
X0186935Y0107535D01*
X0186875Y0107537D01*
X0186815Y0107543D01*
X0186756Y0107552D01*
X0186697Y0107565D01*
X0186640Y0107582D01*
X0186583Y0107602D01*
X0186528Y0107626D01*
X0186474Y0107653D01*
X0186423Y0107684D01*
X0186373Y0107718D01*
X0186326Y0107754D01*
X0186281Y0107794D01*
X0186238Y0107837D01*
X0186198Y0107882D01*
X0186162Y0107929D01*
X0186128Y0107979D01*
X0186097Y0108030D01*
X0186070Y0108084D01*
X0186046Y0108139D01*
X0186026Y0108196D01*
X0186009Y0108253D01*
X0185996Y0108312D01*
X0185987Y0108371D01*
X0185981Y0108431D01*
X0185979Y0108491D01*
X0185980Y0108491D02*
X0185980Y0110879D01*
X0185979Y0110879D02*
X0185981Y0110939D01*
X0185987Y0110999D01*
X0185996Y0111058D01*
X0186009Y0111117D01*
X0186026Y0111174D01*
X0186046Y0111231D01*
X0186070Y0111286D01*
X0186097Y0111340D01*
X0186128Y0111391D01*
X0186162Y0111441D01*
X0186198Y0111488D01*
X0186238Y0111533D01*
X0186281Y0111576D01*
X0186326Y0111616D01*
X0186373Y0111652D01*
X0186423Y0111686D01*
X0186474Y0111717D01*
X0186528Y0111744D01*
X0186583Y0111768D01*
X0186640Y0111788D01*
X0186697Y0111805D01*
X0186756Y0111818D01*
X0186815Y0111827D01*
X0186875Y0111833D01*
X0186935Y0111835D01*
X0188369Y0111835D01*
X0188369Y0109924D02*
X0188369Y0107535D01*
X0188369Y0109924D02*
X0187652Y0109924D01*
X0250074Y0118097D02*
X0250074Y0120486D01*
X0250076Y0120546D01*
X0250082Y0120606D01*
X0250091Y0120665D01*
X0250104Y0120724D01*
X0250121Y0120781D01*
X0250141Y0120838D01*
X0250165Y0120893D01*
X0250192Y0120947D01*
X0250223Y0120998D01*
X0250257Y0121048D01*
X0250293Y0121095D01*
X0250333Y0121140D01*
X0250376Y0121183D01*
X0250421Y0121223D01*
X0250468Y0121259D01*
X0250518Y0121293D01*
X0250569Y0121324D01*
X0250623Y0121351D01*
X0250678Y0121375D01*
X0250735Y0121395D01*
X0250792Y0121412D01*
X0250851Y0121425D01*
X0250910Y0121434D01*
X0250970Y0121440D01*
X0251030Y0121442D01*
X0251030Y0121441D02*
X0252463Y0121441D01*
X0252463Y0119530D02*
X0252463Y0117141D01*
X0251030Y0117141D01*
X0250970Y0117143D01*
X0250910Y0117149D01*
X0250851Y0117158D01*
X0250792Y0117171D01*
X0250735Y0117188D01*
X0250678Y0117208D01*
X0250623Y0117232D01*
X0250569Y0117259D01*
X0250518Y0117290D01*
X0250468Y0117324D01*
X0250421Y0117360D01*
X0250376Y0117400D01*
X0250333Y0117443D01*
X0250293Y0117488D01*
X0250257Y0117535D01*
X0250223Y0117585D01*
X0250192Y0117636D01*
X0250165Y0117690D01*
X0250141Y0117745D01*
X0250121Y0117802D01*
X0250104Y0117859D01*
X0250091Y0117918D01*
X0250082Y0117977D01*
X0250076Y0118037D01*
X0250074Y0118097D01*
X0251747Y0119530D02*
X0252463Y0119530D01*
X0254874Y0121441D02*
X0257263Y0117141D01*
X0257263Y0121441D01*
X0254874Y0121441D02*
X0254874Y0117141D01*
X0259674Y0117141D02*
X0260869Y0117141D01*
X0259674Y0117141D02*
X0259674Y0121441D01*
X0260869Y0121441D01*
X0260936Y0121439D01*
X0261003Y0121433D01*
X0261069Y0121424D01*
X0261135Y0121411D01*
X0261200Y0121394D01*
X0261263Y0121374D01*
X0261326Y0121350D01*
X0261387Y0121323D01*
X0261447Y0121292D01*
X0261504Y0121258D01*
X0261560Y0121221D01*
X0261613Y0121181D01*
X0261665Y0121137D01*
X0261713Y0121091D01*
X0261759Y0121043D01*
X0261803Y0120991D01*
X0261843Y0120938D01*
X0261880Y0120882D01*
X0261914Y0120825D01*
X0261945Y0120765D01*
X0261972Y0120704D01*
X0261996Y0120641D01*
X0262016Y0120578D01*
X0262033Y0120513D01*
X0262046Y0120447D01*
X0262055Y0120381D01*
X0262061Y0120314D01*
X0262063Y0120247D01*
X0262063Y0118336D01*
X0262061Y0118269D01*
X0262055Y0118202D01*
X0262046Y0118136D01*
X0262033Y0118070D01*
X0262016Y0118005D01*
X0261996Y0117942D01*
X0261972Y0117879D01*
X0261945Y0117818D01*
X0261914Y0117758D01*
X0261880Y0117701D01*
X0261843Y0117645D01*
X0261803Y0117592D01*
X0261759Y0117540D01*
X0261713Y0117492D01*
X0261665Y0117446D01*
X0261613Y0117402D01*
X0261560Y0117362D01*
X0261504Y0117325D01*
X0261447Y0117291D01*
X0261387Y0117260D01*
X0261326Y0117233D01*
X0261263Y0117209D01*
X0261200Y0117189D01*
X0261135Y0117172D01*
X0261069Y0117159D01*
X0261003Y0117150D01*
X0260936Y0117144D01*
X0260869Y0117142D01*
X0260513Y0127141D02*
X0261469Y0130008D01*
X0262424Y0127141D01*
X0263380Y0131441D01*
X0265099Y0131441D02*
X0265338Y0131441D01*
X0265338Y0131202D01*
X0265099Y0131202D01*
X0265099Y0131441D01*
X0265219Y0130008D02*
X0265219Y0127141D01*
X0267299Y0127141D02*
X0267299Y0130008D01*
X0268733Y0130008D01*
X0268733Y0129530D01*
X0270263Y0129052D02*
X0270263Y0127858D01*
X0270263Y0128575D02*
X0272174Y0128575D01*
X0272174Y0129052D01*
X0272175Y0129052D02*
X0272173Y0129112D01*
X0272167Y0129172D01*
X0272158Y0129231D01*
X0272145Y0129290D01*
X0272128Y0129347D01*
X0272108Y0129404D01*
X0272084Y0129459D01*
X0272057Y0129513D01*
X0272026Y0129564D01*
X0271992Y0129614D01*
X0271956Y0129661D01*
X0271916Y0129706D01*
X0271873Y0129749D01*
X0271828Y0129789D01*
X0271781Y0129825D01*
X0271731Y0129859D01*
X0271680Y0129890D01*
X0271626Y0129917D01*
X0271571Y0129941D01*
X0271514Y0129961D01*
X0271457Y0129978D01*
X0271398Y0129991D01*
X0271339Y0130000D01*
X0271279Y0130006D01*
X0271219Y0130008D01*
X0271159Y0130006D01*
X0271099Y0130000D01*
X0271040Y0129991D01*
X0270981Y0129978D01*
X0270924Y0129961D01*
X0270867Y0129941D01*
X0270812Y0129917D01*
X0270758Y0129890D01*
X0270707Y0129859D01*
X0270657Y0129825D01*
X0270610Y0129789D01*
X0270565Y0129749D01*
X0270522Y0129706D01*
X0270482Y0129661D01*
X0270446Y0129614D01*
X0270412Y0129564D01*
X0270381Y0129513D01*
X0270354Y0129459D01*
X0270330Y0129404D01*
X0270310Y0129347D01*
X0270293Y0129290D01*
X0270280Y0129231D01*
X0270271Y0129172D01*
X0270265Y0129112D01*
X0270263Y0129052D01*
X0270263Y0127858D02*
X0270265Y0127807D01*
X0270270Y0127756D01*
X0270279Y0127706D01*
X0270292Y0127656D01*
X0270308Y0127607D01*
X0270328Y0127560D01*
X0270351Y0127514D01*
X0270377Y0127470D01*
X0270406Y0127428D01*
X0270438Y0127388D01*
X0270473Y0127351D01*
X0270510Y0127316D01*
X0270550Y0127284D01*
X0270592Y0127255D01*
X0270636Y0127229D01*
X0270682Y0127206D01*
X0270729Y0127186D01*
X0270778Y0127170D01*
X0270828Y0127157D01*
X0270878Y0127148D01*
X0270929Y0127143D01*
X0270980Y0127141D01*
X0272174Y0127141D01*
X0260513Y0127141D02*
X0259558Y0131441D01*
X0257502Y0128814D02*
X0254636Y0128814D01*
X0252463Y0127141D02*
X0250074Y0127141D01*
X0251269Y0127141D02*
X0251269Y0131441D01*
X0250074Y0130486D01*
X0251508Y0137141D02*
X0252941Y0141441D01*
X0254795Y0140486D02*
X0254795Y0138097D01*
X0254797Y0138037D01*
X0254803Y0137977D01*
X0254812Y0137918D01*
X0254825Y0137859D01*
X0254842Y0137802D01*
X0254862Y0137745D01*
X0254886Y0137690D01*
X0254913Y0137636D01*
X0254944Y0137585D01*
X0254978Y0137535D01*
X0255014Y0137488D01*
X0255054Y0137443D01*
X0255097Y0137400D01*
X0255142Y0137360D01*
X0255189Y0137324D01*
X0255239Y0137290D01*
X0255290Y0137259D01*
X0255344Y0137232D01*
X0255399Y0137208D01*
X0255456Y0137188D01*
X0255513Y0137171D01*
X0255572Y0137158D01*
X0255631Y0137149D01*
X0255691Y0137143D01*
X0255751Y0137141D01*
X0256706Y0137141D01*
X0258545Y0138097D02*
X0258545Y0140486D01*
X0258547Y0140546D01*
X0258553Y0140606D01*
X0258562Y0140665D01*
X0258575Y0140724D01*
X0258592Y0140781D01*
X0258612Y0140838D01*
X0258636Y0140893D01*
X0258663Y0140947D01*
X0258694Y0140998D01*
X0258728Y0141048D01*
X0258764Y0141095D01*
X0258804Y0141140D01*
X0258847Y0141183D01*
X0258892Y0141223D01*
X0258939Y0141259D01*
X0258989Y0141293D01*
X0259040Y0141324D01*
X0259094Y0141351D01*
X0259149Y0141375D01*
X0259206Y0141395D01*
X0259263Y0141412D01*
X0259322Y0141425D01*
X0259381Y0141434D01*
X0259441Y0141440D01*
X0259501Y0141442D01*
X0259501Y0141441D02*
X0260456Y0141441D01*
X0258545Y0138097D02*
X0258547Y0138037D01*
X0258553Y0137977D01*
X0258562Y0137918D01*
X0258575Y0137859D01*
X0258592Y0137802D01*
X0258612Y0137745D01*
X0258636Y0137690D01*
X0258663Y0137636D01*
X0258694Y0137585D01*
X0258728Y0137535D01*
X0258764Y0137488D01*
X0258804Y0137443D01*
X0258847Y0137400D01*
X0258892Y0137360D01*
X0258939Y0137324D01*
X0258989Y0137290D01*
X0259040Y0137259D01*
X0259094Y0137232D01*
X0259149Y0137208D01*
X0259206Y0137188D01*
X0259263Y0137171D01*
X0259322Y0137158D01*
X0259381Y0137149D01*
X0259441Y0137143D01*
X0259501Y0137141D01*
X0260456Y0137141D01*
X0255751Y0141442D02*
X0255691Y0141440D01*
X0255631Y0141434D01*
X0255572Y0141425D01*
X0255513Y0141412D01*
X0255456Y0141395D01*
X0255399Y0141375D01*
X0255344Y0141351D01*
X0255290Y0141324D01*
X0255239Y0141293D01*
X0255189Y0141259D01*
X0255142Y0141223D01*
X0255097Y0141183D01*
X0255054Y0141140D01*
X0255014Y0141095D01*
X0254978Y0141048D01*
X0254944Y0140998D01*
X0254913Y0140947D01*
X0254886Y0140893D01*
X0254862Y0140838D01*
X0254842Y0140781D01*
X0254825Y0140724D01*
X0254812Y0140665D01*
X0254803Y0140606D01*
X0254797Y0140546D01*
X0254795Y0140486D01*
X0255751Y0141441D02*
X0256706Y0141441D01*
X0250074Y0141441D02*
X0251508Y0137141D01*
D12*
X0024342Y0008623D02*
X0021542Y0009789D01*
X0024342Y0010956D01*
X0026642Y0009789D02*
X0029442Y0009789D01*
X0032172Y0008929D02*
X0032172Y0010796D01*
X0032171Y0010796D02*
X0032173Y0010863D01*
X0032179Y0010929D01*
X0032188Y0010995D01*
X0032201Y0011060D01*
X0032218Y0011125D01*
X0032239Y0011188D01*
X0032263Y0011250D01*
X0032291Y0011311D01*
X0032322Y0011370D01*
X0032356Y0011427D01*
X0032394Y0011482D01*
X0032435Y0011535D01*
X0032478Y0011585D01*
X0032525Y0011633D01*
X0032574Y0011678D01*
X0032625Y0011720D01*
X0032679Y0011759D01*
X0032735Y0011795D01*
X0032793Y0011828D01*
X0032853Y0011858D01*
X0032915Y0011883D01*
X0032977Y0011906D01*
X0033041Y0011925D01*
X0033106Y0011940D01*
X0033172Y0011951D01*
X0033238Y0011959D01*
X0033305Y0011963D01*
X0033371Y0011963D01*
X0033438Y0011959D01*
X0033504Y0011951D01*
X0033570Y0011940D01*
X0033635Y0011925D01*
X0033699Y0011906D01*
X0033761Y0011883D01*
X0033823Y0011858D01*
X0033883Y0011828D01*
X0033941Y0011795D01*
X0033997Y0011759D01*
X0034051Y0011720D01*
X0034102Y0011678D01*
X0034151Y0011633D01*
X0034198Y0011585D01*
X0034241Y0011535D01*
X0034282Y0011482D01*
X0034320Y0011427D01*
X0034354Y0011370D01*
X0034385Y0011311D01*
X0034413Y0011250D01*
X0034437Y0011188D01*
X0034458Y0011125D01*
X0034475Y0011060D01*
X0034488Y0010995D01*
X0034497Y0010929D01*
X0034503Y0010863D01*
X0034505Y0010796D01*
X0034505Y0008929D01*
X0034503Y0008862D01*
X0034497Y0008796D01*
X0034488Y0008730D01*
X0034475Y0008665D01*
X0034458Y0008600D01*
X0034437Y0008537D01*
X0034413Y0008475D01*
X0034385Y0008414D01*
X0034354Y0008355D01*
X0034320Y0008298D01*
X0034282Y0008243D01*
X0034241Y0008190D01*
X0034198Y0008140D01*
X0034151Y0008092D01*
X0034102Y0008047D01*
X0034051Y0008005D01*
X0033997Y0007966D01*
X0033941Y0007930D01*
X0033883Y0007897D01*
X0033823Y0007867D01*
X0033761Y0007842D01*
X0033699Y0007819D01*
X0033635Y0007800D01*
X0033570Y0007785D01*
X0033504Y0007774D01*
X0033438Y0007766D01*
X0033371Y0007762D01*
X0033305Y0007762D01*
X0033238Y0007766D01*
X0033172Y0007774D01*
X0033106Y0007785D01*
X0033041Y0007800D01*
X0032977Y0007819D01*
X0032915Y0007842D01*
X0032853Y0007867D01*
X0032793Y0007897D01*
X0032735Y0007930D01*
X0032679Y0007966D01*
X0032625Y0008005D01*
X0032574Y0008047D01*
X0032525Y0008092D01*
X0032478Y0008140D01*
X0032435Y0008190D01*
X0032394Y0008243D01*
X0032356Y0008298D01*
X0032322Y0008355D01*
X0032291Y0008414D01*
X0032263Y0008475D01*
X0032239Y0008537D01*
X0032218Y0008600D01*
X0032201Y0008665D01*
X0032188Y0008730D01*
X0032179Y0008796D01*
X0032173Y0008862D01*
X0032171Y0008929D01*
X0036922Y0009629D02*
X0038088Y0009629D01*
X0038155Y0009631D01*
X0038221Y0009637D01*
X0038287Y0009646D01*
X0038352Y0009659D01*
X0038417Y0009676D01*
X0038480Y0009697D01*
X0038542Y0009721D01*
X0038603Y0009749D01*
X0038662Y0009780D01*
X0038719Y0009814D01*
X0038774Y0009852D01*
X0038827Y0009893D01*
X0038877Y0009936D01*
X0038925Y0009983D01*
X0038970Y0010032D01*
X0039012Y0010083D01*
X0039051Y0010137D01*
X0039087Y0010193D01*
X0039120Y0010251D01*
X0039150Y0010311D01*
X0039175Y0010373D01*
X0039198Y0010435D01*
X0039217Y0010499D01*
X0039232Y0010564D01*
X0039243Y0010630D01*
X0039251Y0010696D01*
X0039255Y0010763D01*
X0039255Y0010829D01*
X0039251Y0010896D01*
X0039243Y0010962D01*
X0039232Y0011028D01*
X0039217Y0011093D01*
X0039198Y0011157D01*
X0039175Y0011219D01*
X0039150Y0011281D01*
X0039120Y0011341D01*
X0039087Y0011399D01*
X0039051Y0011455D01*
X0039012Y0011509D01*
X0038970Y0011560D01*
X0038925Y0011609D01*
X0038877Y0011656D01*
X0038827Y0011699D01*
X0038774Y0011740D01*
X0038719Y0011778D01*
X0038662Y0011812D01*
X0038603Y0011843D01*
X0038542Y0011871D01*
X0038480Y0011895D01*
X0038417Y0011916D01*
X0038352Y0011933D01*
X0038287Y0011946D01*
X0038221Y0011955D01*
X0038155Y0011961D01*
X0038088Y0011963D01*
X0038088Y0011962D02*
X0036922Y0011962D01*
X0036922Y0007762D01*
X0041335Y0007762D02*
X0041335Y0011962D01*
X0043202Y0011962D01*
X0042735Y0010096D02*
X0041335Y0010096D01*
X0041335Y0007762D02*
X0043202Y0007762D01*
X0045222Y0007762D02*
X0045222Y0011962D01*
X0047555Y0007762D01*
X0047555Y0011962D01*
X0246929Y0147520D02*
X0246929Y0156969D01*
X0271732Y0156969D01*
X0271732Y0147520D01*
X0246929Y0147520D01*
D13*
X0259510Y0151394D02*
X0261010Y0151394D01*
X0260560Y0151994D02*
X0260560Y0150794D01*
X0259510Y0151394D02*
X0260110Y0153494D01*
X0262201Y0150944D02*
X0262351Y0150944D01*
X0262351Y0150794D01*
X0262201Y0150794D01*
X0262201Y0150944D01*
X0264292Y0150794D02*
X0265042Y0153494D01*
X0263542Y0153494D01*
X0263542Y0153194D01*
X0266581Y0153494D02*
X0266581Y0150794D01*
X0266581Y0151844D02*
X0268081Y0153494D01*
X0267181Y0152444D02*
X0268081Y0150794D01*
X0267978Y0144494D02*
X0267228Y0144494D01*
X0267228Y0141794D01*
X0267228Y0142994D02*
X0267978Y0142994D01*
X0268128Y0142994D02*
X0268728Y0141794D01*
X0270081Y0141794D02*
X0271581Y0141794D01*
X0270831Y0141794D02*
X0270831Y0144494D01*
X0270081Y0143894D01*
X0267978Y0144494D02*
X0268032Y0144492D01*
X0268085Y0144486D01*
X0268137Y0144477D01*
X0268189Y0144464D01*
X0268240Y0144447D01*
X0268290Y0144426D01*
X0268337Y0144402D01*
X0268383Y0144375D01*
X0268427Y0144344D01*
X0268469Y0144311D01*
X0268508Y0144274D01*
X0268545Y0144235D01*
X0268578Y0144193D01*
X0268609Y0144149D01*
X0268636Y0144103D01*
X0268660Y0144056D01*
X0268681Y0144006D01*
X0268698Y0143955D01*
X0268711Y0143903D01*
X0268720Y0143851D01*
X0268726Y0143798D01*
X0268728Y0143744D01*
X0268726Y0143690D01*
X0268720Y0143637D01*
X0268711Y0143585D01*
X0268698Y0143533D01*
X0268681Y0143482D01*
X0268660Y0143432D01*
X0268636Y0143385D01*
X0268609Y0143339D01*
X0268578Y0143295D01*
X0268545Y0143253D01*
X0268508Y0143214D01*
X0268469Y0143177D01*
X0268427Y0143144D01*
X0268383Y0143113D01*
X0268337Y0143086D01*
X0268290Y0143062D01*
X0268240Y0143041D01*
X0268189Y0143024D01*
X0268137Y0143011D01*
X0268085Y0143002D01*
X0268032Y0142996D01*
X0267978Y0142994D01*
X0151350Y0144757D02*
X0148650Y0145657D01*
X0149250Y0146874D02*
X0150750Y0146874D01*
X0150797Y0146876D01*
X0150844Y0146881D01*
X0150890Y0146891D01*
X0150935Y0146903D01*
X0150980Y0146920D01*
X0151022Y0146939D01*
X0151063Y0146962D01*
X0151103Y0146989D01*
X0151140Y0147018D01*
X0151174Y0147050D01*
X0151206Y0147084D01*
X0151235Y0147121D01*
X0151262Y0147161D01*
X0151285Y0147202D01*
X0151304Y0147244D01*
X0151321Y0147289D01*
X0151333Y0147334D01*
X0151343Y0147380D01*
X0151348Y0147427D01*
X0151350Y0147474D01*
X0151350Y0148074D01*
X0150750Y0149274D02*
X0149250Y0149274D01*
X0149203Y0149276D01*
X0149156Y0149281D01*
X0149110Y0149291D01*
X0149065Y0149303D01*
X0149020Y0149320D01*
X0148978Y0149339D01*
X0148937Y0149362D01*
X0148897Y0149389D01*
X0148860Y0149418D01*
X0148826Y0149450D01*
X0148794Y0149484D01*
X0148765Y0149521D01*
X0148738Y0149561D01*
X0148715Y0149602D01*
X0148696Y0149644D01*
X0148679Y0149689D01*
X0148667Y0149734D01*
X0148657Y0149780D01*
X0148652Y0149827D01*
X0148650Y0149874D01*
X0148650Y0150474D01*
X0150750Y0149274D02*
X0150797Y0149276D01*
X0150844Y0149281D01*
X0150890Y0149291D01*
X0150935Y0149303D01*
X0150980Y0149320D01*
X0151022Y0149339D01*
X0151063Y0149362D01*
X0151103Y0149389D01*
X0151140Y0149418D01*
X0151174Y0149450D01*
X0151206Y0149484D01*
X0151235Y0149521D01*
X0151262Y0149561D01*
X0151285Y0149602D01*
X0151304Y0149644D01*
X0151321Y0149689D01*
X0151333Y0149734D01*
X0151343Y0149780D01*
X0151348Y0149827D01*
X0151350Y0149874D01*
X0151350Y0150474D01*
X0148650Y0148074D02*
X0148650Y0147474D01*
X0148652Y0147427D01*
X0148657Y0147380D01*
X0148667Y0147334D01*
X0148679Y0147289D01*
X0148696Y0147244D01*
X0148715Y0147202D01*
X0148738Y0147161D01*
X0148765Y0147121D01*
X0148794Y0147084D01*
X0148826Y0147050D01*
X0148860Y0147018D01*
X0148897Y0146989D01*
X0148937Y0146962D01*
X0148978Y0146939D01*
X0149020Y0146920D01*
X0149065Y0146903D01*
X0149110Y0146891D01*
X0149156Y0146881D01*
X0149203Y0146876D01*
X0149250Y0146874D01*
X0151350Y0144757D02*
X0148650Y0143857D01*
X0141350Y0143943D02*
X0141350Y0144843D01*
X0139850Y0144843D01*
X0139850Y0144393D01*
X0139250Y0143343D02*
X0139203Y0143345D01*
X0139156Y0143350D01*
X0139110Y0143360D01*
X0139065Y0143372D01*
X0139020Y0143389D01*
X0138978Y0143408D01*
X0138937Y0143431D01*
X0138897Y0143458D01*
X0138860Y0143487D01*
X0138826Y0143519D01*
X0138794Y0143553D01*
X0138765Y0143590D01*
X0138738Y0143630D01*
X0138715Y0143671D01*
X0138696Y0143713D01*
X0138679Y0143758D01*
X0138667Y0143803D01*
X0138657Y0143849D01*
X0138652Y0143896D01*
X0138650Y0143943D01*
X0138650Y0144843D01*
X0138650Y0146415D02*
X0141350Y0147915D01*
X0138650Y0147915D01*
X0138650Y0146415D02*
X0141350Y0146415D01*
X0141350Y0143943D02*
X0141348Y0143896D01*
X0141343Y0143849D01*
X0141333Y0143803D01*
X0141321Y0143758D01*
X0141304Y0143713D01*
X0141285Y0143671D01*
X0141262Y0143630D01*
X0141235Y0143590D01*
X0141206Y0143553D01*
X0141174Y0143519D01*
X0141140Y0143487D01*
X0141103Y0143458D01*
X0141063Y0143431D01*
X0141022Y0143408D01*
X0140980Y0143389D01*
X0140935Y0143372D01*
X0140890Y0143360D01*
X0140844Y0143350D01*
X0140797Y0143345D01*
X0140750Y0143343D01*
X0139250Y0143343D01*
X0131350Y0144927D02*
X0131350Y0145677D01*
X0131350Y0144927D02*
X0128650Y0144927D01*
X0128650Y0145677D01*
X0128652Y0145731D01*
X0128658Y0145784D01*
X0128667Y0145836D01*
X0128680Y0145888D01*
X0128697Y0145939D01*
X0128718Y0145989D01*
X0128742Y0146036D01*
X0128769Y0146082D01*
X0128800Y0146126D01*
X0128833Y0146168D01*
X0128870Y0146207D01*
X0128909Y0146244D01*
X0128951Y0146277D01*
X0128995Y0146308D01*
X0129041Y0146335D01*
X0129088Y0146359D01*
X0129138Y0146380D01*
X0129189Y0146397D01*
X0129241Y0146410D01*
X0129293Y0146419D01*
X0129346Y0146425D01*
X0129400Y0146427D01*
X0130600Y0146427D01*
X0130654Y0146425D01*
X0130707Y0146419D01*
X0130759Y0146410D01*
X0130811Y0146397D01*
X0130862Y0146380D01*
X0130912Y0146359D01*
X0130959Y0146335D01*
X0131005Y0146308D01*
X0131049Y0146277D01*
X0131091Y0146244D01*
X0131130Y0146207D01*
X0131167Y0146168D01*
X0131200Y0146126D01*
X0131231Y0146082D01*
X0131258Y0146036D01*
X0131282Y0145989D01*
X0131303Y0145939D01*
X0131320Y0145888D01*
X0131333Y0145836D01*
X0131342Y0145784D01*
X0131348Y0145731D01*
X0131350Y0145677D01*
X0130600Y0147903D02*
X0129850Y0147903D01*
X0129850Y0148803D01*
X0129850Y0147903D02*
X0129783Y0147905D01*
X0129716Y0147911D01*
X0129649Y0147920D01*
X0129583Y0147933D01*
X0129518Y0147950D01*
X0129454Y0147970D01*
X0129391Y0147994D01*
X0129329Y0148022D01*
X0129270Y0148053D01*
X0129212Y0148087D01*
X0129156Y0148124D01*
X0129102Y0148165D01*
X0129050Y0148208D01*
X0129001Y0148254D01*
X0128955Y0148303D01*
X0128912Y0148355D01*
X0128871Y0148409D01*
X0128834Y0148465D01*
X0128800Y0148523D01*
X0128769Y0148582D01*
X0128741Y0148644D01*
X0128717Y0148707D01*
X0128697Y0148771D01*
X0128680Y0148836D01*
X0128667Y0148902D01*
X0128658Y0148969D01*
X0128652Y0149036D01*
X0128650Y0149103D01*
X0129850Y0148803D02*
X0129852Y0148850D01*
X0129857Y0148897D01*
X0129867Y0148943D01*
X0129879Y0148988D01*
X0129896Y0149033D01*
X0129915Y0149075D01*
X0129938Y0149116D01*
X0129965Y0149156D01*
X0129994Y0149193D01*
X0130026Y0149227D01*
X0130060Y0149259D01*
X0130097Y0149288D01*
X0130137Y0149315D01*
X0130178Y0149338D01*
X0130220Y0149357D01*
X0130265Y0149374D01*
X0130310Y0149386D01*
X0130356Y0149396D01*
X0130403Y0149401D01*
X0130450Y0149403D01*
X0130600Y0149403D01*
X0130654Y0149401D01*
X0130707Y0149395D01*
X0130759Y0149386D01*
X0130811Y0149373D01*
X0130862Y0149356D01*
X0130912Y0149335D01*
X0130959Y0149311D01*
X0131005Y0149284D01*
X0131049Y0149253D01*
X0131091Y0149220D01*
X0131130Y0149183D01*
X0131167Y0149144D01*
X0131200Y0149102D01*
X0131231Y0149058D01*
X0131258Y0149012D01*
X0131282Y0148965D01*
X0131303Y0148915D01*
X0131320Y0148864D01*
X0131333Y0148812D01*
X0131342Y0148760D01*
X0131348Y0148707D01*
X0131350Y0148653D01*
X0131348Y0148599D01*
X0131342Y0148546D01*
X0131333Y0148494D01*
X0131320Y0148442D01*
X0131303Y0148391D01*
X0131282Y0148341D01*
X0131258Y0148294D01*
X0131231Y0148248D01*
X0131200Y0148204D01*
X0131167Y0148162D01*
X0131130Y0148123D01*
X0131091Y0148086D01*
X0131049Y0148053D01*
X0131005Y0148022D01*
X0130959Y0147995D01*
X0130912Y0147971D01*
X0130862Y0147950D01*
X0130811Y0147933D01*
X0130759Y0147920D01*
X0130707Y0147911D01*
X0130654Y0147905D01*
X0130600Y0147903D01*
X0138650Y0149487D02*
X0138650Y0150237D01*
X0138650Y0149487D02*
X0141350Y0149487D01*
X0141350Y0150237D01*
X0141348Y0150291D01*
X0141342Y0150344D01*
X0141333Y0150396D01*
X0141320Y0150448D01*
X0141303Y0150499D01*
X0141282Y0150549D01*
X0141258Y0150596D01*
X0141231Y0150642D01*
X0141200Y0150686D01*
X0141167Y0150728D01*
X0141130Y0150767D01*
X0141091Y0150804D01*
X0141049Y0150837D01*
X0141005Y0150868D01*
X0140959Y0150895D01*
X0140912Y0150919D01*
X0140862Y0150940D01*
X0140811Y0150957D01*
X0140759Y0150970D01*
X0140707Y0150979D01*
X0140654Y0150985D01*
X0140600Y0150987D01*
X0139400Y0150987D01*
X0139346Y0150985D01*
X0139293Y0150979D01*
X0139241Y0150970D01*
X0139189Y0150957D01*
X0139138Y0150940D01*
X0139088Y0150919D01*
X0139041Y0150895D01*
X0138995Y0150868D01*
X0138951Y0150837D01*
X0138909Y0150804D01*
X0138870Y0150767D01*
X0138833Y0150728D01*
X0138800Y0150686D01*
X0138769Y0150642D01*
X0138742Y0150596D01*
X0138718Y0150549D01*
X0138697Y0150499D01*
X0138680Y0150448D01*
X0138667Y0150396D01*
X0138658Y0150344D01*
X0138652Y0150291D01*
X0138650Y0150237D01*
X0121350Y0145677D02*
X0121350Y0144927D01*
X0118650Y0144927D01*
X0118650Y0145677D01*
X0118652Y0145731D01*
X0118658Y0145784D01*
X0118667Y0145836D01*
X0118680Y0145888D01*
X0118697Y0145939D01*
X0118718Y0145989D01*
X0118742Y0146036D01*
X0118769Y0146082D01*
X0118800Y0146126D01*
X0118833Y0146168D01*
X0118870Y0146207D01*
X0118909Y0146244D01*
X0118951Y0146277D01*
X0118995Y0146308D01*
X0119041Y0146335D01*
X0119088Y0146359D01*
X0119138Y0146380D01*
X0119189Y0146397D01*
X0119241Y0146410D01*
X0119293Y0146419D01*
X0119346Y0146425D01*
X0119400Y0146427D01*
X0120600Y0146427D01*
X0120654Y0146425D01*
X0120707Y0146419D01*
X0120759Y0146410D01*
X0120811Y0146397D01*
X0120862Y0146380D01*
X0120912Y0146359D01*
X0120959Y0146335D01*
X0121005Y0146308D01*
X0121049Y0146277D01*
X0121091Y0146244D01*
X0121130Y0146207D01*
X0121167Y0146168D01*
X0121200Y0146126D01*
X0121231Y0146082D01*
X0121258Y0146036D01*
X0121282Y0145989D01*
X0121303Y0145939D01*
X0121320Y0145888D01*
X0121333Y0145836D01*
X0121342Y0145784D01*
X0121348Y0145731D01*
X0121350Y0145677D01*
X0120600Y0147903D02*
X0120654Y0147905D01*
X0120707Y0147911D01*
X0120759Y0147920D01*
X0120811Y0147933D01*
X0120862Y0147950D01*
X0120912Y0147971D01*
X0120959Y0147995D01*
X0121005Y0148022D01*
X0121049Y0148053D01*
X0121091Y0148086D01*
X0121130Y0148123D01*
X0121167Y0148162D01*
X0121200Y0148204D01*
X0121231Y0148248D01*
X0121258Y0148294D01*
X0121282Y0148341D01*
X0121303Y0148391D01*
X0121320Y0148442D01*
X0121333Y0148494D01*
X0121342Y0148546D01*
X0121348Y0148599D01*
X0121350Y0148653D01*
X0121348Y0148707D01*
X0121342Y0148760D01*
X0121333Y0148812D01*
X0121320Y0148864D01*
X0121303Y0148915D01*
X0121282Y0148965D01*
X0121258Y0149012D01*
X0121231Y0149058D01*
X0121200Y0149102D01*
X0121167Y0149144D01*
X0121130Y0149183D01*
X0121091Y0149220D01*
X0121049Y0149253D01*
X0121005Y0149284D01*
X0120959Y0149311D01*
X0120912Y0149335D01*
X0120862Y0149356D01*
X0120811Y0149373D01*
X0120759Y0149386D01*
X0120707Y0149395D01*
X0120654Y0149401D01*
X0120600Y0149403D01*
X0120546Y0149401D01*
X0120493Y0149395D01*
X0120441Y0149386D01*
X0120389Y0149373D01*
X0120338Y0149356D01*
X0120288Y0149335D01*
X0120241Y0149311D01*
X0120195Y0149284D01*
X0120151Y0149253D01*
X0120109Y0149220D01*
X0120070Y0149183D01*
X0120033Y0149144D01*
X0120000Y0149102D01*
X0119969Y0149058D01*
X0119942Y0149012D01*
X0119918Y0148965D01*
X0119897Y0148915D01*
X0119880Y0148864D01*
X0119867Y0148812D01*
X0119858Y0148760D01*
X0119852Y0148707D01*
X0119850Y0148653D01*
X0119852Y0148599D01*
X0119858Y0148546D01*
X0119867Y0148494D01*
X0119880Y0148442D01*
X0119897Y0148391D01*
X0119918Y0148341D01*
X0119942Y0148294D01*
X0119969Y0148248D01*
X0120000Y0148204D01*
X0120033Y0148162D01*
X0120070Y0148123D01*
X0120109Y0148086D01*
X0120151Y0148053D01*
X0120195Y0148022D01*
X0120241Y0147995D01*
X0120288Y0147971D01*
X0120338Y0147950D01*
X0120389Y0147933D01*
X0120441Y0147920D01*
X0120493Y0147911D01*
X0120546Y0147905D01*
X0120600Y0147903D01*
X0119250Y0148053D02*
X0119298Y0148055D01*
X0119346Y0148061D01*
X0119394Y0148070D01*
X0119440Y0148084D01*
X0119485Y0148101D01*
X0119529Y0148122D01*
X0119571Y0148146D01*
X0119610Y0148173D01*
X0119648Y0148204D01*
X0119683Y0148237D01*
X0119715Y0148274D01*
X0119744Y0148312D01*
X0119770Y0148353D01*
X0119792Y0148396D01*
X0119811Y0148440D01*
X0119826Y0148486D01*
X0119838Y0148533D01*
X0119846Y0148581D01*
X0119850Y0148629D01*
X0119850Y0148677D01*
X0119846Y0148725D01*
X0119838Y0148773D01*
X0119826Y0148820D01*
X0119811Y0148866D01*
X0119792Y0148910D01*
X0119770Y0148953D01*
X0119744Y0148994D01*
X0119715Y0149032D01*
X0119683Y0149069D01*
X0119648Y0149102D01*
X0119610Y0149133D01*
X0119571Y0149160D01*
X0119529Y0149184D01*
X0119485Y0149205D01*
X0119440Y0149222D01*
X0119394Y0149236D01*
X0119346Y0149245D01*
X0119298Y0149251D01*
X0119250Y0149253D01*
X0119202Y0149251D01*
X0119154Y0149245D01*
X0119106Y0149236D01*
X0119060Y0149222D01*
X0119015Y0149205D01*
X0118971Y0149184D01*
X0118929Y0149160D01*
X0118890Y0149133D01*
X0118852Y0149102D01*
X0118817Y0149069D01*
X0118785Y0149032D01*
X0118756Y0148994D01*
X0118730Y0148953D01*
X0118708Y0148910D01*
X0118689Y0148866D01*
X0118674Y0148820D01*
X0118662Y0148773D01*
X0118654Y0148725D01*
X0118650Y0148677D01*
X0118650Y0148629D01*
X0118654Y0148581D01*
X0118662Y0148533D01*
X0118674Y0148486D01*
X0118689Y0148440D01*
X0118708Y0148396D01*
X0118730Y0148353D01*
X0118756Y0148312D01*
X0118785Y0148274D01*
X0118817Y0148237D01*
X0118852Y0148204D01*
X0118890Y0148173D01*
X0118929Y0148146D01*
X0118971Y0148122D01*
X0119015Y0148101D01*
X0119060Y0148084D01*
X0119106Y0148070D01*
X0119154Y0148061D01*
X0119202Y0148055D01*
X0119250Y0148053D01*
X0111350Y0145677D02*
X0111350Y0144927D01*
X0108650Y0144927D01*
X0108650Y0145677D01*
X0108652Y0145731D01*
X0108658Y0145784D01*
X0108667Y0145836D01*
X0108680Y0145888D01*
X0108697Y0145939D01*
X0108718Y0145989D01*
X0108742Y0146036D01*
X0108769Y0146082D01*
X0108800Y0146126D01*
X0108833Y0146168D01*
X0108870Y0146207D01*
X0108909Y0146244D01*
X0108951Y0146277D01*
X0108995Y0146308D01*
X0109041Y0146335D01*
X0109088Y0146359D01*
X0109138Y0146380D01*
X0109189Y0146397D01*
X0109241Y0146410D01*
X0109293Y0146419D01*
X0109346Y0146425D01*
X0109400Y0146427D01*
X0110600Y0146427D01*
X0110654Y0146425D01*
X0110707Y0146419D01*
X0110759Y0146410D01*
X0110811Y0146397D01*
X0110862Y0146380D01*
X0110912Y0146359D01*
X0110959Y0146335D01*
X0111005Y0146308D01*
X0111049Y0146277D01*
X0111091Y0146244D01*
X0111130Y0146207D01*
X0111167Y0146168D01*
X0111200Y0146126D01*
X0111231Y0146082D01*
X0111258Y0146036D01*
X0111282Y0145989D01*
X0111303Y0145939D01*
X0111320Y0145888D01*
X0111333Y0145836D01*
X0111342Y0145784D01*
X0111348Y0145731D01*
X0111350Y0145677D01*
X0111350Y0148203D02*
X0111348Y0148270D01*
X0111342Y0148337D01*
X0111333Y0148404D01*
X0111320Y0148470D01*
X0111303Y0148535D01*
X0111283Y0148599D01*
X0111259Y0148662D01*
X0111231Y0148724D01*
X0111200Y0148783D01*
X0111166Y0148841D01*
X0111129Y0148897D01*
X0111088Y0148951D01*
X0111045Y0149003D01*
X0110999Y0149052D01*
X0110950Y0149098D01*
X0110898Y0149141D01*
X0110844Y0149182D01*
X0110788Y0149219D01*
X0110730Y0149253D01*
X0110671Y0149284D01*
X0110609Y0149312D01*
X0110546Y0149336D01*
X0110482Y0149356D01*
X0110417Y0149373D01*
X0110351Y0149386D01*
X0110284Y0149395D01*
X0110217Y0149401D01*
X0110150Y0149403D01*
X0109400Y0149403D01*
X0109346Y0149401D01*
X0109293Y0149395D01*
X0109241Y0149386D01*
X0109189Y0149373D01*
X0109138Y0149356D01*
X0109088Y0149335D01*
X0109041Y0149311D01*
X0108995Y0149284D01*
X0108951Y0149253D01*
X0108909Y0149220D01*
X0108870Y0149183D01*
X0108833Y0149144D01*
X0108800Y0149102D01*
X0108769Y0149058D01*
X0108742Y0149012D01*
X0108718Y0148965D01*
X0108697Y0148915D01*
X0108680Y0148864D01*
X0108667Y0148812D01*
X0108658Y0148760D01*
X0108652Y0148707D01*
X0108650Y0148653D01*
X0108652Y0148599D01*
X0108658Y0148546D01*
X0108667Y0148494D01*
X0108680Y0148442D01*
X0108697Y0148391D01*
X0108718Y0148341D01*
X0108742Y0148294D01*
X0108769Y0148248D01*
X0108800Y0148204D01*
X0108833Y0148162D01*
X0108870Y0148123D01*
X0108909Y0148086D01*
X0108951Y0148053D01*
X0108995Y0148022D01*
X0109041Y0147995D01*
X0109088Y0147971D01*
X0109138Y0147950D01*
X0109189Y0147933D01*
X0109241Y0147920D01*
X0109293Y0147911D01*
X0109346Y0147905D01*
X0109400Y0147903D01*
X0109550Y0147903D01*
X0109597Y0147905D01*
X0109644Y0147910D01*
X0109690Y0147920D01*
X0109735Y0147932D01*
X0109780Y0147949D01*
X0109822Y0147968D01*
X0109863Y0147991D01*
X0109903Y0148018D01*
X0109940Y0148047D01*
X0109974Y0148079D01*
X0110006Y0148113D01*
X0110035Y0148150D01*
X0110062Y0148190D01*
X0110085Y0148231D01*
X0110104Y0148273D01*
X0110121Y0148318D01*
X0110133Y0148363D01*
X0110143Y0148409D01*
X0110148Y0148456D01*
X0110150Y0148503D01*
X0110150Y0149403D01*
X0101350Y0149343D02*
X0101350Y0150843D01*
X0101350Y0149343D02*
X0099850Y0150618D01*
X0098650Y0150168D02*
X0098652Y0150111D01*
X0098658Y0150054D01*
X0098667Y0149997D01*
X0098680Y0149941D01*
X0098697Y0149886D01*
X0098717Y0149833D01*
X0098741Y0149781D01*
X0098769Y0149730D01*
X0098799Y0149682D01*
X0098833Y0149635D01*
X0098870Y0149591D01*
X0098909Y0149550D01*
X0098952Y0149511D01*
X0098996Y0149475D01*
X0099043Y0149442D01*
X0099092Y0149412D01*
X0099143Y0149386D01*
X0099196Y0149363D01*
X0099250Y0149343D01*
X0099850Y0150618D02*
X0099812Y0150655D01*
X0099771Y0150690D01*
X0099728Y0150721D01*
X0099682Y0150749D01*
X0099635Y0150773D01*
X0099586Y0150794D01*
X0099535Y0150812D01*
X0099484Y0150825D01*
X0099431Y0150835D01*
X0099378Y0150841D01*
X0099325Y0150843D01*
X0099275Y0150841D01*
X0099224Y0150835D01*
X0099175Y0150826D01*
X0099126Y0150813D01*
X0099078Y0150796D01*
X0099032Y0150776D01*
X0098988Y0150753D01*
X0098945Y0150726D01*
X0098904Y0150696D01*
X0098866Y0150663D01*
X0098830Y0150627D01*
X0098797Y0150589D01*
X0098767Y0150548D01*
X0098740Y0150506D01*
X0098717Y0150461D01*
X0098697Y0150415D01*
X0098680Y0150367D01*
X0098667Y0150318D01*
X0098658Y0150269D01*
X0098652Y0150218D01*
X0098650Y0150168D01*
X0098650Y0147213D02*
X0101350Y0147213D01*
X0101350Y0146463D02*
X0101350Y0147963D01*
X0099250Y0146463D02*
X0098650Y0147213D01*
X0099400Y0144987D02*
X0100600Y0144987D01*
X0100654Y0144985D01*
X0100707Y0144979D01*
X0100759Y0144970D01*
X0100811Y0144957D01*
X0100862Y0144940D01*
X0100912Y0144919D01*
X0100959Y0144895D01*
X0101005Y0144868D01*
X0101049Y0144837D01*
X0101091Y0144804D01*
X0101130Y0144767D01*
X0101167Y0144728D01*
X0101200Y0144686D01*
X0101231Y0144642D01*
X0101258Y0144596D01*
X0101282Y0144549D01*
X0101303Y0144499D01*
X0101320Y0144448D01*
X0101333Y0144396D01*
X0101342Y0144344D01*
X0101348Y0144291D01*
X0101350Y0144237D01*
X0101350Y0143487D01*
X0098650Y0143487D01*
X0098650Y0144237D01*
X0098652Y0144291D01*
X0098658Y0144344D01*
X0098667Y0144396D01*
X0098680Y0144448D01*
X0098697Y0144499D01*
X0098718Y0144549D01*
X0098742Y0144596D01*
X0098769Y0144642D01*
X0098800Y0144686D01*
X0098833Y0144728D01*
X0098870Y0144767D01*
X0098909Y0144804D01*
X0098951Y0144837D01*
X0098995Y0144868D01*
X0099041Y0144895D01*
X0099088Y0144919D01*
X0099138Y0144940D01*
X0099189Y0144957D01*
X0099241Y0144970D01*
X0099293Y0144979D01*
X0099346Y0144985D01*
X0099400Y0144987D01*
X0091350Y0144900D02*
X0088650Y0145800D01*
X0091350Y0146700D01*
X0090675Y0146475D02*
X0090675Y0145125D01*
X0090975Y0149205D02*
X0090892Y0149243D01*
X0090807Y0149279D01*
X0090721Y0149310D01*
X0090633Y0149338D01*
X0090545Y0149362D01*
X0090456Y0149383D01*
X0090365Y0149400D01*
X0090275Y0149413D01*
X0090183Y0149422D01*
X0090092Y0149428D01*
X0090000Y0149430D01*
X0090000Y0147930D02*
X0090092Y0147932D01*
X0090183Y0147938D01*
X0090275Y0147947D01*
X0090365Y0147960D01*
X0090456Y0147977D01*
X0090545Y0147998D01*
X0090633Y0148022D01*
X0090721Y0148050D01*
X0090807Y0148081D01*
X0090892Y0148117D01*
X0090975Y0148155D01*
X0090750Y0148080D02*
X0089250Y0149280D01*
X0089025Y0149205D02*
X0088982Y0149188D01*
X0088941Y0149168D01*
X0088902Y0149145D01*
X0088864Y0149118D01*
X0088829Y0149088D01*
X0088797Y0149056D01*
X0088767Y0149021D01*
X0088740Y0148984D01*
X0088717Y0148944D01*
X0088697Y0148903D01*
X0088680Y0148860D01*
X0088667Y0148816D01*
X0088658Y0148771D01*
X0088652Y0148726D01*
X0088650Y0148680D01*
X0088652Y0148634D01*
X0088658Y0148589D01*
X0088667Y0148544D01*
X0088680Y0148500D01*
X0088697Y0148457D01*
X0088717Y0148416D01*
X0088740Y0148376D01*
X0088767Y0148339D01*
X0088797Y0148304D01*
X0088829Y0148272D01*
X0088864Y0148242D01*
X0088902Y0148215D01*
X0088941Y0148192D01*
X0088982Y0148172D01*
X0089025Y0148155D01*
X0089025Y0149205D02*
X0089108Y0149243D01*
X0089193Y0149279D01*
X0089279Y0149310D01*
X0089367Y0149338D01*
X0089455Y0149362D01*
X0089544Y0149383D01*
X0089635Y0149400D01*
X0089725Y0149413D01*
X0089817Y0149422D01*
X0089908Y0149428D01*
X0090000Y0149430D01*
X0090000Y0147930D02*
X0089908Y0147932D01*
X0089817Y0147938D01*
X0089725Y0147947D01*
X0089635Y0147960D01*
X0089544Y0147977D01*
X0089455Y0147998D01*
X0089367Y0148022D01*
X0089279Y0148050D01*
X0089193Y0148081D01*
X0089108Y0148117D01*
X0089025Y0148155D01*
X0090975Y0149205D02*
X0091018Y0149188D01*
X0091059Y0149168D01*
X0091098Y0149145D01*
X0091136Y0149118D01*
X0091171Y0149088D01*
X0091203Y0149056D01*
X0091233Y0149021D01*
X0091260Y0148984D01*
X0091283Y0148944D01*
X0091303Y0148903D01*
X0091320Y0148860D01*
X0091333Y0148816D01*
X0091342Y0148771D01*
X0091348Y0148726D01*
X0091350Y0148680D01*
X0091348Y0148634D01*
X0091342Y0148589D01*
X0091333Y0148544D01*
X0091320Y0148500D01*
X0091303Y0148457D01*
X0091283Y0148416D01*
X0091260Y0148376D01*
X0091233Y0148339D01*
X0091203Y0148304D01*
X0091171Y0148272D01*
X0091136Y0148242D01*
X0091098Y0148215D01*
X0091059Y0148192D01*
X0091018Y0148172D01*
X0090975Y0148155D01*
X0081350Y0147930D02*
X0081350Y0149430D01*
X0081350Y0148680D02*
X0078650Y0148680D01*
X0079250Y0147930D01*
X0080675Y0146475D02*
X0080675Y0145125D01*
X0081350Y0144900D02*
X0078650Y0145800D01*
X0081350Y0146700D01*
X0071350Y0146700D02*
X0068650Y0145800D01*
X0071350Y0144900D01*
X0070675Y0145125D02*
X0070675Y0146475D01*
X0071350Y0147930D02*
X0071350Y0149430D01*
X0071350Y0147930D02*
X0069850Y0149205D01*
X0068650Y0148755D02*
X0068652Y0148698D01*
X0068658Y0148641D01*
X0068667Y0148584D01*
X0068680Y0148528D01*
X0068697Y0148473D01*
X0068717Y0148420D01*
X0068741Y0148368D01*
X0068769Y0148317D01*
X0068799Y0148269D01*
X0068833Y0148222D01*
X0068870Y0148178D01*
X0068909Y0148137D01*
X0068952Y0148098D01*
X0068996Y0148062D01*
X0069043Y0148029D01*
X0069092Y0147999D01*
X0069143Y0147973D01*
X0069196Y0147950D01*
X0069250Y0147930D01*
X0069850Y0149205D02*
X0069812Y0149242D01*
X0069771Y0149277D01*
X0069728Y0149308D01*
X0069682Y0149336D01*
X0069635Y0149360D01*
X0069586Y0149381D01*
X0069535Y0149399D01*
X0069484Y0149412D01*
X0069431Y0149422D01*
X0069378Y0149428D01*
X0069325Y0149430D01*
X0069275Y0149428D01*
X0069224Y0149422D01*
X0069175Y0149413D01*
X0069126Y0149400D01*
X0069078Y0149383D01*
X0069032Y0149363D01*
X0068988Y0149340D01*
X0068945Y0149313D01*
X0068904Y0149283D01*
X0068866Y0149250D01*
X0068830Y0149214D01*
X0068797Y0149176D01*
X0068767Y0149135D01*
X0068740Y0149093D01*
X0068717Y0149048D01*
X0068697Y0149002D01*
X0068680Y0148954D01*
X0068667Y0148905D01*
X0068658Y0148856D01*
X0068652Y0148805D01*
X0068650Y0148755D01*
X0061350Y0148680D02*
X0061350Y0147930D01*
X0061350Y0148680D02*
X0061348Y0148734D01*
X0061342Y0148787D01*
X0061333Y0148839D01*
X0061320Y0148891D01*
X0061303Y0148942D01*
X0061282Y0148992D01*
X0061258Y0149039D01*
X0061231Y0149085D01*
X0061200Y0149129D01*
X0061167Y0149171D01*
X0061130Y0149210D01*
X0061091Y0149247D01*
X0061049Y0149280D01*
X0061005Y0149311D01*
X0060959Y0149338D01*
X0060912Y0149362D01*
X0060862Y0149383D01*
X0060811Y0149400D01*
X0060759Y0149413D01*
X0060707Y0149422D01*
X0060654Y0149428D01*
X0060600Y0149430D01*
X0060546Y0149428D01*
X0060493Y0149422D01*
X0060441Y0149413D01*
X0060389Y0149400D01*
X0060338Y0149383D01*
X0060288Y0149362D01*
X0060241Y0149338D01*
X0060195Y0149311D01*
X0060151Y0149280D01*
X0060109Y0149247D01*
X0060070Y0149210D01*
X0060033Y0149171D01*
X0060000Y0149129D01*
X0059969Y0149085D01*
X0059942Y0149039D01*
X0059918Y0148992D01*
X0059897Y0148942D01*
X0059880Y0148891D01*
X0059867Y0148839D01*
X0059858Y0148787D01*
X0059852Y0148734D01*
X0059850Y0148680D01*
X0059850Y0148830D02*
X0059850Y0148230D01*
X0059850Y0148830D02*
X0059848Y0148878D01*
X0059842Y0148926D01*
X0059833Y0148974D01*
X0059819Y0149020D01*
X0059802Y0149065D01*
X0059781Y0149109D01*
X0059757Y0149151D01*
X0059730Y0149190D01*
X0059699Y0149228D01*
X0059666Y0149263D01*
X0059629Y0149295D01*
X0059591Y0149324D01*
X0059550Y0149350D01*
X0059507Y0149372D01*
X0059463Y0149391D01*
X0059417Y0149406D01*
X0059370Y0149418D01*
X0059322Y0149426D01*
X0059274Y0149430D01*
X0059226Y0149430D01*
X0059178Y0149426D01*
X0059130Y0149418D01*
X0059083Y0149406D01*
X0059037Y0149391D01*
X0058993Y0149372D01*
X0058950Y0149350D01*
X0058909Y0149324D01*
X0058871Y0149295D01*
X0058834Y0149263D01*
X0058801Y0149228D01*
X0058770Y0149190D01*
X0058743Y0149151D01*
X0058719Y0149109D01*
X0058698Y0149065D01*
X0058681Y0149020D01*
X0058667Y0148974D01*
X0058658Y0148926D01*
X0058652Y0148878D01*
X0058650Y0148830D01*
X0058650Y0147930D01*
X0058650Y0145800D02*
X0061350Y0146700D01*
X0060675Y0146475D02*
X0060675Y0145125D01*
X0061350Y0144900D02*
X0058650Y0145800D01*
X0051350Y0144900D02*
X0048650Y0145800D01*
X0051350Y0146700D01*
X0050675Y0146475D02*
X0050675Y0145125D01*
X0050750Y0147930D02*
X0050750Y0149430D01*
X0050150Y0148980D02*
X0051350Y0148980D01*
X0050750Y0147930D02*
X0048650Y0148530D01*
X0041350Y0148830D02*
X0041350Y0147930D01*
X0041350Y0148830D02*
X0041348Y0148877D01*
X0041343Y0148924D01*
X0041333Y0148970D01*
X0041321Y0149015D01*
X0041304Y0149060D01*
X0041285Y0149102D01*
X0041262Y0149143D01*
X0041235Y0149183D01*
X0041206Y0149220D01*
X0041174Y0149254D01*
X0041140Y0149286D01*
X0041103Y0149315D01*
X0041063Y0149342D01*
X0041022Y0149365D01*
X0040980Y0149384D01*
X0040935Y0149401D01*
X0040890Y0149413D01*
X0040844Y0149423D01*
X0040797Y0149428D01*
X0040750Y0149430D01*
X0040450Y0149430D01*
X0040403Y0149428D01*
X0040356Y0149423D01*
X0040310Y0149413D01*
X0040265Y0149401D01*
X0040220Y0149384D01*
X0040178Y0149365D01*
X0040137Y0149342D01*
X0040097Y0149315D01*
X0040060Y0149286D01*
X0040026Y0149254D01*
X0039994Y0149220D01*
X0039965Y0149183D01*
X0039938Y0149143D01*
X0039915Y0149102D01*
X0039896Y0149060D01*
X0039879Y0149015D01*
X0039867Y0148970D01*
X0039857Y0148924D01*
X0039852Y0148877D01*
X0039850Y0148830D01*
X0039850Y0147930D01*
X0038650Y0147930D01*
X0038650Y0149430D01*
X0040675Y0146475D02*
X0040675Y0145125D01*
X0041350Y0144900D02*
X0038650Y0145800D01*
X0041350Y0146700D01*
X0079250Y0102934D02*
X0079299Y0102936D01*
X0079347Y0102942D01*
X0079395Y0102951D01*
X0079441Y0102965D01*
X0079487Y0102982D01*
X0079531Y0103003D01*
X0079573Y0103027D01*
X0079613Y0103054D01*
X0079651Y0103085D01*
X0079686Y0103118D01*
X0079719Y0103154D01*
X0079748Y0103193D01*
X0079775Y0103234D01*
X0079775Y0103233D02*
X0080225Y0104058D01*
X0081350Y0103758D02*
X0081348Y0103691D01*
X0081343Y0103625D01*
X0081334Y0103559D01*
X0081322Y0103493D01*
X0081306Y0103428D01*
X0081287Y0103364D01*
X0081265Y0103302D01*
X0081239Y0103240D01*
X0081210Y0103180D01*
X0081178Y0103121D01*
X0081143Y0103065D01*
X0081106Y0103010D01*
X0081065Y0102957D01*
X0081021Y0102907D01*
X0080975Y0102858D01*
X0080225Y0104058D02*
X0080252Y0104099D01*
X0080281Y0104138D01*
X0080314Y0104174D01*
X0080349Y0104207D01*
X0080387Y0104238D01*
X0080427Y0104265D01*
X0080469Y0104289D01*
X0080513Y0104310D01*
X0080559Y0104327D01*
X0080605Y0104341D01*
X0080653Y0104350D01*
X0080701Y0104356D01*
X0080750Y0104358D01*
X0080797Y0104356D01*
X0080844Y0104351D01*
X0080890Y0104341D01*
X0080935Y0104329D01*
X0080980Y0104312D01*
X0081022Y0104293D01*
X0081063Y0104270D01*
X0081103Y0104243D01*
X0081140Y0104214D01*
X0081174Y0104182D01*
X0081206Y0104148D01*
X0081235Y0104111D01*
X0081262Y0104071D01*
X0081285Y0104030D01*
X0081304Y0103988D01*
X0081321Y0103943D01*
X0081333Y0103898D01*
X0081343Y0103852D01*
X0081348Y0103805D01*
X0081350Y0103758D01*
X0078875Y0104208D02*
X0078837Y0104154D01*
X0078802Y0104098D01*
X0078771Y0104040D01*
X0078743Y0103981D01*
X0078719Y0103920D01*
X0078698Y0103857D01*
X0078681Y0103794D01*
X0078667Y0103729D01*
X0078658Y0103664D01*
X0078652Y0103599D01*
X0078650Y0103533D01*
X0078652Y0103486D01*
X0078657Y0103439D01*
X0078667Y0103393D01*
X0078679Y0103348D01*
X0078696Y0103303D01*
X0078715Y0103261D01*
X0078738Y0103220D01*
X0078765Y0103180D01*
X0078794Y0103143D01*
X0078826Y0103109D01*
X0078860Y0103077D01*
X0078897Y0103048D01*
X0078937Y0103021D01*
X0078978Y0102998D01*
X0079020Y0102979D01*
X0079065Y0102962D01*
X0079110Y0102950D01*
X0079156Y0102940D01*
X0079203Y0102935D01*
X0079250Y0102933D01*
X0078650Y0101478D02*
X0080600Y0101478D01*
X0080654Y0101476D01*
X0080707Y0101470D01*
X0080759Y0101461D01*
X0080811Y0101448D01*
X0080862Y0101431D01*
X0080912Y0101410D01*
X0080959Y0101386D01*
X0081005Y0101359D01*
X0081049Y0101328D01*
X0081091Y0101295D01*
X0081130Y0101258D01*
X0081167Y0101219D01*
X0081200Y0101177D01*
X0081231Y0101133D01*
X0081258Y0101087D01*
X0081282Y0101040D01*
X0081303Y0100990D01*
X0081320Y0100939D01*
X0081333Y0100887D01*
X0081342Y0100835D01*
X0081348Y0100782D01*
X0081350Y0100728D01*
X0081348Y0100674D01*
X0081342Y0100621D01*
X0081333Y0100569D01*
X0081320Y0100517D01*
X0081303Y0100466D01*
X0081282Y0100416D01*
X0081258Y0100369D01*
X0081231Y0100323D01*
X0081200Y0100279D01*
X0081167Y0100237D01*
X0081130Y0100198D01*
X0081091Y0100161D01*
X0081049Y0100128D01*
X0081005Y0100097D01*
X0080959Y0100070D01*
X0080912Y0100046D01*
X0080862Y0100025D01*
X0080811Y0100008D01*
X0080759Y0099995D01*
X0080707Y0099986D01*
X0080654Y0099980D01*
X0080600Y0099978D01*
X0078650Y0099978D01*
X0078650Y0097911D02*
X0078650Y0097161D01*
X0081350Y0097161D01*
X0081350Y0097911D01*
X0081348Y0097965D01*
X0081342Y0098018D01*
X0081333Y0098070D01*
X0081320Y0098122D01*
X0081303Y0098173D01*
X0081282Y0098223D01*
X0081258Y0098270D01*
X0081231Y0098316D01*
X0081200Y0098360D01*
X0081167Y0098402D01*
X0081130Y0098441D01*
X0081091Y0098478D01*
X0081049Y0098511D01*
X0081005Y0098542D01*
X0080959Y0098569D01*
X0080912Y0098593D01*
X0080862Y0098614D01*
X0080811Y0098631D01*
X0080759Y0098644D01*
X0080707Y0098653D01*
X0080654Y0098659D01*
X0080600Y0098661D01*
X0080546Y0098659D01*
X0080493Y0098653D01*
X0080441Y0098644D01*
X0080389Y0098631D01*
X0080338Y0098614D01*
X0080288Y0098593D01*
X0080241Y0098569D01*
X0080195Y0098542D01*
X0080151Y0098511D01*
X0080109Y0098478D01*
X0080070Y0098441D01*
X0080033Y0098402D01*
X0080000Y0098360D01*
X0079969Y0098316D01*
X0079942Y0098270D01*
X0079918Y0098223D01*
X0079897Y0098173D01*
X0079880Y0098122D01*
X0079867Y0098070D01*
X0079858Y0098018D01*
X0079852Y0097965D01*
X0079850Y0097911D01*
X0079850Y0097161D01*
X0079850Y0097911D02*
X0079848Y0097959D01*
X0079842Y0098007D01*
X0079833Y0098055D01*
X0079819Y0098101D01*
X0079802Y0098146D01*
X0079781Y0098190D01*
X0079757Y0098232D01*
X0079730Y0098271D01*
X0079699Y0098309D01*
X0079666Y0098344D01*
X0079629Y0098376D01*
X0079591Y0098405D01*
X0079550Y0098431D01*
X0079507Y0098453D01*
X0079463Y0098472D01*
X0079417Y0098487D01*
X0079370Y0098499D01*
X0079322Y0098507D01*
X0079274Y0098511D01*
X0079226Y0098511D01*
X0079178Y0098507D01*
X0079130Y0098499D01*
X0079083Y0098487D01*
X0079037Y0098472D01*
X0078993Y0098453D01*
X0078950Y0098431D01*
X0078909Y0098405D01*
X0078871Y0098376D01*
X0078834Y0098344D01*
X0078801Y0098309D01*
X0078770Y0098271D01*
X0078743Y0098232D01*
X0078719Y0098190D01*
X0078698Y0098146D01*
X0078681Y0098101D01*
X0078667Y0098055D01*
X0078658Y0098007D01*
X0078652Y0097959D01*
X0078650Y0097911D01*
X0078650Y0095772D02*
X0081350Y0094872D01*
X0078650Y0093972D01*
X0071250Y0093964D02*
X0068750Y0093964D01*
X0068750Y0094659D01*
X0068752Y0094711D01*
X0068758Y0094762D01*
X0068767Y0094813D01*
X0068781Y0094864D01*
X0068798Y0094913D01*
X0068819Y0094960D01*
X0068843Y0095006D01*
X0068871Y0095050D01*
X0068901Y0095092D01*
X0068935Y0095131D01*
X0068972Y0095168D01*
X0069011Y0095202D01*
X0069053Y0095232D01*
X0069097Y0095260D01*
X0069143Y0095284D01*
X0069190Y0095305D01*
X0069239Y0095322D01*
X0069290Y0095336D01*
X0069341Y0095345D01*
X0069392Y0095351D01*
X0069444Y0095353D01*
X0069496Y0095351D01*
X0069547Y0095345D01*
X0069598Y0095336D01*
X0069649Y0095322D01*
X0069698Y0095305D01*
X0069745Y0095284D01*
X0069791Y0095260D01*
X0069835Y0095232D01*
X0069877Y0095202D01*
X0069916Y0095168D01*
X0069953Y0095131D01*
X0069987Y0095092D01*
X0070017Y0095050D01*
X0070045Y0095006D01*
X0070069Y0094960D01*
X0070090Y0094913D01*
X0070107Y0094864D01*
X0070121Y0094813D01*
X0070130Y0094762D01*
X0070136Y0094711D01*
X0070138Y0094659D01*
X0070139Y0094659D02*
X0070139Y0093964D01*
X0070139Y0094798D02*
X0071250Y0095353D01*
X0070208Y0097658D02*
X0070233Y0097696D01*
X0070260Y0097732D01*
X0070290Y0097765D01*
X0070323Y0097796D01*
X0070358Y0097825D01*
X0070395Y0097850D01*
X0070434Y0097872D01*
X0070475Y0097892D01*
X0070517Y0097907D01*
X0070560Y0097920D01*
X0070604Y0097929D01*
X0070649Y0097934D01*
X0070694Y0097936D01*
X0070694Y0097937D02*
X0070740Y0097935D01*
X0070786Y0097929D01*
X0070830Y0097920D01*
X0070875Y0097907D01*
X0070917Y0097890D01*
X0070959Y0097870D01*
X0070998Y0097846D01*
X0071036Y0097820D01*
X0071071Y0097790D01*
X0071103Y0097758D01*
X0071133Y0097723D01*
X0071159Y0097685D01*
X0071183Y0097646D01*
X0071203Y0097604D01*
X0071220Y0097562D01*
X0071233Y0097517D01*
X0071242Y0097473D01*
X0071248Y0097427D01*
X0071250Y0097381D01*
X0070208Y0097659D02*
X0069792Y0096895D01*
X0068750Y0097173D02*
X0068752Y0097234D01*
X0068757Y0097295D01*
X0068766Y0097355D01*
X0068778Y0097415D01*
X0068794Y0097473D01*
X0068814Y0097531D01*
X0068836Y0097588D01*
X0068862Y0097643D01*
X0068891Y0097697D01*
X0068923Y0097748D01*
X0068958Y0097798D01*
X0069792Y0096895D02*
X0069768Y0096857D01*
X0069740Y0096821D01*
X0069710Y0096788D01*
X0069677Y0096757D01*
X0069642Y0096728D01*
X0069605Y0096703D01*
X0069566Y0096681D01*
X0069525Y0096661D01*
X0069483Y0096646D01*
X0069440Y0096633D01*
X0069396Y0096624D01*
X0069351Y0096619D01*
X0069306Y0096617D01*
X0069260Y0096619D01*
X0069214Y0096625D01*
X0069170Y0096634D01*
X0069125Y0096647D01*
X0069083Y0096664D01*
X0069041Y0096684D01*
X0069002Y0096708D01*
X0068964Y0096734D01*
X0068929Y0096764D01*
X0068897Y0096796D01*
X0068867Y0096831D01*
X0068841Y0096869D01*
X0068817Y0096908D01*
X0068797Y0096950D01*
X0068780Y0096992D01*
X0068767Y0097037D01*
X0068758Y0097081D01*
X0068752Y0097127D01*
X0068750Y0097173D01*
X0070903Y0096547D02*
X0070948Y0096595D01*
X0070991Y0096646D01*
X0071031Y0096699D01*
X0071068Y0096753D01*
X0071102Y0096810D01*
X0071133Y0096869D01*
X0071160Y0096929D01*
X0071183Y0096991D01*
X0071204Y0097054D01*
X0071220Y0097118D01*
X0071233Y0097183D01*
X0071243Y0097249D01*
X0071248Y0097315D01*
X0071250Y0097381D01*
X0071250Y0099672D02*
X0068750Y0099672D01*
X0068750Y0100366D02*
X0068750Y0098977D01*
X0061350Y0097963D02*
X0061350Y0096463D01*
X0061350Y0097213D02*
X0058650Y0097213D01*
X0059250Y0096463D01*
X0059400Y0094987D02*
X0060600Y0094987D01*
X0060654Y0094985D01*
X0060707Y0094979D01*
X0060759Y0094970D01*
X0060811Y0094957D01*
X0060862Y0094940D01*
X0060912Y0094919D01*
X0060959Y0094895D01*
X0061005Y0094868D01*
X0061049Y0094837D01*
X0061091Y0094804D01*
X0061130Y0094767D01*
X0061167Y0094728D01*
X0061200Y0094686D01*
X0061231Y0094642D01*
X0061258Y0094596D01*
X0061282Y0094549D01*
X0061303Y0094499D01*
X0061320Y0094448D01*
X0061333Y0094396D01*
X0061342Y0094344D01*
X0061348Y0094291D01*
X0061350Y0094237D01*
X0061350Y0093487D01*
X0058650Y0093487D01*
X0058650Y0094237D01*
X0058652Y0094291D01*
X0058658Y0094344D01*
X0058667Y0094396D01*
X0058680Y0094448D01*
X0058697Y0094499D01*
X0058718Y0094549D01*
X0058742Y0094596D01*
X0058769Y0094642D01*
X0058800Y0094686D01*
X0058833Y0094728D01*
X0058870Y0094767D01*
X0058909Y0094804D01*
X0058951Y0094837D01*
X0058995Y0094868D01*
X0059041Y0094895D01*
X0059088Y0094919D01*
X0059138Y0094940D01*
X0059189Y0094957D01*
X0059241Y0094970D01*
X0059293Y0094979D01*
X0059346Y0094985D01*
X0059400Y0094987D01*
X0060750Y0099343D02*
X0060750Y0100843D01*
X0060150Y0100393D02*
X0061350Y0100393D01*
X0060750Y0099343D02*
X0058650Y0099943D01*
X0051350Y0097963D02*
X0051350Y0096463D01*
X0051350Y0097213D02*
X0048650Y0097213D01*
X0049250Y0096463D01*
X0049400Y0094987D02*
X0050600Y0094987D01*
X0050654Y0094985D01*
X0050707Y0094979D01*
X0050759Y0094970D01*
X0050811Y0094957D01*
X0050862Y0094940D01*
X0050912Y0094919D01*
X0050959Y0094895D01*
X0051005Y0094868D01*
X0051049Y0094837D01*
X0051091Y0094804D01*
X0051130Y0094767D01*
X0051167Y0094728D01*
X0051200Y0094686D01*
X0051231Y0094642D01*
X0051258Y0094596D01*
X0051282Y0094549D01*
X0051303Y0094499D01*
X0051320Y0094448D01*
X0051333Y0094396D01*
X0051342Y0094344D01*
X0051348Y0094291D01*
X0051350Y0094237D01*
X0051350Y0093487D01*
X0048650Y0093487D01*
X0048650Y0094237D01*
X0048652Y0094291D01*
X0048658Y0094344D01*
X0048667Y0094396D01*
X0048680Y0094448D01*
X0048697Y0094499D01*
X0048718Y0094549D01*
X0048742Y0094596D01*
X0048769Y0094642D01*
X0048800Y0094686D01*
X0048833Y0094728D01*
X0048870Y0094767D01*
X0048909Y0094804D01*
X0048951Y0094837D01*
X0048995Y0094868D01*
X0049041Y0094895D01*
X0049088Y0094919D01*
X0049138Y0094940D01*
X0049189Y0094957D01*
X0049241Y0094970D01*
X0049293Y0094979D01*
X0049346Y0094985D01*
X0049400Y0094987D01*
X0049850Y0099343D02*
X0050600Y0099343D01*
X0049850Y0099343D02*
X0049850Y0100243D01*
X0049850Y0099343D02*
X0049783Y0099345D01*
X0049716Y0099351D01*
X0049649Y0099360D01*
X0049583Y0099373D01*
X0049518Y0099390D01*
X0049454Y0099410D01*
X0049391Y0099434D01*
X0049329Y0099462D01*
X0049270Y0099493D01*
X0049212Y0099527D01*
X0049156Y0099564D01*
X0049102Y0099605D01*
X0049050Y0099648D01*
X0049001Y0099694D01*
X0048955Y0099743D01*
X0048912Y0099795D01*
X0048871Y0099849D01*
X0048834Y0099905D01*
X0048800Y0099963D01*
X0048769Y0100022D01*
X0048741Y0100084D01*
X0048717Y0100147D01*
X0048697Y0100211D01*
X0048680Y0100276D01*
X0048667Y0100342D01*
X0048658Y0100409D01*
X0048652Y0100476D01*
X0048650Y0100543D01*
X0049850Y0100243D02*
X0049852Y0100290D01*
X0049857Y0100337D01*
X0049867Y0100383D01*
X0049879Y0100428D01*
X0049896Y0100473D01*
X0049915Y0100515D01*
X0049938Y0100556D01*
X0049965Y0100596D01*
X0049994Y0100633D01*
X0050026Y0100667D01*
X0050060Y0100699D01*
X0050097Y0100728D01*
X0050137Y0100755D01*
X0050178Y0100778D01*
X0050220Y0100797D01*
X0050265Y0100814D01*
X0050310Y0100826D01*
X0050356Y0100836D01*
X0050403Y0100841D01*
X0050450Y0100843D01*
X0050600Y0100843D01*
X0050654Y0100841D01*
X0050707Y0100835D01*
X0050759Y0100826D01*
X0050811Y0100813D01*
X0050862Y0100796D01*
X0050912Y0100775D01*
X0050959Y0100751D01*
X0051005Y0100724D01*
X0051049Y0100693D01*
X0051091Y0100660D01*
X0051130Y0100623D01*
X0051167Y0100584D01*
X0051200Y0100542D01*
X0051231Y0100498D01*
X0051258Y0100452D01*
X0051282Y0100405D01*
X0051303Y0100355D01*
X0051320Y0100304D01*
X0051333Y0100252D01*
X0051342Y0100200D01*
X0051348Y0100147D01*
X0051350Y0100093D01*
X0051348Y0100039D01*
X0051342Y0099986D01*
X0051333Y0099934D01*
X0051320Y0099882D01*
X0051303Y0099831D01*
X0051282Y0099781D01*
X0051258Y0099734D01*
X0051231Y0099688D01*
X0051200Y0099644D01*
X0051167Y0099602D01*
X0051130Y0099563D01*
X0051091Y0099526D01*
X0051049Y0099493D01*
X0051005Y0099462D01*
X0050959Y0099435D01*
X0050912Y0099411D01*
X0050862Y0099390D01*
X0050811Y0099373D01*
X0050759Y0099360D01*
X0050707Y0099351D01*
X0050654Y0099345D01*
X0050600Y0099343D01*
X0041350Y0099343D02*
X0041350Y0100243D01*
X0041348Y0100290D01*
X0041343Y0100337D01*
X0041333Y0100383D01*
X0041321Y0100428D01*
X0041304Y0100473D01*
X0041285Y0100515D01*
X0041262Y0100556D01*
X0041235Y0100596D01*
X0041206Y0100633D01*
X0041174Y0100667D01*
X0041140Y0100699D01*
X0041103Y0100728D01*
X0041063Y0100755D01*
X0041022Y0100778D01*
X0040980Y0100797D01*
X0040935Y0100814D01*
X0040890Y0100826D01*
X0040844Y0100836D01*
X0040797Y0100841D01*
X0040750Y0100843D01*
X0040450Y0100843D01*
X0040403Y0100841D01*
X0040356Y0100836D01*
X0040310Y0100826D01*
X0040265Y0100814D01*
X0040220Y0100797D01*
X0040178Y0100778D01*
X0040137Y0100755D01*
X0040097Y0100728D01*
X0040060Y0100699D01*
X0040026Y0100667D01*
X0039994Y0100633D01*
X0039965Y0100596D01*
X0039938Y0100556D01*
X0039915Y0100515D01*
X0039896Y0100473D01*
X0039879Y0100428D01*
X0039867Y0100383D01*
X0039857Y0100337D01*
X0039852Y0100290D01*
X0039850Y0100243D01*
X0039850Y0099343D01*
X0038650Y0099343D01*
X0038650Y0100843D01*
X0038650Y0097213D02*
X0041350Y0097213D01*
X0041350Y0096463D02*
X0041350Y0097963D01*
X0039250Y0096463D02*
X0038650Y0097213D01*
X0039400Y0094987D02*
X0040600Y0094987D01*
X0040654Y0094985D01*
X0040707Y0094979D01*
X0040759Y0094970D01*
X0040811Y0094957D01*
X0040862Y0094940D01*
X0040912Y0094919D01*
X0040959Y0094895D01*
X0041005Y0094868D01*
X0041049Y0094837D01*
X0041091Y0094804D01*
X0041130Y0094767D01*
X0041167Y0094728D01*
X0041200Y0094686D01*
X0041231Y0094642D01*
X0041258Y0094596D01*
X0041282Y0094549D01*
X0041303Y0094499D01*
X0041320Y0094448D01*
X0041333Y0094396D01*
X0041342Y0094344D01*
X0041348Y0094291D01*
X0041350Y0094237D01*
X0041350Y0093487D01*
X0038650Y0093487D01*
X0038650Y0094237D01*
X0038652Y0094291D01*
X0038658Y0094344D01*
X0038667Y0094396D01*
X0038680Y0094448D01*
X0038697Y0094499D01*
X0038718Y0094549D01*
X0038742Y0094596D01*
X0038769Y0094642D01*
X0038800Y0094686D01*
X0038833Y0094728D01*
X0038870Y0094767D01*
X0038909Y0094804D01*
X0038951Y0094837D01*
X0038995Y0094868D01*
X0039041Y0094895D01*
X0039088Y0094919D01*
X0039138Y0094940D01*
X0039189Y0094957D01*
X0039241Y0094970D01*
X0039293Y0094979D01*
X0039346Y0094985D01*
X0039400Y0094987D01*
X0062480Y0072520D02*
X0005000Y0072520D01*
X0005000Y0018386D01*
X0062480Y0018386D01*
X0062480Y0072520D01*
X0088650Y0095019D02*
X0091350Y0095019D01*
X0091350Y0096219D01*
X0091350Y0097296D02*
X0089550Y0097296D01*
X0088800Y0097371D02*
X0088800Y0097221D01*
X0088650Y0097221D01*
X0088650Y0097371D01*
X0088800Y0097371D01*
X0089550Y0098638D02*
X0089550Y0099388D01*
X0089552Y0099430D01*
X0089558Y0099471D01*
X0089567Y0099511D01*
X0089580Y0099551D01*
X0089597Y0099589D01*
X0089617Y0099625D01*
X0089641Y0099659D01*
X0089667Y0099691D01*
X0089697Y0099721D01*
X0089729Y0099747D01*
X0089763Y0099771D01*
X0089799Y0099791D01*
X0089837Y0099808D01*
X0089877Y0099821D01*
X0089917Y0099830D01*
X0089958Y0099836D01*
X0090000Y0099838D01*
X0090900Y0099838D01*
X0090942Y0099836D01*
X0090983Y0099830D01*
X0091023Y0099821D01*
X0091063Y0099808D01*
X0091101Y0099791D01*
X0091137Y0099771D01*
X0091171Y0099747D01*
X0091203Y0099721D01*
X0091233Y0099691D01*
X0091259Y0099659D01*
X0091283Y0099625D01*
X0091303Y0099589D01*
X0091320Y0099551D01*
X0091333Y0099511D01*
X0091342Y0099471D01*
X0091348Y0099430D01*
X0091350Y0099388D01*
X0091350Y0098638D01*
X0092250Y0098638D02*
X0089550Y0098638D01*
X0090150Y0101112D02*
X0090750Y0101112D01*
X0090798Y0101114D01*
X0090846Y0101120D01*
X0090894Y0101129D01*
X0090940Y0101143D01*
X0090985Y0101160D01*
X0091029Y0101181D01*
X0091071Y0101205D01*
X0091110Y0101232D01*
X0091148Y0101263D01*
X0091183Y0101296D01*
X0091215Y0101333D01*
X0091244Y0101371D01*
X0091270Y0101412D01*
X0091292Y0101455D01*
X0091311Y0101499D01*
X0091326Y0101545D01*
X0091338Y0101592D01*
X0091346Y0101640D01*
X0091350Y0101688D01*
X0091350Y0101736D01*
X0091346Y0101784D01*
X0091338Y0101832D01*
X0091326Y0101879D01*
X0091311Y0101925D01*
X0091292Y0101969D01*
X0091270Y0102012D01*
X0091244Y0102053D01*
X0091215Y0102091D01*
X0091183Y0102128D01*
X0091148Y0102161D01*
X0091110Y0102192D01*
X0091071Y0102219D01*
X0091029Y0102243D01*
X0090985Y0102264D01*
X0090940Y0102281D01*
X0090894Y0102295D01*
X0090846Y0102304D01*
X0090798Y0102310D01*
X0090750Y0102312D01*
X0090150Y0102312D01*
X0090102Y0102310D01*
X0090054Y0102304D01*
X0090006Y0102295D01*
X0089960Y0102281D01*
X0089915Y0102264D01*
X0089871Y0102243D01*
X0089829Y0102219D01*
X0089790Y0102192D01*
X0089752Y0102161D01*
X0089717Y0102128D01*
X0089685Y0102091D01*
X0089656Y0102053D01*
X0089630Y0102012D01*
X0089608Y0101969D01*
X0089589Y0101925D01*
X0089574Y0101879D01*
X0089562Y0101832D01*
X0089554Y0101784D01*
X0089550Y0101736D01*
X0089550Y0101688D01*
X0089554Y0101640D01*
X0089562Y0101592D01*
X0089574Y0101545D01*
X0089589Y0101499D01*
X0089608Y0101455D01*
X0089630Y0101412D01*
X0089656Y0101371D01*
X0089685Y0101333D01*
X0089717Y0101296D01*
X0089752Y0101263D01*
X0089790Y0101232D01*
X0089829Y0101205D01*
X0089871Y0101181D01*
X0089915Y0101160D01*
X0089960Y0101143D01*
X0090006Y0101129D01*
X0090054Y0101120D01*
X0090102Y0101114D01*
X0090150Y0101112D01*
X0098650Y0099403D02*
X0098650Y0097903D01*
X0099850Y0097903D01*
X0099850Y0098803D01*
X0099852Y0098850D01*
X0099857Y0098897D01*
X0099867Y0098943D01*
X0099879Y0098988D01*
X0099896Y0099033D01*
X0099915Y0099075D01*
X0099938Y0099116D01*
X0099965Y0099156D01*
X0099994Y0099193D01*
X0100026Y0099227D01*
X0100060Y0099259D01*
X0100097Y0099288D01*
X0100137Y0099315D01*
X0100178Y0099338D01*
X0100220Y0099357D01*
X0100265Y0099374D01*
X0100310Y0099386D01*
X0100356Y0099396D01*
X0100403Y0099401D01*
X0100450Y0099403D01*
X0100750Y0099403D01*
X0100797Y0099401D01*
X0100844Y0099396D01*
X0100890Y0099386D01*
X0100935Y0099374D01*
X0100980Y0099357D01*
X0101022Y0099338D01*
X0101063Y0099315D01*
X0101103Y0099288D01*
X0101140Y0099259D01*
X0101174Y0099227D01*
X0101206Y0099193D01*
X0101235Y0099156D01*
X0101262Y0099116D01*
X0101285Y0099075D01*
X0101304Y0099033D01*
X0101321Y0098988D01*
X0101333Y0098943D01*
X0101343Y0098897D01*
X0101348Y0098850D01*
X0101350Y0098803D01*
X0101350Y0097903D01*
X0100600Y0096427D02*
X0099400Y0096427D01*
X0099346Y0096425D01*
X0099293Y0096419D01*
X0099241Y0096410D01*
X0099189Y0096397D01*
X0099138Y0096380D01*
X0099088Y0096359D01*
X0099041Y0096335D01*
X0098995Y0096308D01*
X0098951Y0096277D01*
X0098909Y0096244D01*
X0098870Y0096207D01*
X0098833Y0096168D01*
X0098800Y0096126D01*
X0098769Y0096082D01*
X0098742Y0096036D01*
X0098718Y0095989D01*
X0098697Y0095939D01*
X0098680Y0095888D01*
X0098667Y0095836D01*
X0098658Y0095784D01*
X0098652Y0095731D01*
X0098650Y0095677D01*
X0098650Y0094927D01*
X0101350Y0094927D01*
X0101350Y0095677D01*
X0101348Y0095731D01*
X0101342Y0095784D01*
X0101333Y0095836D01*
X0101320Y0095888D01*
X0101303Y0095939D01*
X0101282Y0095989D01*
X0101258Y0096036D01*
X0101231Y0096082D01*
X0101200Y0096126D01*
X0101167Y0096168D01*
X0101130Y0096207D01*
X0101091Y0096244D01*
X0101049Y0096277D01*
X0101005Y0096308D01*
X0100959Y0096335D01*
X0100912Y0096359D01*
X0100862Y0096380D01*
X0100811Y0096397D01*
X0100759Y0096410D01*
X0100707Y0096419D01*
X0100654Y0096425D01*
X0100600Y0096427D01*
X0108650Y0095677D02*
X0108650Y0094927D01*
X0111350Y0094927D01*
X0111350Y0095677D01*
X0111348Y0095731D01*
X0111342Y0095784D01*
X0111333Y0095836D01*
X0111320Y0095888D01*
X0111303Y0095939D01*
X0111282Y0095989D01*
X0111258Y0096036D01*
X0111231Y0096082D01*
X0111200Y0096126D01*
X0111167Y0096168D01*
X0111130Y0096207D01*
X0111091Y0096244D01*
X0111049Y0096277D01*
X0111005Y0096308D01*
X0110959Y0096335D01*
X0110912Y0096359D01*
X0110862Y0096380D01*
X0110811Y0096397D01*
X0110759Y0096410D01*
X0110707Y0096419D01*
X0110654Y0096425D01*
X0110600Y0096427D01*
X0109400Y0096427D01*
X0109346Y0096425D01*
X0109293Y0096419D01*
X0109241Y0096410D01*
X0109189Y0096397D01*
X0109138Y0096380D01*
X0109088Y0096359D01*
X0109041Y0096335D01*
X0108995Y0096308D01*
X0108951Y0096277D01*
X0108909Y0096244D01*
X0108870Y0096207D01*
X0108833Y0096168D01*
X0108800Y0096126D01*
X0108769Y0096082D01*
X0108742Y0096036D01*
X0108718Y0095989D01*
X0108697Y0095939D01*
X0108680Y0095888D01*
X0108667Y0095836D01*
X0108658Y0095784D01*
X0108652Y0095731D01*
X0108650Y0095677D01*
X0108650Y0098503D02*
X0110750Y0097903D01*
X0110750Y0099403D01*
X0110150Y0098953D02*
X0111350Y0098953D01*
X0118650Y0098803D02*
X0118650Y0097903D01*
X0118650Y0098803D02*
X0118652Y0098851D01*
X0118658Y0098899D01*
X0118667Y0098947D01*
X0118681Y0098993D01*
X0118698Y0099038D01*
X0118719Y0099082D01*
X0118743Y0099124D01*
X0118770Y0099163D01*
X0118801Y0099201D01*
X0118834Y0099236D01*
X0118871Y0099268D01*
X0118909Y0099297D01*
X0118950Y0099323D01*
X0118993Y0099345D01*
X0119037Y0099364D01*
X0119083Y0099379D01*
X0119130Y0099391D01*
X0119178Y0099399D01*
X0119226Y0099403D01*
X0119274Y0099403D01*
X0119322Y0099399D01*
X0119370Y0099391D01*
X0119417Y0099379D01*
X0119463Y0099364D01*
X0119507Y0099345D01*
X0119550Y0099323D01*
X0119591Y0099297D01*
X0119629Y0099268D01*
X0119666Y0099236D01*
X0119699Y0099201D01*
X0119730Y0099163D01*
X0119757Y0099124D01*
X0119781Y0099082D01*
X0119802Y0099038D01*
X0119819Y0098993D01*
X0119833Y0098947D01*
X0119842Y0098899D01*
X0119848Y0098851D01*
X0119850Y0098803D01*
X0119850Y0098203D01*
X0119850Y0098653D02*
X0119852Y0098707D01*
X0119858Y0098760D01*
X0119867Y0098812D01*
X0119880Y0098864D01*
X0119897Y0098915D01*
X0119918Y0098965D01*
X0119942Y0099012D01*
X0119969Y0099058D01*
X0120000Y0099102D01*
X0120033Y0099144D01*
X0120070Y0099183D01*
X0120109Y0099220D01*
X0120151Y0099253D01*
X0120195Y0099284D01*
X0120241Y0099311D01*
X0120288Y0099335D01*
X0120338Y0099356D01*
X0120389Y0099373D01*
X0120441Y0099386D01*
X0120493Y0099395D01*
X0120546Y0099401D01*
X0120600Y0099403D01*
X0120654Y0099401D01*
X0120707Y0099395D01*
X0120759Y0099386D01*
X0120811Y0099373D01*
X0120862Y0099356D01*
X0120912Y0099335D01*
X0120959Y0099311D01*
X0121005Y0099284D01*
X0121049Y0099253D01*
X0121091Y0099220D01*
X0121130Y0099183D01*
X0121167Y0099144D01*
X0121200Y0099102D01*
X0121231Y0099058D01*
X0121258Y0099012D01*
X0121282Y0098965D01*
X0121303Y0098915D01*
X0121320Y0098864D01*
X0121333Y0098812D01*
X0121342Y0098760D01*
X0121348Y0098707D01*
X0121350Y0098653D01*
X0121350Y0097903D01*
X0120600Y0096427D02*
X0119400Y0096427D01*
X0119346Y0096425D01*
X0119293Y0096419D01*
X0119241Y0096410D01*
X0119189Y0096397D01*
X0119138Y0096380D01*
X0119088Y0096359D01*
X0119041Y0096335D01*
X0118995Y0096308D01*
X0118951Y0096277D01*
X0118909Y0096244D01*
X0118870Y0096207D01*
X0118833Y0096168D01*
X0118800Y0096126D01*
X0118769Y0096082D01*
X0118742Y0096036D01*
X0118718Y0095989D01*
X0118697Y0095939D01*
X0118680Y0095888D01*
X0118667Y0095836D01*
X0118658Y0095784D01*
X0118652Y0095731D01*
X0118650Y0095677D01*
X0118650Y0094927D01*
X0121350Y0094927D01*
X0121350Y0095677D01*
X0121348Y0095731D01*
X0121342Y0095784D01*
X0121333Y0095836D01*
X0121320Y0095888D01*
X0121303Y0095939D01*
X0121282Y0095989D01*
X0121258Y0096036D01*
X0121231Y0096082D01*
X0121200Y0096126D01*
X0121167Y0096168D01*
X0121130Y0096207D01*
X0121091Y0096244D01*
X0121049Y0096277D01*
X0121005Y0096308D01*
X0120959Y0096335D01*
X0120912Y0096359D01*
X0120862Y0096380D01*
X0120811Y0096397D01*
X0120759Y0096410D01*
X0120707Y0096419D01*
X0120654Y0096425D01*
X0120600Y0096427D01*
X0128650Y0095677D02*
X0128650Y0094927D01*
X0131350Y0094927D01*
X0131350Y0095677D01*
X0131348Y0095731D01*
X0131342Y0095784D01*
X0131333Y0095836D01*
X0131320Y0095888D01*
X0131303Y0095939D01*
X0131282Y0095989D01*
X0131258Y0096036D01*
X0131231Y0096082D01*
X0131200Y0096126D01*
X0131167Y0096168D01*
X0131130Y0096207D01*
X0131091Y0096244D01*
X0131049Y0096277D01*
X0131005Y0096308D01*
X0130959Y0096335D01*
X0130912Y0096359D01*
X0130862Y0096380D01*
X0130811Y0096397D01*
X0130759Y0096410D01*
X0130707Y0096419D01*
X0130654Y0096425D01*
X0130600Y0096427D01*
X0129400Y0096427D01*
X0129346Y0096425D01*
X0129293Y0096419D01*
X0129241Y0096410D01*
X0129189Y0096397D01*
X0129138Y0096380D01*
X0129088Y0096359D01*
X0129041Y0096335D01*
X0128995Y0096308D01*
X0128951Y0096277D01*
X0128909Y0096244D01*
X0128870Y0096207D01*
X0128833Y0096168D01*
X0128800Y0096126D01*
X0128769Y0096082D01*
X0128742Y0096036D01*
X0128718Y0095989D01*
X0128697Y0095939D01*
X0128680Y0095888D01*
X0128667Y0095836D01*
X0128658Y0095784D01*
X0128652Y0095731D01*
X0128650Y0095677D01*
X0131350Y0097903D02*
X0131350Y0099403D01*
X0131350Y0097903D02*
X0129850Y0099178D01*
X0128650Y0098728D02*
X0128652Y0098671D01*
X0128658Y0098614D01*
X0128667Y0098557D01*
X0128680Y0098501D01*
X0128697Y0098446D01*
X0128717Y0098393D01*
X0128741Y0098341D01*
X0128769Y0098290D01*
X0128799Y0098242D01*
X0128833Y0098195D01*
X0128870Y0098151D01*
X0128909Y0098110D01*
X0128952Y0098071D01*
X0128996Y0098035D01*
X0129043Y0098002D01*
X0129092Y0097972D01*
X0129143Y0097946D01*
X0129196Y0097923D01*
X0129250Y0097903D01*
X0129850Y0099178D02*
X0129812Y0099215D01*
X0129771Y0099250D01*
X0129728Y0099281D01*
X0129682Y0099309D01*
X0129635Y0099333D01*
X0129586Y0099354D01*
X0129535Y0099372D01*
X0129484Y0099385D01*
X0129431Y0099395D01*
X0129378Y0099401D01*
X0129325Y0099403D01*
X0129275Y0099401D01*
X0129224Y0099395D01*
X0129175Y0099386D01*
X0129126Y0099373D01*
X0129078Y0099356D01*
X0129032Y0099336D01*
X0128988Y0099313D01*
X0128945Y0099286D01*
X0128904Y0099256D01*
X0128866Y0099223D01*
X0128830Y0099187D01*
X0128797Y0099149D01*
X0128767Y0099108D01*
X0128740Y0099066D01*
X0128717Y0099021D01*
X0128697Y0098975D01*
X0128680Y0098927D01*
X0128667Y0098878D01*
X0128658Y0098829D01*
X0128652Y0098778D01*
X0128650Y0098728D01*
X0138650Y0098653D02*
X0139250Y0097903D01*
X0138650Y0098653D02*
X0141350Y0098653D01*
X0141350Y0097903D02*
X0141350Y0099403D01*
X0140600Y0096427D02*
X0139400Y0096427D01*
X0139346Y0096425D01*
X0139293Y0096419D01*
X0139241Y0096410D01*
X0139189Y0096397D01*
X0139138Y0096380D01*
X0139088Y0096359D01*
X0139041Y0096335D01*
X0138995Y0096308D01*
X0138951Y0096277D01*
X0138909Y0096244D01*
X0138870Y0096207D01*
X0138833Y0096168D01*
X0138800Y0096126D01*
X0138769Y0096082D01*
X0138742Y0096036D01*
X0138718Y0095989D01*
X0138697Y0095939D01*
X0138680Y0095888D01*
X0138667Y0095836D01*
X0138658Y0095784D01*
X0138652Y0095731D01*
X0138650Y0095677D01*
X0138650Y0094927D01*
X0141350Y0094927D01*
X0141350Y0095677D01*
X0141348Y0095731D01*
X0141342Y0095784D01*
X0141333Y0095836D01*
X0141320Y0095888D01*
X0141303Y0095939D01*
X0141282Y0095989D01*
X0141258Y0096036D01*
X0141231Y0096082D01*
X0141200Y0096126D01*
X0141167Y0096168D01*
X0141130Y0096207D01*
X0141091Y0096244D01*
X0141049Y0096277D01*
X0141005Y0096308D01*
X0140959Y0096335D01*
X0140912Y0096359D01*
X0140862Y0096380D01*
X0140811Y0096397D01*
X0140759Y0096410D01*
X0140707Y0096419D01*
X0140654Y0096425D01*
X0140600Y0096427D01*
X0148650Y0095677D02*
X0148650Y0094927D01*
X0151350Y0094927D01*
X0151350Y0095677D01*
X0151348Y0095731D01*
X0151342Y0095784D01*
X0151333Y0095836D01*
X0151320Y0095888D01*
X0151303Y0095939D01*
X0151282Y0095989D01*
X0151258Y0096036D01*
X0151231Y0096082D01*
X0151200Y0096126D01*
X0151167Y0096168D01*
X0151130Y0096207D01*
X0151091Y0096244D01*
X0151049Y0096277D01*
X0151005Y0096308D01*
X0150959Y0096335D01*
X0150912Y0096359D01*
X0150862Y0096380D01*
X0150811Y0096397D01*
X0150759Y0096410D01*
X0150707Y0096419D01*
X0150654Y0096425D01*
X0150600Y0096427D01*
X0149400Y0096427D01*
X0149346Y0096425D01*
X0149293Y0096419D01*
X0149241Y0096410D01*
X0149189Y0096397D01*
X0149138Y0096380D01*
X0149088Y0096359D01*
X0149041Y0096335D01*
X0148995Y0096308D01*
X0148951Y0096277D01*
X0148909Y0096244D01*
X0148870Y0096207D01*
X0148833Y0096168D01*
X0148800Y0096126D01*
X0148769Y0096082D01*
X0148742Y0096036D01*
X0148718Y0095989D01*
X0148697Y0095939D01*
X0148680Y0095888D01*
X0148667Y0095836D01*
X0148658Y0095784D01*
X0148652Y0095731D01*
X0148650Y0095677D01*
X0150000Y0099403D02*
X0150092Y0099401D01*
X0150183Y0099395D01*
X0150275Y0099386D01*
X0150365Y0099373D01*
X0150456Y0099356D01*
X0150545Y0099335D01*
X0150633Y0099311D01*
X0150721Y0099283D01*
X0150807Y0099252D01*
X0150892Y0099216D01*
X0150975Y0099178D01*
X0151018Y0099161D01*
X0151059Y0099141D01*
X0151098Y0099118D01*
X0151136Y0099091D01*
X0151171Y0099061D01*
X0151203Y0099029D01*
X0151233Y0098994D01*
X0151260Y0098957D01*
X0151283Y0098917D01*
X0151303Y0098876D01*
X0151320Y0098833D01*
X0151333Y0098789D01*
X0151342Y0098744D01*
X0151348Y0098699D01*
X0151350Y0098653D01*
X0151348Y0098607D01*
X0151342Y0098562D01*
X0151333Y0098517D01*
X0151320Y0098473D01*
X0151303Y0098430D01*
X0151283Y0098389D01*
X0151260Y0098349D01*
X0151233Y0098312D01*
X0151203Y0098277D01*
X0151171Y0098245D01*
X0151136Y0098215D01*
X0151098Y0098188D01*
X0151059Y0098165D01*
X0151018Y0098145D01*
X0150975Y0098128D01*
X0150750Y0098053D02*
X0149250Y0099253D01*
X0149025Y0099178D02*
X0148982Y0099161D01*
X0148941Y0099141D01*
X0148902Y0099118D01*
X0148864Y0099091D01*
X0148829Y0099061D01*
X0148797Y0099029D01*
X0148767Y0098994D01*
X0148740Y0098957D01*
X0148717Y0098917D01*
X0148697Y0098876D01*
X0148680Y0098833D01*
X0148667Y0098789D01*
X0148658Y0098744D01*
X0148652Y0098699D01*
X0148650Y0098653D01*
X0148652Y0098607D01*
X0148658Y0098562D01*
X0148667Y0098517D01*
X0148680Y0098473D01*
X0148697Y0098430D01*
X0148717Y0098389D01*
X0148740Y0098349D01*
X0148767Y0098312D01*
X0148797Y0098277D01*
X0148829Y0098245D01*
X0148864Y0098215D01*
X0148902Y0098188D01*
X0148941Y0098165D01*
X0148982Y0098145D01*
X0149025Y0098128D01*
X0149025Y0099178D02*
X0149108Y0099216D01*
X0149193Y0099252D01*
X0149279Y0099283D01*
X0149367Y0099311D01*
X0149455Y0099335D01*
X0149544Y0099356D01*
X0149635Y0099373D01*
X0149725Y0099386D01*
X0149817Y0099395D01*
X0149908Y0099401D01*
X0150000Y0099403D01*
X0150000Y0097903D02*
X0150092Y0097905D01*
X0150183Y0097911D01*
X0150275Y0097920D01*
X0150365Y0097933D01*
X0150456Y0097950D01*
X0150545Y0097971D01*
X0150633Y0097995D01*
X0150721Y0098023D01*
X0150807Y0098054D01*
X0150892Y0098090D01*
X0150975Y0098128D01*
X0150000Y0097903D02*
X0149908Y0097905D01*
X0149817Y0097911D01*
X0149725Y0097920D01*
X0149635Y0097933D01*
X0149544Y0097950D01*
X0149455Y0097971D01*
X0149367Y0097995D01*
X0149279Y0098023D01*
X0149193Y0098054D01*
X0149108Y0098090D01*
X0149025Y0098128D01*
X0113661Y0073898D02*
X0235709Y0073898D01*
X0235709Y0005000D01*
X0113661Y0005000D01*
X0113661Y0073898D01*
D14*
X0065599Y0116865D02*
X0065599Y0122465D01*
X0067154Y0122465D01*
X0067213Y0122463D01*
X0067271Y0122458D01*
X0067329Y0122448D01*
X0067386Y0122436D01*
X0067442Y0122419D01*
X0067497Y0122399D01*
X0067551Y0122376D01*
X0067603Y0122350D01*
X0067654Y0122320D01*
X0067702Y0122287D01*
X0067749Y0122251D01*
X0067793Y0122212D01*
X0067834Y0122171D01*
X0067873Y0122127D01*
X0067909Y0122080D01*
X0067942Y0122032D01*
X0067972Y0121981D01*
X0067998Y0121929D01*
X0068021Y0121875D01*
X0068041Y0121820D01*
X0068058Y0121764D01*
X0068070Y0121707D01*
X0068080Y0121649D01*
X0068085Y0121591D01*
X0068087Y0121532D01*
X0068088Y0121532D02*
X0068088Y0119665D01*
X0068087Y0119665D02*
X0068085Y0119604D01*
X0068079Y0119543D01*
X0068069Y0119483D01*
X0068055Y0119424D01*
X0068037Y0119365D01*
X0068016Y0119308D01*
X0067991Y0119252D01*
X0067962Y0119199D01*
X0067930Y0119147D01*
X0067894Y0119097D01*
X0067855Y0119050D01*
X0067814Y0119005D01*
X0067769Y0118964D01*
X0067722Y0118925D01*
X0067672Y0118889D01*
X0067621Y0118857D01*
X0067567Y0118828D01*
X0067511Y0118803D01*
X0067454Y0118782D01*
X0067395Y0118764D01*
X0067336Y0118750D01*
X0067276Y0118740D01*
X0067215Y0118734D01*
X0067154Y0118732D01*
X0065599Y0118732D01*
X0062584Y0118732D02*
X0062584Y0121532D01*
X0062583Y0121532D02*
X0062581Y0121591D01*
X0062576Y0121649D01*
X0062566Y0121707D01*
X0062554Y0121764D01*
X0062537Y0121820D01*
X0062517Y0121875D01*
X0062494Y0121929D01*
X0062468Y0121981D01*
X0062438Y0122032D01*
X0062405Y0122080D01*
X0062369Y0122127D01*
X0062330Y0122171D01*
X0062289Y0122212D01*
X0062245Y0122251D01*
X0062198Y0122287D01*
X0062150Y0122320D01*
X0062099Y0122350D01*
X0062047Y0122376D01*
X0061993Y0122399D01*
X0061938Y0122419D01*
X0061882Y0122436D01*
X0061825Y0122448D01*
X0061767Y0122458D01*
X0061709Y0122463D01*
X0061650Y0122465D01*
X0060095Y0122465D01*
X0060095Y0118732D01*
X0057437Y0118732D02*
X0057437Y0122465D01*
X0054780Y0122465D02*
X0054780Y0118732D01*
X0053224Y0118732D01*
X0053165Y0118734D01*
X0053107Y0118739D01*
X0053049Y0118749D01*
X0052992Y0118761D01*
X0052936Y0118778D01*
X0052881Y0118798D01*
X0052827Y0118821D01*
X0052775Y0118847D01*
X0052724Y0118877D01*
X0052676Y0118910D01*
X0052629Y0118946D01*
X0052585Y0118985D01*
X0052544Y0119026D01*
X0052505Y0119070D01*
X0052469Y0119117D01*
X0052436Y0119165D01*
X0052406Y0119216D01*
X0052380Y0119268D01*
X0052357Y0119322D01*
X0052337Y0119377D01*
X0052320Y0119433D01*
X0052308Y0119490D01*
X0052298Y0119548D01*
X0052293Y0119606D01*
X0052291Y0119665D01*
X0052291Y0122465D01*
X0049513Y0121221D02*
X0049513Y0119976D01*
X0049512Y0119976D02*
X0049510Y0119906D01*
X0049504Y0119837D01*
X0049494Y0119768D01*
X0049481Y0119699D01*
X0049463Y0119632D01*
X0049442Y0119565D01*
X0049417Y0119500D01*
X0049389Y0119436D01*
X0049357Y0119374D01*
X0049321Y0119314D01*
X0049283Y0119256D01*
X0049241Y0119200D01*
X0049196Y0119147D01*
X0049148Y0119096D01*
X0049097Y0119048D01*
X0049044Y0119003D01*
X0048988Y0118961D01*
X0048930Y0118923D01*
X0048870Y0118887D01*
X0048808Y0118855D01*
X0048744Y0118827D01*
X0048679Y0118802D01*
X0048612Y0118781D01*
X0048545Y0118763D01*
X0048476Y0118750D01*
X0048407Y0118740D01*
X0048338Y0118734D01*
X0048268Y0118732D01*
X0048198Y0118734D01*
X0048129Y0118740D01*
X0048060Y0118750D01*
X0047991Y0118763D01*
X0047924Y0118781D01*
X0047857Y0118802D01*
X0047792Y0118827D01*
X0047728Y0118855D01*
X0047666Y0118887D01*
X0047606Y0118923D01*
X0047548Y0118961D01*
X0047492Y0119003D01*
X0047439Y0119048D01*
X0047388Y0119096D01*
X0047340Y0119147D01*
X0047295Y0119200D01*
X0047253Y0119256D01*
X0047215Y0119314D01*
X0047179Y0119374D01*
X0047147Y0119436D01*
X0047119Y0119500D01*
X0047094Y0119565D01*
X0047073Y0119632D01*
X0047055Y0119699D01*
X0047042Y0119768D01*
X0047032Y0119837D01*
X0047026Y0119906D01*
X0047024Y0119976D01*
X0047024Y0121221D01*
X0047026Y0121291D01*
X0047032Y0121360D01*
X0047042Y0121429D01*
X0047055Y0121498D01*
X0047073Y0121565D01*
X0047094Y0121632D01*
X0047119Y0121697D01*
X0047147Y0121761D01*
X0047179Y0121823D01*
X0047215Y0121883D01*
X0047253Y0121941D01*
X0047295Y0121997D01*
X0047340Y0122050D01*
X0047388Y0122101D01*
X0047439Y0122149D01*
X0047492Y0122194D01*
X0047548Y0122236D01*
X0047606Y0122274D01*
X0047666Y0122310D01*
X0047728Y0122342D01*
X0047792Y0122370D01*
X0047857Y0122395D01*
X0047924Y0122416D01*
X0047991Y0122434D01*
X0048060Y0122447D01*
X0048129Y0122457D01*
X0048198Y0122463D01*
X0048268Y0122465D01*
X0048338Y0122463D01*
X0048407Y0122457D01*
X0048476Y0122447D01*
X0048545Y0122434D01*
X0048612Y0122416D01*
X0048679Y0122395D01*
X0048744Y0122370D01*
X0048808Y0122342D01*
X0048870Y0122310D01*
X0048930Y0122274D01*
X0048988Y0122236D01*
X0049044Y0122194D01*
X0049097Y0122149D01*
X0049148Y0122101D01*
X0049196Y0122050D01*
X0049241Y0121997D01*
X0049283Y0121941D01*
X0049321Y0121883D01*
X0049357Y0121823D01*
X0049389Y0121761D01*
X0049417Y0121697D01*
X0049442Y0121632D01*
X0049463Y0121565D01*
X0049481Y0121498D01*
X0049494Y0121429D01*
X0049504Y0121360D01*
X0049510Y0121291D01*
X0049512Y0121221D01*
X0040966Y0122465D02*
X0040966Y0116865D01*
X0039099Y0119976D01*
X0037232Y0116865D01*
X0037232Y0122465D01*
X0034417Y0122465D02*
X0034417Y0118732D01*
X0034261Y0117176D02*
X0034572Y0117176D01*
X0034572Y0116865D01*
X0034261Y0116865D01*
X0034261Y0117176D01*
X0031760Y0118732D02*
X0030204Y0118732D01*
X0030145Y0118734D01*
X0030087Y0118739D01*
X0030029Y0118749D01*
X0029972Y0118761D01*
X0029916Y0118778D01*
X0029861Y0118798D01*
X0029807Y0118821D01*
X0029755Y0118847D01*
X0029704Y0118877D01*
X0029656Y0118910D01*
X0029609Y0118946D01*
X0029565Y0118985D01*
X0029524Y0119026D01*
X0029485Y0119070D01*
X0029449Y0119117D01*
X0029416Y0119165D01*
X0029386Y0119216D01*
X0029360Y0119268D01*
X0029337Y0119322D01*
X0029317Y0119377D01*
X0029300Y0119433D01*
X0029288Y0119490D01*
X0029278Y0119548D01*
X0029273Y0119606D01*
X0029271Y0119665D01*
X0029271Y0122465D01*
X0031760Y0122465D02*
X0031760Y0118732D01*
X0026613Y0118732D02*
X0026613Y0122465D01*
X0026458Y0117176D02*
X0026769Y0117176D01*
X0026769Y0116865D01*
X0026458Y0116865D01*
X0026458Y0117176D01*
X0057282Y0117176D02*
X0057593Y0117176D01*
X0057593Y0116865D01*
X0057282Y0116865D01*
X0057282Y0117176D01*
X0070431Y0118421D02*
X0070431Y0120910D01*
X0071053Y0121221D02*
X0069809Y0122465D01*
X0070431Y0120910D02*
X0070433Y0120988D01*
X0070439Y0121065D01*
X0070448Y0121142D01*
X0070462Y0121218D01*
X0070479Y0121294D01*
X0070500Y0121369D01*
X0070525Y0121442D01*
X0070553Y0121514D01*
X0070585Y0121585D01*
X0070620Y0121654D01*
X0070659Y0121721D01*
X0070701Y0121787D01*
X0070747Y0121850D01*
X0070795Y0121910D01*
X0070846Y0121968D01*
X0070901Y0122024D01*
X0070957Y0122077D01*
X0071017Y0122127D01*
X0071079Y0122173D01*
X0071143Y0122217D01*
X0071209Y0122258D01*
X0071277Y0122295D01*
X0071347Y0122328D01*
X0071419Y0122358D01*
X0071491Y0122385D01*
X0071566Y0122408D01*
X0071641Y0122427D01*
X0071717Y0122442D01*
X0071794Y0122454D01*
X0071871Y0122462D01*
X0071948Y0122466D01*
X0072026Y0122466D01*
X0072103Y0122462D01*
X0072180Y0122454D01*
X0072257Y0122442D01*
X0072333Y0122427D01*
X0072408Y0122408D01*
X0072483Y0122385D01*
X0072555Y0122358D01*
X0072627Y0122328D01*
X0072697Y0122295D01*
X0072765Y0122258D01*
X0072831Y0122217D01*
X0072895Y0122173D01*
X0072957Y0122127D01*
X0073017Y0122077D01*
X0073073Y0122024D01*
X0073128Y0121968D01*
X0073179Y0121910D01*
X0073227Y0121850D01*
X0073273Y0121787D01*
X0073315Y0121721D01*
X0073354Y0121654D01*
X0073389Y0121585D01*
X0073421Y0121514D01*
X0073449Y0121442D01*
X0073474Y0121369D01*
X0073495Y0121294D01*
X0073512Y0121218D01*
X0073526Y0121142D01*
X0073535Y0121065D01*
X0073541Y0120988D01*
X0073543Y0120910D01*
X0073542Y0120910D02*
X0073542Y0118421D01*
X0073543Y0118421D02*
X0073541Y0118343D01*
X0073535Y0118266D01*
X0073526Y0118189D01*
X0073512Y0118113D01*
X0073495Y0118037D01*
X0073474Y0117962D01*
X0073449Y0117889D01*
X0073421Y0117817D01*
X0073389Y0117746D01*
X0073354Y0117677D01*
X0073315Y0117610D01*
X0073273Y0117544D01*
X0073227Y0117481D01*
X0073179Y0117421D01*
X0073128Y0117363D01*
X0073073Y0117307D01*
X0073017Y0117254D01*
X0072957Y0117204D01*
X0072895Y0117158D01*
X0072831Y0117114D01*
X0072765Y0117073D01*
X0072697Y0117036D01*
X0072627Y0117003D01*
X0072555Y0116973D01*
X0072483Y0116946D01*
X0072408Y0116923D01*
X0072333Y0116904D01*
X0072257Y0116889D01*
X0072180Y0116877D01*
X0072103Y0116869D01*
X0072026Y0116865D01*
X0071948Y0116865D01*
X0071871Y0116869D01*
X0071794Y0116877D01*
X0071717Y0116889D01*
X0071641Y0116904D01*
X0071566Y0116923D01*
X0071491Y0116946D01*
X0071419Y0116973D01*
X0071347Y0117003D01*
X0071277Y0117036D01*
X0071209Y0117073D01*
X0071143Y0117114D01*
X0071079Y0117158D01*
X0071017Y0117204D01*
X0070957Y0117254D01*
X0070901Y0117307D01*
X0070846Y0117363D01*
X0070795Y0117421D01*
X0070747Y0117481D01*
X0070701Y0117544D01*
X0070659Y0117610D01*
X0070620Y0117677D01*
X0070585Y0117746D01*
X0070553Y0117817D01*
X0070525Y0117889D01*
X0070500Y0117962D01*
X0070479Y0118037D01*
X0070462Y0118113D01*
X0070448Y0118189D01*
X0070439Y0118266D01*
X0070433Y0118343D01*
X0070431Y0118421D01*
D15*
X0120088Y0069347D02*
X0121111Y0069347D01*
X0120088Y0069347D02*
X0120026Y0069345D01*
X0119965Y0069340D01*
X0119904Y0069330D01*
X0119843Y0069317D01*
X0119784Y0069301D01*
X0119726Y0069281D01*
X0119669Y0069257D01*
X0119613Y0069230D01*
X0119559Y0069200D01*
X0119507Y0069166D01*
X0119458Y0069129D01*
X0119410Y0069090D01*
X0119365Y0069048D01*
X0119323Y0069003D01*
X0119283Y0068955D01*
X0119247Y0068906D01*
X0119213Y0068854D01*
X0119183Y0068800D01*
X0119156Y0068744D01*
X0119132Y0068687D01*
X0119112Y0068629D01*
X0119096Y0068570D01*
X0119083Y0068509D01*
X0119073Y0068448D01*
X0119068Y0068387D01*
X0119066Y0068325D01*
X0119066Y0065769D01*
X0119068Y0065707D01*
X0119073Y0065646D01*
X0119083Y0065585D01*
X0119096Y0065524D01*
X0119112Y0065465D01*
X0119132Y0065407D01*
X0119156Y0065350D01*
X0119183Y0065294D01*
X0119213Y0065240D01*
X0119247Y0065188D01*
X0119283Y0065139D01*
X0119323Y0065091D01*
X0119365Y0065046D01*
X0119410Y0065004D01*
X0119458Y0064964D01*
X0119507Y0064928D01*
X0119559Y0064894D01*
X0119613Y0064864D01*
X0119669Y0064837D01*
X0119726Y0064813D01*
X0119784Y0064793D01*
X0119843Y0064777D01*
X0119904Y0064764D01*
X0119965Y0064754D01*
X0120026Y0064749D01*
X0120088Y0064747D01*
X0121111Y0064747D01*
X0122829Y0066025D02*
X0122829Y0068069D01*
X0122831Y0068139D01*
X0122837Y0068210D01*
X0122846Y0068279D01*
X0122860Y0068348D01*
X0122877Y0068417D01*
X0122898Y0068484D01*
X0122923Y0068550D01*
X0122951Y0068614D01*
X0122983Y0068677D01*
X0123018Y0068738D01*
X0123057Y0068797D01*
X0123098Y0068854D01*
X0123143Y0068908D01*
X0123191Y0068960D01*
X0123241Y0069009D01*
X0123295Y0069056D01*
X0123350Y0069099D01*
X0123408Y0069139D01*
X0123468Y0069176D01*
X0123530Y0069209D01*
X0123594Y0069239D01*
X0123659Y0069266D01*
X0123725Y0069289D01*
X0123793Y0069308D01*
X0123862Y0069323D01*
X0123931Y0069335D01*
X0124001Y0069343D01*
X0124072Y0069347D01*
X0124142Y0069347D01*
X0124213Y0069343D01*
X0124283Y0069335D01*
X0124352Y0069323D01*
X0124421Y0069308D01*
X0124489Y0069289D01*
X0124555Y0069266D01*
X0124620Y0069239D01*
X0124684Y0069209D01*
X0124746Y0069176D01*
X0124806Y0069139D01*
X0124864Y0069099D01*
X0124919Y0069056D01*
X0124973Y0069009D01*
X0125023Y0068960D01*
X0125071Y0068908D01*
X0125116Y0068854D01*
X0125157Y0068797D01*
X0125196Y0068738D01*
X0125231Y0068677D01*
X0125263Y0068614D01*
X0125291Y0068550D01*
X0125316Y0068484D01*
X0125337Y0068417D01*
X0125354Y0068348D01*
X0125368Y0068279D01*
X0125377Y0068210D01*
X0125383Y0068139D01*
X0125385Y0068069D01*
X0125385Y0066025D01*
X0125383Y0065955D01*
X0125377Y0065884D01*
X0125368Y0065815D01*
X0125354Y0065746D01*
X0125337Y0065677D01*
X0125316Y0065610D01*
X0125291Y0065544D01*
X0125263Y0065480D01*
X0125231Y0065417D01*
X0125196Y0065356D01*
X0125157Y0065297D01*
X0125116Y0065240D01*
X0125071Y0065186D01*
X0125023Y0065134D01*
X0124973Y0065085D01*
X0124919Y0065038D01*
X0124864Y0064995D01*
X0124806Y0064955D01*
X0124746Y0064918D01*
X0124684Y0064885D01*
X0124620Y0064855D01*
X0124555Y0064828D01*
X0124489Y0064805D01*
X0124421Y0064786D01*
X0124352Y0064771D01*
X0124283Y0064759D01*
X0124213Y0064751D01*
X0124142Y0064747D01*
X0124072Y0064747D01*
X0124001Y0064751D01*
X0123931Y0064759D01*
X0123862Y0064771D01*
X0123793Y0064786D01*
X0123725Y0064805D01*
X0123659Y0064828D01*
X0123594Y0064855D01*
X0123530Y0064885D01*
X0123468Y0064918D01*
X0123408Y0064955D01*
X0123350Y0064995D01*
X0123295Y0065038D01*
X0123241Y0065085D01*
X0123191Y0065134D01*
X0123143Y0065186D01*
X0123098Y0065240D01*
X0123057Y0065297D01*
X0123018Y0065356D01*
X0122983Y0065417D01*
X0122951Y0065480D01*
X0122923Y0065544D01*
X0122898Y0065610D01*
X0122877Y0065677D01*
X0122860Y0065746D01*
X0122846Y0065815D01*
X0122837Y0065884D01*
X0122831Y0065955D01*
X0122829Y0066025D01*
X0127479Y0064747D02*
X0127479Y0069347D01*
X0130035Y0064747D01*
X0130035Y0069347D01*
X0132279Y0069347D02*
X0133557Y0069347D01*
X0133626Y0069345D01*
X0133695Y0069340D01*
X0133764Y0069330D01*
X0133832Y0069317D01*
X0133899Y0069300D01*
X0133965Y0069280D01*
X0134030Y0069256D01*
X0134094Y0069229D01*
X0134156Y0069198D01*
X0134216Y0069164D01*
X0134274Y0069127D01*
X0134330Y0069086D01*
X0134384Y0069043D01*
X0134436Y0068997D01*
X0134485Y0068948D01*
X0134531Y0068896D01*
X0134574Y0068842D01*
X0134615Y0068786D01*
X0134652Y0068728D01*
X0134686Y0068668D01*
X0134717Y0068606D01*
X0134744Y0068542D01*
X0134768Y0068477D01*
X0134788Y0068411D01*
X0134805Y0068344D01*
X0134818Y0068276D01*
X0134828Y0068207D01*
X0134833Y0068138D01*
X0134835Y0068069D01*
X0134835Y0066025D01*
X0134833Y0065956D01*
X0134828Y0065887D01*
X0134818Y0065818D01*
X0134805Y0065750D01*
X0134788Y0065683D01*
X0134768Y0065617D01*
X0134744Y0065552D01*
X0134717Y0065488D01*
X0134686Y0065426D01*
X0134652Y0065366D01*
X0134615Y0065308D01*
X0134574Y0065252D01*
X0134531Y0065198D01*
X0134485Y0065146D01*
X0134436Y0065097D01*
X0134384Y0065051D01*
X0134330Y0065008D01*
X0134274Y0064967D01*
X0134216Y0064930D01*
X0134156Y0064896D01*
X0134094Y0064865D01*
X0134030Y0064838D01*
X0133965Y0064814D01*
X0133899Y0064794D01*
X0133832Y0064777D01*
X0133764Y0064764D01*
X0133695Y0064754D01*
X0133626Y0064749D01*
X0133557Y0064747D01*
X0132279Y0064747D01*
X0132279Y0069347D01*
X0137079Y0069347D02*
X0137079Y0066025D01*
X0137081Y0065955D01*
X0137087Y0065884D01*
X0137096Y0065815D01*
X0137110Y0065746D01*
X0137127Y0065677D01*
X0137148Y0065610D01*
X0137173Y0065544D01*
X0137201Y0065480D01*
X0137233Y0065417D01*
X0137268Y0065356D01*
X0137307Y0065297D01*
X0137348Y0065240D01*
X0137393Y0065186D01*
X0137441Y0065134D01*
X0137491Y0065085D01*
X0137545Y0065038D01*
X0137600Y0064995D01*
X0137658Y0064955D01*
X0137718Y0064918D01*
X0137780Y0064885D01*
X0137844Y0064855D01*
X0137909Y0064828D01*
X0137975Y0064805D01*
X0138043Y0064786D01*
X0138112Y0064771D01*
X0138181Y0064759D01*
X0138251Y0064751D01*
X0138322Y0064747D01*
X0138392Y0064747D01*
X0138463Y0064751D01*
X0138533Y0064759D01*
X0138602Y0064771D01*
X0138671Y0064786D01*
X0138739Y0064805D01*
X0138805Y0064828D01*
X0138870Y0064855D01*
X0138934Y0064885D01*
X0138996Y0064918D01*
X0139056Y0064955D01*
X0139114Y0064995D01*
X0139169Y0065038D01*
X0139223Y0065085D01*
X0139273Y0065134D01*
X0139321Y0065186D01*
X0139366Y0065240D01*
X0139407Y0065297D01*
X0139446Y0065356D01*
X0139481Y0065417D01*
X0139513Y0065480D01*
X0139541Y0065544D01*
X0139566Y0065610D01*
X0139587Y0065677D01*
X0139604Y0065746D01*
X0139618Y0065815D01*
X0139627Y0065884D01*
X0139633Y0065955D01*
X0139635Y0066025D01*
X0139635Y0069347D01*
X0141596Y0069347D02*
X0142618Y0069347D01*
X0142107Y0069347D02*
X0142107Y0064747D01*
X0141596Y0064747D02*
X0142618Y0064747D01*
X0144579Y0064747D02*
X0144579Y0069347D01*
X0147135Y0064747D01*
X0147135Y0069347D01*
X0149229Y0068069D02*
X0149229Y0066025D01*
X0149231Y0065955D01*
X0149237Y0065884D01*
X0149246Y0065815D01*
X0149260Y0065746D01*
X0149277Y0065677D01*
X0149298Y0065610D01*
X0149323Y0065544D01*
X0149351Y0065480D01*
X0149383Y0065417D01*
X0149418Y0065356D01*
X0149457Y0065297D01*
X0149498Y0065240D01*
X0149543Y0065186D01*
X0149591Y0065134D01*
X0149641Y0065085D01*
X0149695Y0065038D01*
X0149750Y0064995D01*
X0149808Y0064955D01*
X0149868Y0064918D01*
X0149930Y0064885D01*
X0149994Y0064855D01*
X0150059Y0064828D01*
X0150125Y0064805D01*
X0150193Y0064786D01*
X0150262Y0064771D01*
X0150331Y0064759D01*
X0150401Y0064751D01*
X0150472Y0064747D01*
X0150542Y0064747D01*
X0150613Y0064751D01*
X0150683Y0064759D01*
X0150752Y0064771D01*
X0150821Y0064786D01*
X0150889Y0064805D01*
X0150955Y0064828D01*
X0151020Y0064855D01*
X0151084Y0064885D01*
X0151146Y0064918D01*
X0151206Y0064955D01*
X0151264Y0064995D01*
X0151319Y0065038D01*
X0151373Y0065085D01*
X0151423Y0065134D01*
X0151471Y0065186D01*
X0151516Y0065240D01*
X0151557Y0065297D01*
X0151596Y0065356D01*
X0151631Y0065417D01*
X0151663Y0065480D01*
X0151691Y0065544D01*
X0151716Y0065610D01*
X0151737Y0065677D01*
X0151754Y0065746D01*
X0151768Y0065815D01*
X0151777Y0065884D01*
X0151783Y0065955D01*
X0151785Y0066025D01*
X0151785Y0068069D01*
X0151783Y0068139D01*
X0151777Y0068210D01*
X0151768Y0068279D01*
X0151754Y0068348D01*
X0151737Y0068417D01*
X0151716Y0068484D01*
X0151691Y0068550D01*
X0151663Y0068614D01*
X0151631Y0068677D01*
X0151596Y0068738D01*
X0151557Y0068797D01*
X0151516Y0068854D01*
X0151471Y0068908D01*
X0151423Y0068960D01*
X0151373Y0069009D01*
X0151319Y0069056D01*
X0151264Y0069099D01*
X0151206Y0069139D01*
X0151146Y0069176D01*
X0151084Y0069209D01*
X0151020Y0069239D01*
X0150955Y0069266D01*
X0150889Y0069289D01*
X0150821Y0069308D01*
X0150752Y0069323D01*
X0150683Y0069335D01*
X0150613Y0069343D01*
X0150542Y0069347D01*
X0150472Y0069347D01*
X0150401Y0069343D01*
X0150331Y0069335D01*
X0150262Y0069323D01*
X0150193Y0069308D01*
X0150125Y0069289D01*
X0150059Y0069266D01*
X0149994Y0069239D01*
X0149930Y0069209D01*
X0149868Y0069176D01*
X0149808Y0069139D01*
X0149750Y0069099D01*
X0149695Y0069056D01*
X0149641Y0069009D01*
X0149591Y0068960D01*
X0149543Y0068908D01*
X0149498Y0068854D01*
X0149457Y0068797D01*
X0149418Y0068738D01*
X0149383Y0068677D01*
X0149351Y0068614D01*
X0149323Y0068550D01*
X0149298Y0068484D01*
X0149277Y0068417D01*
X0149260Y0068348D01*
X0149246Y0068279D01*
X0149237Y0068210D01*
X0149231Y0068139D01*
X0149229Y0068069D01*
X0188271Y0065312D02*
X0189804Y0065312D01*
X0189867Y0065310D01*
X0189930Y0065304D01*
X0189992Y0065295D01*
X0190053Y0065281D01*
X0190114Y0065264D01*
X0190173Y0065243D01*
X0190231Y0065218D01*
X0190288Y0065190D01*
X0190342Y0065159D01*
X0190394Y0065124D01*
X0190445Y0065086D01*
X0190493Y0065045D01*
X0190538Y0065001D01*
X0190580Y0064955D01*
X0190620Y0064906D01*
X0190656Y0064855D01*
X0190689Y0064801D01*
X0190719Y0064746D01*
X0190745Y0064688D01*
X0190768Y0064630D01*
X0190787Y0064570D01*
X0190802Y0064509D01*
X0190814Y0064447D01*
X0190822Y0064384D01*
X0190826Y0064321D01*
X0190826Y0064259D01*
X0190822Y0064196D01*
X0190814Y0064133D01*
X0190802Y0064071D01*
X0190787Y0064010D01*
X0190768Y0063950D01*
X0190745Y0063892D01*
X0190719Y0063834D01*
X0190689Y0063779D01*
X0190656Y0063725D01*
X0190620Y0063674D01*
X0190580Y0063625D01*
X0190538Y0063579D01*
X0190493Y0063535D01*
X0190445Y0063494D01*
X0190394Y0063456D01*
X0190342Y0063421D01*
X0190288Y0063390D01*
X0190231Y0063362D01*
X0190173Y0063337D01*
X0190114Y0063316D01*
X0190053Y0063299D01*
X0189992Y0063285D01*
X0189930Y0063276D01*
X0189867Y0063270D01*
X0189804Y0063268D01*
X0189804Y0063267D02*
X0188782Y0063267D01*
X0189549Y0063268D02*
X0189619Y0063266D01*
X0189690Y0063260D01*
X0189759Y0063251D01*
X0189828Y0063237D01*
X0189897Y0063220D01*
X0189964Y0063199D01*
X0190030Y0063174D01*
X0190094Y0063146D01*
X0190157Y0063114D01*
X0190218Y0063079D01*
X0190277Y0063040D01*
X0190334Y0062999D01*
X0190388Y0062954D01*
X0190440Y0062906D01*
X0190489Y0062856D01*
X0190536Y0062802D01*
X0190579Y0062747D01*
X0190619Y0062689D01*
X0190656Y0062629D01*
X0190689Y0062567D01*
X0190719Y0062503D01*
X0190746Y0062438D01*
X0190769Y0062372D01*
X0190788Y0062304D01*
X0190803Y0062235D01*
X0190815Y0062166D01*
X0190823Y0062096D01*
X0190827Y0062025D01*
X0190827Y0061955D01*
X0190823Y0061884D01*
X0190815Y0061814D01*
X0190803Y0061745D01*
X0190788Y0061676D01*
X0190769Y0061608D01*
X0190746Y0061542D01*
X0190719Y0061477D01*
X0190689Y0061413D01*
X0190656Y0061351D01*
X0190619Y0061291D01*
X0190579Y0061233D01*
X0190536Y0061178D01*
X0190489Y0061124D01*
X0190440Y0061074D01*
X0190388Y0061026D01*
X0190334Y0060981D01*
X0190277Y0060940D01*
X0190218Y0060901D01*
X0190157Y0060866D01*
X0190094Y0060834D01*
X0190030Y0060806D01*
X0189964Y0060781D01*
X0189897Y0060760D01*
X0189828Y0060743D01*
X0189759Y0060729D01*
X0189690Y0060720D01*
X0189619Y0060714D01*
X0189549Y0060712D01*
X0188271Y0060712D01*
X0192571Y0060712D02*
X0192826Y0060712D01*
X0192826Y0060967D01*
X0192571Y0060967D01*
X0192571Y0060712D01*
X0194571Y0060712D02*
X0195849Y0060712D01*
X0195919Y0060714D01*
X0195990Y0060720D01*
X0196059Y0060729D01*
X0196128Y0060743D01*
X0196197Y0060760D01*
X0196264Y0060781D01*
X0196330Y0060806D01*
X0196394Y0060834D01*
X0196457Y0060866D01*
X0196518Y0060901D01*
X0196577Y0060940D01*
X0196634Y0060981D01*
X0196688Y0061026D01*
X0196740Y0061074D01*
X0196789Y0061124D01*
X0196836Y0061178D01*
X0196879Y0061233D01*
X0196919Y0061291D01*
X0196956Y0061351D01*
X0196989Y0061413D01*
X0197019Y0061477D01*
X0197046Y0061542D01*
X0197069Y0061608D01*
X0197088Y0061676D01*
X0197103Y0061745D01*
X0197115Y0061814D01*
X0197123Y0061884D01*
X0197127Y0061955D01*
X0197127Y0062025D01*
X0197123Y0062096D01*
X0197115Y0062166D01*
X0197103Y0062235D01*
X0197088Y0062304D01*
X0197069Y0062372D01*
X0197046Y0062438D01*
X0197019Y0062503D01*
X0196989Y0062567D01*
X0196956Y0062629D01*
X0196919Y0062689D01*
X0196879Y0062747D01*
X0196836Y0062802D01*
X0196789Y0062856D01*
X0196740Y0062906D01*
X0196688Y0062954D01*
X0196634Y0062999D01*
X0196577Y0063040D01*
X0196518Y0063079D01*
X0196457Y0063114D01*
X0196394Y0063146D01*
X0196330Y0063174D01*
X0196264Y0063199D01*
X0196197Y0063220D01*
X0196128Y0063237D01*
X0196059Y0063251D01*
X0195990Y0063260D01*
X0195919Y0063266D01*
X0195849Y0063268D01*
X0196104Y0063267D02*
X0195082Y0063267D01*
X0196104Y0063268D02*
X0196167Y0063270D01*
X0196230Y0063276D01*
X0196292Y0063285D01*
X0196353Y0063299D01*
X0196414Y0063316D01*
X0196473Y0063337D01*
X0196531Y0063362D01*
X0196588Y0063390D01*
X0196642Y0063421D01*
X0196694Y0063456D01*
X0196745Y0063494D01*
X0196793Y0063535D01*
X0196838Y0063579D01*
X0196880Y0063625D01*
X0196920Y0063674D01*
X0196956Y0063725D01*
X0196989Y0063779D01*
X0197019Y0063834D01*
X0197045Y0063892D01*
X0197068Y0063950D01*
X0197087Y0064010D01*
X0197102Y0064071D01*
X0197114Y0064133D01*
X0197122Y0064196D01*
X0197126Y0064259D01*
X0197126Y0064321D01*
X0197122Y0064384D01*
X0197114Y0064447D01*
X0197102Y0064509D01*
X0197087Y0064570D01*
X0197068Y0064630D01*
X0197045Y0064688D01*
X0197019Y0064746D01*
X0196989Y0064801D01*
X0196956Y0064855D01*
X0196920Y0064906D01*
X0196880Y0064955D01*
X0196838Y0065001D01*
X0196793Y0065045D01*
X0196745Y0065086D01*
X0196694Y0065124D01*
X0196642Y0065159D01*
X0196588Y0065190D01*
X0196531Y0065218D01*
X0196473Y0065243D01*
X0196414Y0065264D01*
X0196353Y0065281D01*
X0196292Y0065295D01*
X0196230Y0065304D01*
X0196167Y0065310D01*
X0196104Y0065312D01*
X0194571Y0065312D01*
X0195233Y0055469D02*
X0195233Y0050869D01*
X0192677Y0055469D01*
X0192677Y0050869D01*
X0190433Y0050869D02*
X0190433Y0053425D01*
X0189666Y0053425D01*
X0187877Y0054447D02*
X0187879Y0054509D01*
X0187884Y0054570D01*
X0187894Y0054631D01*
X0187907Y0054692D01*
X0187923Y0054751D01*
X0187943Y0054809D01*
X0187967Y0054866D01*
X0187994Y0054922D01*
X0188024Y0054976D01*
X0188058Y0055028D01*
X0188094Y0055077D01*
X0188134Y0055125D01*
X0188176Y0055170D01*
X0188221Y0055212D01*
X0188269Y0055251D01*
X0188318Y0055288D01*
X0188370Y0055322D01*
X0188424Y0055352D01*
X0188480Y0055379D01*
X0188537Y0055403D01*
X0188595Y0055423D01*
X0188654Y0055439D01*
X0188715Y0055452D01*
X0188776Y0055462D01*
X0188837Y0055467D01*
X0188899Y0055469D01*
X0190433Y0055469D01*
X0187877Y0054447D02*
X0187877Y0051892D01*
X0187879Y0051830D01*
X0187884Y0051769D01*
X0187894Y0051708D01*
X0187907Y0051647D01*
X0187923Y0051588D01*
X0187943Y0051530D01*
X0187967Y0051473D01*
X0187994Y0051417D01*
X0188024Y0051363D01*
X0188058Y0051311D01*
X0188094Y0051262D01*
X0188134Y0051214D01*
X0188176Y0051169D01*
X0188221Y0051127D01*
X0188269Y0051087D01*
X0188318Y0051051D01*
X0188370Y0051017D01*
X0188424Y0050987D01*
X0188480Y0050960D01*
X0188537Y0050936D01*
X0188595Y0050916D01*
X0188654Y0050900D01*
X0188715Y0050887D01*
X0188776Y0050877D01*
X0188837Y0050872D01*
X0188899Y0050870D01*
X0188899Y0050869D02*
X0190433Y0050869D01*
X0197477Y0050869D02*
X0197477Y0055469D01*
X0198755Y0055469D01*
X0198755Y0055470D02*
X0198824Y0055468D01*
X0198893Y0055463D01*
X0198962Y0055453D01*
X0199030Y0055440D01*
X0199097Y0055423D01*
X0199163Y0055403D01*
X0199228Y0055379D01*
X0199292Y0055352D01*
X0199354Y0055321D01*
X0199414Y0055287D01*
X0199472Y0055250D01*
X0199528Y0055209D01*
X0199582Y0055166D01*
X0199634Y0055120D01*
X0199683Y0055071D01*
X0199729Y0055019D01*
X0199772Y0054965D01*
X0199813Y0054909D01*
X0199850Y0054851D01*
X0199884Y0054791D01*
X0199915Y0054729D01*
X0199942Y0054665D01*
X0199966Y0054600D01*
X0199986Y0054534D01*
X0200003Y0054467D01*
X0200016Y0054399D01*
X0200026Y0054330D01*
X0200031Y0054261D01*
X0200033Y0054192D01*
X0200033Y0052147D01*
X0200031Y0052078D01*
X0200026Y0052009D01*
X0200016Y0051940D01*
X0200003Y0051872D01*
X0199986Y0051805D01*
X0199966Y0051739D01*
X0199942Y0051674D01*
X0199915Y0051610D01*
X0199884Y0051548D01*
X0199850Y0051488D01*
X0199813Y0051430D01*
X0199772Y0051374D01*
X0199729Y0051320D01*
X0199683Y0051268D01*
X0199634Y0051219D01*
X0199582Y0051173D01*
X0199528Y0051130D01*
X0199472Y0051089D01*
X0199414Y0051052D01*
X0199354Y0051018D01*
X0199292Y0050987D01*
X0199228Y0050960D01*
X0199163Y0050936D01*
X0199097Y0050916D01*
X0199030Y0050899D01*
X0198962Y0050886D01*
X0198893Y0050876D01*
X0198824Y0050871D01*
X0198755Y0050869D01*
X0197477Y0050869D01*
X0140190Y0045136D02*
X0140190Y0043092D01*
X0140188Y0043023D01*
X0140183Y0042954D01*
X0140173Y0042885D01*
X0140160Y0042817D01*
X0140143Y0042750D01*
X0140123Y0042684D01*
X0140099Y0042619D01*
X0140072Y0042555D01*
X0140041Y0042493D01*
X0140007Y0042433D01*
X0139970Y0042375D01*
X0139929Y0042319D01*
X0139886Y0042265D01*
X0139840Y0042213D01*
X0139791Y0042164D01*
X0139739Y0042118D01*
X0139685Y0042075D01*
X0139629Y0042034D01*
X0139571Y0041997D01*
X0139511Y0041963D01*
X0139449Y0041932D01*
X0139385Y0041905D01*
X0139320Y0041881D01*
X0139254Y0041861D01*
X0139187Y0041844D01*
X0139119Y0041831D01*
X0139050Y0041821D01*
X0138981Y0041816D01*
X0138912Y0041814D01*
X0137635Y0041814D01*
X0137635Y0046414D01*
X0138912Y0046414D01*
X0138981Y0046412D01*
X0139050Y0046407D01*
X0139119Y0046397D01*
X0139187Y0046384D01*
X0139254Y0046367D01*
X0139320Y0046347D01*
X0139385Y0046323D01*
X0139449Y0046296D01*
X0139511Y0046265D01*
X0139571Y0046231D01*
X0139629Y0046194D01*
X0139685Y0046153D01*
X0139739Y0046110D01*
X0139791Y0046064D01*
X0139840Y0046015D01*
X0139886Y0045963D01*
X0139929Y0045909D01*
X0139970Y0045853D01*
X0140007Y0045795D01*
X0140041Y0045735D01*
X0140072Y0045673D01*
X0140099Y0045609D01*
X0140123Y0045544D01*
X0140143Y0045478D01*
X0140160Y0045411D01*
X0140173Y0045343D01*
X0140183Y0045274D01*
X0140188Y0045205D01*
X0140190Y0045136D01*
X0135390Y0046414D02*
X0135390Y0041814D01*
X0132835Y0046414D01*
X0132835Y0041814D01*
X0130590Y0041814D02*
X0129057Y0041814D01*
X0128995Y0041816D01*
X0128934Y0041821D01*
X0128873Y0041831D01*
X0128812Y0041844D01*
X0128753Y0041860D01*
X0128695Y0041880D01*
X0128638Y0041904D01*
X0128582Y0041931D01*
X0128528Y0041961D01*
X0128476Y0041995D01*
X0128427Y0042031D01*
X0128379Y0042071D01*
X0128334Y0042113D01*
X0128292Y0042158D01*
X0128252Y0042206D01*
X0128216Y0042255D01*
X0128182Y0042307D01*
X0128152Y0042361D01*
X0128125Y0042417D01*
X0128101Y0042474D01*
X0128081Y0042532D01*
X0128065Y0042591D01*
X0128052Y0042652D01*
X0128042Y0042713D01*
X0128037Y0042774D01*
X0128035Y0042836D01*
X0128035Y0045392D01*
X0128037Y0045454D01*
X0128042Y0045515D01*
X0128052Y0045576D01*
X0128065Y0045637D01*
X0128081Y0045696D01*
X0128101Y0045754D01*
X0128125Y0045811D01*
X0128152Y0045867D01*
X0128182Y0045921D01*
X0128216Y0045973D01*
X0128252Y0046022D01*
X0128292Y0046070D01*
X0128334Y0046115D01*
X0128379Y0046157D01*
X0128427Y0046196D01*
X0128476Y0046233D01*
X0128528Y0046267D01*
X0128582Y0046297D01*
X0128638Y0046324D01*
X0128695Y0046348D01*
X0128753Y0046368D01*
X0128812Y0046384D01*
X0128873Y0046397D01*
X0128934Y0046407D01*
X0128995Y0046412D01*
X0129057Y0046414D01*
X0130590Y0046414D01*
X0130590Y0044370D02*
X0130590Y0041814D01*
X0130590Y0044370D02*
X0129824Y0044370D01*
X0129057Y0036178D02*
X0130590Y0036178D01*
X0129057Y0036178D02*
X0128995Y0036176D01*
X0128934Y0036171D01*
X0128873Y0036161D01*
X0128812Y0036148D01*
X0128753Y0036132D01*
X0128695Y0036112D01*
X0128638Y0036088D01*
X0128582Y0036061D01*
X0128528Y0036031D01*
X0128476Y0035997D01*
X0128427Y0035960D01*
X0128379Y0035921D01*
X0128334Y0035879D01*
X0128292Y0035834D01*
X0128252Y0035786D01*
X0128216Y0035737D01*
X0128182Y0035685D01*
X0128152Y0035631D01*
X0128125Y0035575D01*
X0128101Y0035518D01*
X0128081Y0035460D01*
X0128065Y0035401D01*
X0128052Y0035340D01*
X0128042Y0035279D01*
X0128037Y0035218D01*
X0128035Y0035156D01*
X0128035Y0032600D01*
X0128037Y0032538D01*
X0128042Y0032477D01*
X0128052Y0032416D01*
X0128065Y0032355D01*
X0128081Y0032296D01*
X0128101Y0032238D01*
X0128125Y0032181D01*
X0128152Y0032125D01*
X0128182Y0032071D01*
X0128216Y0032019D01*
X0128252Y0031970D01*
X0128292Y0031922D01*
X0128334Y0031877D01*
X0128379Y0031835D01*
X0128427Y0031795D01*
X0128476Y0031759D01*
X0128528Y0031725D01*
X0128582Y0031695D01*
X0128638Y0031668D01*
X0128695Y0031644D01*
X0128753Y0031624D01*
X0128812Y0031608D01*
X0128873Y0031595D01*
X0128934Y0031585D01*
X0128995Y0031580D01*
X0129057Y0031578D01*
X0130590Y0031578D01*
X0130590Y0034134D01*
X0129824Y0034134D01*
X0132835Y0036178D02*
X0132835Y0031578D01*
X0135390Y0031578D02*
X0135390Y0036178D01*
X0137635Y0036178D02*
X0138912Y0036178D01*
X0137635Y0036178D02*
X0137635Y0031578D01*
X0138912Y0031578D01*
X0138981Y0031580D01*
X0139050Y0031585D01*
X0139119Y0031595D01*
X0139187Y0031608D01*
X0139254Y0031625D01*
X0139320Y0031645D01*
X0139385Y0031669D01*
X0139449Y0031696D01*
X0139511Y0031727D01*
X0139571Y0031761D01*
X0139629Y0031798D01*
X0139685Y0031839D01*
X0139739Y0031882D01*
X0139791Y0031928D01*
X0139840Y0031977D01*
X0139886Y0032029D01*
X0139929Y0032083D01*
X0139970Y0032139D01*
X0140007Y0032197D01*
X0140041Y0032257D01*
X0140072Y0032319D01*
X0140099Y0032383D01*
X0140123Y0032448D01*
X0140143Y0032514D01*
X0140160Y0032581D01*
X0140173Y0032649D01*
X0140183Y0032718D01*
X0140188Y0032787D01*
X0140190Y0032856D01*
X0140190Y0034900D01*
X0140188Y0034969D01*
X0140183Y0035038D01*
X0140173Y0035107D01*
X0140160Y0035175D01*
X0140143Y0035242D01*
X0140123Y0035308D01*
X0140099Y0035373D01*
X0140072Y0035437D01*
X0140041Y0035499D01*
X0140007Y0035559D01*
X0139970Y0035617D01*
X0139929Y0035673D01*
X0139886Y0035727D01*
X0139840Y0035779D01*
X0139791Y0035828D01*
X0139739Y0035874D01*
X0139685Y0035917D01*
X0139629Y0035958D01*
X0139571Y0035995D01*
X0139511Y0036029D01*
X0139449Y0036060D01*
X0139385Y0036087D01*
X0139320Y0036111D01*
X0139254Y0036131D01*
X0139187Y0036148D01*
X0139119Y0036161D01*
X0139050Y0036171D01*
X0138981Y0036176D01*
X0138912Y0036178D01*
X0135390Y0031578D02*
X0132835Y0036178D01*
X0132535Y0026335D02*
X0133812Y0026335D01*
X0133812Y0026336D02*
X0133881Y0026334D01*
X0133950Y0026329D01*
X0134019Y0026319D01*
X0134087Y0026306D01*
X0134154Y0026289D01*
X0134220Y0026269D01*
X0134285Y0026245D01*
X0134349Y0026218D01*
X0134411Y0026187D01*
X0134471Y0026153D01*
X0134529Y0026116D01*
X0134585Y0026075D01*
X0134639Y0026032D01*
X0134691Y0025986D01*
X0134740Y0025937D01*
X0134786Y0025885D01*
X0134829Y0025831D01*
X0134870Y0025775D01*
X0134907Y0025717D01*
X0134941Y0025657D01*
X0134972Y0025595D01*
X0134999Y0025531D01*
X0135023Y0025466D01*
X0135043Y0025400D01*
X0135060Y0025333D01*
X0135073Y0025265D01*
X0135083Y0025196D01*
X0135088Y0025127D01*
X0135090Y0025058D01*
X0135090Y0023013D01*
X0135088Y0022944D01*
X0135083Y0022875D01*
X0135073Y0022806D01*
X0135060Y0022738D01*
X0135043Y0022671D01*
X0135023Y0022605D01*
X0134999Y0022540D01*
X0134972Y0022476D01*
X0134941Y0022414D01*
X0134907Y0022354D01*
X0134870Y0022296D01*
X0134829Y0022240D01*
X0134786Y0022186D01*
X0134740Y0022134D01*
X0134691Y0022085D01*
X0134639Y0022039D01*
X0134585Y0021996D01*
X0134529Y0021955D01*
X0134471Y0021918D01*
X0134411Y0021884D01*
X0134349Y0021853D01*
X0134285Y0021826D01*
X0134220Y0021802D01*
X0134154Y0021782D01*
X0134087Y0021765D01*
X0134019Y0021752D01*
X0133950Y0021742D01*
X0133881Y0021737D01*
X0133812Y0021735D01*
X0132535Y0021735D01*
X0132535Y0026335D01*
X0128674Y0024419D02*
X0128620Y0024453D01*
X0128569Y0024490D01*
X0128520Y0024530D01*
X0128473Y0024573D01*
X0128430Y0024619D01*
X0128389Y0024667D01*
X0128351Y0024718D01*
X0128316Y0024771D01*
X0128284Y0024826D01*
X0128256Y0024883D01*
X0128232Y0024941D01*
X0128211Y0025001D01*
X0128194Y0025062D01*
X0128180Y0025124D01*
X0128171Y0025187D01*
X0128165Y0025250D01*
X0128163Y0025313D01*
X0128165Y0025375D01*
X0128170Y0025436D01*
X0128180Y0025497D01*
X0128193Y0025558D01*
X0128209Y0025617D01*
X0128229Y0025675D01*
X0128253Y0025732D01*
X0128280Y0025788D01*
X0128310Y0025842D01*
X0128344Y0025894D01*
X0128381Y0025943D01*
X0128420Y0025991D01*
X0128462Y0026036D01*
X0128507Y0026078D01*
X0128555Y0026118D01*
X0128604Y0026154D01*
X0128656Y0026188D01*
X0128710Y0026218D01*
X0128766Y0026245D01*
X0128823Y0026269D01*
X0128881Y0026289D01*
X0128940Y0026305D01*
X0129001Y0026318D01*
X0129062Y0026328D01*
X0129123Y0026333D01*
X0129185Y0026335D01*
X0129185Y0026336D02*
X0129267Y0026334D01*
X0129349Y0026329D01*
X0129431Y0026320D01*
X0129512Y0026308D01*
X0129593Y0026292D01*
X0129673Y0026273D01*
X0129752Y0026250D01*
X0129830Y0026224D01*
X0129907Y0026195D01*
X0129982Y0026162D01*
X0130056Y0026126D01*
X0130129Y0026088D01*
X0130200Y0026046D01*
X0130268Y0026001D01*
X0130335Y0025953D01*
X0128035Y0022375D02*
X0128099Y0022312D01*
X0128167Y0022253D01*
X0128236Y0022196D01*
X0128308Y0022142D01*
X0128382Y0022091D01*
X0128458Y0022043D01*
X0128535Y0021999D01*
X0128615Y0021958D01*
X0128696Y0021920D01*
X0128779Y0021885D01*
X0128863Y0021854D01*
X0128949Y0021827D01*
X0129035Y0021803D01*
X0129123Y0021782D01*
X0129211Y0021766D01*
X0129300Y0021753D01*
X0129389Y0021743D01*
X0129478Y0021738D01*
X0129568Y0021736D01*
X0129630Y0021738D01*
X0129691Y0021743D01*
X0129752Y0021753D01*
X0129813Y0021766D01*
X0129872Y0021782D01*
X0129930Y0021802D01*
X0129987Y0021826D01*
X0130043Y0021853D01*
X0130097Y0021883D01*
X0130149Y0021917D01*
X0130198Y0021953D01*
X0130246Y0021993D01*
X0130291Y0022035D01*
X0130333Y0022080D01*
X0130373Y0022128D01*
X0130409Y0022177D01*
X0130443Y0022229D01*
X0130473Y0022283D01*
X0130500Y0022339D01*
X0130524Y0022396D01*
X0130544Y0022454D01*
X0130560Y0022513D01*
X0130573Y0022574D01*
X0130583Y0022635D01*
X0130588Y0022696D01*
X0130590Y0022758D01*
X0130079Y0023652D02*
X0128674Y0024419D01*
X0130079Y0023652D02*
X0130133Y0023618D01*
X0130184Y0023581D01*
X0130233Y0023541D01*
X0130280Y0023498D01*
X0130323Y0023452D01*
X0130364Y0023404D01*
X0130402Y0023353D01*
X0130437Y0023300D01*
X0130469Y0023245D01*
X0130497Y0023188D01*
X0130521Y0023130D01*
X0130542Y0023070D01*
X0130559Y0023009D01*
X0130573Y0022947D01*
X0130582Y0022884D01*
X0130588Y0022821D01*
X0130590Y0022758D01*
X0136929Y0021735D02*
X0138462Y0026335D01*
X0139996Y0021735D01*
X0139612Y0022885D02*
X0137312Y0022885D01*
X0136294Y0016099D02*
X0136294Y0011499D01*
X0138338Y0011499D01*
X0134416Y0011499D02*
X0133394Y0011499D01*
X0133332Y0011501D01*
X0133271Y0011506D01*
X0133210Y0011516D01*
X0133149Y0011529D01*
X0133090Y0011545D01*
X0133032Y0011565D01*
X0132975Y0011589D01*
X0132919Y0011616D01*
X0132865Y0011646D01*
X0132813Y0011680D01*
X0132764Y0011716D01*
X0132716Y0011756D01*
X0132671Y0011798D01*
X0132629Y0011843D01*
X0132589Y0011891D01*
X0132553Y0011940D01*
X0132519Y0011992D01*
X0132489Y0012046D01*
X0132462Y0012102D01*
X0132438Y0012159D01*
X0132418Y0012217D01*
X0132402Y0012276D01*
X0132389Y0012337D01*
X0132379Y0012398D01*
X0132374Y0012459D01*
X0132372Y0012521D01*
X0132372Y0015077D01*
X0132374Y0015139D01*
X0132379Y0015200D01*
X0132389Y0015261D01*
X0132402Y0015322D01*
X0132418Y0015381D01*
X0132438Y0015439D01*
X0132462Y0015496D01*
X0132489Y0015552D01*
X0132519Y0015606D01*
X0132553Y0015658D01*
X0132589Y0015707D01*
X0132629Y0015755D01*
X0132671Y0015800D01*
X0132716Y0015842D01*
X0132764Y0015881D01*
X0132813Y0015918D01*
X0132865Y0015952D01*
X0132919Y0015982D01*
X0132975Y0016009D01*
X0133032Y0016033D01*
X0133090Y0016053D01*
X0133149Y0016069D01*
X0133210Y0016082D01*
X0133271Y0016092D01*
X0133332Y0016097D01*
X0133394Y0016099D01*
X0134416Y0016099D01*
X0130079Y0013416D02*
X0128674Y0014183D01*
X0129185Y0016100D02*
X0129267Y0016098D01*
X0129349Y0016093D01*
X0129431Y0016084D01*
X0129512Y0016072D01*
X0129593Y0016056D01*
X0129673Y0016037D01*
X0129752Y0016014D01*
X0129830Y0015988D01*
X0129907Y0015959D01*
X0129982Y0015926D01*
X0130056Y0015890D01*
X0130129Y0015852D01*
X0130200Y0015810D01*
X0130268Y0015765D01*
X0130335Y0015717D01*
X0128674Y0014183D02*
X0128620Y0014217D01*
X0128569Y0014254D01*
X0128520Y0014294D01*
X0128473Y0014337D01*
X0128430Y0014383D01*
X0128389Y0014431D01*
X0128351Y0014482D01*
X0128316Y0014535D01*
X0128284Y0014590D01*
X0128256Y0014647D01*
X0128232Y0014705D01*
X0128211Y0014765D01*
X0128194Y0014826D01*
X0128180Y0014888D01*
X0128171Y0014951D01*
X0128165Y0015014D01*
X0128163Y0015077D01*
X0128165Y0015139D01*
X0128170Y0015200D01*
X0128180Y0015261D01*
X0128193Y0015322D01*
X0128209Y0015381D01*
X0128229Y0015439D01*
X0128253Y0015496D01*
X0128280Y0015552D01*
X0128310Y0015606D01*
X0128344Y0015658D01*
X0128381Y0015707D01*
X0128420Y0015755D01*
X0128462Y0015800D01*
X0128507Y0015842D01*
X0128555Y0015882D01*
X0128604Y0015918D01*
X0128656Y0015952D01*
X0128710Y0015982D01*
X0128766Y0016009D01*
X0128823Y0016033D01*
X0128881Y0016053D01*
X0128940Y0016069D01*
X0129001Y0016082D01*
X0129062Y0016092D01*
X0129123Y0016097D01*
X0129185Y0016099D01*
X0128035Y0012139D02*
X0128099Y0012076D01*
X0128167Y0012017D01*
X0128236Y0011960D01*
X0128308Y0011906D01*
X0128382Y0011855D01*
X0128458Y0011807D01*
X0128535Y0011763D01*
X0128615Y0011722D01*
X0128696Y0011684D01*
X0128779Y0011649D01*
X0128863Y0011618D01*
X0128949Y0011591D01*
X0129035Y0011567D01*
X0129123Y0011546D01*
X0129211Y0011530D01*
X0129300Y0011517D01*
X0129389Y0011507D01*
X0129478Y0011502D01*
X0129568Y0011500D01*
X0129568Y0011499D02*
X0129630Y0011501D01*
X0129691Y0011506D01*
X0129752Y0011516D01*
X0129813Y0011529D01*
X0129872Y0011545D01*
X0129930Y0011565D01*
X0129987Y0011589D01*
X0130043Y0011616D01*
X0130097Y0011646D01*
X0130149Y0011680D01*
X0130198Y0011716D01*
X0130246Y0011756D01*
X0130291Y0011798D01*
X0130333Y0011843D01*
X0130373Y0011891D01*
X0130409Y0011940D01*
X0130443Y0011992D01*
X0130473Y0012046D01*
X0130500Y0012102D01*
X0130524Y0012159D01*
X0130544Y0012217D01*
X0130560Y0012276D01*
X0130573Y0012337D01*
X0130583Y0012398D01*
X0130588Y0012459D01*
X0130590Y0012521D01*
X0130588Y0012584D01*
X0130582Y0012647D01*
X0130573Y0012710D01*
X0130559Y0012772D01*
X0130542Y0012833D01*
X0130521Y0012893D01*
X0130497Y0012951D01*
X0130469Y0013008D01*
X0130437Y0013063D01*
X0130402Y0013116D01*
X0130364Y0013167D01*
X0130323Y0013215D01*
X0130280Y0013261D01*
X0130233Y0013304D01*
X0130184Y0013344D01*
X0130133Y0013381D01*
X0130079Y0013415D01*
M02*
