%
M48
M72
T01C0.0138
T02C0.0354
T03C0.0400
T04C0.1500
%
T01
X1681Y1327
X1996Y1327
X5028Y1327
X5343Y1327
X6563Y4004
X6563Y5776
X5421Y7783
X5106Y7783
X2114Y7783
X1799Y7783
X15736Y14909
X17193Y15264
T02
X23933Y15224
X27933Y15224
T03
X27980Y13917
X27980Y12917
X27980Y11917
X24476Y11917
X24476Y12917
X24476Y13917
X20972Y13917
X20972Y12917
X20972Y11917
X17980Y11933
X17980Y10933
X17980Y12933
X17980Y13933
X15000Y15717
X14000Y15717
X13000Y15717
X12000Y15717
X11000Y15717
X10000Y15717
X9000Y15717
X8000Y15717
X7000Y15717
X6000Y15717
X5000Y15717
X4000Y15717
X4000Y8717
X5000Y8717
X6000Y8717
X7000Y8717
X8000Y8717
X9000Y8717
X10000Y8717
X11000Y8717
X12000Y8717
X13000Y8717
X14000Y8717
X15000Y8717
X17898Y6287
X17898Y5287
X11898Y4445
X11898Y3445
X11898Y2445
X11898Y1445
T04
X30028Y1563
X30028Y7980
X30028Y10736
X30028Y15067
X1602Y12232
M30
