G75*
%MOIN*%
%OFA0B0*%
%FSLAX25Y25*%
%IPPOS*%
%LPD*%
%AMOC8*
5,1,8,0,0,1.08239X$1,22.5*
%
%ADD10C,0.00315*%
%ADD11C,0.00571*%
D10*
X0044804Y0026338D02*
X0044804Y0029174D01*
X0044804Y0026338D02*
X0039212Y0026338D01*
X0039212Y0029174D01*
X0044804Y0029174D01*
X0044804Y0026652D02*
X0039212Y0026652D01*
X0039212Y0026966D02*
X0044804Y0026966D01*
X0044804Y0027280D02*
X0039212Y0027280D01*
X0039212Y0027594D02*
X0044804Y0027594D01*
X0044804Y0027908D02*
X0039212Y0027908D01*
X0039212Y0028222D02*
X0044804Y0028222D01*
X0044804Y0028536D02*
X0039212Y0028536D01*
X0039212Y0028850D02*
X0044804Y0028850D01*
X0044804Y0029164D02*
X0039212Y0029164D01*
X0044804Y0030669D02*
X0044804Y0033505D01*
X0044804Y0030669D02*
X0039212Y0030669D01*
X0039212Y0033505D01*
X0044804Y0033505D01*
X0044804Y0030983D02*
X0039212Y0030983D01*
X0039212Y0031297D02*
X0044804Y0031297D01*
X0044804Y0031611D02*
X0039212Y0031611D01*
X0039212Y0031925D02*
X0044804Y0031925D01*
X0044804Y0032239D02*
X0039212Y0032239D01*
X0039212Y0032553D02*
X0044804Y0032553D01*
X0044804Y0032867D02*
X0039212Y0032867D01*
X0039212Y0033181D02*
X0044804Y0033181D01*
X0044804Y0033495D02*
X0039212Y0033495D01*
X0044804Y0034999D02*
X0044804Y0037835D01*
X0044804Y0034999D02*
X0039212Y0034999D01*
X0039212Y0037835D01*
X0044804Y0037835D01*
X0044804Y0035313D02*
X0039212Y0035313D01*
X0039212Y0035627D02*
X0044804Y0035627D01*
X0044804Y0035941D02*
X0039212Y0035941D01*
X0039212Y0036255D02*
X0044804Y0036255D01*
X0044804Y0036569D02*
X0039212Y0036569D01*
X0039212Y0036883D02*
X0044804Y0036883D01*
X0044804Y0037197D02*
X0039212Y0037197D01*
X0039212Y0037511D02*
X0044804Y0037511D01*
X0044804Y0037825D02*
X0039212Y0037825D01*
X0044804Y0039330D02*
X0044804Y0042166D01*
X0044804Y0039330D02*
X0039212Y0039330D01*
X0039212Y0042166D01*
X0044804Y0042166D01*
X0044804Y0039644D02*
X0039212Y0039644D01*
X0039212Y0039958D02*
X0044804Y0039958D01*
X0044804Y0040272D02*
X0039212Y0040272D01*
X0039212Y0040586D02*
X0044804Y0040586D01*
X0044804Y0040900D02*
X0039212Y0040900D01*
X0039212Y0041214D02*
X0044804Y0041214D01*
X0044804Y0041528D02*
X0039212Y0041528D01*
X0039212Y0041842D02*
X0044804Y0041842D01*
X0044804Y0042156D02*
X0039212Y0042156D01*
X0044804Y0043661D02*
X0044804Y0046497D01*
X0044804Y0043661D02*
X0039212Y0043661D01*
X0039212Y0046497D01*
X0044804Y0046497D01*
X0044804Y0043975D02*
X0039212Y0043975D01*
X0039212Y0044289D02*
X0044804Y0044289D01*
X0044804Y0044603D02*
X0039212Y0044603D01*
X0039212Y0044917D02*
X0044804Y0044917D01*
X0044804Y0045231D02*
X0039212Y0045231D01*
X0039212Y0045545D02*
X0044804Y0045545D01*
X0044804Y0045859D02*
X0039212Y0045859D01*
X0039212Y0046173D02*
X0044804Y0046173D01*
X0044804Y0046487D02*
X0039212Y0046487D01*
X0044804Y0047991D02*
X0044804Y0050827D01*
X0044804Y0047991D02*
X0039212Y0047991D01*
X0039212Y0050827D01*
X0044804Y0050827D01*
X0044804Y0048305D02*
X0039212Y0048305D01*
X0039212Y0048619D02*
X0044804Y0048619D01*
X0044804Y0048933D02*
X0039212Y0048933D01*
X0039212Y0049247D02*
X0044804Y0049247D01*
X0044804Y0049561D02*
X0039212Y0049561D01*
X0039212Y0049875D02*
X0044804Y0049875D01*
X0044804Y0050189D02*
X0039212Y0050189D01*
X0039212Y0050503D02*
X0044804Y0050503D01*
X0044804Y0050817D02*
X0039212Y0050817D01*
X0044804Y0052322D02*
X0044804Y0055158D01*
X0044804Y0052322D02*
X0039212Y0052322D01*
X0039212Y0055158D01*
X0044804Y0055158D01*
X0044804Y0052636D02*
X0039212Y0052636D01*
X0039212Y0052950D02*
X0044804Y0052950D01*
X0044804Y0053264D02*
X0039212Y0053264D01*
X0039212Y0053578D02*
X0044804Y0053578D01*
X0044804Y0053892D02*
X0039212Y0053892D01*
X0039212Y0054206D02*
X0044804Y0054206D01*
X0044804Y0054520D02*
X0039212Y0054520D01*
X0039212Y0054834D02*
X0044804Y0054834D01*
X0044804Y0055148D02*
X0039212Y0055148D01*
X0044804Y0056653D02*
X0044804Y0059489D01*
X0044804Y0056653D02*
X0039212Y0056653D01*
X0039212Y0059489D01*
X0044804Y0059489D01*
X0044804Y0056967D02*
X0039212Y0056967D01*
X0039212Y0057281D02*
X0044804Y0057281D01*
X0044804Y0057595D02*
X0039212Y0057595D01*
X0039212Y0057909D02*
X0044804Y0057909D01*
X0044804Y0058223D02*
X0039212Y0058223D01*
X0039212Y0058537D02*
X0044804Y0058537D01*
X0044804Y0058851D02*
X0039212Y0058851D01*
X0039212Y0059165D02*
X0044804Y0059165D01*
X0044804Y0059479D02*
X0039212Y0059479D01*
D11*
X0023219Y0020955D02*
X0023219Y0015817D01*
X0015915Y0015817D01*
X0015915Y0020955D01*
X0023219Y0020955D01*
X0023219Y0016387D02*
X0015915Y0016387D01*
X0015915Y0016957D02*
X0023219Y0016957D01*
X0023219Y0017527D02*
X0015915Y0017527D01*
X0015915Y0018097D02*
X0023219Y0018097D01*
X0023219Y0018667D02*
X0015915Y0018667D01*
X0015915Y0019237D02*
X0023219Y0019237D01*
X0023219Y0019807D02*
X0015915Y0019807D01*
X0015915Y0020377D02*
X0023219Y0020377D01*
X0023219Y0020947D02*
X0015915Y0020947D01*
X0055896Y0020955D02*
X0055896Y0015817D01*
X0048592Y0015817D01*
X0048592Y0020955D01*
X0055896Y0020955D01*
X0055896Y0016387D02*
X0048592Y0016387D01*
X0048592Y0016957D02*
X0055896Y0016957D01*
X0055896Y0017527D02*
X0048592Y0017527D01*
X0048592Y0018097D02*
X0055896Y0018097D01*
X0055896Y0018667D02*
X0048592Y0018667D01*
X0048592Y0019237D02*
X0055896Y0019237D01*
X0055896Y0019807D02*
X0048592Y0019807D01*
X0048592Y0020377D02*
X0055896Y0020377D01*
X0055896Y0020947D02*
X0048592Y0020947D01*
X0055896Y0069951D02*
X0055896Y0075089D01*
X0055896Y0069951D02*
X0048592Y0069951D01*
X0048592Y0075089D01*
X0055896Y0075089D01*
X0055896Y0070521D02*
X0048592Y0070521D01*
X0048592Y0071091D02*
X0055896Y0071091D01*
X0055896Y0071661D02*
X0048592Y0071661D01*
X0048592Y0072231D02*
X0055896Y0072231D01*
X0055896Y0072801D02*
X0048592Y0072801D01*
X0048592Y0073371D02*
X0055896Y0073371D01*
X0055896Y0073941D02*
X0048592Y0073941D01*
X0048592Y0074511D02*
X0055896Y0074511D01*
X0055896Y0075081D02*
X0048592Y0075081D01*
X0023219Y0075089D02*
X0023219Y0069951D01*
X0015915Y0069951D01*
X0015915Y0075089D01*
X0023219Y0075089D01*
X0023219Y0070521D02*
X0015915Y0070521D01*
X0015915Y0071091D02*
X0023219Y0071091D01*
X0023219Y0071661D02*
X0015915Y0071661D01*
X0015915Y0072231D02*
X0023219Y0072231D01*
X0023219Y0072801D02*
X0015915Y0072801D01*
X0015915Y0073371D02*
X0023219Y0073371D01*
X0023219Y0073941D02*
X0015915Y0073941D01*
X0015915Y0074511D02*
X0023219Y0074511D01*
X0023219Y0075081D02*
X0015915Y0075081D01*
M02*
