G75*
%MOIN*%
%OFA0B0*%
%FSLAX25Y25*%
%IPPOS*%
%LPD*%
%AMOC8*
5,1,8,0,0,1.08239X$1,22.5*
%
%ADD10C,0.07400*%
%ADD11R,0.07400X0.07400*%
%ADD12C,0.02778*%
%ADD13C,0.01575*%
D10*
X0118976Y0014449D03*
X0118976Y0024449D03*
X0118976Y0034449D03*
X0118976Y0044449D03*
X0178976Y0052874D03*
X0178976Y0062874D03*
X0150000Y0087165D03*
X0140000Y0087165D03*
X0130000Y0087165D03*
X0120000Y0087165D03*
X0110000Y0087165D03*
X0100000Y0087165D03*
X0090000Y0087165D03*
X0080000Y0087165D03*
X0070000Y0087165D03*
X0060000Y0087165D03*
X0050000Y0087165D03*
X0040000Y0087165D03*
X0040000Y0157165D03*
X0050000Y0157165D03*
X0060000Y0157165D03*
X0070000Y0157165D03*
X0080000Y0157165D03*
X0090000Y0157165D03*
X0100000Y0157165D03*
X0110000Y0157165D03*
X0120000Y0157165D03*
X0130000Y0157165D03*
X0140000Y0157165D03*
X0150000Y0157165D03*
X0179803Y0139331D03*
X0179803Y0129331D03*
X0179803Y0119331D03*
X0209724Y0119173D03*
X0209724Y0129173D03*
X0209724Y0139173D03*
X0239331Y0152244D03*
X0244764Y0139173D03*
X0244764Y0129173D03*
X0244764Y0119173D03*
X0279803Y0119173D03*
X0279803Y0129173D03*
X0279803Y0139173D03*
X0279331Y0152244D03*
D11*
X0179803Y0109331D03*
D12*
X0157362Y0149094D03*
X0171929Y0152638D03*
X0054213Y0077835D03*
X0051063Y0077835D03*
X0021142Y0077835D03*
X0017992Y0077835D03*
X0065630Y0057756D03*
X0065630Y0040039D03*
X0053425Y0013268D03*
X0050276Y0013268D03*
X0019961Y0013268D03*
X0016811Y0013268D03*
D13*
X0007362Y0007362D02*
X0007362Y0117668D01*
X0007730Y0116781D01*
X0010482Y0114029D01*
X0014078Y0112539D01*
X0017970Y0112539D01*
X0021566Y0114029D01*
X0024318Y0116781D01*
X0025807Y0120377D01*
X0025807Y0124269D01*
X0024318Y0127865D01*
X0021566Y0130617D01*
X0017970Y0132106D01*
X0014078Y0132106D01*
X0010482Y0130617D01*
X0007730Y0127865D01*
X0007362Y0126978D01*
X0007362Y0160118D01*
X0035771Y0160118D01*
X0035695Y0160042D01*
X0034922Y0158175D01*
X0034922Y0156155D01*
X0035695Y0154289D01*
X0037124Y0152860D01*
X0038990Y0152087D01*
X0041010Y0152087D01*
X0042876Y0152860D01*
X0044305Y0154289D01*
X0045000Y0155967D01*
X0045695Y0154289D01*
X0047124Y0152860D01*
X0048990Y0152087D01*
X0051010Y0152087D01*
X0052876Y0152860D01*
X0054305Y0154289D01*
X0055000Y0155967D01*
X0055695Y0154289D01*
X0057124Y0152860D01*
X0058990Y0152087D01*
X0061010Y0152087D01*
X0062876Y0152860D01*
X0064305Y0154289D01*
X0065000Y0155967D01*
X0065695Y0154289D01*
X0067124Y0152860D01*
X0068990Y0152087D01*
X0071010Y0152087D01*
X0072876Y0152860D01*
X0074305Y0154289D01*
X0075000Y0155967D01*
X0075695Y0154289D01*
X0077124Y0152860D01*
X0078990Y0152087D01*
X0081010Y0152087D01*
X0082876Y0152860D01*
X0084305Y0154289D01*
X0085000Y0155967D01*
X0085695Y0154289D01*
X0087124Y0152860D01*
X0088990Y0152087D01*
X0091010Y0152087D01*
X0092876Y0152860D01*
X0094305Y0154289D01*
X0095000Y0155967D01*
X0095695Y0154289D01*
X0097124Y0152860D01*
X0098990Y0152087D01*
X0101010Y0152087D01*
X0102876Y0152860D01*
X0104305Y0154289D01*
X0105000Y0155967D01*
X0105695Y0154289D01*
X0107124Y0152860D01*
X0108990Y0152087D01*
X0111010Y0152087D01*
X0112876Y0152860D01*
X0114305Y0154289D01*
X0115000Y0155967D01*
X0115695Y0154289D01*
X0117124Y0152860D01*
X0118990Y0152087D01*
X0121010Y0152087D01*
X0122876Y0152860D01*
X0124305Y0154289D01*
X0125000Y0155967D01*
X0125695Y0154289D01*
X0127124Y0152860D01*
X0128990Y0152087D01*
X0131010Y0152087D01*
X0132876Y0152860D01*
X0134305Y0154289D01*
X0134787Y0155452D01*
X0134915Y0155059D01*
X0135307Y0154289D01*
X0135814Y0153591D01*
X0136425Y0152980D01*
X0137124Y0152472D01*
X0137894Y0152080D01*
X0138715Y0151813D01*
X0139568Y0151678D01*
X0139787Y0151678D01*
X0139787Y0156953D01*
X0140213Y0156953D01*
X0140213Y0151678D01*
X0140432Y0151678D01*
X0141285Y0151813D01*
X0142106Y0152080D01*
X0142876Y0152472D01*
X0143575Y0152980D01*
X0144186Y0153591D01*
X0144693Y0154289D01*
X0145085Y0155059D01*
X0145213Y0155452D01*
X0145695Y0154289D01*
X0147124Y0152860D01*
X0148990Y0152087D01*
X0151010Y0152087D01*
X0152876Y0152860D01*
X0154305Y0154289D01*
X0155078Y0156155D01*
X0155078Y0158175D01*
X0154305Y0160042D01*
X0154229Y0160118D01*
X0297522Y0160118D01*
X0294734Y0158963D01*
X0291982Y0156211D01*
X0290492Y0152615D01*
X0290492Y0148723D01*
X0291982Y0145127D01*
X0294734Y0142375D01*
X0298330Y0140886D01*
X0302222Y0140886D01*
X0305817Y0142375D01*
X0308570Y0145127D01*
X0310059Y0148723D01*
X0310059Y0152615D01*
X0308570Y0156211D01*
X0305817Y0158963D01*
X0303030Y0160118D01*
X0317598Y0160118D01*
X0317598Y0007362D01*
X0305844Y0007362D01*
X0308570Y0010088D01*
X0310059Y0013684D01*
X0310059Y0017576D01*
X0308570Y0021172D01*
X0305817Y0023924D01*
X0302222Y0025413D01*
X0298330Y0025413D01*
X0294734Y0023924D01*
X0291982Y0021172D01*
X0290492Y0017576D01*
X0290492Y0013684D01*
X0291982Y0010088D01*
X0294707Y0007362D01*
X0007362Y0007362D01*
X0007362Y0008147D02*
X0293923Y0008147D01*
X0292350Y0009720D02*
X0120829Y0009720D01*
X0119986Y0009371D02*
X0121853Y0010144D01*
X0123281Y0011572D01*
X0124054Y0013439D01*
X0124054Y0015459D01*
X0123281Y0017325D01*
X0121853Y0018754D01*
X0120175Y0019449D01*
X0121853Y0020144D01*
X0123281Y0021572D01*
X0124054Y0023439D01*
X0124054Y0025459D01*
X0123281Y0027325D01*
X0121853Y0028754D01*
X0120689Y0029236D01*
X0121083Y0029363D01*
X0121852Y0029756D01*
X0122551Y0030263D01*
X0123162Y0030874D01*
X0123670Y0031573D01*
X0124062Y0032342D01*
X0124329Y0033164D01*
X0124464Y0034017D01*
X0124464Y0034236D01*
X0119189Y0034236D01*
X0119189Y0034661D01*
X0124464Y0034661D01*
X0124464Y0034881D01*
X0124329Y0035734D01*
X0124062Y0036555D01*
X0123670Y0037325D01*
X0123162Y0038024D01*
X0122551Y0038634D01*
X0121852Y0039142D01*
X0121250Y0039449D01*
X0121852Y0039756D01*
X0122551Y0040263D01*
X0123162Y0040874D01*
X0123670Y0041573D01*
X0124062Y0042342D01*
X0124329Y0043164D01*
X0124464Y0044017D01*
X0124464Y0044236D01*
X0119189Y0044236D01*
X0119189Y0038961D01*
X0119189Y0034661D01*
X0118764Y0034661D01*
X0118764Y0034236D01*
X0113489Y0034236D01*
X0113489Y0034017D01*
X0113624Y0033164D01*
X0113891Y0032342D01*
X0114283Y0031573D01*
X0114791Y0030874D01*
X0115402Y0030263D01*
X0116100Y0029756D01*
X0116870Y0029363D01*
X0117263Y0029236D01*
X0116100Y0028754D01*
X0114671Y0027325D01*
X0113898Y0025459D01*
X0113898Y0023439D01*
X0114671Y0021572D01*
X0116100Y0020144D01*
X0117778Y0019449D01*
X0116100Y0018754D01*
X0114671Y0017325D01*
X0113898Y0015459D01*
X0113898Y0013439D01*
X0114671Y0011572D01*
X0116100Y0010144D01*
X0117966Y0009371D01*
X0119986Y0009371D01*
X0117124Y0009720D02*
X0007362Y0009720D01*
X0007362Y0011293D02*
X0114951Y0011293D01*
X0114135Y0012867D02*
X0007362Y0012867D01*
X0007362Y0014440D02*
X0113898Y0014440D01*
X0114128Y0016013D02*
X0007362Y0016013D01*
X0007362Y0017587D02*
X0114933Y0017587D01*
X0117080Y0019160D02*
X0007362Y0019160D01*
X0007362Y0020733D02*
X0115511Y0020733D01*
X0114367Y0022306D02*
X0007362Y0022306D01*
X0007362Y0023880D02*
X0113898Y0023880D01*
X0113898Y0025453D02*
X0007362Y0025453D01*
X0007362Y0027026D02*
X0114548Y0027026D01*
X0115946Y0028600D02*
X0007362Y0028600D01*
X0007362Y0030173D02*
X0115526Y0030173D01*
X0114195Y0031746D02*
X0007362Y0031746D01*
X0007362Y0033320D02*
X0113599Y0033320D01*
X0113489Y0034661D02*
X0118764Y0034661D01*
X0118764Y0044236D01*
X0119189Y0044236D01*
X0119189Y0044661D01*
X0124464Y0044661D01*
X0124464Y0044881D01*
X0124329Y0045734D01*
X0124062Y0046555D01*
X0123670Y0047325D01*
X0123162Y0048024D01*
X0122551Y0048634D01*
X0121852Y0049142D01*
X0121083Y0049534D01*
X0120261Y0049801D01*
X0119408Y0049936D01*
X0119189Y0049936D01*
X0119189Y0044661D01*
X0118764Y0044661D01*
X0118764Y0044236D01*
X0113489Y0044236D01*
X0113489Y0044017D01*
X0113624Y0043164D01*
X0113891Y0042342D01*
X0114283Y0041573D01*
X0114791Y0040874D01*
X0115402Y0040263D01*
X0116100Y0039756D01*
X0116702Y0039449D01*
X0116100Y0039142D01*
X0115402Y0038634D01*
X0114791Y0038024D01*
X0114283Y0037325D01*
X0113891Y0036555D01*
X0113624Y0035734D01*
X0113489Y0034881D01*
X0113489Y0034661D01*
X0113491Y0034893D02*
X0007362Y0034893D01*
X0007362Y0036466D02*
X0113862Y0036466D01*
X0114807Y0038040D02*
X0067543Y0038040D01*
X0067197Y0037694D02*
X0067976Y0038472D01*
X0068397Y0039489D01*
X0068397Y0040590D01*
X0067976Y0041607D01*
X0067795Y0041787D01*
X0067795Y0056008D01*
X0067976Y0056189D01*
X0068397Y0057206D01*
X0068397Y0058306D01*
X0067976Y0059323D01*
X0067197Y0060102D01*
X0066180Y0060523D01*
X0065080Y0060523D01*
X0064063Y0060102D01*
X0063284Y0059323D01*
X0062863Y0058306D01*
X0062863Y0057206D01*
X0063284Y0056189D01*
X0063465Y0056008D01*
X0063465Y0041787D01*
X0063284Y0041607D01*
X0062863Y0040590D01*
X0062863Y0039489D01*
X0063284Y0038472D01*
X0064063Y0037694D01*
X0065080Y0037272D01*
X0066180Y0037272D01*
X0067197Y0037694D01*
X0068397Y0039613D02*
X0116380Y0039613D01*
X0118764Y0039613D02*
X0119189Y0039613D01*
X0119189Y0041186D02*
X0118764Y0041186D01*
X0118764Y0042760D02*
X0119189Y0042760D01*
X0119189Y0044333D02*
X0317598Y0044333D01*
X0317598Y0045906D02*
X0124273Y0045906D01*
X0123557Y0047479D02*
X0177958Y0047479D01*
X0177691Y0047522D02*
X0178545Y0047387D01*
X0178764Y0047387D01*
X0178764Y0052661D01*
X0179189Y0052661D01*
X0179189Y0047387D01*
X0179408Y0047387D01*
X0180261Y0047522D01*
X0181083Y0047789D01*
X0181852Y0048181D01*
X0182551Y0048688D01*
X0183162Y0049299D01*
X0183670Y0049998D01*
X0184062Y0050768D01*
X0184329Y0051589D01*
X0184464Y0052442D01*
X0184464Y0052661D01*
X0179189Y0052661D01*
X0179189Y0053087D01*
X0184464Y0053087D01*
X0184464Y0053306D01*
X0184329Y0054159D01*
X0184062Y0054980D01*
X0183670Y0055750D01*
X0183162Y0056449D01*
X0182551Y0057060D01*
X0181852Y0057567D01*
X0181083Y0057959D01*
X0180689Y0058087D01*
X0181853Y0058569D01*
X0183281Y0059998D01*
X0184054Y0061864D01*
X0184054Y0063884D01*
X0183281Y0065750D01*
X0181853Y0067179D01*
X0179986Y0067952D01*
X0177966Y0067952D01*
X0176100Y0067179D01*
X0174671Y0065750D01*
X0173898Y0063884D01*
X0173898Y0061864D01*
X0174671Y0059998D01*
X0176100Y0058569D01*
X0177263Y0058087D01*
X0176870Y0057959D01*
X0176100Y0057567D01*
X0175402Y0057060D01*
X0174791Y0056449D01*
X0174283Y0055750D01*
X0173891Y0054980D01*
X0173624Y0054159D01*
X0173489Y0053306D01*
X0173489Y0053087D01*
X0178764Y0053087D01*
X0178764Y0052661D01*
X0173489Y0052661D01*
X0173489Y0052442D01*
X0173624Y0051589D01*
X0173891Y0050768D01*
X0174283Y0049998D01*
X0174791Y0049299D01*
X0175402Y0048688D01*
X0176100Y0048181D01*
X0176870Y0047789D01*
X0177691Y0047522D01*
X0178764Y0047479D02*
X0179189Y0047479D01*
X0179995Y0047479D02*
X0317598Y0047479D01*
X0317598Y0049053D02*
X0182916Y0049053D01*
X0183990Y0050626D02*
X0317598Y0050626D01*
X0317598Y0052199D02*
X0184425Y0052199D01*
X0184390Y0053773D02*
X0317598Y0053773D01*
X0317598Y0055346D02*
X0183875Y0055346D01*
X0182691Y0056919D02*
X0317598Y0056919D01*
X0317598Y0058493D02*
X0181668Y0058493D01*
X0183310Y0060066D02*
X0317598Y0060066D01*
X0317598Y0061639D02*
X0183961Y0061639D01*
X0184054Y0063213D02*
X0317598Y0063213D01*
X0317598Y0064786D02*
X0183681Y0064786D01*
X0182672Y0066359D02*
X0317598Y0066359D01*
X0317598Y0067933D02*
X0180033Y0067933D01*
X0177920Y0067933D02*
X0007362Y0067933D01*
X0007362Y0069506D02*
X0317598Y0069506D01*
X0317598Y0071079D02*
X0304780Y0071079D01*
X0305817Y0071509D02*
X0302222Y0070020D01*
X0298330Y0070020D01*
X0294734Y0071509D01*
X0291982Y0074261D01*
X0290492Y0077857D01*
X0290492Y0081749D01*
X0291982Y0085345D01*
X0294734Y0088097D01*
X0298330Y0089587D01*
X0302222Y0089587D01*
X0305817Y0088097D01*
X0308570Y0085345D01*
X0310059Y0081749D01*
X0310059Y0077857D01*
X0308570Y0074261D01*
X0305817Y0071509D01*
X0306961Y0072653D02*
X0317598Y0072653D01*
X0317598Y0074226D02*
X0308534Y0074226D01*
X0309207Y0075799D02*
X0317598Y0075799D01*
X0317598Y0077372D02*
X0309858Y0077372D01*
X0310059Y0078946D02*
X0317598Y0078946D01*
X0317598Y0080519D02*
X0310059Y0080519D01*
X0309917Y0082092D02*
X0317598Y0082092D01*
X0317598Y0083666D02*
X0309265Y0083666D01*
X0308614Y0085239D02*
X0317598Y0085239D01*
X0317598Y0086812D02*
X0307102Y0086812D01*
X0305121Y0088386D02*
X0317598Y0088386D01*
X0317598Y0089959D02*
X0154339Y0089959D01*
X0154305Y0090042D02*
X0152876Y0091470D01*
X0151010Y0092243D01*
X0148990Y0092243D01*
X0147124Y0091470D01*
X0145695Y0090042D01*
X0145000Y0088364D01*
X0144305Y0090042D01*
X0142876Y0091470D01*
X0141010Y0092243D01*
X0138990Y0092243D01*
X0137124Y0091470D01*
X0135695Y0090042D01*
X0135000Y0088364D01*
X0134305Y0090042D01*
X0132876Y0091470D01*
X0131010Y0092243D01*
X0128990Y0092243D01*
X0127124Y0091470D01*
X0125695Y0090042D01*
X0125000Y0088364D01*
X0124305Y0090042D01*
X0122876Y0091470D01*
X0121010Y0092243D01*
X0118990Y0092243D01*
X0117124Y0091470D01*
X0115695Y0090042D01*
X0115000Y0088364D01*
X0114305Y0090042D01*
X0112876Y0091470D01*
X0111010Y0092243D01*
X0108990Y0092243D01*
X0107124Y0091470D01*
X0105695Y0090042D01*
X0105000Y0088364D01*
X0104305Y0090042D01*
X0102876Y0091470D01*
X0101010Y0092243D01*
X0098990Y0092243D01*
X0097124Y0091470D01*
X0095695Y0090042D01*
X0095000Y0088364D01*
X0094305Y0090042D01*
X0092876Y0091470D01*
X0091010Y0092243D01*
X0088990Y0092243D01*
X0087124Y0091470D01*
X0085695Y0090042D01*
X0085000Y0088364D01*
X0084305Y0090042D01*
X0082876Y0091470D01*
X0081010Y0092243D01*
X0078990Y0092243D01*
X0077124Y0091470D01*
X0075695Y0090042D01*
X0075000Y0088364D01*
X0074305Y0090042D01*
X0072876Y0091470D01*
X0071010Y0092243D01*
X0068990Y0092243D01*
X0067124Y0091470D01*
X0065695Y0090042D01*
X0065000Y0088364D01*
X0064305Y0090042D01*
X0062876Y0091470D01*
X0061010Y0092243D01*
X0058990Y0092243D01*
X0057124Y0091470D01*
X0055695Y0090042D01*
X0055000Y0088364D01*
X0054305Y0090042D01*
X0052876Y0091470D01*
X0051010Y0092243D01*
X0048990Y0092243D01*
X0047124Y0091470D01*
X0045695Y0090042D01*
X0045000Y0088364D01*
X0044305Y0090042D01*
X0042876Y0091470D01*
X0041010Y0092243D01*
X0038990Y0092243D01*
X0037124Y0091470D01*
X0035695Y0090042D01*
X0034922Y0088175D01*
X0034922Y0086155D01*
X0035695Y0084289D01*
X0037124Y0082860D01*
X0038990Y0082087D01*
X0041010Y0082087D01*
X0042876Y0082860D01*
X0044305Y0084289D01*
X0045000Y0085967D01*
X0045695Y0084289D01*
X0047124Y0082860D01*
X0048990Y0082087D01*
X0051010Y0082087D01*
X0052876Y0082860D01*
X0054305Y0084289D01*
X0055000Y0085967D01*
X0055695Y0084289D01*
X0057124Y0082860D01*
X0058990Y0082087D01*
X0061010Y0082087D01*
X0062876Y0082860D01*
X0064305Y0084289D01*
X0065000Y0085967D01*
X0065695Y0084289D01*
X0067124Y0082860D01*
X0068990Y0082087D01*
X0071010Y0082087D01*
X0072876Y0082860D01*
X0074305Y0084289D01*
X0075000Y0085967D01*
X0075695Y0084289D01*
X0077124Y0082860D01*
X0078990Y0082087D01*
X0081010Y0082087D01*
X0082876Y0082860D01*
X0084305Y0084289D01*
X0085000Y0085967D01*
X0085695Y0084289D01*
X0087124Y0082860D01*
X0088990Y0082087D01*
X0091010Y0082087D01*
X0092876Y0082860D01*
X0094305Y0084289D01*
X0095000Y0085967D01*
X0095695Y0084289D01*
X0097124Y0082860D01*
X0098990Y0082087D01*
X0101010Y0082087D01*
X0102876Y0082860D01*
X0104305Y0084289D01*
X0105000Y0085967D01*
X0105695Y0084289D01*
X0107124Y0082860D01*
X0108990Y0082087D01*
X0111010Y0082087D01*
X0112876Y0082860D01*
X0114305Y0084289D01*
X0115000Y0085967D01*
X0115695Y0084289D01*
X0117124Y0082860D01*
X0118990Y0082087D01*
X0121010Y0082087D01*
X0122876Y0082860D01*
X0124305Y0084289D01*
X0125000Y0085967D01*
X0125695Y0084289D01*
X0127124Y0082860D01*
X0128990Y0082087D01*
X0131010Y0082087D01*
X0132876Y0082860D01*
X0134305Y0084289D01*
X0135000Y0085967D01*
X0135695Y0084289D01*
X0137124Y0082860D01*
X0138990Y0082087D01*
X0141010Y0082087D01*
X0142876Y0082860D01*
X0144305Y0084289D01*
X0145000Y0085967D01*
X0145695Y0084289D01*
X0147124Y0082860D01*
X0148990Y0082087D01*
X0151010Y0082087D01*
X0152876Y0082860D01*
X0154305Y0084289D01*
X0155078Y0086155D01*
X0155078Y0088175D01*
X0154305Y0090042D01*
X0154991Y0088386D02*
X0295430Y0088386D01*
X0293449Y0086812D02*
X0155078Y0086812D01*
X0154698Y0085239D02*
X0291938Y0085239D01*
X0291286Y0083666D02*
X0153682Y0083666D01*
X0151022Y0082092D02*
X0290634Y0082092D01*
X0290492Y0080519D02*
X0007362Y0080519D01*
X0007362Y0078946D02*
X0290492Y0078946D01*
X0290693Y0077372D02*
X0007362Y0077372D01*
X0007362Y0075799D02*
X0291345Y0075799D01*
X0292017Y0074226D02*
X0007362Y0074226D01*
X0007362Y0072653D02*
X0293590Y0072653D01*
X0295772Y0071079D02*
X0007362Y0071079D01*
X0007362Y0066359D02*
X0175280Y0066359D01*
X0174272Y0064786D02*
X0007362Y0064786D01*
X0007362Y0063213D02*
X0173898Y0063213D01*
X0173991Y0061639D02*
X0007362Y0061639D01*
X0007362Y0060066D02*
X0064027Y0060066D01*
X0062940Y0058493D02*
X0007362Y0058493D01*
X0007362Y0056919D02*
X0062982Y0056919D01*
X0063465Y0055346D02*
X0007362Y0055346D01*
X0007362Y0053773D02*
X0063465Y0053773D01*
X0063465Y0052199D02*
X0007362Y0052199D01*
X0007362Y0050626D02*
X0063465Y0050626D01*
X0063465Y0049053D02*
X0007362Y0049053D01*
X0007362Y0047479D02*
X0063465Y0047479D01*
X0063465Y0045906D02*
X0007362Y0045906D01*
X0007362Y0044333D02*
X0063465Y0044333D01*
X0063465Y0042760D02*
X0007362Y0042760D01*
X0007362Y0041186D02*
X0063110Y0041186D01*
X0062863Y0039613D02*
X0007362Y0039613D01*
X0007362Y0038040D02*
X0063717Y0038040D01*
X0065630Y0040039D02*
X0065630Y0057756D01*
X0068278Y0056919D02*
X0175261Y0056919D01*
X0176284Y0058493D02*
X0068320Y0058493D01*
X0067233Y0060066D02*
X0174643Y0060066D01*
X0174077Y0055346D02*
X0067795Y0055346D01*
X0067795Y0053773D02*
X0173563Y0053773D01*
X0173527Y0052199D02*
X0067795Y0052199D01*
X0067795Y0050626D02*
X0173963Y0050626D01*
X0175037Y0049053D02*
X0121975Y0049053D01*
X0119189Y0049053D02*
X0118764Y0049053D01*
X0118764Y0049936D02*
X0118545Y0049936D01*
X0117691Y0049801D01*
X0116870Y0049534D01*
X0116100Y0049142D01*
X0115402Y0048634D01*
X0114791Y0048024D01*
X0114283Y0047325D01*
X0113891Y0046555D01*
X0113624Y0045734D01*
X0113489Y0044881D01*
X0113489Y0044661D01*
X0118764Y0044661D01*
X0118764Y0049936D01*
X0118764Y0047479D02*
X0119189Y0047479D01*
X0119189Y0045906D02*
X0118764Y0045906D01*
X0118764Y0044333D02*
X0067795Y0044333D01*
X0067795Y0045906D02*
X0113680Y0045906D01*
X0114395Y0047479D02*
X0067795Y0047479D01*
X0067795Y0049053D02*
X0115978Y0049053D01*
X0113755Y0042760D02*
X0067795Y0042760D01*
X0068150Y0041186D02*
X0114564Y0041186D01*
X0118764Y0038040D02*
X0119189Y0038040D01*
X0119189Y0036466D02*
X0118764Y0036466D01*
X0118764Y0034893D02*
X0119189Y0034893D01*
X0124091Y0036466D02*
X0317598Y0036466D01*
X0317598Y0034893D02*
X0124462Y0034893D01*
X0124353Y0033320D02*
X0317598Y0033320D01*
X0317598Y0031746D02*
X0123758Y0031746D01*
X0122427Y0030173D02*
X0317598Y0030173D01*
X0317598Y0028600D02*
X0122007Y0028600D01*
X0123405Y0027026D02*
X0317598Y0027026D01*
X0317598Y0025453D02*
X0124054Y0025453D01*
X0124054Y0023880D02*
X0294690Y0023880D01*
X0293116Y0022306D02*
X0123585Y0022306D01*
X0122442Y0020733D02*
X0291800Y0020733D01*
X0291148Y0019160D02*
X0120872Y0019160D01*
X0123020Y0017587D02*
X0290496Y0017587D01*
X0290492Y0016013D02*
X0123825Y0016013D01*
X0124054Y0014440D02*
X0290492Y0014440D01*
X0290831Y0012867D02*
X0123817Y0012867D01*
X0123002Y0011293D02*
X0291482Y0011293D01*
X0306628Y0008147D02*
X0317598Y0008147D01*
X0317598Y0009720D02*
X0308202Y0009720D01*
X0309069Y0011293D02*
X0317598Y0011293D01*
X0317598Y0012867D02*
X0309721Y0012867D01*
X0310059Y0014440D02*
X0317598Y0014440D01*
X0317598Y0016013D02*
X0310059Y0016013D01*
X0310055Y0017587D02*
X0317598Y0017587D01*
X0317598Y0019160D02*
X0309403Y0019160D01*
X0308751Y0020733D02*
X0317598Y0020733D01*
X0317598Y0022306D02*
X0307435Y0022306D01*
X0305862Y0023880D02*
X0317598Y0023880D01*
X0317598Y0038040D02*
X0123146Y0038040D01*
X0121572Y0039613D02*
X0317598Y0039613D01*
X0317598Y0041186D02*
X0123389Y0041186D01*
X0124197Y0042760D02*
X0317598Y0042760D01*
X0317598Y0091532D02*
X0152727Y0091532D01*
X0147273Y0091532D02*
X0142727Y0091532D01*
X0144339Y0089959D02*
X0145661Y0089959D01*
X0145009Y0088386D02*
X0144991Y0088386D01*
X0144698Y0085239D02*
X0145302Y0085239D01*
X0146318Y0083666D02*
X0143682Y0083666D01*
X0141022Y0082092D02*
X0148978Y0082092D01*
X0138978Y0082092D02*
X0131022Y0082092D01*
X0128978Y0082092D02*
X0121022Y0082092D01*
X0118978Y0082092D02*
X0111022Y0082092D01*
X0108978Y0082092D02*
X0101022Y0082092D01*
X0098978Y0082092D02*
X0091022Y0082092D01*
X0088978Y0082092D02*
X0081022Y0082092D01*
X0078978Y0082092D02*
X0071022Y0082092D01*
X0068978Y0082092D02*
X0061022Y0082092D01*
X0058978Y0082092D02*
X0051022Y0082092D01*
X0048978Y0082092D02*
X0041022Y0082092D01*
X0038978Y0082092D02*
X0007362Y0082092D01*
X0007362Y0083666D02*
X0036318Y0083666D01*
X0035302Y0085239D02*
X0007362Y0085239D01*
X0007362Y0086812D02*
X0034922Y0086812D01*
X0035009Y0088386D02*
X0007362Y0088386D01*
X0007362Y0089959D02*
X0035661Y0089959D01*
X0037273Y0091532D02*
X0007362Y0091532D01*
X0007362Y0093106D02*
X0317598Y0093106D01*
X0317598Y0094679D02*
X0007362Y0094679D01*
X0007362Y0096252D02*
X0317598Y0096252D01*
X0317598Y0097826D02*
X0302817Y0097826D01*
X0302222Y0097579D02*
X0305817Y0099068D01*
X0308570Y0101820D01*
X0310059Y0105416D01*
X0310059Y0109308D01*
X0308570Y0112904D01*
X0305817Y0115656D01*
X0302222Y0117146D01*
X0298330Y0117146D01*
X0294734Y0115656D01*
X0291982Y0112904D01*
X0290492Y0109308D01*
X0290492Y0105416D01*
X0291982Y0101820D01*
X0294734Y0099068D01*
X0298330Y0097579D01*
X0302222Y0097579D01*
X0306148Y0099399D02*
X0317598Y0099399D01*
X0317598Y0100972D02*
X0307721Y0100972D01*
X0308870Y0102545D02*
X0317598Y0102545D01*
X0317598Y0104119D02*
X0309522Y0104119D01*
X0310059Y0105692D02*
X0317598Y0105692D01*
X0317598Y0107265D02*
X0310059Y0107265D01*
X0310059Y0108839D02*
X0317598Y0108839D01*
X0317598Y0110412D02*
X0309602Y0110412D01*
X0308950Y0111985D02*
X0317598Y0111985D01*
X0317598Y0113559D02*
X0307915Y0113559D01*
X0306342Y0115132D02*
X0317598Y0115132D01*
X0317598Y0116705D02*
X0303285Y0116705D01*
X0297266Y0116705D02*
X0284704Y0116705D01*
X0284889Y0117067D02*
X0285155Y0117888D01*
X0285291Y0118741D01*
X0285291Y0118961D01*
X0280016Y0118961D01*
X0280016Y0119386D01*
X0285291Y0119386D01*
X0285291Y0119605D01*
X0285155Y0120458D01*
X0284889Y0121280D01*
X0284496Y0122049D01*
X0283989Y0122748D01*
X0283378Y0123359D01*
X0282679Y0123866D01*
X0281910Y0124259D01*
X0281516Y0124386D01*
X0282680Y0124868D01*
X0284108Y0126297D01*
X0284881Y0128163D01*
X0284881Y0130183D01*
X0284108Y0132050D01*
X0282680Y0133478D01*
X0281001Y0134173D01*
X0282680Y0134868D01*
X0284108Y0136297D01*
X0284881Y0138163D01*
X0284881Y0140183D01*
X0284108Y0142050D01*
X0282680Y0143478D01*
X0280813Y0144251D01*
X0278793Y0144251D01*
X0276927Y0143478D01*
X0275498Y0142050D01*
X0274725Y0140183D01*
X0274725Y0138163D01*
X0275498Y0136297D01*
X0276927Y0134868D01*
X0278605Y0134173D01*
X0276927Y0133478D01*
X0275498Y0132050D01*
X0274725Y0130183D01*
X0274725Y0128163D01*
X0275498Y0126297D01*
X0276927Y0124868D01*
X0278090Y0124386D01*
X0277697Y0124259D01*
X0276927Y0123866D01*
X0276228Y0123359D01*
X0275618Y0122748D01*
X0275110Y0122049D01*
X0274718Y0121280D01*
X0274451Y0120458D01*
X0274316Y0119605D01*
X0274316Y0119386D01*
X0279590Y0119386D01*
X0279590Y0118961D01*
X0274316Y0118961D01*
X0274316Y0118741D01*
X0274451Y0117888D01*
X0274718Y0117067D01*
X0275110Y0116297D01*
X0275618Y0115598D01*
X0276228Y0114988D01*
X0276927Y0114480D01*
X0277697Y0114088D01*
X0278518Y0113821D01*
X0279371Y0113686D01*
X0279591Y0113686D01*
X0279591Y0118961D01*
X0280016Y0118961D01*
X0280016Y0113686D01*
X0280235Y0113686D01*
X0281088Y0113821D01*
X0281910Y0114088D01*
X0282679Y0114480D01*
X0283378Y0114988D01*
X0283989Y0115598D01*
X0284496Y0116297D01*
X0284889Y0117067D01*
X0285217Y0118279D02*
X0317598Y0118279D01*
X0317598Y0119852D02*
X0285251Y0119852D01*
X0284814Y0121425D02*
X0317598Y0121425D01*
X0317598Y0122999D02*
X0283738Y0122999D01*
X0281964Y0124572D02*
X0317598Y0124572D01*
X0317598Y0126145D02*
X0283956Y0126145D01*
X0284697Y0127719D02*
X0317598Y0127719D01*
X0317598Y0129292D02*
X0284881Y0129292D01*
X0284599Y0130865D02*
X0317598Y0130865D01*
X0317598Y0132438D02*
X0283719Y0132438D01*
X0281391Y0134012D02*
X0317598Y0134012D01*
X0317598Y0135585D02*
X0283396Y0135585D01*
X0284465Y0137158D02*
X0317598Y0137158D01*
X0317598Y0138732D02*
X0284881Y0138732D01*
X0284831Y0140305D02*
X0317598Y0140305D01*
X0317598Y0141878D02*
X0304618Y0141878D01*
X0306894Y0143452D02*
X0317598Y0143452D01*
X0317598Y0145025D02*
X0308467Y0145025D01*
X0309179Y0146598D02*
X0317598Y0146598D01*
X0317598Y0148172D02*
X0309831Y0148172D01*
X0310059Y0149745D02*
X0317598Y0149745D01*
X0317598Y0151318D02*
X0310059Y0151318D01*
X0309945Y0152892D02*
X0317598Y0152892D01*
X0317598Y0154465D02*
X0309293Y0154465D01*
X0308641Y0156038D02*
X0317598Y0156038D01*
X0317598Y0157612D02*
X0307169Y0157612D01*
X0305283Y0159185D02*
X0317598Y0159185D01*
X0295268Y0159185D02*
X0154660Y0159185D01*
X0155078Y0157612D02*
X0293382Y0157612D01*
X0291910Y0156038D02*
X0282718Y0156038D01*
X0282207Y0156549D02*
X0280341Y0157322D01*
X0278321Y0157322D01*
X0276454Y0156549D01*
X0275026Y0155121D01*
X0274253Y0153254D01*
X0274253Y0151234D01*
X0275026Y0149368D01*
X0276454Y0147939D01*
X0278321Y0147166D01*
X0280341Y0147166D01*
X0282207Y0147939D01*
X0283636Y0149368D01*
X0284409Y0151234D01*
X0284409Y0153254D01*
X0283636Y0155121D01*
X0282207Y0156549D01*
X0283907Y0154465D02*
X0291258Y0154465D01*
X0290607Y0152892D02*
X0284409Y0152892D01*
X0284409Y0151318D02*
X0290492Y0151318D01*
X0290492Y0149745D02*
X0283792Y0149745D01*
X0282440Y0148172D02*
X0290721Y0148172D01*
X0291372Y0146598D02*
X0158566Y0146598D01*
X0158930Y0146749D02*
X0159708Y0147527D01*
X0160129Y0148544D01*
X0160129Y0149645D01*
X0159786Y0150472D01*
X0170181Y0150472D01*
X0170362Y0150292D01*
X0171379Y0149871D01*
X0172480Y0149871D01*
X0173496Y0150292D01*
X0174275Y0151070D01*
X0174696Y0152087D01*
X0174696Y0153188D01*
X0174275Y0154205D01*
X0173496Y0154983D01*
X0172480Y0155405D01*
X0171379Y0155405D01*
X0170362Y0154983D01*
X0170181Y0154803D01*
X0156465Y0154803D01*
X0155197Y0153535D01*
X0155197Y0150842D01*
X0155017Y0150662D01*
X0154595Y0149645D01*
X0154595Y0148544D01*
X0155017Y0147527D01*
X0155795Y0146749D01*
X0156812Y0146328D01*
X0157913Y0146328D01*
X0158930Y0146749D01*
X0159975Y0148172D02*
X0236222Y0148172D01*
X0236454Y0147939D02*
X0238321Y0147166D01*
X0240341Y0147166D01*
X0242207Y0147939D01*
X0243636Y0149368D01*
X0244409Y0151234D01*
X0244409Y0153254D01*
X0243636Y0155121D01*
X0242207Y0156549D01*
X0240341Y0157322D01*
X0238321Y0157322D01*
X0236454Y0156549D01*
X0235026Y0155121D01*
X0234253Y0153254D01*
X0234253Y0151234D01*
X0235026Y0149368D01*
X0236454Y0147939D01*
X0234870Y0149745D02*
X0160088Y0149745D01*
X0157362Y0149094D02*
X0157362Y0152638D01*
X0171929Y0152638D01*
X0174015Y0154465D02*
X0234754Y0154465D01*
X0234253Y0152892D02*
X0174696Y0152892D01*
X0174377Y0151318D02*
X0234253Y0151318D01*
X0235943Y0156038D02*
X0155029Y0156038D01*
X0154378Y0154465D02*
X0156127Y0154465D01*
X0155197Y0152892D02*
X0152908Y0152892D01*
X0155197Y0151318D02*
X0007362Y0151318D01*
X0007362Y0149745D02*
X0154637Y0149745D01*
X0154750Y0148172D02*
X0007362Y0148172D01*
X0007362Y0146598D02*
X0156158Y0146598D01*
X0147092Y0152892D02*
X0143453Y0152892D01*
X0144764Y0153425D02*
X0140039Y0157244D01*
X0140039Y0157362D02*
X0135709Y0153819D01*
X0135217Y0154465D02*
X0134378Y0154465D01*
X0132908Y0152892D02*
X0136547Y0152892D01*
X0139787Y0152892D02*
X0140213Y0152892D01*
X0140213Y0154465D02*
X0139787Y0154465D01*
X0139787Y0156038D02*
X0140213Y0156038D01*
X0144783Y0154465D02*
X0145622Y0154465D01*
X0127092Y0152892D02*
X0122908Y0152892D01*
X0124378Y0154465D02*
X0125622Y0154465D01*
X0117092Y0152892D02*
X0112908Y0152892D01*
X0114378Y0154465D02*
X0115622Y0154465D01*
X0107092Y0152892D02*
X0102908Y0152892D01*
X0104378Y0154465D02*
X0105622Y0154465D01*
X0097092Y0152892D02*
X0092908Y0152892D01*
X0094378Y0154465D02*
X0095622Y0154465D01*
X0087092Y0152892D02*
X0082908Y0152892D01*
X0084378Y0154465D02*
X0085622Y0154465D01*
X0077092Y0152892D02*
X0072908Y0152892D01*
X0074378Y0154465D02*
X0075622Y0154465D01*
X0067092Y0152892D02*
X0062908Y0152892D01*
X0064378Y0154465D02*
X0065622Y0154465D01*
X0057092Y0152892D02*
X0052908Y0152892D01*
X0054378Y0154465D02*
X0055622Y0154465D01*
X0047092Y0152892D02*
X0042908Y0152892D01*
X0044378Y0154465D02*
X0045622Y0154465D01*
X0037092Y0152892D02*
X0007362Y0152892D01*
X0007362Y0154465D02*
X0035622Y0154465D01*
X0034971Y0156038D02*
X0007362Y0156038D01*
X0007362Y0157612D02*
X0034922Y0157612D01*
X0035340Y0159185D02*
X0007362Y0159185D01*
X0007362Y0145025D02*
X0292084Y0145025D01*
X0293657Y0143452D02*
X0282706Y0143452D01*
X0284179Y0141878D02*
X0295933Y0141878D01*
X0276900Y0143452D02*
X0247667Y0143452D01*
X0247640Y0143478D02*
X0245774Y0144251D01*
X0243754Y0144251D01*
X0241887Y0143478D01*
X0240459Y0142050D01*
X0239686Y0140183D01*
X0239686Y0138163D01*
X0240459Y0136297D01*
X0241887Y0134868D01*
X0243566Y0134173D01*
X0241887Y0133478D01*
X0240459Y0132050D01*
X0239686Y0130183D01*
X0239686Y0128163D01*
X0240459Y0126297D01*
X0241887Y0124868D01*
X0243051Y0124386D01*
X0242657Y0124259D01*
X0241888Y0123866D01*
X0241189Y0123359D01*
X0240578Y0122748D01*
X0240071Y0122049D01*
X0239678Y0121280D01*
X0239411Y0120458D01*
X0239276Y0119605D01*
X0239276Y0119386D01*
X0244551Y0119386D01*
X0244551Y0118961D01*
X0239276Y0118961D01*
X0239276Y0118741D01*
X0239411Y0117888D01*
X0239678Y0117067D01*
X0240071Y0116297D01*
X0240578Y0115598D01*
X0241189Y0114988D01*
X0241888Y0114480D01*
X0242657Y0114088D01*
X0243479Y0113821D01*
X0244332Y0113686D01*
X0244551Y0113686D01*
X0244551Y0118961D01*
X0244976Y0118961D01*
X0244976Y0119386D01*
X0250251Y0119386D01*
X0250251Y0119605D01*
X0250116Y0120458D01*
X0249849Y0121280D01*
X0249457Y0122049D01*
X0248949Y0122748D01*
X0248339Y0123359D01*
X0247640Y0123866D01*
X0246870Y0124259D01*
X0246477Y0124386D01*
X0247640Y0124868D01*
X0249069Y0126297D01*
X0249842Y0128163D01*
X0249842Y0130183D01*
X0249069Y0132050D01*
X0247640Y0133478D01*
X0245962Y0134173D01*
X0247640Y0134868D01*
X0249069Y0136297D01*
X0249842Y0138163D01*
X0249842Y0140183D01*
X0249069Y0142050D01*
X0247640Y0143478D01*
X0249140Y0141878D02*
X0275427Y0141878D01*
X0274776Y0140305D02*
X0249791Y0140305D01*
X0249842Y0138732D02*
X0274725Y0138732D01*
X0275141Y0137158D02*
X0249426Y0137158D01*
X0248357Y0135585D02*
X0276210Y0135585D01*
X0278215Y0134012D02*
X0246352Y0134012D01*
X0248680Y0132438D02*
X0275887Y0132438D01*
X0275008Y0130865D02*
X0249559Y0130865D01*
X0249842Y0129292D02*
X0274725Y0129292D01*
X0274909Y0127719D02*
X0249658Y0127719D01*
X0248917Y0126145D02*
X0275650Y0126145D01*
X0277642Y0124572D02*
X0246925Y0124572D01*
X0248699Y0122999D02*
X0275868Y0122999D01*
X0274792Y0121425D02*
X0249775Y0121425D01*
X0250212Y0119852D02*
X0274355Y0119852D01*
X0274389Y0118279D02*
X0250178Y0118279D01*
X0250116Y0117888D02*
X0250251Y0118741D01*
X0250251Y0118961D01*
X0244976Y0118961D01*
X0244976Y0113686D01*
X0245196Y0113686D01*
X0246049Y0113821D01*
X0246870Y0114088D01*
X0247640Y0114480D01*
X0248339Y0114988D01*
X0248949Y0115598D01*
X0249457Y0116297D01*
X0249849Y0117067D01*
X0250116Y0117888D01*
X0249665Y0116705D02*
X0274902Y0116705D01*
X0276084Y0115132D02*
X0248483Y0115132D01*
X0244976Y0115132D02*
X0244551Y0115132D01*
X0244551Y0116705D02*
X0244976Y0116705D01*
X0244976Y0118279D02*
X0244551Y0118279D01*
X0241045Y0115132D02*
X0213444Y0115132D01*
X0213299Y0114988D02*
X0213910Y0115598D01*
X0214418Y0116297D01*
X0214810Y0117067D01*
X0215077Y0117888D01*
X0215212Y0118741D01*
X0215212Y0118961D01*
X0209937Y0118961D01*
X0209937Y0119386D01*
X0215212Y0119386D01*
X0215212Y0119605D01*
X0215077Y0120458D01*
X0214810Y0121280D01*
X0214418Y0122049D01*
X0213910Y0122748D01*
X0213299Y0123359D01*
X0212600Y0123866D01*
X0211831Y0124259D01*
X0211437Y0124386D01*
X0212601Y0124868D01*
X0214029Y0126297D01*
X0214802Y0128163D01*
X0214802Y0130183D01*
X0214029Y0132050D01*
X0212601Y0133478D01*
X0210923Y0134173D01*
X0212601Y0134868D01*
X0214029Y0136297D01*
X0214802Y0138163D01*
X0214802Y0140183D01*
X0214029Y0142050D01*
X0212601Y0143478D01*
X0210734Y0144251D01*
X0208714Y0144251D01*
X0206848Y0143478D01*
X0205420Y0142050D01*
X0204646Y0140183D01*
X0204646Y0138163D01*
X0205420Y0136297D01*
X0206848Y0134868D01*
X0208526Y0134173D01*
X0206848Y0133478D01*
X0205420Y0132050D01*
X0204646Y0130183D01*
X0204646Y0128163D01*
X0205420Y0126297D01*
X0206848Y0124868D01*
X0208011Y0124386D01*
X0207618Y0124259D01*
X0206848Y0123866D01*
X0206150Y0123359D01*
X0205539Y0122748D01*
X0205031Y0122049D01*
X0204639Y0121280D01*
X0204372Y0120458D01*
X0204237Y0119605D01*
X0204237Y0119386D01*
X0209512Y0119386D01*
X0209512Y0118961D01*
X0204237Y0118961D01*
X0204237Y0118741D01*
X0204372Y0117888D01*
X0204639Y0117067D01*
X0205031Y0116297D01*
X0205539Y0115598D01*
X0206150Y0114988D01*
X0206848Y0114480D01*
X0207618Y0114088D01*
X0208439Y0113821D01*
X0209293Y0113686D01*
X0209512Y0113686D01*
X0209512Y0118961D01*
X0209937Y0118961D01*
X0209937Y0113686D01*
X0210156Y0113686D01*
X0211009Y0113821D01*
X0211831Y0114088D01*
X0212600Y0114480D01*
X0213299Y0114988D01*
X0214626Y0116705D02*
X0239863Y0116705D01*
X0239350Y0118279D02*
X0215139Y0118279D01*
X0215173Y0119852D02*
X0239315Y0119852D01*
X0239753Y0121425D02*
X0214736Y0121425D01*
X0213659Y0122999D02*
X0240829Y0122999D01*
X0242603Y0124572D02*
X0211885Y0124572D01*
X0213878Y0126145D02*
X0240610Y0126145D01*
X0239870Y0127719D02*
X0214618Y0127719D01*
X0214802Y0129292D02*
X0239686Y0129292D01*
X0239968Y0130865D02*
X0214520Y0130865D01*
X0213640Y0132438D02*
X0240848Y0132438D01*
X0243176Y0134012D02*
X0211312Y0134012D01*
X0213318Y0135585D02*
X0241171Y0135585D01*
X0240102Y0137158D02*
X0214386Y0137158D01*
X0214802Y0138732D02*
X0239686Y0138732D01*
X0239736Y0140305D02*
X0214752Y0140305D01*
X0214100Y0141878D02*
X0240388Y0141878D01*
X0241861Y0143452D02*
X0212627Y0143452D01*
X0206822Y0143452D02*
X0182863Y0143452D01*
X0182680Y0143636D02*
X0180813Y0144409D01*
X0178793Y0144409D01*
X0176927Y0143636D01*
X0175498Y0142207D01*
X0174725Y0140341D01*
X0174725Y0138321D01*
X0175498Y0136454D01*
X0176927Y0135026D01*
X0178605Y0134331D01*
X0176927Y0133636D01*
X0175498Y0132207D01*
X0174725Y0130341D01*
X0174725Y0128321D01*
X0175498Y0126454D01*
X0176927Y0125026D01*
X0178605Y0124331D01*
X0176927Y0123636D01*
X0175498Y0122207D01*
X0174725Y0120341D01*
X0174725Y0118321D01*
X0175498Y0116454D01*
X0176927Y0115026D01*
X0177428Y0114818D01*
X0175868Y0114818D01*
X0175413Y0114696D01*
X0175006Y0114461D01*
X0174673Y0114128D01*
X0174438Y0113721D01*
X0174316Y0113266D01*
X0174316Y0109543D01*
X0179590Y0109543D01*
X0179590Y0109118D01*
X0174316Y0109118D01*
X0174316Y0105395D01*
X0174438Y0104941D01*
X0174673Y0104533D01*
X0175006Y0104200D01*
X0175413Y0103965D01*
X0175868Y0103843D01*
X0179591Y0103843D01*
X0179591Y0109118D01*
X0180016Y0109118D01*
X0180016Y0109543D01*
X0185291Y0109543D01*
X0185291Y0113266D01*
X0185169Y0113721D01*
X0184933Y0114128D01*
X0184601Y0114461D01*
X0184193Y0114696D01*
X0183738Y0114818D01*
X0182178Y0114818D01*
X0182680Y0115026D01*
X0184108Y0116454D01*
X0184881Y0118321D01*
X0184881Y0120341D01*
X0184108Y0122207D01*
X0182680Y0123636D01*
X0181001Y0124331D01*
X0182680Y0125026D01*
X0184108Y0126454D01*
X0184881Y0128321D01*
X0184881Y0130341D01*
X0184108Y0132207D01*
X0182680Y0133636D01*
X0181001Y0134331D01*
X0182680Y0135026D01*
X0184108Y0136454D01*
X0184881Y0138321D01*
X0184881Y0140341D01*
X0184108Y0142207D01*
X0182680Y0143636D01*
X0184244Y0141878D02*
X0205349Y0141878D01*
X0204697Y0140305D02*
X0184881Y0140305D01*
X0184881Y0138732D02*
X0204646Y0138732D01*
X0205063Y0137158D02*
X0184400Y0137158D01*
X0183239Y0135585D02*
X0206131Y0135585D01*
X0208136Y0134012D02*
X0181771Y0134012D01*
X0183877Y0132438D02*
X0205808Y0132438D01*
X0204929Y0130865D02*
X0184664Y0130865D01*
X0184881Y0129292D02*
X0204646Y0129292D01*
X0204831Y0127719D02*
X0184632Y0127719D01*
X0183799Y0126145D02*
X0205571Y0126145D01*
X0207564Y0124572D02*
X0181584Y0124572D01*
X0183317Y0122999D02*
X0205789Y0122999D01*
X0204713Y0121425D02*
X0184432Y0121425D01*
X0184881Y0119852D02*
X0204276Y0119852D01*
X0204310Y0118279D02*
X0184864Y0118279D01*
X0184212Y0116705D02*
X0204823Y0116705D01*
X0206005Y0115132D02*
X0182786Y0115132D01*
X0185212Y0113559D02*
X0292636Y0113559D01*
X0291601Y0111985D02*
X0185291Y0111985D01*
X0185291Y0110412D02*
X0290949Y0110412D01*
X0290492Y0108839D02*
X0185291Y0108839D01*
X0185291Y0109118D02*
X0180016Y0109118D01*
X0180016Y0103843D01*
X0183738Y0103843D01*
X0184193Y0103965D01*
X0184601Y0104200D01*
X0184933Y0104533D01*
X0185169Y0104941D01*
X0185291Y0105395D01*
X0185291Y0109118D01*
X0185291Y0107265D02*
X0290492Y0107265D01*
X0290492Y0105692D02*
X0185291Y0105692D01*
X0184459Y0104119D02*
X0291029Y0104119D01*
X0291681Y0102545D02*
X0007362Y0102545D01*
X0007362Y0100972D02*
X0292830Y0100972D01*
X0294403Y0099399D02*
X0007362Y0099399D01*
X0007362Y0097826D02*
X0297734Y0097826D01*
X0294209Y0115132D02*
X0283522Y0115132D01*
X0280016Y0115132D02*
X0279591Y0115132D01*
X0279591Y0116705D02*
X0280016Y0116705D01*
X0280016Y0118279D02*
X0279591Y0118279D01*
X0276222Y0148172D02*
X0242440Y0148172D01*
X0243792Y0149745D02*
X0274870Y0149745D01*
X0274253Y0151318D02*
X0244409Y0151318D01*
X0244409Y0152892D02*
X0274253Y0152892D01*
X0274754Y0154465D02*
X0243907Y0154465D01*
X0242718Y0156038D02*
X0275943Y0156038D01*
X0209937Y0118279D02*
X0209512Y0118279D01*
X0209512Y0116705D02*
X0209937Y0116705D01*
X0209937Y0115132D02*
X0209512Y0115132D01*
X0180016Y0108839D02*
X0179591Y0108839D01*
X0179591Y0107265D02*
X0180016Y0107265D01*
X0180016Y0105692D02*
X0179591Y0105692D01*
X0179591Y0104119D02*
X0180016Y0104119D01*
X0175147Y0104119D02*
X0007362Y0104119D01*
X0007362Y0105692D02*
X0174316Y0105692D01*
X0174316Y0107265D02*
X0007362Y0107265D01*
X0007362Y0108839D02*
X0174316Y0108839D01*
X0174316Y0110412D02*
X0007362Y0110412D01*
X0007362Y0111985D02*
X0174316Y0111985D01*
X0174394Y0113559D02*
X0020431Y0113559D01*
X0022669Y0115132D02*
X0176821Y0115132D01*
X0175394Y0116705D02*
X0024242Y0116705D01*
X0024938Y0118279D02*
X0174743Y0118279D01*
X0174725Y0119852D02*
X0025590Y0119852D01*
X0025807Y0121425D02*
X0175174Y0121425D01*
X0176290Y0122999D02*
X0025807Y0122999D01*
X0025682Y0124572D02*
X0178023Y0124572D01*
X0175807Y0126145D02*
X0025030Y0126145D01*
X0024378Y0127719D02*
X0174975Y0127719D01*
X0174725Y0129292D02*
X0022891Y0129292D01*
X0020966Y0130865D02*
X0174942Y0130865D01*
X0175730Y0132438D02*
X0007362Y0132438D01*
X0007362Y0130865D02*
X0011081Y0130865D01*
X0009157Y0129292D02*
X0007362Y0129292D01*
X0007362Y0127719D02*
X0007669Y0127719D01*
X0007362Y0134012D02*
X0177835Y0134012D01*
X0176367Y0135585D02*
X0007362Y0135585D01*
X0007362Y0137158D02*
X0175207Y0137158D01*
X0174725Y0138732D02*
X0007362Y0138732D01*
X0007362Y0140305D02*
X0174725Y0140305D01*
X0175362Y0141878D02*
X0007362Y0141878D01*
X0007362Y0143452D02*
X0176743Y0143452D01*
X0137273Y0091532D02*
X0132727Y0091532D01*
X0134339Y0089959D02*
X0135661Y0089959D01*
X0135009Y0088386D02*
X0134991Y0088386D01*
X0134698Y0085239D02*
X0135302Y0085239D01*
X0136318Y0083666D02*
X0133682Y0083666D01*
X0126318Y0083666D02*
X0123682Y0083666D01*
X0124698Y0085239D02*
X0125302Y0085239D01*
X0125009Y0088386D02*
X0124991Y0088386D01*
X0124339Y0089959D02*
X0125661Y0089959D01*
X0127273Y0091532D02*
X0122727Y0091532D01*
X0117273Y0091532D02*
X0112727Y0091532D01*
X0114339Y0089959D02*
X0115661Y0089959D01*
X0115009Y0088386D02*
X0114991Y0088386D01*
X0114698Y0085239D02*
X0115302Y0085239D01*
X0116318Y0083666D02*
X0113682Y0083666D01*
X0106318Y0083666D02*
X0103682Y0083666D01*
X0104698Y0085239D02*
X0105302Y0085239D01*
X0105009Y0088386D02*
X0104991Y0088386D01*
X0104339Y0089959D02*
X0105661Y0089959D01*
X0107273Y0091532D02*
X0102727Y0091532D01*
X0097273Y0091532D02*
X0092727Y0091532D01*
X0094339Y0089959D02*
X0095661Y0089959D01*
X0095009Y0088386D02*
X0094991Y0088386D01*
X0094698Y0085239D02*
X0095302Y0085239D01*
X0096318Y0083666D02*
X0093682Y0083666D01*
X0086318Y0083666D02*
X0083682Y0083666D01*
X0084698Y0085239D02*
X0085302Y0085239D01*
X0085009Y0088386D02*
X0084991Y0088386D01*
X0084339Y0089959D02*
X0085661Y0089959D01*
X0087273Y0091532D02*
X0082727Y0091532D01*
X0077273Y0091532D02*
X0072727Y0091532D01*
X0074339Y0089959D02*
X0075661Y0089959D01*
X0075009Y0088386D02*
X0074991Y0088386D01*
X0074698Y0085239D02*
X0075302Y0085239D01*
X0076318Y0083666D02*
X0073682Y0083666D01*
X0066318Y0083666D02*
X0063682Y0083666D01*
X0064698Y0085239D02*
X0065302Y0085239D01*
X0065009Y0088386D02*
X0064991Y0088386D01*
X0064339Y0089959D02*
X0065661Y0089959D01*
X0067273Y0091532D02*
X0062727Y0091532D01*
X0057273Y0091532D02*
X0052727Y0091532D01*
X0054339Y0089959D02*
X0055661Y0089959D01*
X0055009Y0088386D02*
X0054991Y0088386D01*
X0054698Y0085239D02*
X0055302Y0085239D01*
X0056318Y0083666D02*
X0053682Y0083666D01*
X0046318Y0083666D02*
X0043682Y0083666D01*
X0044698Y0085239D02*
X0045302Y0085239D01*
X0045009Y0088386D02*
X0044991Y0088386D01*
X0044339Y0089959D02*
X0045661Y0089959D01*
X0047273Y0091532D02*
X0042727Y0091532D01*
X0011617Y0113559D02*
X0007362Y0113559D01*
X0007362Y0115132D02*
X0009379Y0115132D01*
X0007805Y0116705D02*
X0007362Y0116705D01*
X0178764Y0052199D02*
X0179189Y0052199D01*
X0179189Y0050626D02*
X0178764Y0050626D01*
X0178764Y0049053D02*
X0179189Y0049053D01*
M02*
