G75*
%MOIN*%
%OFA0B0*%
%FSLAX25Y25*%
%IPPOS*%
%LPD*%
%AMOC8*
5,1,8,0,0,1.08239X$1,22.5*
%
%ADD10C,0.01100*%
D10*
X0043207Y0113109D02*
X0046970Y0113109D01*
X0045089Y0113109D02*
X0045089Y0119883D01*
X0046970Y0118378D01*
X0051880Y0119883D02*
X0053762Y0118378D01*
X0060553Y0116496D02*
X0060551Y0116347D01*
X0060545Y0116198D01*
X0060535Y0116050D01*
X0060521Y0115901D01*
X0060503Y0115754D01*
X0060482Y0115606D01*
X0060456Y0115459D01*
X0060426Y0115314D01*
X0060393Y0115168D01*
X0060355Y0115024D01*
X0060314Y0114881D01*
X0060269Y0114739D01*
X0060221Y0114598D01*
X0060168Y0114459D01*
X0060112Y0114321D01*
X0060052Y0114185D01*
X0059989Y0114050D01*
X0060177Y0114614D02*
X0057166Y0118378D01*
X0057354Y0118942D02*
X0057379Y0119010D01*
X0057408Y0119076D01*
X0057440Y0119140D01*
X0057475Y0119203D01*
X0057513Y0119264D01*
X0057555Y0119323D01*
X0057599Y0119379D01*
X0057647Y0119433D01*
X0057697Y0119485D01*
X0057749Y0119534D01*
X0057804Y0119580D01*
X0057862Y0119624D01*
X0057922Y0119664D01*
X0057983Y0119701D01*
X0058047Y0119735D01*
X0058112Y0119766D01*
X0058178Y0119793D01*
X0058246Y0119817D01*
X0058315Y0119837D01*
X0058385Y0119853D01*
X0058456Y0119866D01*
X0058527Y0119876D01*
X0058599Y0119881D01*
X0058671Y0119883D01*
X0058743Y0119881D01*
X0058815Y0119876D01*
X0058886Y0119866D01*
X0058957Y0119853D01*
X0059027Y0119837D01*
X0059096Y0119817D01*
X0059164Y0119793D01*
X0059230Y0119766D01*
X0059295Y0119735D01*
X0059359Y0119701D01*
X0059420Y0119664D01*
X0059480Y0119624D01*
X0059538Y0119580D01*
X0059593Y0119534D01*
X0059645Y0119485D01*
X0059695Y0119433D01*
X0059743Y0119379D01*
X0059787Y0119323D01*
X0059829Y0119264D01*
X0059867Y0119203D01*
X0059902Y0119140D01*
X0059934Y0119076D01*
X0059963Y0119010D01*
X0059988Y0118942D01*
X0057354Y0118942D02*
X0057291Y0118807D01*
X0057231Y0118671D01*
X0057175Y0118533D01*
X0057122Y0118394D01*
X0057074Y0118253D01*
X0057029Y0118111D01*
X0056988Y0117968D01*
X0056950Y0117824D01*
X0056917Y0117679D01*
X0056887Y0117533D01*
X0056861Y0117386D01*
X0056840Y0117239D01*
X0056822Y0117091D01*
X0056808Y0116942D01*
X0056798Y0116794D01*
X0056792Y0116645D01*
X0056790Y0116496D01*
X0060553Y0116496D02*
X0060551Y0116645D01*
X0060545Y0116794D01*
X0060535Y0116942D01*
X0060521Y0117091D01*
X0060503Y0117238D01*
X0060482Y0117386D01*
X0060456Y0117533D01*
X0060426Y0117678D01*
X0060393Y0117824D01*
X0060355Y0117968D01*
X0060314Y0118111D01*
X0060269Y0118253D01*
X0060221Y0118394D01*
X0060168Y0118533D01*
X0060112Y0118671D01*
X0060052Y0118807D01*
X0059989Y0118942D01*
X0056790Y0116496D02*
X0056792Y0116347D01*
X0056798Y0116198D01*
X0056808Y0116050D01*
X0056822Y0115901D01*
X0056840Y0115754D01*
X0056861Y0115606D01*
X0056887Y0115459D01*
X0056917Y0115314D01*
X0056950Y0115168D01*
X0056988Y0115024D01*
X0057029Y0114881D01*
X0057074Y0114739D01*
X0057122Y0114598D01*
X0057175Y0114459D01*
X0057231Y0114321D01*
X0057291Y0114185D01*
X0057354Y0114050D01*
X0057379Y0113982D01*
X0057408Y0113916D01*
X0057440Y0113852D01*
X0057475Y0113789D01*
X0057513Y0113728D01*
X0057555Y0113669D01*
X0057599Y0113613D01*
X0057647Y0113558D01*
X0057697Y0113507D01*
X0057749Y0113458D01*
X0057804Y0113412D01*
X0057862Y0113368D01*
X0057922Y0113328D01*
X0057983Y0113291D01*
X0058047Y0113257D01*
X0058112Y0113226D01*
X0058178Y0113199D01*
X0058246Y0113175D01*
X0058315Y0113155D01*
X0058385Y0113139D01*
X0058456Y0113126D01*
X0058527Y0113116D01*
X0058599Y0113111D01*
X0058671Y0113109D01*
X0058743Y0113111D01*
X0058815Y0113116D01*
X0058886Y0113126D01*
X0058957Y0113139D01*
X0059027Y0113155D01*
X0059096Y0113175D01*
X0059164Y0113199D01*
X0059230Y0113226D01*
X0059295Y0113257D01*
X0059359Y0113291D01*
X0059420Y0113328D01*
X0059480Y0113368D01*
X0059538Y0113412D01*
X0059593Y0113458D01*
X0059645Y0113507D01*
X0059695Y0113558D01*
X0059743Y0113613D01*
X0059787Y0113669D01*
X0059829Y0113728D01*
X0059867Y0113789D01*
X0059902Y0113852D01*
X0059934Y0113916D01*
X0059963Y0113982D01*
X0059988Y0114050D01*
X0063581Y0114614D02*
X0067344Y0114614D01*
X0065839Y0119883D01*
X0072254Y0119883D02*
X0072254Y0113109D01*
X0074136Y0113109D02*
X0070372Y0113109D01*
X0064710Y0113109D02*
X0064710Y0116120D01*
X0072254Y0119883D02*
X0074136Y0118378D01*
X0086072Y0116120D02*
X0086072Y0114614D01*
X0086074Y0114538D01*
X0086080Y0114462D01*
X0086089Y0114386D01*
X0086103Y0114311D01*
X0086120Y0114237D01*
X0086141Y0114163D01*
X0086166Y0114091D01*
X0086194Y0114020D01*
X0086226Y0113951D01*
X0086261Y0113884D01*
X0086300Y0113818D01*
X0086342Y0113754D01*
X0086387Y0113693D01*
X0086435Y0113634D01*
X0086486Y0113577D01*
X0086540Y0113523D01*
X0086597Y0113472D01*
X0086656Y0113424D01*
X0086717Y0113379D01*
X0086781Y0113337D01*
X0086847Y0113298D01*
X0086914Y0113263D01*
X0086983Y0113231D01*
X0087054Y0113203D01*
X0087126Y0113178D01*
X0087200Y0113157D01*
X0087274Y0113140D01*
X0087349Y0113126D01*
X0087425Y0113117D01*
X0087501Y0113111D01*
X0087577Y0113109D01*
X0087653Y0113111D01*
X0087729Y0113117D01*
X0087805Y0113126D01*
X0087880Y0113140D01*
X0087954Y0113157D01*
X0088028Y0113178D01*
X0088100Y0113203D01*
X0088171Y0113231D01*
X0088240Y0113263D01*
X0088307Y0113298D01*
X0088373Y0113337D01*
X0088437Y0113379D01*
X0088498Y0113424D01*
X0088557Y0113472D01*
X0088614Y0113523D01*
X0088668Y0113577D01*
X0088719Y0113634D01*
X0088767Y0113693D01*
X0088812Y0113754D01*
X0088854Y0113818D01*
X0088893Y0113884D01*
X0088928Y0113951D01*
X0088960Y0114020D01*
X0088988Y0114091D01*
X0089013Y0114163D01*
X0089034Y0114237D01*
X0089051Y0114311D01*
X0089065Y0114386D01*
X0089074Y0114462D01*
X0089080Y0114538D01*
X0089082Y0114614D01*
X0089082Y0116120D01*
X0089080Y0116196D01*
X0089074Y0116272D01*
X0089065Y0116348D01*
X0089051Y0116423D01*
X0089034Y0116497D01*
X0089013Y0116571D01*
X0088988Y0116643D01*
X0088960Y0116714D01*
X0088928Y0116783D01*
X0088893Y0116850D01*
X0088854Y0116916D01*
X0088812Y0116980D01*
X0088767Y0117041D01*
X0088719Y0117100D01*
X0088668Y0117157D01*
X0088614Y0117211D01*
X0088557Y0117262D01*
X0088498Y0117310D01*
X0088437Y0117355D01*
X0088373Y0117397D01*
X0088307Y0117436D01*
X0088240Y0117471D01*
X0088171Y0117503D01*
X0088100Y0117531D01*
X0088028Y0117556D01*
X0087954Y0117577D01*
X0087880Y0117594D01*
X0087805Y0117608D01*
X0087729Y0117617D01*
X0087653Y0117623D01*
X0087577Y0117625D01*
X0087501Y0117623D01*
X0087425Y0117617D01*
X0087349Y0117608D01*
X0087274Y0117594D01*
X0087200Y0117577D01*
X0087126Y0117556D01*
X0087054Y0117531D01*
X0086983Y0117503D01*
X0086914Y0117471D01*
X0086847Y0117436D01*
X0086781Y0117397D01*
X0086717Y0117355D01*
X0086656Y0117310D01*
X0086597Y0117262D01*
X0086540Y0117211D01*
X0086486Y0117157D01*
X0086435Y0117100D01*
X0086387Y0117041D01*
X0086342Y0116980D01*
X0086300Y0116916D01*
X0086261Y0116850D01*
X0086226Y0116783D01*
X0086194Y0116714D01*
X0086166Y0116643D01*
X0086141Y0116571D01*
X0086120Y0116497D01*
X0086103Y0116423D01*
X0086089Y0116348D01*
X0086080Y0116272D01*
X0086074Y0116196D01*
X0086072Y0116120D01*
X0092184Y0116496D02*
X0092184Y0113109D01*
X0095194Y0113109D02*
X0095194Y0117625D01*
X0093313Y0117625D01*
X0093247Y0117623D01*
X0093182Y0117617D01*
X0093117Y0117608D01*
X0093053Y0117595D01*
X0092989Y0117578D01*
X0092927Y0117557D01*
X0092866Y0117533D01*
X0092806Y0117505D01*
X0092749Y0117474D01*
X0092693Y0117439D01*
X0092639Y0117402D01*
X0092587Y0117361D01*
X0092538Y0117317D01*
X0092492Y0117271D01*
X0092448Y0117222D01*
X0092407Y0117170D01*
X0092370Y0117116D01*
X0092335Y0117061D01*
X0092304Y0117003D01*
X0092276Y0116943D01*
X0092252Y0116882D01*
X0092231Y0116820D01*
X0092214Y0116756D01*
X0092201Y0116692D01*
X0092192Y0116627D01*
X0092186Y0116562D01*
X0092184Y0116496D01*
X0098217Y0117625D02*
X0098217Y0113109D01*
X0101239Y0113109D02*
X0101239Y0117625D01*
X0104250Y0117625D02*
X0104250Y0114238D01*
X0104248Y0114172D01*
X0104242Y0114107D01*
X0104233Y0114042D01*
X0104220Y0113978D01*
X0104203Y0113914D01*
X0104182Y0113852D01*
X0104158Y0113791D01*
X0104130Y0113731D01*
X0104099Y0113674D01*
X0104064Y0113618D01*
X0104027Y0113564D01*
X0103986Y0113512D01*
X0103942Y0113463D01*
X0103896Y0113417D01*
X0103847Y0113373D01*
X0103795Y0113332D01*
X0103741Y0113295D01*
X0103686Y0113260D01*
X0103628Y0113229D01*
X0103568Y0113201D01*
X0103507Y0113177D01*
X0103445Y0113156D01*
X0103381Y0113139D01*
X0103317Y0113126D01*
X0103252Y0113117D01*
X0103187Y0113111D01*
X0103121Y0113109D01*
X0101239Y0113109D01*
X0107618Y0113109D02*
X0109500Y0113109D01*
X0109566Y0113111D01*
X0109631Y0113117D01*
X0109696Y0113126D01*
X0109760Y0113139D01*
X0109824Y0113156D01*
X0109886Y0113177D01*
X0109947Y0113201D01*
X0110007Y0113229D01*
X0110065Y0113260D01*
X0110120Y0113295D01*
X0110174Y0113332D01*
X0110226Y0113373D01*
X0110275Y0113417D01*
X0110321Y0113463D01*
X0110365Y0113512D01*
X0110406Y0113564D01*
X0110443Y0113618D01*
X0110478Y0113674D01*
X0110509Y0113731D01*
X0110537Y0113791D01*
X0110561Y0113852D01*
X0110582Y0113914D01*
X0110599Y0113978D01*
X0110612Y0114042D01*
X0110621Y0114107D01*
X0110627Y0114172D01*
X0110629Y0114238D01*
X0110629Y0116496D01*
X0110627Y0116562D01*
X0110621Y0116627D01*
X0110612Y0116692D01*
X0110599Y0116756D01*
X0110582Y0116820D01*
X0110561Y0116882D01*
X0110537Y0116943D01*
X0110509Y0117003D01*
X0110478Y0117061D01*
X0110443Y0117116D01*
X0110406Y0117170D01*
X0110365Y0117222D01*
X0110321Y0117271D01*
X0110275Y0117317D01*
X0110226Y0117361D01*
X0110174Y0117402D01*
X0110120Y0117439D01*
X0110065Y0117474D01*
X0110007Y0117505D01*
X0109947Y0117533D01*
X0109886Y0117557D01*
X0109824Y0117578D01*
X0109760Y0117595D01*
X0109696Y0117608D01*
X0109631Y0117617D01*
X0109566Y0117623D01*
X0109500Y0117625D01*
X0107618Y0117625D01*
X0107618Y0119883D02*
X0107618Y0113109D01*
X0113690Y0113109D02*
X0113690Y0116496D01*
X0113692Y0116562D01*
X0113698Y0116627D01*
X0113707Y0116692D01*
X0113720Y0116756D01*
X0113737Y0116820D01*
X0113758Y0116882D01*
X0113782Y0116943D01*
X0113810Y0117003D01*
X0113841Y0117061D01*
X0113876Y0117116D01*
X0113913Y0117170D01*
X0113954Y0117222D01*
X0113998Y0117271D01*
X0114044Y0117317D01*
X0114093Y0117361D01*
X0114145Y0117402D01*
X0114199Y0117439D01*
X0114255Y0117474D01*
X0114312Y0117505D01*
X0114372Y0117533D01*
X0114433Y0117557D01*
X0114495Y0117578D01*
X0114559Y0117595D01*
X0114623Y0117608D01*
X0114688Y0117617D01*
X0114753Y0117623D01*
X0114819Y0117625D01*
X0116700Y0117625D01*
X0116700Y0113109D01*
X0119802Y0114614D02*
X0119802Y0116120D01*
X0119804Y0116196D01*
X0119810Y0116272D01*
X0119819Y0116348D01*
X0119833Y0116423D01*
X0119850Y0116497D01*
X0119871Y0116571D01*
X0119896Y0116643D01*
X0119924Y0116714D01*
X0119956Y0116783D01*
X0119991Y0116850D01*
X0120030Y0116916D01*
X0120072Y0116980D01*
X0120117Y0117041D01*
X0120165Y0117100D01*
X0120216Y0117157D01*
X0120270Y0117211D01*
X0120327Y0117262D01*
X0120386Y0117310D01*
X0120447Y0117355D01*
X0120511Y0117397D01*
X0120577Y0117436D01*
X0120644Y0117471D01*
X0120713Y0117503D01*
X0120784Y0117531D01*
X0120856Y0117556D01*
X0120930Y0117577D01*
X0121004Y0117594D01*
X0121079Y0117608D01*
X0121155Y0117617D01*
X0121231Y0117623D01*
X0121307Y0117625D01*
X0121383Y0117623D01*
X0121459Y0117617D01*
X0121535Y0117608D01*
X0121610Y0117594D01*
X0121684Y0117577D01*
X0121758Y0117556D01*
X0121830Y0117531D01*
X0121901Y0117503D01*
X0121970Y0117471D01*
X0122037Y0117436D01*
X0122103Y0117397D01*
X0122167Y0117355D01*
X0122228Y0117310D01*
X0122287Y0117262D01*
X0122344Y0117211D01*
X0122398Y0117157D01*
X0122449Y0117100D01*
X0122497Y0117041D01*
X0122542Y0116980D01*
X0122584Y0116916D01*
X0122623Y0116850D01*
X0122658Y0116783D01*
X0122690Y0116714D01*
X0122718Y0116643D01*
X0122743Y0116571D01*
X0122764Y0116497D01*
X0122781Y0116423D01*
X0122795Y0116348D01*
X0122804Y0116272D01*
X0122810Y0116196D01*
X0122812Y0116120D01*
X0122813Y0116120D02*
X0122813Y0114614D01*
X0122812Y0114614D02*
X0122810Y0114538D01*
X0122804Y0114462D01*
X0122795Y0114386D01*
X0122781Y0114311D01*
X0122764Y0114237D01*
X0122743Y0114163D01*
X0122718Y0114091D01*
X0122690Y0114020D01*
X0122658Y0113951D01*
X0122623Y0113884D01*
X0122584Y0113818D01*
X0122542Y0113754D01*
X0122497Y0113693D01*
X0122449Y0113634D01*
X0122398Y0113577D01*
X0122344Y0113523D01*
X0122287Y0113472D01*
X0122228Y0113424D01*
X0122167Y0113379D01*
X0122103Y0113337D01*
X0122037Y0113298D01*
X0121970Y0113263D01*
X0121901Y0113231D01*
X0121830Y0113203D01*
X0121758Y0113178D01*
X0121684Y0113157D01*
X0121610Y0113140D01*
X0121535Y0113126D01*
X0121459Y0113117D01*
X0121383Y0113111D01*
X0121307Y0113109D01*
X0121231Y0113111D01*
X0121155Y0113117D01*
X0121079Y0113126D01*
X0121004Y0113140D01*
X0120930Y0113157D01*
X0120856Y0113178D01*
X0120784Y0113203D01*
X0120713Y0113231D01*
X0120644Y0113263D01*
X0120577Y0113298D01*
X0120511Y0113337D01*
X0120447Y0113379D01*
X0120386Y0113424D01*
X0120327Y0113472D01*
X0120270Y0113523D01*
X0120216Y0113577D01*
X0120165Y0113634D01*
X0120117Y0113693D01*
X0120072Y0113754D01*
X0120030Y0113818D01*
X0119991Y0113884D01*
X0119956Y0113951D01*
X0119924Y0114020D01*
X0119896Y0114091D01*
X0119871Y0114163D01*
X0119850Y0114237D01*
X0119833Y0114311D01*
X0119819Y0114386D01*
X0119810Y0114462D01*
X0119804Y0114538D01*
X0119802Y0114614D01*
X0125406Y0113109D02*
X0126911Y0113109D01*
X0126987Y0113111D01*
X0127063Y0113117D01*
X0127139Y0113126D01*
X0127214Y0113140D01*
X0127288Y0113157D01*
X0127362Y0113178D01*
X0127434Y0113203D01*
X0127505Y0113231D01*
X0127574Y0113263D01*
X0127641Y0113298D01*
X0127707Y0113337D01*
X0127771Y0113379D01*
X0127832Y0113424D01*
X0127891Y0113472D01*
X0127948Y0113523D01*
X0128002Y0113577D01*
X0128053Y0113634D01*
X0128101Y0113693D01*
X0128146Y0113754D01*
X0128188Y0113818D01*
X0128227Y0113884D01*
X0128262Y0113951D01*
X0128294Y0114021D01*
X0128322Y0114091D01*
X0128347Y0114163D01*
X0128368Y0114237D01*
X0128385Y0114311D01*
X0128399Y0114386D01*
X0128408Y0114462D01*
X0128414Y0114538D01*
X0128416Y0114614D01*
X0128417Y0114614D02*
X0128417Y0118378D01*
X0128416Y0118378D02*
X0128414Y0118454D01*
X0128408Y0118530D01*
X0128399Y0118606D01*
X0128385Y0118681D01*
X0128368Y0118755D01*
X0128347Y0118829D01*
X0128322Y0118901D01*
X0128294Y0118971D01*
X0128262Y0119041D01*
X0128227Y0119108D01*
X0128188Y0119174D01*
X0128146Y0119238D01*
X0128101Y0119299D01*
X0128053Y0119358D01*
X0128002Y0119415D01*
X0127948Y0119469D01*
X0127891Y0119520D01*
X0127832Y0119568D01*
X0127771Y0119613D01*
X0127707Y0119655D01*
X0127641Y0119694D01*
X0127574Y0119729D01*
X0127505Y0119761D01*
X0127434Y0119789D01*
X0127362Y0119814D01*
X0127288Y0119835D01*
X0127214Y0119852D01*
X0127139Y0119866D01*
X0127063Y0119875D01*
X0126987Y0119881D01*
X0126911Y0119883D01*
X0125406Y0119883D01*
X0120594Y0122662D02*
X0120594Y0129436D01*
X0118712Y0129436D01*
X0118646Y0129434D01*
X0118581Y0129428D01*
X0118516Y0129419D01*
X0118452Y0129406D01*
X0118388Y0129389D01*
X0118326Y0129368D01*
X0118265Y0129344D01*
X0118205Y0129316D01*
X0118148Y0129285D01*
X0118092Y0129250D01*
X0118038Y0129213D01*
X0117986Y0129172D01*
X0117937Y0129128D01*
X0117891Y0129082D01*
X0117847Y0129033D01*
X0117806Y0128981D01*
X0117769Y0128927D01*
X0117734Y0128872D01*
X0117703Y0128814D01*
X0117675Y0128754D01*
X0117651Y0128693D01*
X0117630Y0128631D01*
X0117613Y0128567D01*
X0117600Y0128503D01*
X0117591Y0128438D01*
X0117585Y0128373D01*
X0117583Y0128307D01*
X0117583Y0126049D01*
X0117585Y0125983D01*
X0117591Y0125918D01*
X0117600Y0125853D01*
X0117613Y0125789D01*
X0117630Y0125725D01*
X0117651Y0125663D01*
X0117675Y0125602D01*
X0117703Y0125542D01*
X0117734Y0125485D01*
X0117769Y0125429D01*
X0117806Y0125375D01*
X0117847Y0125323D01*
X0117891Y0125274D01*
X0117937Y0125228D01*
X0117986Y0125184D01*
X0118038Y0125143D01*
X0118092Y0125106D01*
X0118148Y0125071D01*
X0118205Y0125040D01*
X0118265Y0125012D01*
X0118326Y0124988D01*
X0118388Y0124967D01*
X0118452Y0124950D01*
X0118516Y0124937D01*
X0118581Y0124928D01*
X0118646Y0124922D01*
X0118712Y0124920D01*
X0120594Y0124920D01*
X0123812Y0126802D02*
X0123812Y0129812D01*
X0123814Y0129898D01*
X0123820Y0129983D01*
X0123830Y0130068D01*
X0123843Y0130153D01*
X0123861Y0130237D01*
X0123882Y0130320D01*
X0123907Y0130402D01*
X0123935Y0130482D01*
X0123968Y0130562D01*
X0124004Y0130640D01*
X0124043Y0130716D01*
X0124086Y0130790D01*
X0124132Y0130862D01*
X0124182Y0130932D01*
X0124234Y0131000D01*
X0124290Y0131065D01*
X0124348Y0131128D01*
X0124409Y0131187D01*
X0124473Y0131244D01*
X0124540Y0131299D01*
X0124609Y0131350D01*
X0124680Y0131397D01*
X0124753Y0131442D01*
X0124828Y0131483D01*
X0124905Y0131521D01*
X0124984Y0131555D01*
X0125064Y0131585D01*
X0125145Y0131612D01*
X0125228Y0131635D01*
X0125311Y0131655D01*
X0125395Y0131670D01*
X0125480Y0131682D01*
X0125566Y0131690D01*
X0125651Y0131694D01*
X0125737Y0131694D01*
X0125822Y0131690D01*
X0125908Y0131682D01*
X0125993Y0131670D01*
X0126077Y0131655D01*
X0126160Y0131635D01*
X0126243Y0131612D01*
X0126324Y0131585D01*
X0126404Y0131555D01*
X0126483Y0131521D01*
X0126560Y0131483D01*
X0126635Y0131442D01*
X0126708Y0131397D01*
X0126779Y0131350D01*
X0126848Y0131299D01*
X0126915Y0131244D01*
X0126979Y0131187D01*
X0127040Y0131128D01*
X0127098Y0131065D01*
X0127154Y0131000D01*
X0127206Y0130932D01*
X0127256Y0130862D01*
X0127302Y0130790D01*
X0127345Y0130716D01*
X0127384Y0130640D01*
X0127420Y0130562D01*
X0127453Y0130482D01*
X0127481Y0130402D01*
X0127506Y0130320D01*
X0127527Y0130237D01*
X0127545Y0130153D01*
X0127558Y0130068D01*
X0127568Y0129983D01*
X0127574Y0129898D01*
X0127576Y0129812D01*
X0127576Y0126802D01*
X0127574Y0126716D01*
X0127568Y0126631D01*
X0127558Y0126546D01*
X0127545Y0126461D01*
X0127527Y0126377D01*
X0127506Y0126294D01*
X0127481Y0126212D01*
X0127453Y0126132D01*
X0127420Y0126052D01*
X0127384Y0125974D01*
X0127345Y0125898D01*
X0127302Y0125824D01*
X0127256Y0125752D01*
X0127206Y0125682D01*
X0127154Y0125614D01*
X0127098Y0125549D01*
X0127040Y0125486D01*
X0126979Y0125427D01*
X0126915Y0125370D01*
X0126848Y0125315D01*
X0126779Y0125264D01*
X0126708Y0125217D01*
X0126635Y0125172D01*
X0126560Y0125131D01*
X0126483Y0125093D01*
X0126404Y0125059D01*
X0126324Y0125029D01*
X0126243Y0125002D01*
X0126160Y0124979D01*
X0126077Y0124959D01*
X0125993Y0124944D01*
X0125908Y0124932D01*
X0125822Y0124924D01*
X0125737Y0124920D01*
X0125651Y0124920D01*
X0125566Y0124924D01*
X0125480Y0124932D01*
X0125395Y0124944D01*
X0125311Y0124959D01*
X0125228Y0124979D01*
X0125145Y0125002D01*
X0125064Y0125029D01*
X0124984Y0125059D01*
X0124905Y0125093D01*
X0124828Y0125131D01*
X0124753Y0125172D01*
X0124680Y0125217D01*
X0124609Y0125264D01*
X0124540Y0125315D01*
X0124473Y0125370D01*
X0124409Y0125427D01*
X0124348Y0125486D01*
X0124290Y0125549D01*
X0124234Y0125614D01*
X0124182Y0125682D01*
X0124132Y0125752D01*
X0124086Y0125824D01*
X0124043Y0125898D01*
X0124004Y0125974D01*
X0123968Y0126052D01*
X0123935Y0126132D01*
X0123907Y0126212D01*
X0123882Y0126294D01*
X0123861Y0126377D01*
X0123843Y0126461D01*
X0123830Y0126546D01*
X0123820Y0126631D01*
X0123814Y0126716D01*
X0123812Y0126802D01*
X0114748Y0127178D02*
X0111738Y0127178D01*
X0111738Y0127931D01*
X0111740Y0128007D01*
X0111746Y0128083D01*
X0111755Y0128159D01*
X0111769Y0128234D01*
X0111786Y0128308D01*
X0111807Y0128382D01*
X0111832Y0128454D01*
X0111860Y0128525D01*
X0111892Y0128594D01*
X0111927Y0128661D01*
X0111966Y0128727D01*
X0112008Y0128791D01*
X0112053Y0128852D01*
X0112101Y0128911D01*
X0112152Y0128968D01*
X0112206Y0129022D01*
X0112263Y0129073D01*
X0112322Y0129121D01*
X0112383Y0129166D01*
X0112447Y0129208D01*
X0112513Y0129247D01*
X0112580Y0129282D01*
X0112649Y0129314D01*
X0112720Y0129342D01*
X0112792Y0129367D01*
X0112866Y0129388D01*
X0112940Y0129405D01*
X0113015Y0129419D01*
X0113091Y0129428D01*
X0113167Y0129434D01*
X0113243Y0129436D01*
X0113319Y0129434D01*
X0113395Y0129428D01*
X0113471Y0129419D01*
X0113546Y0129405D01*
X0113620Y0129388D01*
X0113694Y0129367D01*
X0113766Y0129342D01*
X0113837Y0129314D01*
X0113906Y0129282D01*
X0113973Y0129247D01*
X0114039Y0129208D01*
X0114103Y0129166D01*
X0114164Y0129121D01*
X0114223Y0129073D01*
X0114280Y0129022D01*
X0114334Y0128968D01*
X0114385Y0128911D01*
X0114433Y0128852D01*
X0114478Y0128791D01*
X0114520Y0128727D01*
X0114559Y0128661D01*
X0114594Y0128594D01*
X0114626Y0128525D01*
X0114654Y0128454D01*
X0114679Y0128382D01*
X0114700Y0128308D01*
X0114717Y0128234D01*
X0114731Y0128159D01*
X0114740Y0128083D01*
X0114746Y0128007D01*
X0114748Y0127931D01*
X0114748Y0126049D01*
X0114746Y0125983D01*
X0114740Y0125918D01*
X0114731Y0125853D01*
X0114718Y0125789D01*
X0114701Y0125725D01*
X0114680Y0125663D01*
X0114656Y0125602D01*
X0114628Y0125542D01*
X0114597Y0125485D01*
X0114562Y0125429D01*
X0114525Y0125375D01*
X0114484Y0125323D01*
X0114440Y0125274D01*
X0114394Y0125228D01*
X0114345Y0125184D01*
X0114293Y0125143D01*
X0114239Y0125106D01*
X0114184Y0125071D01*
X0114126Y0125040D01*
X0114066Y0125012D01*
X0114005Y0124988D01*
X0113943Y0124967D01*
X0113879Y0124950D01*
X0113815Y0124937D01*
X0113750Y0124928D01*
X0113685Y0124922D01*
X0113619Y0124920D01*
X0111738Y0124920D01*
X0108636Y0124920D02*
X0108636Y0129436D01*
X0106755Y0129436D01*
X0106689Y0129434D01*
X0106624Y0129428D01*
X0106559Y0129419D01*
X0106495Y0129406D01*
X0106431Y0129389D01*
X0106369Y0129368D01*
X0106308Y0129344D01*
X0106248Y0129316D01*
X0106191Y0129285D01*
X0106135Y0129250D01*
X0106081Y0129213D01*
X0106029Y0129172D01*
X0105980Y0129128D01*
X0105934Y0129082D01*
X0105890Y0129033D01*
X0105849Y0128981D01*
X0105812Y0128927D01*
X0105777Y0128872D01*
X0105746Y0128814D01*
X0105718Y0128754D01*
X0105694Y0128693D01*
X0105673Y0128631D01*
X0105656Y0128567D01*
X0105643Y0128503D01*
X0105634Y0128438D01*
X0105628Y0128373D01*
X0105626Y0128307D01*
X0105626Y0124920D01*
X0102469Y0126425D02*
X0102469Y0130189D01*
X0102468Y0130189D02*
X0102466Y0130265D01*
X0102460Y0130341D01*
X0102451Y0130417D01*
X0102437Y0130492D01*
X0102420Y0130566D01*
X0102399Y0130640D01*
X0102374Y0130712D01*
X0102346Y0130782D01*
X0102314Y0130852D01*
X0102279Y0130919D01*
X0102240Y0130985D01*
X0102198Y0131049D01*
X0102153Y0131110D01*
X0102105Y0131169D01*
X0102054Y0131226D01*
X0102000Y0131280D01*
X0101943Y0131331D01*
X0101884Y0131379D01*
X0101823Y0131424D01*
X0101759Y0131466D01*
X0101693Y0131505D01*
X0101626Y0131540D01*
X0101557Y0131572D01*
X0101486Y0131600D01*
X0101414Y0131625D01*
X0101340Y0131646D01*
X0101266Y0131663D01*
X0101191Y0131677D01*
X0101115Y0131686D01*
X0101039Y0131692D01*
X0100963Y0131694D01*
X0099458Y0131694D01*
X0097241Y0131694D02*
X0093478Y0131694D01*
X0095359Y0131694D02*
X0095359Y0124920D01*
X0099458Y0124920D02*
X0100963Y0124920D01*
X0101039Y0124922D01*
X0101115Y0124928D01*
X0101191Y0124937D01*
X0101266Y0124951D01*
X0101340Y0124968D01*
X0101414Y0124989D01*
X0101486Y0125014D01*
X0101557Y0125042D01*
X0101626Y0125074D01*
X0101693Y0125109D01*
X0101759Y0125148D01*
X0101823Y0125190D01*
X0101884Y0125235D01*
X0101943Y0125283D01*
X0102000Y0125334D01*
X0102054Y0125388D01*
X0102105Y0125445D01*
X0102153Y0125504D01*
X0102198Y0125565D01*
X0102240Y0125629D01*
X0102279Y0125695D01*
X0102314Y0125762D01*
X0102346Y0125832D01*
X0102374Y0125902D01*
X0102399Y0125974D01*
X0102420Y0126048D01*
X0102437Y0126122D01*
X0102451Y0126197D01*
X0102460Y0126273D01*
X0102466Y0126349D01*
X0102468Y0126425D01*
X0090676Y0124920D02*
X0090676Y0131694D01*
X0088794Y0131694D01*
X0088710Y0131692D01*
X0088625Y0131686D01*
X0088541Y0131677D01*
X0088458Y0131664D01*
X0088375Y0131647D01*
X0088293Y0131626D01*
X0088212Y0131602D01*
X0088133Y0131574D01*
X0088054Y0131543D01*
X0087977Y0131508D01*
X0087902Y0131469D01*
X0087829Y0131428D01*
X0087757Y0131383D01*
X0087688Y0131335D01*
X0087621Y0131283D01*
X0087556Y0131229D01*
X0087493Y0131172D01*
X0087434Y0131113D01*
X0087377Y0131050D01*
X0087323Y0130985D01*
X0087271Y0130918D01*
X0087223Y0130849D01*
X0087178Y0130777D01*
X0087137Y0130704D01*
X0087098Y0130629D01*
X0087063Y0130552D01*
X0087032Y0130473D01*
X0087004Y0130394D01*
X0086980Y0130313D01*
X0086959Y0130231D01*
X0086942Y0130148D01*
X0086929Y0130065D01*
X0086920Y0129981D01*
X0086914Y0129896D01*
X0086912Y0129812D01*
X0086913Y0129812D02*
X0086913Y0126802D01*
X0086912Y0126802D02*
X0086914Y0126718D01*
X0086920Y0126633D01*
X0086929Y0126549D01*
X0086942Y0126466D01*
X0086959Y0126383D01*
X0086980Y0126301D01*
X0087004Y0126220D01*
X0087032Y0126141D01*
X0087063Y0126062D01*
X0087098Y0125985D01*
X0087137Y0125910D01*
X0087178Y0125837D01*
X0087223Y0125765D01*
X0087271Y0125696D01*
X0087323Y0125629D01*
X0087377Y0125564D01*
X0087434Y0125501D01*
X0087493Y0125442D01*
X0087556Y0125385D01*
X0087621Y0125331D01*
X0087688Y0125279D01*
X0087757Y0125231D01*
X0087829Y0125186D01*
X0087902Y0125145D01*
X0087977Y0125106D01*
X0088054Y0125071D01*
X0088133Y0125040D01*
X0088212Y0125012D01*
X0088293Y0124988D01*
X0088375Y0124967D01*
X0088458Y0124950D01*
X0088541Y0124937D01*
X0088625Y0124928D01*
X0088710Y0124922D01*
X0088794Y0124920D01*
X0090676Y0124920D01*
X0098029Y0119883D02*
X0098029Y0119507D01*
X0098405Y0119507D01*
X0098405Y0119883D01*
X0098029Y0119883D01*
X0064137Y0131694D02*
X0061879Y0124920D01*
X0059621Y0131694D01*
X0055087Y0131694D02*
X0055015Y0131692D01*
X0054943Y0131687D01*
X0054872Y0131677D01*
X0054801Y0131664D01*
X0054731Y0131648D01*
X0054662Y0131628D01*
X0054594Y0131604D01*
X0054528Y0131577D01*
X0054463Y0131546D01*
X0054399Y0131512D01*
X0054338Y0131475D01*
X0054278Y0131435D01*
X0054220Y0131391D01*
X0054165Y0131345D01*
X0054113Y0131296D01*
X0054063Y0131244D01*
X0054015Y0131190D01*
X0053971Y0131134D01*
X0053929Y0131075D01*
X0053891Y0131014D01*
X0053856Y0130951D01*
X0053824Y0130887D01*
X0053795Y0130821D01*
X0053770Y0130753D01*
X0053582Y0130189D02*
X0056593Y0126425D01*
X0055087Y0124921D02*
X0055015Y0124923D01*
X0054943Y0124928D01*
X0054872Y0124938D01*
X0054801Y0124951D01*
X0054731Y0124967D01*
X0054662Y0124987D01*
X0054594Y0125011D01*
X0054528Y0125038D01*
X0054463Y0125069D01*
X0054399Y0125103D01*
X0054338Y0125140D01*
X0054278Y0125180D01*
X0054220Y0125224D01*
X0054165Y0125270D01*
X0054113Y0125319D01*
X0054063Y0125370D01*
X0054015Y0125425D01*
X0053971Y0125481D01*
X0053929Y0125540D01*
X0053891Y0125601D01*
X0053856Y0125664D01*
X0053824Y0125728D01*
X0053795Y0125794D01*
X0053770Y0125862D01*
X0055087Y0124921D02*
X0055159Y0124923D01*
X0055231Y0124928D01*
X0055302Y0124938D01*
X0055373Y0124951D01*
X0055443Y0124967D01*
X0055512Y0124987D01*
X0055580Y0125011D01*
X0055646Y0125038D01*
X0055711Y0125069D01*
X0055775Y0125103D01*
X0055836Y0125140D01*
X0055896Y0125180D01*
X0055954Y0125224D01*
X0056009Y0125270D01*
X0056061Y0125319D01*
X0056111Y0125370D01*
X0056159Y0125425D01*
X0056203Y0125481D01*
X0056245Y0125540D01*
X0056283Y0125601D01*
X0056318Y0125664D01*
X0056350Y0125728D01*
X0056379Y0125794D01*
X0056404Y0125862D01*
X0053206Y0128307D02*
X0053208Y0128456D01*
X0053214Y0128605D01*
X0053224Y0128753D01*
X0053238Y0128902D01*
X0053256Y0129050D01*
X0053277Y0129197D01*
X0053303Y0129344D01*
X0053333Y0129490D01*
X0053366Y0129635D01*
X0053404Y0129779D01*
X0053445Y0129922D01*
X0053490Y0130064D01*
X0053538Y0130205D01*
X0053591Y0130344D01*
X0053647Y0130482D01*
X0053707Y0130618D01*
X0053770Y0130753D01*
X0055087Y0131694D02*
X0055159Y0131692D01*
X0055231Y0131687D01*
X0055302Y0131677D01*
X0055373Y0131664D01*
X0055443Y0131648D01*
X0055512Y0131628D01*
X0055580Y0131604D01*
X0055646Y0131577D01*
X0055711Y0131546D01*
X0055775Y0131512D01*
X0055836Y0131475D01*
X0055896Y0131435D01*
X0055954Y0131391D01*
X0056009Y0131345D01*
X0056061Y0131296D01*
X0056111Y0131244D01*
X0056159Y0131190D01*
X0056203Y0131134D01*
X0056245Y0131075D01*
X0056283Y0131014D01*
X0056318Y0130951D01*
X0056350Y0130887D01*
X0056379Y0130821D01*
X0056404Y0130753D01*
X0053206Y0128307D02*
X0053208Y0128158D01*
X0053214Y0128009D01*
X0053224Y0127861D01*
X0053238Y0127712D01*
X0053256Y0127565D01*
X0053277Y0127417D01*
X0053303Y0127270D01*
X0053333Y0127125D01*
X0053366Y0126979D01*
X0053404Y0126835D01*
X0053445Y0126692D01*
X0053490Y0126550D01*
X0053538Y0126409D01*
X0053591Y0126270D01*
X0053647Y0126132D01*
X0053707Y0125996D01*
X0053770Y0125861D01*
X0050178Y0124920D02*
X0046414Y0124920D01*
X0050178Y0124920D02*
X0046979Y0128683D01*
X0048108Y0131694D02*
X0048199Y0131692D01*
X0048290Y0131686D01*
X0048381Y0131677D01*
X0048471Y0131663D01*
X0048561Y0131646D01*
X0048650Y0131626D01*
X0048737Y0131601D01*
X0048824Y0131573D01*
X0048910Y0131541D01*
X0048994Y0131506D01*
X0049076Y0131467D01*
X0049157Y0131424D01*
X0049236Y0131379D01*
X0049313Y0131330D01*
X0049388Y0131278D01*
X0049460Y0131223D01*
X0049531Y0131164D01*
X0049598Y0131103D01*
X0049664Y0131040D01*
X0049726Y0130973D01*
X0049786Y0130904D01*
X0049842Y0130832D01*
X0049896Y0130759D01*
X0049946Y0130683D01*
X0049993Y0130604D01*
X0050037Y0130525D01*
X0050078Y0130443D01*
X0050115Y0130359D01*
X0050148Y0130275D01*
X0050178Y0130188D01*
X0046979Y0128684D02*
X0046921Y0128742D01*
X0046865Y0128802D01*
X0046813Y0128865D01*
X0046763Y0128930D01*
X0046716Y0128997D01*
X0046673Y0129066D01*
X0046632Y0129137D01*
X0046595Y0129210D01*
X0046561Y0129284D01*
X0046531Y0129360D01*
X0046503Y0129438D01*
X0046480Y0129516D01*
X0046460Y0129595D01*
X0046443Y0129675D01*
X0046431Y0129756D01*
X0046421Y0129838D01*
X0046416Y0129919D01*
X0046414Y0130001D01*
X0046416Y0130082D01*
X0046422Y0130162D01*
X0046431Y0130242D01*
X0046445Y0130322D01*
X0046462Y0130400D01*
X0046483Y0130478D01*
X0046507Y0130555D01*
X0046535Y0130631D01*
X0046567Y0130705D01*
X0046602Y0130777D01*
X0046641Y0130848D01*
X0046683Y0130917D01*
X0046728Y0130984D01*
X0046776Y0131048D01*
X0046828Y0131110D01*
X0046882Y0131170D01*
X0046939Y0131227D01*
X0046999Y0131281D01*
X0047061Y0131333D01*
X0047125Y0131381D01*
X0047192Y0131426D01*
X0047261Y0131468D01*
X0047332Y0131507D01*
X0047404Y0131542D01*
X0047478Y0131574D01*
X0047554Y0131602D01*
X0047631Y0131626D01*
X0047709Y0131647D01*
X0047787Y0131664D01*
X0047867Y0131678D01*
X0047947Y0131687D01*
X0048027Y0131693D01*
X0048108Y0131695D01*
X0056969Y0128307D02*
X0056967Y0128158D01*
X0056961Y0128009D01*
X0056951Y0127861D01*
X0056937Y0127712D01*
X0056919Y0127565D01*
X0056898Y0127417D01*
X0056872Y0127270D01*
X0056842Y0127125D01*
X0056809Y0126979D01*
X0056771Y0126835D01*
X0056730Y0126692D01*
X0056685Y0126550D01*
X0056637Y0126409D01*
X0056584Y0126270D01*
X0056528Y0126132D01*
X0056468Y0125996D01*
X0056405Y0125861D01*
X0056969Y0128307D02*
X0056967Y0128456D01*
X0056961Y0128605D01*
X0056951Y0128753D01*
X0056937Y0128902D01*
X0056919Y0129049D01*
X0056898Y0129197D01*
X0056872Y0129344D01*
X0056842Y0129489D01*
X0056809Y0129635D01*
X0056771Y0129779D01*
X0056730Y0129922D01*
X0056685Y0130064D01*
X0056637Y0130205D01*
X0056584Y0130344D01*
X0056528Y0130482D01*
X0056468Y0130618D01*
X0056405Y0130753D01*
X0051880Y0119883D02*
X0051880Y0113109D01*
X0053762Y0113109D02*
X0049998Y0113109D01*
X0040179Y0114991D02*
X0040177Y0114905D01*
X0040171Y0114820D01*
X0040161Y0114735D01*
X0040148Y0114650D01*
X0040130Y0114566D01*
X0040109Y0114483D01*
X0040084Y0114401D01*
X0040056Y0114321D01*
X0040023Y0114241D01*
X0039987Y0114163D01*
X0039948Y0114087D01*
X0039905Y0114013D01*
X0039859Y0113941D01*
X0039809Y0113871D01*
X0039757Y0113803D01*
X0039701Y0113738D01*
X0039643Y0113675D01*
X0039582Y0113616D01*
X0039518Y0113559D01*
X0039451Y0113504D01*
X0039382Y0113453D01*
X0039311Y0113406D01*
X0039238Y0113361D01*
X0039163Y0113320D01*
X0039086Y0113282D01*
X0039007Y0113248D01*
X0038927Y0113218D01*
X0038846Y0113191D01*
X0038763Y0113168D01*
X0038680Y0113148D01*
X0038596Y0113133D01*
X0038511Y0113121D01*
X0038425Y0113113D01*
X0038340Y0113109D01*
X0038254Y0113109D01*
X0038169Y0113113D01*
X0038083Y0113121D01*
X0037998Y0113133D01*
X0037914Y0113148D01*
X0037831Y0113168D01*
X0037748Y0113191D01*
X0037667Y0113218D01*
X0037587Y0113248D01*
X0037508Y0113282D01*
X0037431Y0113320D01*
X0037356Y0113361D01*
X0037283Y0113406D01*
X0037212Y0113453D01*
X0037143Y0113504D01*
X0037076Y0113559D01*
X0037012Y0113616D01*
X0036951Y0113675D01*
X0036893Y0113738D01*
X0036837Y0113803D01*
X0036785Y0113871D01*
X0036735Y0113941D01*
X0036689Y0114013D01*
X0036646Y0114087D01*
X0036607Y0114163D01*
X0036571Y0114241D01*
X0036538Y0114321D01*
X0036510Y0114401D01*
X0036485Y0114483D01*
X0036464Y0114566D01*
X0036446Y0114650D01*
X0036433Y0114735D01*
X0036423Y0114820D01*
X0036417Y0114905D01*
X0036415Y0114991D01*
X0036417Y0115077D01*
X0036423Y0115162D01*
X0036433Y0115247D01*
X0036446Y0115332D01*
X0036464Y0115416D01*
X0036485Y0115499D01*
X0036510Y0115581D01*
X0036538Y0115661D01*
X0036571Y0115741D01*
X0036607Y0115819D01*
X0036646Y0115895D01*
X0036689Y0115969D01*
X0036735Y0116041D01*
X0036785Y0116111D01*
X0036837Y0116179D01*
X0036893Y0116244D01*
X0036951Y0116307D01*
X0037012Y0116366D01*
X0037076Y0116423D01*
X0037143Y0116478D01*
X0037212Y0116529D01*
X0037283Y0116576D01*
X0037356Y0116621D01*
X0037431Y0116662D01*
X0037508Y0116700D01*
X0037587Y0116734D01*
X0037667Y0116764D01*
X0037748Y0116791D01*
X0037831Y0116814D01*
X0037914Y0116834D01*
X0037998Y0116849D01*
X0038083Y0116861D01*
X0038169Y0116869D01*
X0038254Y0116873D01*
X0038340Y0116873D01*
X0038425Y0116869D01*
X0038511Y0116861D01*
X0038596Y0116849D01*
X0038680Y0116834D01*
X0038763Y0116814D01*
X0038846Y0116791D01*
X0038927Y0116764D01*
X0039007Y0116734D01*
X0039086Y0116700D01*
X0039163Y0116662D01*
X0039238Y0116621D01*
X0039311Y0116576D01*
X0039382Y0116529D01*
X0039451Y0116478D01*
X0039518Y0116423D01*
X0039582Y0116366D01*
X0039643Y0116307D01*
X0039701Y0116244D01*
X0039757Y0116179D01*
X0039809Y0116111D01*
X0039859Y0116041D01*
X0039905Y0115969D01*
X0039948Y0115895D01*
X0039987Y0115819D01*
X0040023Y0115741D01*
X0040056Y0115661D01*
X0040084Y0115581D01*
X0040109Y0115499D01*
X0040130Y0115416D01*
X0040148Y0115332D01*
X0040161Y0115247D01*
X0040171Y0115162D01*
X0040177Y0115077D01*
X0040179Y0114991D01*
X0039802Y0118378D02*
X0039800Y0118302D01*
X0039794Y0118226D01*
X0039785Y0118150D01*
X0039771Y0118075D01*
X0039754Y0118001D01*
X0039733Y0117927D01*
X0039708Y0117855D01*
X0039680Y0117784D01*
X0039648Y0117715D01*
X0039613Y0117648D01*
X0039574Y0117582D01*
X0039532Y0117518D01*
X0039487Y0117457D01*
X0039439Y0117398D01*
X0039388Y0117341D01*
X0039334Y0117287D01*
X0039277Y0117236D01*
X0039218Y0117188D01*
X0039157Y0117143D01*
X0039093Y0117101D01*
X0039027Y0117062D01*
X0038960Y0117027D01*
X0038891Y0116995D01*
X0038820Y0116967D01*
X0038748Y0116942D01*
X0038674Y0116921D01*
X0038600Y0116904D01*
X0038525Y0116890D01*
X0038449Y0116881D01*
X0038373Y0116875D01*
X0038297Y0116873D01*
X0038221Y0116875D01*
X0038145Y0116881D01*
X0038069Y0116890D01*
X0037994Y0116904D01*
X0037920Y0116921D01*
X0037846Y0116942D01*
X0037774Y0116967D01*
X0037703Y0116995D01*
X0037634Y0117027D01*
X0037567Y0117062D01*
X0037501Y0117101D01*
X0037437Y0117143D01*
X0037376Y0117188D01*
X0037317Y0117236D01*
X0037260Y0117287D01*
X0037206Y0117341D01*
X0037155Y0117398D01*
X0037107Y0117457D01*
X0037062Y0117518D01*
X0037020Y0117582D01*
X0036981Y0117648D01*
X0036946Y0117715D01*
X0036914Y0117784D01*
X0036886Y0117855D01*
X0036861Y0117927D01*
X0036840Y0118001D01*
X0036823Y0118075D01*
X0036809Y0118150D01*
X0036800Y0118226D01*
X0036794Y0118302D01*
X0036792Y0118378D01*
X0036794Y0118454D01*
X0036800Y0118530D01*
X0036809Y0118606D01*
X0036823Y0118681D01*
X0036840Y0118755D01*
X0036861Y0118829D01*
X0036886Y0118901D01*
X0036914Y0118972D01*
X0036946Y0119041D01*
X0036981Y0119108D01*
X0037020Y0119174D01*
X0037062Y0119238D01*
X0037107Y0119299D01*
X0037155Y0119358D01*
X0037206Y0119415D01*
X0037260Y0119469D01*
X0037317Y0119520D01*
X0037376Y0119568D01*
X0037437Y0119613D01*
X0037501Y0119655D01*
X0037567Y0119694D01*
X0037634Y0119729D01*
X0037703Y0119761D01*
X0037774Y0119789D01*
X0037846Y0119814D01*
X0037920Y0119835D01*
X0037994Y0119852D01*
X0038069Y0119866D01*
X0038145Y0119875D01*
X0038221Y0119881D01*
X0038297Y0119883D01*
X0038373Y0119881D01*
X0038449Y0119875D01*
X0038525Y0119866D01*
X0038600Y0119852D01*
X0038674Y0119835D01*
X0038748Y0119814D01*
X0038820Y0119789D01*
X0038891Y0119761D01*
X0038960Y0119729D01*
X0039027Y0119694D01*
X0039093Y0119655D01*
X0039157Y0119613D01*
X0039218Y0119568D01*
X0039277Y0119520D01*
X0039334Y0119469D01*
X0039388Y0119415D01*
X0039439Y0119358D01*
X0039487Y0119299D01*
X0039532Y0119238D01*
X0039574Y0119174D01*
X0039613Y0119108D01*
X0039648Y0119041D01*
X0039680Y0118972D01*
X0039708Y0118901D01*
X0039733Y0118829D01*
X0039754Y0118755D01*
X0039771Y0118681D01*
X0039785Y0118606D01*
X0039794Y0118530D01*
X0039800Y0118454D01*
X0039802Y0118378D01*
M02*
