G75*
%MOIN*%
%OFA0B0*%
%FSLAX25Y25*%
%IPPOS*%
%LPD*%
%AMOC8*
5,1,8,0,0,1.08239X$1,22.5*
%
%ADD10C,0.00000*%
%ADD11C,0.07400*%
%ADD12R,0.07400X0.07400*%
%ADD13C,0.00315*%
%ADD14C,0.00571*%
%ADD15C,0.03543*%
%ADD16C,0.01969*%
%ADD17C,0.03150*%
%ADD18C,0.01654*%
%ADD19C,0.01575*%
%ADD20C,0.02778*%
%ADD21C,0.02362*%
D10*
X0005000Y0005000D02*
X0005000Y0162480D01*
X0319961Y0162480D01*
X0319961Y0005000D01*
X0005000Y0005000D01*
X0008524Y0122323D02*
X0008526Y0122507D01*
X0008533Y0122691D01*
X0008544Y0122875D01*
X0008560Y0123058D01*
X0008580Y0123241D01*
X0008605Y0123423D01*
X0008634Y0123605D01*
X0008668Y0123786D01*
X0008706Y0123966D01*
X0008749Y0124145D01*
X0008796Y0124323D01*
X0008847Y0124500D01*
X0008903Y0124676D01*
X0008962Y0124850D01*
X0009027Y0125022D01*
X0009095Y0125193D01*
X0009167Y0125362D01*
X0009244Y0125530D01*
X0009325Y0125695D01*
X0009410Y0125858D01*
X0009498Y0126020D01*
X0009591Y0126179D01*
X0009688Y0126335D01*
X0009788Y0126490D01*
X0009892Y0126642D01*
X0010000Y0126791D01*
X0010111Y0126937D01*
X0010226Y0127081D01*
X0010345Y0127222D01*
X0010467Y0127360D01*
X0010592Y0127495D01*
X0010721Y0127626D01*
X0010852Y0127755D01*
X0010987Y0127880D01*
X0011125Y0128002D01*
X0011266Y0128121D01*
X0011410Y0128236D01*
X0011556Y0128347D01*
X0011705Y0128455D01*
X0011857Y0128559D01*
X0012012Y0128659D01*
X0012168Y0128756D01*
X0012327Y0128849D01*
X0012489Y0128937D01*
X0012652Y0129022D01*
X0012817Y0129103D01*
X0012985Y0129180D01*
X0013154Y0129252D01*
X0013325Y0129320D01*
X0013497Y0129385D01*
X0013671Y0129444D01*
X0013847Y0129500D01*
X0014024Y0129551D01*
X0014202Y0129598D01*
X0014381Y0129641D01*
X0014561Y0129679D01*
X0014742Y0129713D01*
X0014924Y0129742D01*
X0015106Y0129767D01*
X0015289Y0129787D01*
X0015472Y0129803D01*
X0015656Y0129814D01*
X0015840Y0129821D01*
X0016024Y0129823D01*
X0016208Y0129821D01*
X0016392Y0129814D01*
X0016576Y0129803D01*
X0016759Y0129787D01*
X0016942Y0129767D01*
X0017124Y0129742D01*
X0017306Y0129713D01*
X0017487Y0129679D01*
X0017667Y0129641D01*
X0017846Y0129598D01*
X0018024Y0129551D01*
X0018201Y0129500D01*
X0018377Y0129444D01*
X0018551Y0129385D01*
X0018723Y0129320D01*
X0018894Y0129252D01*
X0019063Y0129180D01*
X0019231Y0129103D01*
X0019396Y0129022D01*
X0019559Y0128937D01*
X0019721Y0128849D01*
X0019880Y0128756D01*
X0020036Y0128659D01*
X0020191Y0128559D01*
X0020343Y0128455D01*
X0020492Y0128347D01*
X0020638Y0128236D01*
X0020782Y0128121D01*
X0020923Y0128002D01*
X0021061Y0127880D01*
X0021196Y0127755D01*
X0021327Y0127626D01*
X0021456Y0127495D01*
X0021581Y0127360D01*
X0021703Y0127222D01*
X0021822Y0127081D01*
X0021937Y0126937D01*
X0022048Y0126791D01*
X0022156Y0126642D01*
X0022260Y0126490D01*
X0022360Y0126335D01*
X0022457Y0126179D01*
X0022550Y0126020D01*
X0022638Y0125858D01*
X0022723Y0125695D01*
X0022804Y0125530D01*
X0022881Y0125362D01*
X0022953Y0125193D01*
X0023021Y0125022D01*
X0023086Y0124850D01*
X0023145Y0124676D01*
X0023201Y0124500D01*
X0023252Y0124323D01*
X0023299Y0124145D01*
X0023342Y0123966D01*
X0023380Y0123786D01*
X0023414Y0123605D01*
X0023443Y0123423D01*
X0023468Y0123241D01*
X0023488Y0123058D01*
X0023504Y0122875D01*
X0023515Y0122691D01*
X0023522Y0122507D01*
X0023524Y0122323D01*
X0023522Y0122139D01*
X0023515Y0121955D01*
X0023504Y0121771D01*
X0023488Y0121588D01*
X0023468Y0121405D01*
X0023443Y0121223D01*
X0023414Y0121041D01*
X0023380Y0120860D01*
X0023342Y0120680D01*
X0023299Y0120501D01*
X0023252Y0120323D01*
X0023201Y0120146D01*
X0023145Y0119970D01*
X0023086Y0119796D01*
X0023021Y0119624D01*
X0022953Y0119453D01*
X0022881Y0119284D01*
X0022804Y0119116D01*
X0022723Y0118951D01*
X0022638Y0118788D01*
X0022550Y0118626D01*
X0022457Y0118467D01*
X0022360Y0118311D01*
X0022260Y0118156D01*
X0022156Y0118004D01*
X0022048Y0117855D01*
X0021937Y0117709D01*
X0021822Y0117565D01*
X0021703Y0117424D01*
X0021581Y0117286D01*
X0021456Y0117151D01*
X0021327Y0117020D01*
X0021196Y0116891D01*
X0021061Y0116766D01*
X0020923Y0116644D01*
X0020782Y0116525D01*
X0020638Y0116410D01*
X0020492Y0116299D01*
X0020343Y0116191D01*
X0020191Y0116087D01*
X0020036Y0115987D01*
X0019880Y0115890D01*
X0019721Y0115797D01*
X0019559Y0115709D01*
X0019396Y0115624D01*
X0019231Y0115543D01*
X0019063Y0115466D01*
X0018894Y0115394D01*
X0018723Y0115326D01*
X0018551Y0115261D01*
X0018377Y0115202D01*
X0018201Y0115146D01*
X0018024Y0115095D01*
X0017846Y0115048D01*
X0017667Y0115005D01*
X0017487Y0114967D01*
X0017306Y0114933D01*
X0017124Y0114904D01*
X0016942Y0114879D01*
X0016759Y0114859D01*
X0016576Y0114843D01*
X0016392Y0114832D01*
X0016208Y0114825D01*
X0016024Y0114823D01*
X0015840Y0114825D01*
X0015656Y0114832D01*
X0015472Y0114843D01*
X0015289Y0114859D01*
X0015106Y0114879D01*
X0014924Y0114904D01*
X0014742Y0114933D01*
X0014561Y0114967D01*
X0014381Y0115005D01*
X0014202Y0115048D01*
X0014024Y0115095D01*
X0013847Y0115146D01*
X0013671Y0115202D01*
X0013497Y0115261D01*
X0013325Y0115326D01*
X0013154Y0115394D01*
X0012985Y0115466D01*
X0012817Y0115543D01*
X0012652Y0115624D01*
X0012489Y0115709D01*
X0012327Y0115797D01*
X0012168Y0115890D01*
X0012012Y0115987D01*
X0011857Y0116087D01*
X0011705Y0116191D01*
X0011556Y0116299D01*
X0011410Y0116410D01*
X0011266Y0116525D01*
X0011125Y0116644D01*
X0010987Y0116766D01*
X0010852Y0116891D01*
X0010721Y0117020D01*
X0010592Y0117151D01*
X0010467Y0117286D01*
X0010345Y0117424D01*
X0010226Y0117565D01*
X0010111Y0117709D01*
X0010000Y0117855D01*
X0009892Y0118004D01*
X0009788Y0118156D01*
X0009688Y0118311D01*
X0009591Y0118467D01*
X0009498Y0118626D01*
X0009410Y0118788D01*
X0009325Y0118951D01*
X0009244Y0119116D01*
X0009167Y0119284D01*
X0009095Y0119453D01*
X0009027Y0119624D01*
X0008962Y0119796D01*
X0008903Y0119970D01*
X0008847Y0120146D01*
X0008796Y0120323D01*
X0008749Y0120501D01*
X0008706Y0120680D01*
X0008668Y0120860D01*
X0008634Y0121041D01*
X0008605Y0121223D01*
X0008580Y0121405D01*
X0008560Y0121588D01*
X0008544Y0121771D01*
X0008533Y0121955D01*
X0008526Y0122139D01*
X0008524Y0122323D01*
X0292776Y0107362D02*
X0292778Y0107546D01*
X0292785Y0107730D01*
X0292796Y0107914D01*
X0292812Y0108097D01*
X0292832Y0108280D01*
X0292857Y0108462D01*
X0292886Y0108644D01*
X0292920Y0108825D01*
X0292958Y0109005D01*
X0293001Y0109184D01*
X0293048Y0109362D01*
X0293099Y0109539D01*
X0293155Y0109715D01*
X0293214Y0109889D01*
X0293279Y0110061D01*
X0293347Y0110232D01*
X0293419Y0110401D01*
X0293496Y0110569D01*
X0293577Y0110734D01*
X0293662Y0110897D01*
X0293750Y0111059D01*
X0293843Y0111218D01*
X0293940Y0111374D01*
X0294040Y0111529D01*
X0294144Y0111681D01*
X0294252Y0111830D01*
X0294363Y0111976D01*
X0294478Y0112120D01*
X0294597Y0112261D01*
X0294719Y0112399D01*
X0294844Y0112534D01*
X0294973Y0112665D01*
X0295104Y0112794D01*
X0295239Y0112919D01*
X0295377Y0113041D01*
X0295518Y0113160D01*
X0295662Y0113275D01*
X0295808Y0113386D01*
X0295957Y0113494D01*
X0296109Y0113598D01*
X0296264Y0113698D01*
X0296420Y0113795D01*
X0296579Y0113888D01*
X0296741Y0113976D01*
X0296904Y0114061D01*
X0297069Y0114142D01*
X0297237Y0114219D01*
X0297406Y0114291D01*
X0297577Y0114359D01*
X0297749Y0114424D01*
X0297923Y0114483D01*
X0298099Y0114539D01*
X0298276Y0114590D01*
X0298454Y0114637D01*
X0298633Y0114680D01*
X0298813Y0114718D01*
X0298994Y0114752D01*
X0299176Y0114781D01*
X0299358Y0114806D01*
X0299541Y0114826D01*
X0299724Y0114842D01*
X0299908Y0114853D01*
X0300092Y0114860D01*
X0300276Y0114862D01*
X0300460Y0114860D01*
X0300644Y0114853D01*
X0300828Y0114842D01*
X0301011Y0114826D01*
X0301194Y0114806D01*
X0301376Y0114781D01*
X0301558Y0114752D01*
X0301739Y0114718D01*
X0301919Y0114680D01*
X0302098Y0114637D01*
X0302276Y0114590D01*
X0302453Y0114539D01*
X0302629Y0114483D01*
X0302803Y0114424D01*
X0302975Y0114359D01*
X0303146Y0114291D01*
X0303315Y0114219D01*
X0303483Y0114142D01*
X0303648Y0114061D01*
X0303811Y0113976D01*
X0303973Y0113888D01*
X0304132Y0113795D01*
X0304288Y0113698D01*
X0304443Y0113598D01*
X0304595Y0113494D01*
X0304744Y0113386D01*
X0304890Y0113275D01*
X0305034Y0113160D01*
X0305175Y0113041D01*
X0305313Y0112919D01*
X0305448Y0112794D01*
X0305579Y0112665D01*
X0305708Y0112534D01*
X0305833Y0112399D01*
X0305955Y0112261D01*
X0306074Y0112120D01*
X0306189Y0111976D01*
X0306300Y0111830D01*
X0306408Y0111681D01*
X0306512Y0111529D01*
X0306612Y0111374D01*
X0306709Y0111218D01*
X0306802Y0111059D01*
X0306890Y0110897D01*
X0306975Y0110734D01*
X0307056Y0110569D01*
X0307133Y0110401D01*
X0307205Y0110232D01*
X0307273Y0110061D01*
X0307338Y0109889D01*
X0307397Y0109715D01*
X0307453Y0109539D01*
X0307504Y0109362D01*
X0307551Y0109184D01*
X0307594Y0109005D01*
X0307632Y0108825D01*
X0307666Y0108644D01*
X0307695Y0108462D01*
X0307720Y0108280D01*
X0307740Y0108097D01*
X0307756Y0107914D01*
X0307767Y0107730D01*
X0307774Y0107546D01*
X0307776Y0107362D01*
X0307774Y0107178D01*
X0307767Y0106994D01*
X0307756Y0106810D01*
X0307740Y0106627D01*
X0307720Y0106444D01*
X0307695Y0106262D01*
X0307666Y0106080D01*
X0307632Y0105899D01*
X0307594Y0105719D01*
X0307551Y0105540D01*
X0307504Y0105362D01*
X0307453Y0105185D01*
X0307397Y0105009D01*
X0307338Y0104835D01*
X0307273Y0104663D01*
X0307205Y0104492D01*
X0307133Y0104323D01*
X0307056Y0104155D01*
X0306975Y0103990D01*
X0306890Y0103827D01*
X0306802Y0103665D01*
X0306709Y0103506D01*
X0306612Y0103350D01*
X0306512Y0103195D01*
X0306408Y0103043D01*
X0306300Y0102894D01*
X0306189Y0102748D01*
X0306074Y0102604D01*
X0305955Y0102463D01*
X0305833Y0102325D01*
X0305708Y0102190D01*
X0305579Y0102059D01*
X0305448Y0101930D01*
X0305313Y0101805D01*
X0305175Y0101683D01*
X0305034Y0101564D01*
X0304890Y0101449D01*
X0304744Y0101338D01*
X0304595Y0101230D01*
X0304443Y0101126D01*
X0304288Y0101026D01*
X0304132Y0100929D01*
X0303973Y0100836D01*
X0303811Y0100748D01*
X0303648Y0100663D01*
X0303483Y0100582D01*
X0303315Y0100505D01*
X0303146Y0100433D01*
X0302975Y0100365D01*
X0302803Y0100300D01*
X0302629Y0100241D01*
X0302453Y0100185D01*
X0302276Y0100134D01*
X0302098Y0100087D01*
X0301919Y0100044D01*
X0301739Y0100006D01*
X0301558Y0099972D01*
X0301376Y0099943D01*
X0301194Y0099918D01*
X0301011Y0099898D01*
X0300828Y0099882D01*
X0300644Y0099871D01*
X0300460Y0099864D01*
X0300276Y0099862D01*
X0300092Y0099864D01*
X0299908Y0099871D01*
X0299724Y0099882D01*
X0299541Y0099898D01*
X0299358Y0099918D01*
X0299176Y0099943D01*
X0298994Y0099972D01*
X0298813Y0100006D01*
X0298633Y0100044D01*
X0298454Y0100087D01*
X0298276Y0100134D01*
X0298099Y0100185D01*
X0297923Y0100241D01*
X0297749Y0100300D01*
X0297577Y0100365D01*
X0297406Y0100433D01*
X0297237Y0100505D01*
X0297069Y0100582D01*
X0296904Y0100663D01*
X0296741Y0100748D01*
X0296579Y0100836D01*
X0296420Y0100929D01*
X0296264Y0101026D01*
X0296109Y0101126D01*
X0295957Y0101230D01*
X0295808Y0101338D01*
X0295662Y0101449D01*
X0295518Y0101564D01*
X0295377Y0101683D01*
X0295239Y0101805D01*
X0295104Y0101930D01*
X0294973Y0102059D01*
X0294844Y0102190D01*
X0294719Y0102325D01*
X0294597Y0102463D01*
X0294478Y0102604D01*
X0294363Y0102748D01*
X0294252Y0102894D01*
X0294144Y0103043D01*
X0294040Y0103195D01*
X0293940Y0103350D01*
X0293843Y0103506D01*
X0293750Y0103665D01*
X0293662Y0103827D01*
X0293577Y0103990D01*
X0293496Y0104155D01*
X0293419Y0104323D01*
X0293347Y0104492D01*
X0293279Y0104663D01*
X0293214Y0104835D01*
X0293155Y0105009D01*
X0293099Y0105185D01*
X0293048Y0105362D01*
X0293001Y0105540D01*
X0292958Y0105719D01*
X0292920Y0105899D01*
X0292886Y0106080D01*
X0292857Y0106262D01*
X0292832Y0106444D01*
X0292812Y0106627D01*
X0292796Y0106810D01*
X0292785Y0106994D01*
X0292778Y0107178D01*
X0292776Y0107362D01*
X0292776Y0079803D02*
X0292778Y0079987D01*
X0292785Y0080171D01*
X0292796Y0080355D01*
X0292812Y0080538D01*
X0292832Y0080721D01*
X0292857Y0080903D01*
X0292886Y0081085D01*
X0292920Y0081266D01*
X0292958Y0081446D01*
X0293001Y0081625D01*
X0293048Y0081803D01*
X0293099Y0081980D01*
X0293155Y0082156D01*
X0293214Y0082330D01*
X0293279Y0082502D01*
X0293347Y0082673D01*
X0293419Y0082842D01*
X0293496Y0083010D01*
X0293577Y0083175D01*
X0293662Y0083338D01*
X0293750Y0083500D01*
X0293843Y0083659D01*
X0293940Y0083815D01*
X0294040Y0083970D01*
X0294144Y0084122D01*
X0294252Y0084271D01*
X0294363Y0084417D01*
X0294478Y0084561D01*
X0294597Y0084702D01*
X0294719Y0084840D01*
X0294844Y0084975D01*
X0294973Y0085106D01*
X0295104Y0085235D01*
X0295239Y0085360D01*
X0295377Y0085482D01*
X0295518Y0085601D01*
X0295662Y0085716D01*
X0295808Y0085827D01*
X0295957Y0085935D01*
X0296109Y0086039D01*
X0296264Y0086139D01*
X0296420Y0086236D01*
X0296579Y0086329D01*
X0296741Y0086417D01*
X0296904Y0086502D01*
X0297069Y0086583D01*
X0297237Y0086660D01*
X0297406Y0086732D01*
X0297577Y0086800D01*
X0297749Y0086865D01*
X0297923Y0086924D01*
X0298099Y0086980D01*
X0298276Y0087031D01*
X0298454Y0087078D01*
X0298633Y0087121D01*
X0298813Y0087159D01*
X0298994Y0087193D01*
X0299176Y0087222D01*
X0299358Y0087247D01*
X0299541Y0087267D01*
X0299724Y0087283D01*
X0299908Y0087294D01*
X0300092Y0087301D01*
X0300276Y0087303D01*
X0300460Y0087301D01*
X0300644Y0087294D01*
X0300828Y0087283D01*
X0301011Y0087267D01*
X0301194Y0087247D01*
X0301376Y0087222D01*
X0301558Y0087193D01*
X0301739Y0087159D01*
X0301919Y0087121D01*
X0302098Y0087078D01*
X0302276Y0087031D01*
X0302453Y0086980D01*
X0302629Y0086924D01*
X0302803Y0086865D01*
X0302975Y0086800D01*
X0303146Y0086732D01*
X0303315Y0086660D01*
X0303483Y0086583D01*
X0303648Y0086502D01*
X0303811Y0086417D01*
X0303973Y0086329D01*
X0304132Y0086236D01*
X0304288Y0086139D01*
X0304443Y0086039D01*
X0304595Y0085935D01*
X0304744Y0085827D01*
X0304890Y0085716D01*
X0305034Y0085601D01*
X0305175Y0085482D01*
X0305313Y0085360D01*
X0305448Y0085235D01*
X0305579Y0085106D01*
X0305708Y0084975D01*
X0305833Y0084840D01*
X0305955Y0084702D01*
X0306074Y0084561D01*
X0306189Y0084417D01*
X0306300Y0084271D01*
X0306408Y0084122D01*
X0306512Y0083970D01*
X0306612Y0083815D01*
X0306709Y0083659D01*
X0306802Y0083500D01*
X0306890Y0083338D01*
X0306975Y0083175D01*
X0307056Y0083010D01*
X0307133Y0082842D01*
X0307205Y0082673D01*
X0307273Y0082502D01*
X0307338Y0082330D01*
X0307397Y0082156D01*
X0307453Y0081980D01*
X0307504Y0081803D01*
X0307551Y0081625D01*
X0307594Y0081446D01*
X0307632Y0081266D01*
X0307666Y0081085D01*
X0307695Y0080903D01*
X0307720Y0080721D01*
X0307740Y0080538D01*
X0307756Y0080355D01*
X0307767Y0080171D01*
X0307774Y0079987D01*
X0307776Y0079803D01*
X0307774Y0079619D01*
X0307767Y0079435D01*
X0307756Y0079251D01*
X0307740Y0079068D01*
X0307720Y0078885D01*
X0307695Y0078703D01*
X0307666Y0078521D01*
X0307632Y0078340D01*
X0307594Y0078160D01*
X0307551Y0077981D01*
X0307504Y0077803D01*
X0307453Y0077626D01*
X0307397Y0077450D01*
X0307338Y0077276D01*
X0307273Y0077104D01*
X0307205Y0076933D01*
X0307133Y0076764D01*
X0307056Y0076596D01*
X0306975Y0076431D01*
X0306890Y0076268D01*
X0306802Y0076106D01*
X0306709Y0075947D01*
X0306612Y0075791D01*
X0306512Y0075636D01*
X0306408Y0075484D01*
X0306300Y0075335D01*
X0306189Y0075189D01*
X0306074Y0075045D01*
X0305955Y0074904D01*
X0305833Y0074766D01*
X0305708Y0074631D01*
X0305579Y0074500D01*
X0305448Y0074371D01*
X0305313Y0074246D01*
X0305175Y0074124D01*
X0305034Y0074005D01*
X0304890Y0073890D01*
X0304744Y0073779D01*
X0304595Y0073671D01*
X0304443Y0073567D01*
X0304288Y0073467D01*
X0304132Y0073370D01*
X0303973Y0073277D01*
X0303811Y0073189D01*
X0303648Y0073104D01*
X0303483Y0073023D01*
X0303315Y0072946D01*
X0303146Y0072874D01*
X0302975Y0072806D01*
X0302803Y0072741D01*
X0302629Y0072682D01*
X0302453Y0072626D01*
X0302276Y0072575D01*
X0302098Y0072528D01*
X0301919Y0072485D01*
X0301739Y0072447D01*
X0301558Y0072413D01*
X0301376Y0072384D01*
X0301194Y0072359D01*
X0301011Y0072339D01*
X0300828Y0072323D01*
X0300644Y0072312D01*
X0300460Y0072305D01*
X0300276Y0072303D01*
X0300092Y0072305D01*
X0299908Y0072312D01*
X0299724Y0072323D01*
X0299541Y0072339D01*
X0299358Y0072359D01*
X0299176Y0072384D01*
X0298994Y0072413D01*
X0298813Y0072447D01*
X0298633Y0072485D01*
X0298454Y0072528D01*
X0298276Y0072575D01*
X0298099Y0072626D01*
X0297923Y0072682D01*
X0297749Y0072741D01*
X0297577Y0072806D01*
X0297406Y0072874D01*
X0297237Y0072946D01*
X0297069Y0073023D01*
X0296904Y0073104D01*
X0296741Y0073189D01*
X0296579Y0073277D01*
X0296420Y0073370D01*
X0296264Y0073467D01*
X0296109Y0073567D01*
X0295957Y0073671D01*
X0295808Y0073779D01*
X0295662Y0073890D01*
X0295518Y0074005D01*
X0295377Y0074124D01*
X0295239Y0074246D01*
X0295104Y0074371D01*
X0294973Y0074500D01*
X0294844Y0074631D01*
X0294719Y0074766D01*
X0294597Y0074904D01*
X0294478Y0075045D01*
X0294363Y0075189D01*
X0294252Y0075335D01*
X0294144Y0075484D01*
X0294040Y0075636D01*
X0293940Y0075791D01*
X0293843Y0075947D01*
X0293750Y0076106D01*
X0293662Y0076268D01*
X0293577Y0076431D01*
X0293496Y0076596D01*
X0293419Y0076764D01*
X0293347Y0076933D01*
X0293279Y0077104D01*
X0293214Y0077276D01*
X0293155Y0077450D01*
X0293099Y0077626D01*
X0293048Y0077803D01*
X0293001Y0077981D01*
X0292958Y0078160D01*
X0292920Y0078340D01*
X0292886Y0078521D01*
X0292857Y0078703D01*
X0292832Y0078885D01*
X0292812Y0079068D01*
X0292796Y0079251D01*
X0292785Y0079435D01*
X0292778Y0079619D01*
X0292776Y0079803D01*
X0292776Y0015630D02*
X0292778Y0015814D01*
X0292785Y0015998D01*
X0292796Y0016182D01*
X0292812Y0016365D01*
X0292832Y0016548D01*
X0292857Y0016730D01*
X0292886Y0016912D01*
X0292920Y0017093D01*
X0292958Y0017273D01*
X0293001Y0017452D01*
X0293048Y0017630D01*
X0293099Y0017807D01*
X0293155Y0017983D01*
X0293214Y0018157D01*
X0293279Y0018329D01*
X0293347Y0018500D01*
X0293419Y0018669D01*
X0293496Y0018837D01*
X0293577Y0019002D01*
X0293662Y0019165D01*
X0293750Y0019327D01*
X0293843Y0019486D01*
X0293940Y0019642D01*
X0294040Y0019797D01*
X0294144Y0019949D01*
X0294252Y0020098D01*
X0294363Y0020244D01*
X0294478Y0020388D01*
X0294597Y0020529D01*
X0294719Y0020667D01*
X0294844Y0020802D01*
X0294973Y0020933D01*
X0295104Y0021062D01*
X0295239Y0021187D01*
X0295377Y0021309D01*
X0295518Y0021428D01*
X0295662Y0021543D01*
X0295808Y0021654D01*
X0295957Y0021762D01*
X0296109Y0021866D01*
X0296264Y0021966D01*
X0296420Y0022063D01*
X0296579Y0022156D01*
X0296741Y0022244D01*
X0296904Y0022329D01*
X0297069Y0022410D01*
X0297237Y0022487D01*
X0297406Y0022559D01*
X0297577Y0022627D01*
X0297749Y0022692D01*
X0297923Y0022751D01*
X0298099Y0022807D01*
X0298276Y0022858D01*
X0298454Y0022905D01*
X0298633Y0022948D01*
X0298813Y0022986D01*
X0298994Y0023020D01*
X0299176Y0023049D01*
X0299358Y0023074D01*
X0299541Y0023094D01*
X0299724Y0023110D01*
X0299908Y0023121D01*
X0300092Y0023128D01*
X0300276Y0023130D01*
X0300460Y0023128D01*
X0300644Y0023121D01*
X0300828Y0023110D01*
X0301011Y0023094D01*
X0301194Y0023074D01*
X0301376Y0023049D01*
X0301558Y0023020D01*
X0301739Y0022986D01*
X0301919Y0022948D01*
X0302098Y0022905D01*
X0302276Y0022858D01*
X0302453Y0022807D01*
X0302629Y0022751D01*
X0302803Y0022692D01*
X0302975Y0022627D01*
X0303146Y0022559D01*
X0303315Y0022487D01*
X0303483Y0022410D01*
X0303648Y0022329D01*
X0303811Y0022244D01*
X0303973Y0022156D01*
X0304132Y0022063D01*
X0304288Y0021966D01*
X0304443Y0021866D01*
X0304595Y0021762D01*
X0304744Y0021654D01*
X0304890Y0021543D01*
X0305034Y0021428D01*
X0305175Y0021309D01*
X0305313Y0021187D01*
X0305448Y0021062D01*
X0305579Y0020933D01*
X0305708Y0020802D01*
X0305833Y0020667D01*
X0305955Y0020529D01*
X0306074Y0020388D01*
X0306189Y0020244D01*
X0306300Y0020098D01*
X0306408Y0019949D01*
X0306512Y0019797D01*
X0306612Y0019642D01*
X0306709Y0019486D01*
X0306802Y0019327D01*
X0306890Y0019165D01*
X0306975Y0019002D01*
X0307056Y0018837D01*
X0307133Y0018669D01*
X0307205Y0018500D01*
X0307273Y0018329D01*
X0307338Y0018157D01*
X0307397Y0017983D01*
X0307453Y0017807D01*
X0307504Y0017630D01*
X0307551Y0017452D01*
X0307594Y0017273D01*
X0307632Y0017093D01*
X0307666Y0016912D01*
X0307695Y0016730D01*
X0307720Y0016548D01*
X0307740Y0016365D01*
X0307756Y0016182D01*
X0307767Y0015998D01*
X0307774Y0015814D01*
X0307776Y0015630D01*
X0307774Y0015446D01*
X0307767Y0015262D01*
X0307756Y0015078D01*
X0307740Y0014895D01*
X0307720Y0014712D01*
X0307695Y0014530D01*
X0307666Y0014348D01*
X0307632Y0014167D01*
X0307594Y0013987D01*
X0307551Y0013808D01*
X0307504Y0013630D01*
X0307453Y0013453D01*
X0307397Y0013277D01*
X0307338Y0013103D01*
X0307273Y0012931D01*
X0307205Y0012760D01*
X0307133Y0012591D01*
X0307056Y0012423D01*
X0306975Y0012258D01*
X0306890Y0012095D01*
X0306802Y0011933D01*
X0306709Y0011774D01*
X0306612Y0011618D01*
X0306512Y0011463D01*
X0306408Y0011311D01*
X0306300Y0011162D01*
X0306189Y0011016D01*
X0306074Y0010872D01*
X0305955Y0010731D01*
X0305833Y0010593D01*
X0305708Y0010458D01*
X0305579Y0010327D01*
X0305448Y0010198D01*
X0305313Y0010073D01*
X0305175Y0009951D01*
X0305034Y0009832D01*
X0304890Y0009717D01*
X0304744Y0009606D01*
X0304595Y0009498D01*
X0304443Y0009394D01*
X0304288Y0009294D01*
X0304132Y0009197D01*
X0303973Y0009104D01*
X0303811Y0009016D01*
X0303648Y0008931D01*
X0303483Y0008850D01*
X0303315Y0008773D01*
X0303146Y0008701D01*
X0302975Y0008633D01*
X0302803Y0008568D01*
X0302629Y0008509D01*
X0302453Y0008453D01*
X0302276Y0008402D01*
X0302098Y0008355D01*
X0301919Y0008312D01*
X0301739Y0008274D01*
X0301558Y0008240D01*
X0301376Y0008211D01*
X0301194Y0008186D01*
X0301011Y0008166D01*
X0300828Y0008150D01*
X0300644Y0008139D01*
X0300460Y0008132D01*
X0300276Y0008130D01*
X0300092Y0008132D01*
X0299908Y0008139D01*
X0299724Y0008150D01*
X0299541Y0008166D01*
X0299358Y0008186D01*
X0299176Y0008211D01*
X0298994Y0008240D01*
X0298813Y0008274D01*
X0298633Y0008312D01*
X0298454Y0008355D01*
X0298276Y0008402D01*
X0298099Y0008453D01*
X0297923Y0008509D01*
X0297749Y0008568D01*
X0297577Y0008633D01*
X0297406Y0008701D01*
X0297237Y0008773D01*
X0297069Y0008850D01*
X0296904Y0008931D01*
X0296741Y0009016D01*
X0296579Y0009104D01*
X0296420Y0009197D01*
X0296264Y0009294D01*
X0296109Y0009394D01*
X0295957Y0009498D01*
X0295808Y0009606D01*
X0295662Y0009717D01*
X0295518Y0009832D01*
X0295377Y0009951D01*
X0295239Y0010073D01*
X0295104Y0010198D01*
X0294973Y0010327D01*
X0294844Y0010458D01*
X0294719Y0010593D01*
X0294597Y0010731D01*
X0294478Y0010872D01*
X0294363Y0011016D01*
X0294252Y0011162D01*
X0294144Y0011311D01*
X0294040Y0011463D01*
X0293940Y0011618D01*
X0293843Y0011774D01*
X0293750Y0011933D01*
X0293662Y0012095D01*
X0293577Y0012258D01*
X0293496Y0012423D01*
X0293419Y0012591D01*
X0293347Y0012760D01*
X0293279Y0012931D01*
X0293214Y0013103D01*
X0293155Y0013277D01*
X0293099Y0013453D01*
X0293048Y0013630D01*
X0293001Y0013808D01*
X0292958Y0013987D01*
X0292920Y0014167D01*
X0292886Y0014348D01*
X0292857Y0014530D01*
X0292832Y0014712D01*
X0292812Y0014895D01*
X0292796Y0015078D01*
X0292785Y0015262D01*
X0292778Y0015446D01*
X0292776Y0015630D01*
X0292776Y0150669D02*
X0292778Y0150853D01*
X0292785Y0151037D01*
X0292796Y0151221D01*
X0292812Y0151404D01*
X0292832Y0151587D01*
X0292857Y0151769D01*
X0292886Y0151951D01*
X0292920Y0152132D01*
X0292958Y0152312D01*
X0293001Y0152491D01*
X0293048Y0152669D01*
X0293099Y0152846D01*
X0293155Y0153022D01*
X0293214Y0153196D01*
X0293279Y0153368D01*
X0293347Y0153539D01*
X0293419Y0153708D01*
X0293496Y0153876D01*
X0293577Y0154041D01*
X0293662Y0154204D01*
X0293750Y0154366D01*
X0293843Y0154525D01*
X0293940Y0154681D01*
X0294040Y0154836D01*
X0294144Y0154988D01*
X0294252Y0155137D01*
X0294363Y0155283D01*
X0294478Y0155427D01*
X0294597Y0155568D01*
X0294719Y0155706D01*
X0294844Y0155841D01*
X0294973Y0155972D01*
X0295104Y0156101D01*
X0295239Y0156226D01*
X0295377Y0156348D01*
X0295518Y0156467D01*
X0295662Y0156582D01*
X0295808Y0156693D01*
X0295957Y0156801D01*
X0296109Y0156905D01*
X0296264Y0157005D01*
X0296420Y0157102D01*
X0296579Y0157195D01*
X0296741Y0157283D01*
X0296904Y0157368D01*
X0297069Y0157449D01*
X0297237Y0157526D01*
X0297406Y0157598D01*
X0297577Y0157666D01*
X0297749Y0157731D01*
X0297923Y0157790D01*
X0298099Y0157846D01*
X0298276Y0157897D01*
X0298454Y0157944D01*
X0298633Y0157987D01*
X0298813Y0158025D01*
X0298994Y0158059D01*
X0299176Y0158088D01*
X0299358Y0158113D01*
X0299541Y0158133D01*
X0299724Y0158149D01*
X0299908Y0158160D01*
X0300092Y0158167D01*
X0300276Y0158169D01*
X0300460Y0158167D01*
X0300644Y0158160D01*
X0300828Y0158149D01*
X0301011Y0158133D01*
X0301194Y0158113D01*
X0301376Y0158088D01*
X0301558Y0158059D01*
X0301739Y0158025D01*
X0301919Y0157987D01*
X0302098Y0157944D01*
X0302276Y0157897D01*
X0302453Y0157846D01*
X0302629Y0157790D01*
X0302803Y0157731D01*
X0302975Y0157666D01*
X0303146Y0157598D01*
X0303315Y0157526D01*
X0303483Y0157449D01*
X0303648Y0157368D01*
X0303811Y0157283D01*
X0303973Y0157195D01*
X0304132Y0157102D01*
X0304288Y0157005D01*
X0304443Y0156905D01*
X0304595Y0156801D01*
X0304744Y0156693D01*
X0304890Y0156582D01*
X0305034Y0156467D01*
X0305175Y0156348D01*
X0305313Y0156226D01*
X0305448Y0156101D01*
X0305579Y0155972D01*
X0305708Y0155841D01*
X0305833Y0155706D01*
X0305955Y0155568D01*
X0306074Y0155427D01*
X0306189Y0155283D01*
X0306300Y0155137D01*
X0306408Y0154988D01*
X0306512Y0154836D01*
X0306612Y0154681D01*
X0306709Y0154525D01*
X0306802Y0154366D01*
X0306890Y0154204D01*
X0306975Y0154041D01*
X0307056Y0153876D01*
X0307133Y0153708D01*
X0307205Y0153539D01*
X0307273Y0153368D01*
X0307338Y0153196D01*
X0307397Y0153022D01*
X0307453Y0152846D01*
X0307504Y0152669D01*
X0307551Y0152491D01*
X0307594Y0152312D01*
X0307632Y0152132D01*
X0307666Y0151951D01*
X0307695Y0151769D01*
X0307720Y0151587D01*
X0307740Y0151404D01*
X0307756Y0151221D01*
X0307767Y0151037D01*
X0307774Y0150853D01*
X0307776Y0150669D01*
X0307774Y0150485D01*
X0307767Y0150301D01*
X0307756Y0150117D01*
X0307740Y0149934D01*
X0307720Y0149751D01*
X0307695Y0149569D01*
X0307666Y0149387D01*
X0307632Y0149206D01*
X0307594Y0149026D01*
X0307551Y0148847D01*
X0307504Y0148669D01*
X0307453Y0148492D01*
X0307397Y0148316D01*
X0307338Y0148142D01*
X0307273Y0147970D01*
X0307205Y0147799D01*
X0307133Y0147630D01*
X0307056Y0147462D01*
X0306975Y0147297D01*
X0306890Y0147134D01*
X0306802Y0146972D01*
X0306709Y0146813D01*
X0306612Y0146657D01*
X0306512Y0146502D01*
X0306408Y0146350D01*
X0306300Y0146201D01*
X0306189Y0146055D01*
X0306074Y0145911D01*
X0305955Y0145770D01*
X0305833Y0145632D01*
X0305708Y0145497D01*
X0305579Y0145366D01*
X0305448Y0145237D01*
X0305313Y0145112D01*
X0305175Y0144990D01*
X0305034Y0144871D01*
X0304890Y0144756D01*
X0304744Y0144645D01*
X0304595Y0144537D01*
X0304443Y0144433D01*
X0304288Y0144333D01*
X0304132Y0144236D01*
X0303973Y0144143D01*
X0303811Y0144055D01*
X0303648Y0143970D01*
X0303483Y0143889D01*
X0303315Y0143812D01*
X0303146Y0143740D01*
X0302975Y0143672D01*
X0302803Y0143607D01*
X0302629Y0143548D01*
X0302453Y0143492D01*
X0302276Y0143441D01*
X0302098Y0143394D01*
X0301919Y0143351D01*
X0301739Y0143313D01*
X0301558Y0143279D01*
X0301376Y0143250D01*
X0301194Y0143225D01*
X0301011Y0143205D01*
X0300828Y0143189D01*
X0300644Y0143178D01*
X0300460Y0143171D01*
X0300276Y0143169D01*
X0300092Y0143171D01*
X0299908Y0143178D01*
X0299724Y0143189D01*
X0299541Y0143205D01*
X0299358Y0143225D01*
X0299176Y0143250D01*
X0298994Y0143279D01*
X0298813Y0143313D01*
X0298633Y0143351D01*
X0298454Y0143394D01*
X0298276Y0143441D01*
X0298099Y0143492D01*
X0297923Y0143548D01*
X0297749Y0143607D01*
X0297577Y0143672D01*
X0297406Y0143740D01*
X0297237Y0143812D01*
X0297069Y0143889D01*
X0296904Y0143970D01*
X0296741Y0144055D01*
X0296579Y0144143D01*
X0296420Y0144236D01*
X0296264Y0144333D01*
X0296109Y0144433D01*
X0295957Y0144537D01*
X0295808Y0144645D01*
X0295662Y0144756D01*
X0295518Y0144871D01*
X0295377Y0144990D01*
X0295239Y0145112D01*
X0295104Y0145237D01*
X0294973Y0145366D01*
X0294844Y0145497D01*
X0294719Y0145632D01*
X0294597Y0145770D01*
X0294478Y0145911D01*
X0294363Y0146055D01*
X0294252Y0146201D01*
X0294144Y0146350D01*
X0294040Y0146502D01*
X0293940Y0146657D01*
X0293843Y0146813D01*
X0293750Y0146972D01*
X0293662Y0147134D01*
X0293577Y0147297D01*
X0293496Y0147462D01*
X0293419Y0147630D01*
X0293347Y0147799D01*
X0293279Y0147970D01*
X0293214Y0148142D01*
X0293155Y0148316D01*
X0293099Y0148492D01*
X0293048Y0148669D01*
X0293001Y0148847D01*
X0292958Y0149026D01*
X0292920Y0149206D01*
X0292886Y0149387D01*
X0292857Y0149569D01*
X0292832Y0149751D01*
X0292812Y0149934D01*
X0292796Y0150117D01*
X0292785Y0150301D01*
X0292778Y0150485D01*
X0292776Y0150669D01*
D11*
X0279331Y0152244D03*
X0279803Y0139173D03*
X0279803Y0129173D03*
X0279803Y0119173D03*
X0244764Y0119173D03*
X0244764Y0129173D03*
X0244764Y0139173D03*
X0239331Y0152244D03*
X0209724Y0139173D03*
X0209724Y0129173D03*
X0209724Y0119173D03*
X0179803Y0119331D03*
X0179803Y0129331D03*
X0179803Y0139331D03*
X0150000Y0157165D03*
X0140000Y0157165D03*
X0130000Y0157165D03*
X0120000Y0157165D03*
X0110000Y0157165D03*
X0100000Y0157165D03*
X0090000Y0157165D03*
X0080000Y0157165D03*
X0070000Y0157165D03*
X0060000Y0157165D03*
X0050000Y0157165D03*
X0040000Y0157165D03*
X0040000Y0087165D03*
X0050000Y0087165D03*
X0060000Y0087165D03*
X0070000Y0087165D03*
X0080000Y0087165D03*
X0090000Y0087165D03*
X0100000Y0087165D03*
X0110000Y0087165D03*
X0120000Y0087165D03*
X0130000Y0087165D03*
X0140000Y0087165D03*
X0150000Y0087165D03*
X0178976Y0062874D03*
X0178976Y0052874D03*
X0118976Y0044449D03*
X0118976Y0034449D03*
X0118976Y0024449D03*
X0118976Y0014449D03*
D12*
X0179803Y0109331D03*
D13*
X0044804Y0059489D02*
X0044804Y0056653D01*
X0039212Y0056653D01*
X0039212Y0059489D01*
X0044804Y0059489D01*
X0044804Y0056967D02*
X0039212Y0056967D01*
X0039212Y0057281D02*
X0044804Y0057281D01*
X0044804Y0057595D02*
X0039212Y0057595D01*
X0039212Y0057909D02*
X0044804Y0057909D01*
X0044804Y0058223D02*
X0039212Y0058223D01*
X0039212Y0058537D02*
X0044804Y0058537D01*
X0044804Y0058851D02*
X0039212Y0058851D01*
X0039212Y0059165D02*
X0044804Y0059165D01*
X0044804Y0059479D02*
X0039212Y0059479D01*
X0044804Y0055158D02*
X0044804Y0052322D01*
X0039212Y0052322D01*
X0039212Y0055158D01*
X0044804Y0055158D01*
X0044804Y0052636D02*
X0039212Y0052636D01*
X0039212Y0052950D02*
X0044804Y0052950D01*
X0044804Y0053264D02*
X0039212Y0053264D01*
X0039212Y0053578D02*
X0044804Y0053578D01*
X0044804Y0053892D02*
X0039212Y0053892D01*
X0039212Y0054206D02*
X0044804Y0054206D01*
X0044804Y0054520D02*
X0039212Y0054520D01*
X0039212Y0054834D02*
X0044804Y0054834D01*
X0044804Y0055148D02*
X0039212Y0055148D01*
X0044804Y0050827D02*
X0044804Y0047991D01*
X0039212Y0047991D01*
X0039212Y0050827D01*
X0044804Y0050827D01*
X0044804Y0048305D02*
X0039212Y0048305D01*
X0039212Y0048619D02*
X0044804Y0048619D01*
X0044804Y0048933D02*
X0039212Y0048933D01*
X0039212Y0049247D02*
X0044804Y0049247D01*
X0044804Y0049561D02*
X0039212Y0049561D01*
X0039212Y0049875D02*
X0044804Y0049875D01*
X0044804Y0050189D02*
X0039212Y0050189D01*
X0039212Y0050503D02*
X0044804Y0050503D01*
X0044804Y0050817D02*
X0039212Y0050817D01*
X0044804Y0046497D02*
X0044804Y0043661D01*
X0039212Y0043661D01*
X0039212Y0046497D01*
X0044804Y0046497D01*
X0044804Y0043975D02*
X0039212Y0043975D01*
X0039212Y0044289D02*
X0044804Y0044289D01*
X0044804Y0044603D02*
X0039212Y0044603D01*
X0039212Y0044917D02*
X0044804Y0044917D01*
X0044804Y0045231D02*
X0039212Y0045231D01*
X0039212Y0045545D02*
X0044804Y0045545D01*
X0044804Y0045859D02*
X0039212Y0045859D01*
X0039212Y0046173D02*
X0044804Y0046173D01*
X0044804Y0046487D02*
X0039212Y0046487D01*
X0044804Y0042166D02*
X0044804Y0039330D01*
X0039212Y0039330D01*
X0039212Y0042166D01*
X0044804Y0042166D01*
X0044804Y0039644D02*
X0039212Y0039644D01*
X0039212Y0039958D02*
X0044804Y0039958D01*
X0044804Y0040272D02*
X0039212Y0040272D01*
X0039212Y0040586D02*
X0044804Y0040586D01*
X0044804Y0040900D02*
X0039212Y0040900D01*
X0039212Y0041214D02*
X0044804Y0041214D01*
X0044804Y0041528D02*
X0039212Y0041528D01*
X0039212Y0041842D02*
X0044804Y0041842D01*
X0044804Y0042156D02*
X0039212Y0042156D01*
X0044804Y0037835D02*
X0044804Y0034999D01*
X0039212Y0034999D01*
X0039212Y0037835D01*
X0044804Y0037835D01*
X0044804Y0035313D02*
X0039212Y0035313D01*
X0039212Y0035627D02*
X0044804Y0035627D01*
X0044804Y0035941D02*
X0039212Y0035941D01*
X0039212Y0036255D02*
X0044804Y0036255D01*
X0044804Y0036569D02*
X0039212Y0036569D01*
X0039212Y0036883D02*
X0044804Y0036883D01*
X0044804Y0037197D02*
X0039212Y0037197D01*
X0039212Y0037511D02*
X0044804Y0037511D01*
X0044804Y0037825D02*
X0039212Y0037825D01*
X0044804Y0033505D02*
X0044804Y0030669D01*
X0039212Y0030669D01*
X0039212Y0033505D01*
X0044804Y0033505D01*
X0044804Y0030983D02*
X0039212Y0030983D01*
X0039212Y0031297D02*
X0044804Y0031297D01*
X0044804Y0031611D02*
X0039212Y0031611D01*
X0039212Y0031925D02*
X0044804Y0031925D01*
X0044804Y0032239D02*
X0039212Y0032239D01*
X0039212Y0032553D02*
X0044804Y0032553D01*
X0044804Y0032867D02*
X0039212Y0032867D01*
X0039212Y0033181D02*
X0044804Y0033181D01*
X0044804Y0033495D02*
X0039212Y0033495D01*
X0044804Y0029174D02*
X0044804Y0026338D01*
X0039212Y0026338D01*
X0039212Y0029174D01*
X0044804Y0029174D01*
X0044804Y0026652D02*
X0039212Y0026652D01*
X0039212Y0026966D02*
X0044804Y0026966D01*
X0044804Y0027280D02*
X0039212Y0027280D01*
X0039212Y0027594D02*
X0044804Y0027594D01*
X0044804Y0027908D02*
X0039212Y0027908D01*
X0039212Y0028222D02*
X0044804Y0028222D01*
X0044804Y0028536D02*
X0039212Y0028536D01*
X0039212Y0028850D02*
X0044804Y0028850D01*
X0044804Y0029164D02*
X0039212Y0029164D01*
D14*
X0055896Y0020955D02*
X0055896Y0015817D01*
X0048592Y0015817D01*
X0048592Y0020955D01*
X0055896Y0020955D01*
X0055896Y0016387D02*
X0048592Y0016387D01*
X0048592Y0016957D02*
X0055896Y0016957D01*
X0055896Y0017527D02*
X0048592Y0017527D01*
X0048592Y0018097D02*
X0055896Y0018097D01*
X0055896Y0018667D02*
X0048592Y0018667D01*
X0048592Y0019237D02*
X0055896Y0019237D01*
X0055896Y0019807D02*
X0048592Y0019807D01*
X0048592Y0020377D02*
X0055896Y0020377D01*
X0055896Y0020947D02*
X0048592Y0020947D01*
X0023219Y0020955D02*
X0023219Y0015817D01*
X0015915Y0015817D01*
X0015915Y0020955D01*
X0023219Y0020955D01*
X0023219Y0016387D02*
X0015915Y0016387D01*
X0015915Y0016957D02*
X0023219Y0016957D01*
X0023219Y0017527D02*
X0015915Y0017527D01*
X0015915Y0018097D02*
X0023219Y0018097D01*
X0023219Y0018667D02*
X0015915Y0018667D01*
X0015915Y0019237D02*
X0023219Y0019237D01*
X0023219Y0019807D02*
X0015915Y0019807D01*
X0015915Y0020377D02*
X0023219Y0020377D01*
X0023219Y0020947D02*
X0015915Y0020947D01*
X0023219Y0069951D02*
X0023219Y0075089D01*
X0023219Y0069951D02*
X0015915Y0069951D01*
X0015915Y0075089D01*
X0023219Y0075089D01*
X0023219Y0070521D02*
X0015915Y0070521D01*
X0015915Y0071091D02*
X0023219Y0071091D01*
X0023219Y0071661D02*
X0015915Y0071661D01*
X0015915Y0072231D02*
X0023219Y0072231D01*
X0023219Y0072801D02*
X0015915Y0072801D01*
X0015915Y0073371D02*
X0023219Y0073371D01*
X0023219Y0073941D02*
X0015915Y0073941D01*
X0015915Y0074511D02*
X0023219Y0074511D01*
X0023219Y0075081D02*
X0015915Y0075081D01*
X0055896Y0075089D02*
X0055896Y0069951D01*
X0048592Y0069951D01*
X0048592Y0075089D01*
X0055896Y0075089D01*
X0055896Y0070521D02*
X0048592Y0070521D01*
X0048592Y0071091D02*
X0055896Y0071091D01*
X0055896Y0071661D02*
X0048592Y0071661D01*
X0048592Y0072231D02*
X0055896Y0072231D01*
X0055896Y0072801D02*
X0048592Y0072801D01*
X0048592Y0073371D02*
X0055896Y0073371D01*
X0055896Y0073941D02*
X0048592Y0073941D01*
X0048592Y0074511D02*
X0055896Y0074511D01*
X0055896Y0075081D02*
X0048592Y0075081D01*
D15*
X0178976Y0074480D02*
X0178976Y0062874D01*
X0178976Y0083740D01*
X0190039Y0083740D01*
X0190039Y0139252D01*
X0179803Y0139331D02*
X0209724Y0139173D01*
X0244764Y0139173D01*
X0279803Y0139173D01*
X0179791Y0139331D02*
X0159602Y0157157D01*
X0150039Y0157157D01*
D16*
X0239303Y0152224D02*
X0244764Y0147157D01*
X0244764Y0139252D01*
D17*
X0178976Y0062874D02*
X0169961Y0062874D01*
X0169961Y0008543D01*
X0069567Y0008543D01*
X0069567Y0045079D01*
X0042008Y0045079D01*
D18*
X0209724Y0129173D02*
X0244764Y0129173D01*
X0279803Y0129173D01*
D19*
X0279815Y0129193D02*
X0285709Y0129193D01*
X0285709Y0152224D01*
X0273807Y0152224D01*
X0273898Y0152244D02*
X0251063Y0152244D01*
X0251063Y0158937D01*
X0171929Y0158937D01*
X0171929Y0152638D01*
X0157362Y0149094D02*
X0130028Y0149094D01*
X0130028Y0157177D01*
X0119992Y0129327D02*
X0179795Y0129327D01*
X0179803Y0119327D02*
X0130012Y0119327D01*
X0130012Y0087169D01*
X0130031Y0087193D02*
X0130031Y0024457D01*
X0118976Y0024457D01*
X0118976Y0014449D02*
X0110118Y0014449D01*
X0110118Y0051063D01*
X0120000Y0051063D01*
X0120000Y0087165D01*
X0119992Y0087122D02*
X0119992Y0129327D01*
X0110000Y0087165D02*
X0110000Y0062874D01*
X0106969Y0062874D01*
X0106969Y0053740D01*
X0042008Y0053740D01*
X0042008Y0049409D02*
X0036496Y0049409D01*
X0036496Y0080984D01*
X0050039Y0080984D01*
X0050039Y0087126D01*
X0040043Y0087201D02*
X0033740Y0087201D01*
X0033740Y0040752D01*
X0042008Y0040752D01*
X0042008Y0032087D02*
X0065630Y0032087D01*
X0065630Y0040039D01*
X0065630Y0057756D02*
X0060039Y0057756D01*
X0060039Y0087165D01*
D20*
X0054213Y0077835D03*
X0051063Y0077835D03*
X0021142Y0077835D03*
X0017992Y0077835D03*
X0065630Y0057756D03*
X0065630Y0040039D03*
X0053425Y0013268D03*
X0050276Y0013268D03*
X0019961Y0013268D03*
X0016811Y0013268D03*
X0157362Y0149094D03*
X0171929Y0152638D03*
D21*
X0054213Y0077835D02*
X0051063Y0077835D01*
X0052244Y0077835D01*
X0052244Y0072559D01*
X0021142Y0077835D02*
X0017992Y0077835D01*
X0019567Y0077835D01*
X0019567Y0072520D01*
X0019961Y0036378D02*
X0019961Y0013268D01*
X0019961Y0018346D01*
X0019567Y0018346D01*
X0019961Y0013268D02*
X0016811Y0013268D01*
X0050276Y0013268D02*
X0053425Y0013268D01*
X0052244Y0013268D01*
X0052244Y0018386D01*
X0042008Y0036378D02*
X0019961Y0036378D01*
M02*
